M48
;DRILL file {Pcbnew (2013-07-07 BZR 4022)-stable} date 01/06/2014 18:17:03
;FORMAT={-:-/ absolute / inch / decimal}
FMAT,2
INCH,TZ
T1C0.024
T2C0.025
T3C0.032
T4C0.067
%
G90
G05
M72
T2
X7.7717Y-3.6918
X8.0412Y-4.1049
X8.1348Y-3.5323
X8.3528Y-4.1387
X8.3791Y-3.0025
X8.5164Y-4.1783
X8.6628Y-3.6722
X8.8161Y-3.9089
T3
X7.33Y-3.22
X7.33Y-3.32
X7.33Y-3.42
X7.33Y-3.52
X7.33Y-3.62
X7.34Y-4.14
X7.34Y-4.31
X7.34Y-4.435
X7.34Y-4.535
X7.34Y-4.635
X7.34Y-4.735
X7.43Y-3.19
X7.44Y-4.14
X7.44Y-4.31
X7.475Y-4.435
X7.475Y-4.535
X7.475Y-4.635
X7.475Y-4.735
X7.49Y-3.36
X7.49Y-3.46
X7.53Y-3.19
X7.54Y-4.14
X7.54Y-4.31
X7.605Y-4.435
X7.605Y-4.535
X7.605Y-4.635
X7.605Y-4.735
X7.64Y-4.14
X7.64Y-4.31
X7.67Y-3.06
X7.67Y-3.36
X7.67Y-3.47
X7.67Y-3.77
X7.77Y-3.06
X7.77Y-3.36
X7.77Y-3.47
X7.77Y-3.77
X7.77Y-4.14
X7.77Y-4.26
X7.775Y-4.
X7.775Y-4.6
X7.87Y-3.06
X7.87Y-3.36
X7.87Y-3.47
X7.87Y-3.77
X7.875Y-2.945
X7.875Y-3.875
X7.875Y-4.
X7.875Y-4.6
X7.875Y-4.765
X7.97Y-3.06
X7.97Y-3.36
X7.97Y-3.47
X7.97Y-3.77
X7.975Y-2.945
X7.975Y-3.875
X7.975Y-4.
X7.975Y-4.6
X7.975Y-4.765
X8.07Y-3.06
X8.07Y-3.36
X8.07Y-3.47
X8.07Y-3.77
X8.075Y-2.945
X8.075Y-3.875
X8.075Y-4.
X8.075Y-4.6
X8.075Y-4.765
X8.17Y-3.06
X8.17Y-3.36
X8.17Y-3.47
X8.17Y-3.77
X8.17Y-4.14
X8.17Y-4.26
X8.175Y-2.945
X8.175Y-3.875
X8.175Y-4.
X8.175Y-4.6
X8.175Y-4.765
X8.27Y-3.06
X8.27Y-3.36
X8.27Y-3.47
X8.27Y-3.77
X8.275Y-2.945
X8.275Y-3.875
X8.275Y-4.
X8.275Y-4.6
X8.275Y-4.765
X8.28Y-4.2
X8.28Y-4.3
X8.28Y-4.4
X8.28Y-4.5
X8.37Y-3.06
X8.37Y-3.36
X8.37Y-3.47
X8.37Y-3.77
X8.375Y-2.945
X8.375Y-3.875
X8.375Y-4.
X8.375Y-4.6
X8.375Y-4.765
X8.425Y-4.5
X8.435Y-4.1
X8.47Y-3.06
X8.47Y-3.36
X8.47Y-3.47
X8.47Y-3.77
X8.475Y-2.945
X8.475Y-3.875
X8.475Y-4.
X8.475Y-4.6
X8.475Y-4.765
X8.525Y-4.5
X8.535Y-4.1
X8.57Y-3.06
X8.57Y-3.36
X8.57Y-3.47
X8.57Y-3.77
X8.575Y-2.945
X8.575Y-3.875
X8.575Y-4.
X8.575Y-4.6
X8.575Y-4.765
X8.64Y-4.1
X8.64Y-4.5
X8.67Y-3.06
X8.67Y-3.36
X8.67Y-3.47
X8.67Y-3.77
X8.675Y-4.
X8.675Y-4.6
X8.73Y-4.1
X8.73Y-4.5
X8.77Y-3.06
X8.77Y-3.36
X8.77Y-3.47
X8.77Y-3.77
X8.775Y-4.
X8.775Y-4.6
X8.82Y-4.15
X8.82Y-4.25
X8.82Y-4.35
X8.82Y-4.45
X8.875Y-4.
X8.875Y-4.6
X8.94Y-3.16
X8.94Y-3.56
X9.11Y-3.22
X9.11Y-3.32
X9.11Y-3.42
X9.11Y-3.52
X9.11Y-3.62
X9.12Y-4.15
X9.12Y-4.25
X9.12Y-4.35
X9.12Y-4.45
X9.135Y-4.655
X9.135Y-4.755
T4
X8.3156Y-3.6527
X9.0112Y-3.2671
T1
X7.3022Y-3.0554G85X7.3022Y-3.0396
G05
X7.3291Y-3.7796G85X7.3291Y-3.7835
G05
X7.3291Y-3.9765G85X7.3291Y-3.9804
G05
X7.3435Y-2.9491G85X7.3396Y-2.9491
G05
X7.4354Y-3.7422G85X7.4196Y-3.7422
G05
X7.4354Y-4.0178G85X7.4196Y-4.0178
G05
X7.5404Y-2.9491G85X7.5365Y-2.9491
G05
X7.5778Y-3.0554G85X7.5778Y-3.0396
G05
X8.8722Y-3.0554G85X8.8722Y-3.0396
G05
X8.9135Y-2.9491G85X8.9096Y-2.9491
G05
X9.0146Y-3.7422G85X9.0304Y-3.7422
G05
X9.0146Y-4.0178G85X9.0304Y-4.0178
G05
X9.1104Y-2.9491G85X9.1065Y-2.9491
G05
X9.1209Y-3.7835G85X9.1209Y-3.7796
G05
X9.1209Y-3.9804G85X9.1209Y-3.9765
G05
X9.1478Y-3.0554G85X9.1478Y-3.0396
G05
T0
M30
