G04 (created by PCBNEW (2013-07-07 BZR 4022)-stable) date 01/06/2014 18:16:58*
%MOIN*%
G04 Gerber Fmt 3.4, Leading zero omitted, Abs format*
%FSLAX34Y34*%
G01*
G70*
G90*
G04 APERTURE LIST*
%ADD10C,0.00590551*%
%ADD11R,0.055X0.055*%
%ADD12C,0.055*%
%ADD13C,0.06*%
%ADD14R,0.065X0.065*%
%ADD15C,0.065*%
%ADD16C,0.0590551*%
%ADD17R,0.0590551X0.0590551*%
%ADD18C,0.0787402*%
%ADD19C,0.035*%
%ADD20C,0.01*%
G04 APERTURE END LIST*
G54D10*
G54D11*
X78750Y-29450D03*
G54D12*
X79750Y-29450D03*
X80750Y-29450D03*
X81750Y-29450D03*
X82750Y-29450D03*
X83750Y-29450D03*
X84750Y-29450D03*
X85750Y-29450D03*
G54D11*
X85750Y-47650D03*
G54D12*
X84750Y-47650D03*
X83750Y-47650D03*
X82750Y-47650D03*
X81750Y-47650D03*
X80750Y-47650D03*
X79750Y-47650D03*
X78750Y-47650D03*
G54D13*
X89400Y-31600D03*
X89400Y-35600D03*
X81700Y-42600D03*
X77700Y-42600D03*
G54D11*
X76700Y-33600D03*
G54D12*
X77700Y-33600D03*
X78700Y-33600D03*
X79700Y-33600D03*
X80700Y-33600D03*
X81700Y-33600D03*
X82700Y-33600D03*
X83700Y-33600D03*
X84700Y-33600D03*
X85700Y-33600D03*
X86700Y-33600D03*
X87700Y-33600D03*
X87700Y-30600D03*
X86700Y-30600D03*
X85700Y-30600D03*
X84700Y-30600D03*
X83700Y-30600D03*
X82700Y-30600D03*
X81700Y-30600D03*
X80700Y-30600D03*
X79700Y-30600D03*
X78700Y-30600D03*
X77700Y-30600D03*
X76700Y-30600D03*
G54D14*
X74900Y-34600D03*
G54D15*
X74900Y-33600D03*
G54D12*
X74300Y-31900D03*
X75300Y-31900D03*
G54D11*
X85750Y-38750D03*
G54D12*
X84750Y-38750D03*
X83750Y-38750D03*
X82750Y-38750D03*
X81750Y-38750D03*
X80750Y-38750D03*
X79750Y-38750D03*
X78750Y-38750D03*
G54D11*
X77750Y-46000D03*
G54D12*
X78750Y-46000D03*
X79750Y-46000D03*
X80750Y-46000D03*
X81750Y-46000D03*
X82750Y-46000D03*
X83750Y-46000D03*
X84750Y-46000D03*
X85750Y-46000D03*
X86750Y-46000D03*
X87750Y-46000D03*
X88750Y-46000D03*
G54D11*
X88750Y-40000D03*
G54D12*
X87750Y-40000D03*
X86750Y-40000D03*
X85750Y-40000D03*
X84750Y-40000D03*
X83750Y-40000D03*
X82750Y-40000D03*
X81750Y-40000D03*
X80750Y-40000D03*
X79750Y-40000D03*
X78750Y-40000D03*
X77750Y-40000D03*
G54D11*
X76700Y-37700D03*
G54D12*
X77700Y-37700D03*
X78700Y-37700D03*
X79700Y-37700D03*
X80700Y-37700D03*
X81700Y-37700D03*
X82700Y-37700D03*
X83700Y-37700D03*
X84700Y-37700D03*
X85700Y-37700D03*
X86700Y-37700D03*
X87700Y-37700D03*
X87700Y-34700D03*
X86700Y-34700D03*
X85700Y-34700D03*
X84700Y-34700D03*
X83700Y-34700D03*
X82700Y-34700D03*
X81700Y-34700D03*
X80700Y-34700D03*
X79700Y-34700D03*
X78700Y-34700D03*
X77700Y-34700D03*
X76700Y-34700D03*
G54D11*
X73400Y-43100D03*
G54D12*
X74400Y-43100D03*
X75400Y-43100D03*
X76400Y-43100D03*
G54D11*
X84250Y-45000D03*
G54D12*
X85250Y-45000D03*
G54D13*
X81700Y-41400D03*
X77700Y-41400D03*
X87300Y-45000D03*
X87300Y-41000D03*
X86400Y-45000D03*
X86400Y-41000D03*
G54D11*
X88200Y-41500D03*
G54D12*
X88200Y-42500D03*
X88200Y-43500D03*
X88200Y-44500D03*
X91200Y-44500D03*
X91200Y-43500D03*
X91200Y-42500D03*
X91200Y-41500D03*
G54D11*
X73400Y-41400D03*
G54D12*
X74400Y-41400D03*
X75400Y-41400D03*
X76400Y-41400D03*
G54D11*
X82800Y-45000D03*
G54D12*
X82800Y-44000D03*
X82800Y-43000D03*
X82800Y-42000D03*
G54D16*
X91209Y-39784D03*
X91209Y-37815D03*
G54D17*
X90225Y-40177D03*
X90225Y-37422D03*
G54D16*
X73290Y-37815D03*
X73290Y-39784D03*
G54D17*
X74274Y-37422D03*
X74274Y-40177D03*
G54D16*
X91084Y-29490D03*
X89115Y-29490D03*
G54D17*
X91477Y-30474D03*
X88722Y-30474D03*
G54D16*
X75384Y-29490D03*
X73415Y-29490D03*
G54D17*
X75777Y-30474D03*
X73022Y-30474D03*
G54D11*
X73300Y-32200D03*
G54D12*
X73300Y-33200D03*
X73300Y-34200D03*
X73300Y-35200D03*
X73300Y-36200D03*
G54D11*
X91100Y-32200D03*
G54D12*
X91100Y-33200D03*
X91100Y-34200D03*
X91100Y-35200D03*
X91100Y-36200D03*
G54D11*
X73400Y-44350D03*
G54D12*
X73400Y-45350D03*
X73400Y-46350D03*
X73400Y-47350D03*
G54D11*
X74750Y-44350D03*
G54D12*
X74750Y-45350D03*
X74750Y-46350D03*
X74750Y-47350D03*
G54D11*
X76050Y-44350D03*
G54D12*
X76050Y-45350D03*
X76050Y-46350D03*
X76050Y-47350D03*
G54D11*
X84350Y-41000D03*
G54D12*
X85350Y-41000D03*
G54D11*
X91350Y-46550D03*
G54D12*
X91350Y-47550D03*
G54D18*
X83156Y-36526D03*
X90111Y-32670D03*
G54D19*
X88161Y-39089D03*
X83790Y-30025D03*
X81347Y-35323D03*
X86628Y-36722D03*
X85163Y-41782D03*
X83528Y-41386D03*
X80412Y-41048D03*
X77717Y-36918D03*
G54D20*
X86258Y-38750D02*
X85750Y-38750D01*
X87137Y-37870D02*
X86258Y-38750D01*
X87137Y-37647D02*
X87137Y-37870D01*
X87510Y-37274D02*
X87137Y-37647D01*
X87877Y-37274D02*
X87510Y-37274D01*
X88161Y-37558D02*
X87877Y-37274D01*
X88161Y-39089D02*
X88161Y-37558D01*
X79139Y-34039D02*
X78700Y-33600D01*
X79139Y-34862D02*
X79139Y-34039D01*
X78874Y-35126D02*
X79139Y-34862D01*
X78126Y-35126D02*
X78874Y-35126D01*
X77700Y-34700D02*
X78126Y-35126D01*
X81188Y-29011D02*
X80750Y-29450D01*
X82929Y-29011D02*
X81188Y-29011D01*
X83250Y-29332D02*
X82929Y-29011D01*
X83250Y-29571D02*
X83250Y-29332D01*
X83703Y-30025D02*
X83250Y-29571D01*
X83790Y-30025D02*
X83703Y-30025D01*
X81323Y-35323D02*
X81347Y-35323D01*
X80700Y-34700D02*
X81323Y-35323D01*
X82150Y-30050D02*
X82750Y-29450D01*
X79250Y-30050D02*
X82150Y-30050D01*
X78700Y-30600D02*
X79250Y-30050D01*
X86137Y-31037D02*
X85700Y-30600D01*
X86137Y-34872D02*
X86137Y-31037D01*
X85518Y-35491D02*
X86137Y-34872D01*
X83207Y-35491D02*
X85518Y-35491D01*
X80998Y-37700D02*
X83207Y-35491D01*
X80700Y-37700D02*
X80998Y-37700D01*
X85150Y-30050D02*
X85750Y-29450D01*
X84250Y-30050D02*
X85150Y-30050D01*
X83700Y-30600D02*
X84250Y-30050D01*
X81125Y-33174D02*
X80700Y-33600D01*
X82890Y-33174D02*
X81125Y-33174D01*
X83200Y-33483D02*
X82890Y-33174D01*
X83200Y-33723D02*
X83200Y-33483D01*
X83550Y-34074D02*
X83200Y-33723D01*
X85074Y-34074D02*
X83550Y-34074D01*
X85700Y-34700D02*
X85074Y-34074D01*
X84269Y-38230D02*
X83750Y-38750D01*
X86169Y-38230D02*
X84269Y-38230D01*
X86700Y-37700D02*
X86169Y-38230D01*
X82750Y-38219D02*
X82750Y-38750D01*
X82219Y-38219D02*
X82750Y-38219D01*
X81700Y-37700D02*
X82219Y-38219D01*
X82795Y-38219D02*
X82750Y-38219D01*
X83125Y-37890D02*
X82795Y-38219D01*
X83125Y-37667D02*
X83125Y-37890D01*
X84070Y-36722D02*
X83125Y-37667D01*
X86628Y-36722D02*
X84070Y-36722D01*
X81219Y-38219D02*
X81750Y-38750D01*
X80617Y-38219D02*
X81219Y-38219D01*
X80274Y-37877D02*
X80617Y-38219D01*
X80274Y-37509D02*
X80274Y-37877D01*
X80653Y-37130D02*
X80274Y-37509D01*
X81269Y-37130D02*
X80653Y-37130D01*
X83700Y-34700D02*
X81269Y-37130D01*
X80154Y-38154D02*
X80750Y-38750D01*
X79154Y-38154D02*
X80154Y-38154D01*
X78700Y-37700D02*
X79154Y-38154D01*
X85060Y-32960D02*
X85700Y-33600D01*
X80714Y-32960D02*
X85060Y-32960D01*
X80200Y-33475D02*
X80714Y-32960D01*
X80200Y-34200D02*
X80200Y-33475D01*
X79700Y-34700D02*
X80200Y-34200D01*
X78267Y-38267D02*
X78750Y-38750D01*
X78267Y-37530D02*
X78267Y-38267D01*
X78880Y-36918D02*
X78267Y-37530D01*
X81090Y-36918D02*
X78880Y-36918D01*
X83148Y-34860D02*
X81090Y-36918D01*
X83148Y-34274D02*
X83148Y-34860D01*
X84274Y-34274D02*
X83148Y-34274D01*
X84700Y-34700D02*
X84274Y-34274D01*
X82374Y-34274D02*
X81700Y-33600D01*
X83148Y-34274D02*
X82374Y-34274D01*
X78700Y-34600D02*
X78700Y-34700D01*
X77700Y-33600D02*
X78700Y-34600D01*
X80525Y-44775D02*
X81750Y-46000D01*
X76900Y-44775D02*
X80525Y-44775D01*
X76475Y-44350D02*
X76900Y-44775D01*
X76050Y-44350D02*
X76475Y-44350D01*
X82319Y-46430D02*
X82750Y-46000D01*
X80561Y-46430D02*
X82319Y-46430D01*
X80250Y-46119D02*
X80561Y-46430D01*
X80250Y-45881D02*
X80250Y-46119D01*
X79718Y-45350D02*
X80250Y-45881D01*
X76050Y-45350D02*
X79718Y-45350D01*
X83119Y-46630D02*
X83750Y-46000D01*
X76330Y-46630D02*
X83119Y-46630D01*
X76050Y-46350D02*
X76330Y-46630D01*
X83250Y-47500D02*
X84750Y-46000D01*
X83250Y-47761D02*
X83250Y-47500D01*
X82915Y-48095D02*
X83250Y-47761D01*
X76795Y-48095D02*
X82915Y-48095D01*
X76050Y-47350D02*
X76795Y-48095D01*
X84250Y-45000D02*
X83824Y-45000D01*
X77725Y-44425D02*
X76400Y-43100D01*
X83250Y-44425D02*
X77725Y-44425D01*
X83824Y-45000D02*
X83250Y-44425D01*
X86850Y-45450D02*
X86400Y-45000D01*
X90249Y-45450D02*
X86850Y-45450D01*
X91200Y-44500D02*
X90249Y-45450D01*
X84250Y-45000D02*
X84675Y-45000D01*
X84675Y-45053D02*
X84675Y-45000D01*
X85047Y-45425D02*
X84675Y-45053D01*
X85974Y-45425D02*
X85047Y-45425D01*
X86400Y-45000D02*
X85974Y-45425D01*
X89700Y-45000D02*
X87300Y-45000D01*
X91200Y-43500D02*
X89700Y-45000D01*
X85708Y-44541D02*
X85250Y-45000D01*
X86841Y-44541D02*
X85708Y-44541D01*
X87300Y-45000D02*
X86841Y-44541D01*
X75825Y-42674D02*
X75400Y-43100D01*
X76948Y-42674D02*
X75825Y-42674D01*
X77755Y-43480D02*
X76948Y-42674D01*
X83730Y-43480D02*
X77755Y-43480D01*
X85250Y-45000D02*
X83730Y-43480D01*
X73974Y-44775D02*
X73400Y-45350D01*
X73974Y-44362D02*
X73974Y-44775D01*
X75237Y-43100D02*
X73974Y-44362D01*
X75400Y-43100D02*
X75237Y-43100D01*
X72968Y-46918D02*
X73400Y-47350D01*
X72968Y-45781D02*
X72968Y-46918D01*
X73400Y-45350D02*
X72968Y-45781D01*
X77715Y-38965D02*
X78750Y-40000D01*
X77168Y-38965D02*
X77715Y-38965D01*
X74402Y-36200D02*
X77168Y-38965D01*
X73300Y-36200D02*
X74402Y-36200D01*
X89600Y-34700D02*
X87700Y-34700D01*
X91100Y-36200D02*
X89600Y-34700D01*
X87262Y-31037D02*
X87700Y-30600D01*
X87262Y-34262D02*
X87262Y-31037D01*
X87700Y-34700D02*
X87262Y-34262D01*
X79300Y-45550D02*
X79750Y-46000D01*
X76775Y-45550D02*
X79300Y-45550D01*
X76475Y-45850D02*
X76775Y-45550D01*
X75250Y-45850D02*
X76475Y-45850D01*
X74750Y-46350D02*
X75250Y-45850D01*
X84351Y-40000D02*
X84750Y-40000D01*
X83712Y-40639D02*
X84351Y-40000D01*
X75556Y-40639D02*
X83712Y-40639D01*
X74477Y-39559D02*
X75556Y-40639D01*
X74396Y-39559D02*
X74477Y-39559D01*
X72828Y-37991D02*
X74396Y-39559D01*
X72828Y-31906D02*
X72828Y-37991D01*
X75244Y-29490D02*
X72828Y-31906D01*
X75384Y-29490D02*
X75244Y-29490D01*
X83924Y-41782D02*
X83528Y-41386D01*
X85163Y-41782D02*
X83924Y-41782D01*
X82311Y-40438D02*
X82750Y-40000D01*
X75913Y-40438D02*
X82311Y-40438D01*
X73290Y-37815D02*
X75913Y-40438D01*
X82195Y-39554D02*
X81750Y-40000D01*
X90979Y-39554D02*
X82195Y-39554D01*
X91209Y-39784D02*
X90979Y-39554D01*
X78051Y-41048D02*
X77700Y-41400D01*
X80412Y-41048D02*
X78051Y-41048D01*
X77272Y-40972D02*
X77700Y-41400D01*
X74827Y-40972D02*
X77272Y-40972D01*
X74400Y-41400D02*
X74827Y-40972D01*
X89500Y-33600D02*
X87700Y-33600D01*
X91100Y-35200D02*
X89500Y-33600D01*
X80574Y-39175D02*
X79750Y-40000D01*
X86224Y-39175D02*
X80574Y-39175D01*
X87700Y-37700D02*
X86224Y-39175D01*
X79380Y-40000D02*
X79750Y-40000D01*
X77158Y-37777D02*
X79380Y-40000D01*
X77158Y-37387D02*
X77158Y-37777D01*
X74970Y-35200D02*
X77158Y-37387D01*
X73300Y-35200D02*
X74970Y-35200D01*
X76700Y-33600D02*
X77125Y-33600D01*
X90855Y-34200D02*
X91100Y-34200D01*
X88180Y-31524D02*
X90855Y-34200D01*
X88180Y-30453D02*
X88180Y-31524D01*
X87891Y-30164D02*
X88180Y-30453D01*
X85520Y-30164D02*
X87891Y-30164D01*
X85200Y-30484D02*
X85520Y-30164D01*
X85200Y-30706D02*
X85200Y-30484D01*
X83508Y-32397D02*
X85200Y-30706D01*
X78274Y-32397D02*
X83508Y-32397D01*
X77125Y-33546D02*
X78274Y-32397D01*
X77125Y-33600D02*
X77125Y-33546D01*
X76124Y-34124D02*
X76700Y-34700D01*
X73375Y-34124D02*
X76124Y-34124D01*
X73300Y-34200D02*
X73375Y-34124D01*
X78980Y-35654D02*
X77717Y-36918D01*
X81745Y-35654D02*
X78980Y-35654D01*
X82700Y-34700D02*
X81745Y-35654D01*
X83285Y-36397D02*
X83156Y-36526D01*
X88105Y-36397D02*
X83285Y-36397D01*
X90902Y-39194D02*
X88105Y-36397D01*
X91268Y-39194D02*
X90902Y-39194D01*
X91678Y-39603D02*
X91268Y-39194D01*
X91678Y-41625D02*
X91678Y-39603D01*
X91303Y-42000D02*
X91678Y-41625D01*
X89700Y-42000D02*
X91303Y-42000D01*
X88200Y-43500D02*
X89700Y-42000D01*
X85850Y-41500D02*
X85350Y-41000D01*
X88200Y-41500D02*
X85850Y-41500D01*
X84350Y-41000D02*
X84775Y-41000D01*
X84775Y-41053D02*
X84775Y-41000D01*
X85179Y-41457D02*
X84775Y-41053D01*
X85298Y-41457D02*
X85179Y-41457D01*
X86340Y-42500D02*
X85298Y-41457D01*
X88200Y-42500D02*
X86340Y-42500D01*
X73300Y-32200D02*
X73725Y-32200D01*
X74861Y-32338D02*
X75300Y-31900D01*
X73864Y-32338D02*
X74861Y-32338D01*
X73725Y-32200D02*
X73864Y-32338D01*
X80400Y-31900D02*
X81700Y-30600D01*
X75300Y-31900D02*
X80400Y-31900D01*
X87300Y-41000D02*
X86400Y-41000D01*
X91200Y-41500D02*
X88637Y-41500D01*
X88637Y-41156D02*
X88637Y-41500D01*
X88481Y-41000D02*
X88637Y-41156D01*
X87300Y-41000D02*
X88481Y-41000D01*
X88320Y-43000D02*
X82800Y-43000D01*
X88637Y-42683D02*
X88320Y-43000D01*
X88637Y-41500D02*
X88637Y-42683D01*
X73400Y-41400D02*
X73825Y-41400D01*
X73400Y-42674D02*
X73400Y-42674D01*
X74223Y-41851D02*
X73400Y-42674D01*
X73825Y-41453D02*
X73825Y-41400D01*
X74223Y-41851D02*
X73825Y-41453D01*
X73400Y-43100D02*
X73400Y-42674D01*
X82100Y-43000D02*
X81700Y-42600D01*
X82800Y-43000D02*
X82100Y-43000D01*
X81248Y-42148D02*
X81248Y-41851D01*
X81700Y-42600D02*
X81248Y-42148D01*
X81700Y-41400D02*
X81248Y-41851D01*
X81248Y-41851D02*
X74223Y-41851D01*
G54D10*
G36*
X75095Y-29019D02*
X75075Y-29028D01*
X74922Y-29181D01*
X74839Y-29381D01*
X74838Y-29471D01*
X73965Y-30344D01*
X73965Y-29571D01*
X73954Y-29354D01*
X73893Y-29205D01*
X73798Y-29178D01*
X73486Y-29490D01*
X73798Y-29802D01*
X73893Y-29775D01*
X73965Y-29571D01*
X73965Y-30344D01*
X73567Y-30743D01*
X73567Y-30720D01*
X73567Y-30130D01*
X73529Y-30038D01*
X73522Y-30031D01*
X73551Y-30029D01*
X73700Y-29967D01*
X73727Y-29873D01*
X73415Y-29561D01*
X73345Y-29631D01*
X73345Y-29490D01*
X73033Y-29178D01*
X72938Y-29205D01*
X72865Y-29409D01*
X72876Y-29626D01*
X72938Y-29775D01*
X73033Y-29802D01*
X73345Y-29490D01*
X73345Y-29631D01*
X73103Y-29873D01*
X73119Y-29929D01*
X72841Y-29929D01*
X72848Y-29019D01*
X73128Y-29019D01*
X73103Y-29108D01*
X73415Y-29419D01*
X73727Y-29108D01*
X73702Y-29019D01*
X75095Y-29019D01*
X75095Y-29019D01*
G37*
G54D20*
X75095Y-29019D02*
X75075Y-29028D01*
X74922Y-29181D01*
X74839Y-29381D01*
X74838Y-29471D01*
X73965Y-30344D01*
X73965Y-29571D01*
X73954Y-29354D01*
X73893Y-29205D01*
X73798Y-29178D01*
X73486Y-29490D01*
X73798Y-29802D01*
X73893Y-29775D01*
X73965Y-29571D01*
X73965Y-30344D01*
X73567Y-30743D01*
X73567Y-30720D01*
X73567Y-30130D01*
X73529Y-30038D01*
X73522Y-30031D01*
X73551Y-30029D01*
X73700Y-29967D01*
X73727Y-29873D01*
X73415Y-29561D01*
X73345Y-29631D01*
X73345Y-29490D01*
X73033Y-29178D01*
X72938Y-29205D01*
X72865Y-29409D01*
X72876Y-29626D01*
X72938Y-29775D01*
X73033Y-29802D01*
X73345Y-29490D01*
X73345Y-29631D01*
X73103Y-29873D01*
X73119Y-29929D01*
X72841Y-29929D01*
X72848Y-29019D01*
X73128Y-29019D01*
X73103Y-29108D01*
X73415Y-29419D01*
X73727Y-29108D01*
X73702Y-29019D01*
X75095Y-29019D01*
G54D10*
G36*
X76476Y-41405D02*
X76405Y-41476D01*
X76400Y-41470D01*
X76394Y-41476D01*
X76323Y-41405D01*
X76329Y-41400D01*
X76323Y-41394D01*
X76394Y-41323D01*
X76400Y-41329D01*
X76405Y-41323D01*
X76476Y-41394D01*
X76470Y-41400D01*
X76476Y-41405D01*
X76476Y-41405D01*
G37*
G54D20*
X76476Y-41405D02*
X76405Y-41476D01*
X76400Y-41470D01*
X76394Y-41476D01*
X76323Y-41405D01*
X76329Y-41400D01*
X76323Y-41394D01*
X76394Y-41323D01*
X76400Y-41329D01*
X76405Y-41323D01*
X76476Y-41394D01*
X76470Y-41400D01*
X76476Y-41405D01*
G54D10*
G36*
X77370Y-42151D02*
X77234Y-42288D01*
X77161Y-42462D01*
X77160Y-42461D01*
X77063Y-42396D01*
X76948Y-42374D01*
X75825Y-42374D01*
X75711Y-42396D01*
X75613Y-42461D01*
X75500Y-42575D01*
X75296Y-42574D01*
X75103Y-42654D01*
X74955Y-42802D01*
X74902Y-42928D01*
X74860Y-42827D01*
X74767Y-42802D01*
X74697Y-42873D01*
X74697Y-42732D01*
X74672Y-42639D01*
X74475Y-42570D01*
X74267Y-42581D01*
X74127Y-42639D01*
X74102Y-42732D01*
X74400Y-43029D01*
X74697Y-42732D01*
X74697Y-42873D01*
X74470Y-43100D01*
X74476Y-43105D01*
X74405Y-43176D01*
X74400Y-43170D01*
X74102Y-43467D01*
X74127Y-43560D01*
X74293Y-43619D01*
X73914Y-43999D01*
X73887Y-43933D01*
X73816Y-43863D01*
X73724Y-43825D01*
X73625Y-43824D01*
X73075Y-43824D01*
X72983Y-43862D01*
X72913Y-43933D01*
X72875Y-44025D01*
X72874Y-44124D01*
X72874Y-44674D01*
X72912Y-44766D01*
X72983Y-44836D01*
X73075Y-44874D01*
X73174Y-44875D01*
X73174Y-44875D01*
X73103Y-44904D01*
X72955Y-45052D01*
X72875Y-45245D01*
X72874Y-45450D01*
X72769Y-45556D01*
X72769Y-39964D01*
X72813Y-40069D01*
X72908Y-40096D01*
X73219Y-39784D01*
X72908Y-39472D01*
X72813Y-39499D01*
X72769Y-39621D01*
X72769Y-39184D01*
X72776Y-38363D01*
X74045Y-39632D01*
X73930Y-39632D01*
X73838Y-39670D01*
X73831Y-39677D01*
X73829Y-39648D01*
X73767Y-39499D01*
X73673Y-39472D01*
X73602Y-39543D01*
X73602Y-39401D01*
X73575Y-39306D01*
X73371Y-39234D01*
X73154Y-39245D01*
X73005Y-39306D01*
X72978Y-39401D01*
X73290Y-39713D01*
X73602Y-39401D01*
X73602Y-39543D01*
X73361Y-39784D01*
X73673Y-40096D01*
X73729Y-40080D01*
X73729Y-40522D01*
X73767Y-40614D01*
X73837Y-40685D01*
X73929Y-40723D01*
X74029Y-40723D01*
X74619Y-40723D01*
X74711Y-40685D01*
X74781Y-40615D01*
X74820Y-40523D01*
X74820Y-40423D01*
X74820Y-40326D01*
X75166Y-40672D01*
X74827Y-40672D01*
X74712Y-40695D01*
X74614Y-40760D01*
X74500Y-40875D01*
X74296Y-40874D01*
X74103Y-40954D01*
X73955Y-41102D01*
X73945Y-41126D01*
X73939Y-41122D01*
X73925Y-41119D01*
X73925Y-41075D01*
X73887Y-40983D01*
X73816Y-40913D01*
X73724Y-40875D01*
X73625Y-40874D01*
X73602Y-40874D01*
X73602Y-40166D01*
X73290Y-39854D01*
X72978Y-40166D01*
X73005Y-40261D01*
X73209Y-40334D01*
X73426Y-40323D01*
X73575Y-40261D01*
X73602Y-40166D01*
X73602Y-40874D01*
X73075Y-40874D01*
X72983Y-40912D01*
X72913Y-40983D01*
X72875Y-41075D01*
X72874Y-41174D01*
X72874Y-41724D01*
X72912Y-41816D01*
X72983Y-41886D01*
X73075Y-41924D01*
X73174Y-41925D01*
X73724Y-41925D01*
X73726Y-41924D01*
X73188Y-42462D01*
X73187Y-42462D01*
X73122Y-42560D01*
X73119Y-42574D01*
X73075Y-42574D01*
X72983Y-42612D01*
X72913Y-42683D01*
X72875Y-42775D01*
X72874Y-42874D01*
X72874Y-43424D01*
X72912Y-43516D01*
X72983Y-43586D01*
X73075Y-43624D01*
X73174Y-43625D01*
X73724Y-43625D01*
X73816Y-43587D01*
X73886Y-43516D01*
X73924Y-43424D01*
X73925Y-43337D01*
X73939Y-43372D01*
X74032Y-43397D01*
X74329Y-43100D01*
X74032Y-42802D01*
X73939Y-42827D01*
X73925Y-42868D01*
X73925Y-42775D01*
X73887Y-42683D01*
X73851Y-42647D01*
X74347Y-42151D01*
X77370Y-42151D01*
X77370Y-42151D01*
G37*
G54D20*
X77370Y-42151D02*
X77234Y-42288D01*
X77161Y-42462D01*
X77160Y-42461D01*
X77063Y-42396D01*
X76948Y-42374D01*
X75825Y-42374D01*
X75711Y-42396D01*
X75613Y-42461D01*
X75500Y-42575D01*
X75296Y-42574D01*
X75103Y-42654D01*
X74955Y-42802D01*
X74902Y-42928D01*
X74860Y-42827D01*
X74767Y-42802D01*
X74697Y-42873D01*
X74697Y-42732D01*
X74672Y-42639D01*
X74475Y-42570D01*
X74267Y-42581D01*
X74127Y-42639D01*
X74102Y-42732D01*
X74400Y-43029D01*
X74697Y-42732D01*
X74697Y-42873D01*
X74470Y-43100D01*
X74476Y-43105D01*
X74405Y-43176D01*
X74400Y-43170D01*
X74102Y-43467D01*
X74127Y-43560D01*
X74293Y-43619D01*
X73914Y-43999D01*
X73887Y-43933D01*
X73816Y-43863D01*
X73724Y-43825D01*
X73625Y-43824D01*
X73075Y-43824D01*
X72983Y-43862D01*
X72913Y-43933D01*
X72875Y-44025D01*
X72874Y-44124D01*
X72874Y-44674D01*
X72912Y-44766D01*
X72983Y-44836D01*
X73075Y-44874D01*
X73174Y-44875D01*
X73174Y-44875D01*
X73103Y-44904D01*
X72955Y-45052D01*
X72875Y-45245D01*
X72874Y-45450D01*
X72769Y-45556D01*
X72769Y-39964D01*
X72813Y-40069D01*
X72908Y-40096D01*
X73219Y-39784D01*
X72908Y-39472D01*
X72813Y-39499D01*
X72769Y-39621D01*
X72769Y-39184D01*
X72776Y-38363D01*
X74045Y-39632D01*
X73930Y-39632D01*
X73838Y-39670D01*
X73831Y-39677D01*
X73829Y-39648D01*
X73767Y-39499D01*
X73673Y-39472D01*
X73602Y-39543D01*
X73602Y-39401D01*
X73575Y-39306D01*
X73371Y-39234D01*
X73154Y-39245D01*
X73005Y-39306D01*
X72978Y-39401D01*
X73290Y-39713D01*
X73602Y-39401D01*
X73602Y-39543D01*
X73361Y-39784D01*
X73673Y-40096D01*
X73729Y-40080D01*
X73729Y-40522D01*
X73767Y-40614D01*
X73837Y-40685D01*
X73929Y-40723D01*
X74029Y-40723D01*
X74619Y-40723D01*
X74711Y-40685D01*
X74781Y-40615D01*
X74820Y-40523D01*
X74820Y-40423D01*
X74820Y-40326D01*
X75166Y-40672D01*
X74827Y-40672D01*
X74712Y-40695D01*
X74614Y-40760D01*
X74500Y-40875D01*
X74296Y-40874D01*
X74103Y-40954D01*
X73955Y-41102D01*
X73945Y-41126D01*
X73939Y-41122D01*
X73925Y-41119D01*
X73925Y-41075D01*
X73887Y-40983D01*
X73816Y-40913D01*
X73724Y-40875D01*
X73625Y-40874D01*
X73602Y-40874D01*
X73602Y-40166D01*
X73290Y-39854D01*
X72978Y-40166D01*
X73005Y-40261D01*
X73209Y-40334D01*
X73426Y-40323D01*
X73575Y-40261D01*
X73602Y-40166D01*
X73602Y-40874D01*
X73075Y-40874D01*
X72983Y-40912D01*
X72913Y-40983D01*
X72875Y-41075D01*
X72874Y-41174D01*
X72874Y-41724D01*
X72912Y-41816D01*
X72983Y-41886D01*
X73075Y-41924D01*
X73174Y-41925D01*
X73724Y-41925D01*
X73726Y-41924D01*
X73188Y-42462D01*
X73187Y-42462D01*
X73122Y-42560D01*
X73119Y-42574D01*
X73075Y-42574D01*
X72983Y-42612D01*
X72913Y-42683D01*
X72875Y-42775D01*
X72874Y-42874D01*
X72874Y-43424D01*
X72912Y-43516D01*
X72983Y-43586D01*
X73075Y-43624D01*
X73174Y-43625D01*
X73724Y-43625D01*
X73816Y-43587D01*
X73886Y-43516D01*
X73924Y-43424D01*
X73925Y-43337D01*
X73939Y-43372D01*
X74032Y-43397D01*
X74329Y-43100D01*
X74032Y-42802D01*
X73939Y-42827D01*
X73925Y-42868D01*
X73925Y-42775D01*
X73887Y-42683D01*
X73851Y-42647D01*
X74347Y-42151D01*
X77370Y-42151D01*
G54D10*
G36*
X78047Y-32200D02*
X77125Y-33122D01*
X77116Y-33113D01*
X77024Y-33075D01*
X76925Y-33074D01*
X76375Y-33074D01*
X76283Y-33112D01*
X76213Y-33183D01*
X76175Y-33275D01*
X76174Y-33374D01*
X76174Y-33834D01*
X76124Y-33824D01*
X75430Y-33824D01*
X75479Y-33687D01*
X75469Y-33459D01*
X75401Y-33297D01*
X75304Y-33266D01*
X75233Y-33337D01*
X75233Y-33195D01*
X75202Y-33098D01*
X74987Y-33020D01*
X74759Y-33030D01*
X74597Y-33098D01*
X74566Y-33195D01*
X74900Y-33529D01*
X75233Y-33195D01*
X75233Y-33337D01*
X74970Y-33600D01*
X74976Y-33605D01*
X74905Y-33676D01*
X74900Y-33670D01*
X74894Y-33676D01*
X74823Y-33605D01*
X74829Y-33600D01*
X74495Y-33266D01*
X74398Y-33297D01*
X74320Y-33512D01*
X74330Y-33740D01*
X74365Y-33824D01*
X73829Y-33824D01*
X73829Y-33275D01*
X73818Y-33067D01*
X73760Y-32927D01*
X73667Y-32902D01*
X73370Y-33200D01*
X73667Y-33497D01*
X73760Y-33472D01*
X73829Y-33275D01*
X73829Y-33824D01*
X73667Y-33824D01*
X73597Y-33755D01*
X73471Y-33702D01*
X73572Y-33660D01*
X73597Y-33567D01*
X73300Y-33270D01*
X73294Y-33276D01*
X73223Y-33205D01*
X73229Y-33200D01*
X73223Y-33194D01*
X73294Y-33123D01*
X73300Y-33129D01*
X73597Y-32832D01*
X73572Y-32739D01*
X73531Y-32725D01*
X73624Y-32725D01*
X73716Y-32687D01*
X73781Y-32622D01*
X73864Y-32638D01*
X74861Y-32638D01*
X74861Y-32638D01*
X74975Y-32616D01*
X74975Y-32616D01*
X75073Y-32551D01*
X75199Y-32424D01*
X75403Y-32425D01*
X75597Y-32345D01*
X75742Y-32200D01*
X78047Y-32200D01*
X78047Y-32200D01*
G37*
G54D20*
X78047Y-32200D02*
X77125Y-33122D01*
X77116Y-33113D01*
X77024Y-33075D01*
X76925Y-33074D01*
X76375Y-33074D01*
X76283Y-33112D01*
X76213Y-33183D01*
X76175Y-33275D01*
X76174Y-33374D01*
X76174Y-33834D01*
X76124Y-33824D01*
X75430Y-33824D01*
X75479Y-33687D01*
X75469Y-33459D01*
X75401Y-33297D01*
X75304Y-33266D01*
X75233Y-33337D01*
X75233Y-33195D01*
X75202Y-33098D01*
X74987Y-33020D01*
X74759Y-33030D01*
X74597Y-33098D01*
X74566Y-33195D01*
X74900Y-33529D01*
X75233Y-33195D01*
X75233Y-33337D01*
X74970Y-33600D01*
X74976Y-33605D01*
X74905Y-33676D01*
X74900Y-33670D01*
X74894Y-33676D01*
X74823Y-33605D01*
X74829Y-33600D01*
X74495Y-33266D01*
X74398Y-33297D01*
X74320Y-33512D01*
X74330Y-33740D01*
X74365Y-33824D01*
X73829Y-33824D01*
X73829Y-33275D01*
X73818Y-33067D01*
X73760Y-32927D01*
X73667Y-32902D01*
X73370Y-33200D01*
X73667Y-33497D01*
X73760Y-33472D01*
X73829Y-33275D01*
X73829Y-33824D01*
X73667Y-33824D01*
X73597Y-33755D01*
X73471Y-33702D01*
X73572Y-33660D01*
X73597Y-33567D01*
X73300Y-33270D01*
X73294Y-33276D01*
X73223Y-33205D01*
X73229Y-33200D01*
X73223Y-33194D01*
X73294Y-33123D01*
X73300Y-33129D01*
X73597Y-32832D01*
X73572Y-32739D01*
X73531Y-32725D01*
X73624Y-32725D01*
X73716Y-32687D01*
X73781Y-32622D01*
X73864Y-32638D01*
X74861Y-32638D01*
X74861Y-32638D01*
X74975Y-32616D01*
X74975Y-32616D01*
X75073Y-32551D01*
X75199Y-32424D01*
X75403Y-32425D01*
X75597Y-32345D01*
X75742Y-32200D01*
X78047Y-32200D01*
G54D10*
G36*
X79776Y-37705D02*
X79705Y-37776D01*
X79700Y-37770D01*
X79694Y-37776D01*
X79623Y-37705D01*
X79629Y-37700D01*
X79332Y-37402D01*
X79239Y-37427D01*
X79200Y-37537D01*
X79145Y-37403D01*
X78997Y-37255D01*
X78976Y-37246D01*
X79004Y-37218D01*
X79478Y-37218D01*
X79427Y-37239D01*
X79402Y-37332D01*
X79700Y-37629D01*
X79705Y-37623D01*
X79776Y-37694D01*
X79770Y-37700D01*
X79776Y-37705D01*
X79776Y-37705D01*
G37*
G54D20*
X79776Y-37705D02*
X79705Y-37776D01*
X79700Y-37770D01*
X79694Y-37776D01*
X79623Y-37705D01*
X79629Y-37700D01*
X79332Y-37402D01*
X79239Y-37427D01*
X79200Y-37537D01*
X79145Y-37403D01*
X78997Y-37255D01*
X78976Y-37246D01*
X79004Y-37218D01*
X79478Y-37218D01*
X79427Y-37239D01*
X79402Y-37332D01*
X79700Y-37629D01*
X79705Y-37623D01*
X79776Y-37694D01*
X79770Y-37700D01*
X79776Y-37705D01*
G54D10*
G36*
X80578Y-32697D02*
X80502Y-32748D01*
X80053Y-33197D01*
X80042Y-33186D01*
X79997Y-33232D01*
X79972Y-33139D01*
X79775Y-33070D01*
X79567Y-33081D01*
X79427Y-33139D01*
X79402Y-33232D01*
X79700Y-33529D01*
X79705Y-33523D01*
X79776Y-33594D01*
X79770Y-33600D01*
X79776Y-33605D01*
X79705Y-33676D01*
X79700Y-33670D01*
X79694Y-33676D01*
X79623Y-33605D01*
X79629Y-33600D01*
X79332Y-33302D01*
X79239Y-33327D01*
X79200Y-33437D01*
X79145Y-33303D01*
X78997Y-33155D01*
X78804Y-33075D01*
X78596Y-33074D01*
X78403Y-33154D01*
X78255Y-33302D01*
X78199Y-33435D01*
X78145Y-33303D01*
X77997Y-33155D01*
X77957Y-33138D01*
X78398Y-32697D01*
X80578Y-32697D01*
X80578Y-32697D01*
G37*
G54D20*
X80578Y-32697D02*
X80502Y-32748D01*
X80053Y-33197D01*
X80042Y-33186D01*
X79997Y-33232D01*
X79972Y-33139D01*
X79775Y-33070D01*
X79567Y-33081D01*
X79427Y-33139D01*
X79402Y-33232D01*
X79700Y-33529D01*
X79705Y-33523D01*
X79776Y-33594D01*
X79770Y-33600D01*
X79776Y-33605D01*
X79705Y-33676D01*
X79700Y-33670D01*
X79694Y-33676D01*
X79623Y-33605D01*
X79629Y-33600D01*
X79332Y-33302D01*
X79239Y-33327D01*
X79200Y-33437D01*
X79145Y-33303D01*
X78997Y-33155D01*
X78804Y-33075D01*
X78596Y-33074D01*
X78403Y-33154D01*
X78255Y-33302D01*
X78199Y-33435D01*
X78145Y-33303D01*
X77997Y-33155D01*
X77957Y-33138D01*
X78398Y-32697D01*
X80578Y-32697D01*
G54D10*
G36*
X80750Y-31125D02*
X80275Y-31600D01*
X75742Y-31600D01*
X75597Y-31455D01*
X75404Y-31375D01*
X75196Y-31374D01*
X75003Y-31454D01*
X74855Y-31602D01*
X74802Y-31728D01*
X74760Y-31627D01*
X74667Y-31602D01*
X74597Y-31673D01*
X74597Y-31532D01*
X74572Y-31439D01*
X74375Y-31370D01*
X74167Y-31381D01*
X74027Y-31439D01*
X74002Y-31532D01*
X74300Y-31829D01*
X74597Y-31532D01*
X74597Y-31673D01*
X74370Y-31900D01*
X74376Y-31905D01*
X74305Y-31976D01*
X74300Y-31970D01*
X74294Y-31976D01*
X74223Y-31905D01*
X74229Y-31900D01*
X73932Y-31602D01*
X73839Y-31627D01*
X73785Y-31781D01*
X73716Y-31713D01*
X73624Y-31675D01*
X73525Y-31674D01*
X73484Y-31674D01*
X75167Y-29991D01*
X75273Y-30035D01*
X75270Y-30037D01*
X75232Y-30129D01*
X75232Y-30229D01*
X75232Y-30819D01*
X75270Y-30911D01*
X75340Y-30981D01*
X75432Y-31020D01*
X75532Y-31020D01*
X76122Y-31020D01*
X76214Y-30982D01*
X76277Y-30919D01*
X76402Y-31044D01*
X76595Y-31124D01*
X76803Y-31125D01*
X76997Y-31045D01*
X77144Y-30897D01*
X77200Y-30764D01*
X77254Y-30897D01*
X77402Y-31044D01*
X77595Y-31124D01*
X77803Y-31125D01*
X77997Y-31045D01*
X78144Y-30897D01*
X78200Y-30764D01*
X78254Y-30897D01*
X78402Y-31044D01*
X78595Y-31124D01*
X78803Y-31125D01*
X78997Y-31045D01*
X79144Y-30897D01*
X79200Y-30764D01*
X79254Y-30897D01*
X79402Y-31044D01*
X79595Y-31124D01*
X79803Y-31125D01*
X79997Y-31045D01*
X80144Y-30897D01*
X80200Y-30764D01*
X80254Y-30897D01*
X80402Y-31044D01*
X80595Y-31124D01*
X80750Y-31125D01*
X80750Y-31125D01*
G37*
G54D20*
X80750Y-31125D02*
X80275Y-31600D01*
X75742Y-31600D01*
X75597Y-31455D01*
X75404Y-31375D01*
X75196Y-31374D01*
X75003Y-31454D01*
X74855Y-31602D01*
X74802Y-31728D01*
X74760Y-31627D01*
X74667Y-31602D01*
X74597Y-31673D01*
X74597Y-31532D01*
X74572Y-31439D01*
X74375Y-31370D01*
X74167Y-31381D01*
X74027Y-31439D01*
X74002Y-31532D01*
X74300Y-31829D01*
X74597Y-31532D01*
X74597Y-31673D01*
X74370Y-31900D01*
X74376Y-31905D01*
X74305Y-31976D01*
X74300Y-31970D01*
X74294Y-31976D01*
X74223Y-31905D01*
X74229Y-31900D01*
X73932Y-31602D01*
X73839Y-31627D01*
X73785Y-31781D01*
X73716Y-31713D01*
X73624Y-31675D01*
X73525Y-31674D01*
X73484Y-31674D01*
X75167Y-29991D01*
X75273Y-30035D01*
X75270Y-30037D01*
X75232Y-30129D01*
X75232Y-30229D01*
X75232Y-30819D01*
X75270Y-30911D01*
X75340Y-30981D01*
X75432Y-31020D01*
X75532Y-31020D01*
X76122Y-31020D01*
X76214Y-30982D01*
X76277Y-30919D01*
X76402Y-31044D01*
X76595Y-31124D01*
X76803Y-31125D01*
X76997Y-31045D01*
X77144Y-30897D01*
X77200Y-30764D01*
X77254Y-30897D01*
X77402Y-31044D01*
X77595Y-31124D01*
X77803Y-31125D01*
X77997Y-31045D01*
X78144Y-30897D01*
X78200Y-30764D01*
X78254Y-30897D01*
X78402Y-31044D01*
X78595Y-31124D01*
X78803Y-31125D01*
X78997Y-31045D01*
X79144Y-30897D01*
X79200Y-30764D01*
X79254Y-30897D01*
X79402Y-31044D01*
X79595Y-31124D01*
X79803Y-31125D01*
X79997Y-31045D01*
X80144Y-30897D01*
X80200Y-30764D01*
X80254Y-30897D01*
X80402Y-31044D01*
X80595Y-31124D01*
X80750Y-31125D01*
G54D10*
G36*
X82876Y-44005D02*
X82805Y-44076D01*
X82800Y-44070D01*
X82794Y-44076D01*
X82723Y-44005D01*
X82729Y-44000D01*
X82723Y-43994D01*
X82794Y-43923D01*
X82800Y-43929D01*
X82805Y-43923D01*
X82876Y-43994D01*
X82870Y-44000D01*
X82876Y-44005D01*
X82876Y-44005D01*
G37*
G54D20*
X82876Y-44005D02*
X82805Y-44076D01*
X82800Y-44070D01*
X82794Y-44076D01*
X82723Y-44005D01*
X82729Y-44000D01*
X82723Y-43994D01*
X82794Y-43923D01*
X82800Y-43929D01*
X82805Y-43923D01*
X82876Y-43994D01*
X82870Y-44000D01*
X82876Y-44005D01*
G54D10*
G36*
X84776Y-33605D02*
X84705Y-33676D01*
X84700Y-33670D01*
X84694Y-33676D01*
X84623Y-33605D01*
X84629Y-33600D01*
X84623Y-33594D01*
X84694Y-33523D01*
X84700Y-33529D01*
X84705Y-33523D01*
X84776Y-33594D01*
X84770Y-33600D01*
X84776Y-33605D01*
X84776Y-33605D01*
G37*
G54D20*
X84776Y-33605D02*
X84705Y-33676D01*
X84700Y-33670D01*
X84694Y-33676D01*
X84623Y-33605D01*
X84629Y-33600D01*
X84623Y-33594D01*
X84694Y-33523D01*
X84700Y-33529D01*
X84705Y-33523D01*
X84776Y-33594D01*
X84770Y-33600D01*
X84776Y-33605D01*
G54D10*
G36*
X86116Y-42700D02*
X83329Y-42700D01*
X83242Y-42700D01*
X83097Y-42555D01*
X82971Y-42502D01*
X83072Y-42460D01*
X83097Y-42367D01*
X82800Y-42070D01*
X82729Y-42141D01*
X82729Y-42000D01*
X82432Y-41702D01*
X82339Y-41727D01*
X82270Y-41924D01*
X82281Y-42132D01*
X82339Y-42272D01*
X82432Y-42297D01*
X82729Y-42000D01*
X82729Y-42141D01*
X82502Y-42367D01*
X82527Y-42460D01*
X82637Y-42499D01*
X82503Y-42554D01*
X82357Y-42700D01*
X82249Y-42700D01*
X82250Y-42491D01*
X82166Y-42288D01*
X82011Y-42134D01*
X81809Y-42050D01*
X81591Y-42049D01*
X81579Y-42054D01*
X81548Y-42024D01*
X81548Y-41975D01*
X81578Y-41945D01*
X81590Y-41949D01*
X81808Y-41950D01*
X82011Y-41866D01*
X82165Y-41711D01*
X82249Y-41509D01*
X82250Y-41291D01*
X82166Y-41088D01*
X82017Y-40939D01*
X83712Y-40939D01*
X83712Y-40939D01*
X83824Y-40916D01*
X83824Y-41082D01*
X83769Y-41026D01*
X83613Y-40962D01*
X83444Y-40961D01*
X83287Y-41026D01*
X83168Y-41145D01*
X83103Y-41302D01*
X83103Y-41471D01*
X83157Y-41601D01*
X83142Y-41586D01*
X83097Y-41632D01*
X83072Y-41539D01*
X82875Y-41470D01*
X82667Y-41481D01*
X82527Y-41539D01*
X82502Y-41632D01*
X82800Y-41929D01*
X82805Y-41923D01*
X82876Y-41994D01*
X82870Y-42000D01*
X83167Y-42297D01*
X83260Y-42272D01*
X83329Y-42075D01*
X83318Y-41867D01*
X83260Y-41727D01*
X83167Y-41702D01*
X83205Y-41665D01*
X83287Y-41747D01*
X83443Y-41811D01*
X83529Y-41811D01*
X83712Y-41995D01*
X83809Y-42060D01*
X83924Y-42082D01*
X84862Y-42082D01*
X84922Y-42142D01*
X85078Y-42207D01*
X85247Y-42207D01*
X85404Y-42143D01*
X85482Y-42065D01*
X86116Y-42700D01*
X86116Y-42700D01*
G37*
G54D20*
X86116Y-42700D02*
X83329Y-42700D01*
X83242Y-42700D01*
X83097Y-42555D01*
X82971Y-42502D01*
X83072Y-42460D01*
X83097Y-42367D01*
X82800Y-42070D01*
X82729Y-42141D01*
X82729Y-42000D01*
X82432Y-41702D01*
X82339Y-41727D01*
X82270Y-41924D01*
X82281Y-42132D01*
X82339Y-42272D01*
X82432Y-42297D01*
X82729Y-42000D01*
X82729Y-42141D01*
X82502Y-42367D01*
X82527Y-42460D01*
X82637Y-42499D01*
X82503Y-42554D01*
X82357Y-42700D01*
X82249Y-42700D01*
X82250Y-42491D01*
X82166Y-42288D01*
X82011Y-42134D01*
X81809Y-42050D01*
X81591Y-42049D01*
X81579Y-42054D01*
X81548Y-42024D01*
X81548Y-41975D01*
X81578Y-41945D01*
X81590Y-41949D01*
X81808Y-41950D01*
X82011Y-41866D01*
X82165Y-41711D01*
X82249Y-41509D01*
X82250Y-41291D01*
X82166Y-41088D01*
X82017Y-40939D01*
X83712Y-40939D01*
X83712Y-40939D01*
X83824Y-40916D01*
X83824Y-41082D01*
X83769Y-41026D01*
X83613Y-40962D01*
X83444Y-40961D01*
X83287Y-41026D01*
X83168Y-41145D01*
X83103Y-41302D01*
X83103Y-41471D01*
X83157Y-41601D01*
X83142Y-41586D01*
X83097Y-41632D01*
X83072Y-41539D01*
X82875Y-41470D01*
X82667Y-41481D01*
X82527Y-41539D01*
X82502Y-41632D01*
X82800Y-41929D01*
X82805Y-41923D01*
X82876Y-41994D01*
X82870Y-42000D01*
X83167Y-42297D01*
X83260Y-42272D01*
X83329Y-42075D01*
X83318Y-41867D01*
X83260Y-41727D01*
X83167Y-41702D01*
X83205Y-41665D01*
X83287Y-41747D01*
X83443Y-41811D01*
X83529Y-41811D01*
X83712Y-41995D01*
X83809Y-42060D01*
X83924Y-42082D01*
X84862Y-42082D01*
X84922Y-42142D01*
X85078Y-42207D01*
X85247Y-42207D01*
X85404Y-42143D01*
X85482Y-42065D01*
X86116Y-42700D01*
G54D10*
G36*
X90538Y-39254D02*
X88552Y-39254D01*
X88586Y-39174D01*
X88586Y-39005D01*
X88521Y-38849D01*
X88461Y-38788D01*
X88461Y-37558D01*
X88461Y-37558D01*
X88438Y-37443D01*
X88373Y-37346D01*
X88373Y-37346D01*
X88089Y-37062D01*
X87992Y-36997D01*
X87877Y-36974D01*
X87510Y-36974D01*
X87395Y-36997D01*
X87297Y-37062D01*
X87051Y-37309D01*
X86997Y-37255D01*
X86804Y-37175D01*
X86596Y-37174D01*
X86403Y-37254D01*
X86255Y-37402D01*
X86199Y-37535D01*
X86145Y-37403D01*
X85997Y-37255D01*
X85804Y-37175D01*
X85596Y-37174D01*
X85403Y-37254D01*
X85255Y-37402D01*
X85202Y-37528D01*
X85160Y-37427D01*
X85067Y-37402D01*
X84997Y-37473D01*
X84997Y-37332D01*
X84972Y-37239D01*
X84775Y-37170D01*
X84567Y-37181D01*
X84427Y-37239D01*
X84402Y-37332D01*
X84700Y-37629D01*
X84997Y-37332D01*
X84997Y-37473D01*
X84770Y-37700D01*
X84776Y-37705D01*
X84705Y-37776D01*
X84700Y-37770D01*
X84694Y-37776D01*
X84623Y-37705D01*
X84629Y-37700D01*
X84332Y-37402D01*
X84239Y-37427D01*
X84200Y-37537D01*
X84145Y-37403D01*
X83997Y-37255D01*
X83972Y-37244D01*
X84194Y-37022D01*
X86327Y-37022D01*
X86387Y-37082D01*
X86543Y-37147D01*
X86712Y-37147D01*
X86868Y-37082D01*
X86988Y-36963D01*
X87053Y-36807D01*
X87053Y-36697D01*
X87981Y-36697D01*
X90538Y-39254D01*
X90538Y-39254D01*
G37*
G54D20*
X90538Y-39254D02*
X88552Y-39254D01*
X88586Y-39174D01*
X88586Y-39005D01*
X88521Y-38849D01*
X88461Y-38788D01*
X88461Y-37558D01*
X88461Y-37558D01*
X88438Y-37443D01*
X88373Y-37346D01*
X88373Y-37346D01*
X88089Y-37062D01*
X87992Y-36997D01*
X87877Y-36974D01*
X87510Y-36974D01*
X87395Y-36997D01*
X87297Y-37062D01*
X87051Y-37309D01*
X86997Y-37255D01*
X86804Y-37175D01*
X86596Y-37174D01*
X86403Y-37254D01*
X86255Y-37402D01*
X86199Y-37535D01*
X86145Y-37403D01*
X85997Y-37255D01*
X85804Y-37175D01*
X85596Y-37174D01*
X85403Y-37254D01*
X85255Y-37402D01*
X85202Y-37528D01*
X85160Y-37427D01*
X85067Y-37402D01*
X84997Y-37473D01*
X84997Y-37332D01*
X84972Y-37239D01*
X84775Y-37170D01*
X84567Y-37181D01*
X84427Y-37239D01*
X84402Y-37332D01*
X84700Y-37629D01*
X84997Y-37332D01*
X84997Y-37473D01*
X84770Y-37700D01*
X84776Y-37705D01*
X84705Y-37776D01*
X84700Y-37770D01*
X84694Y-37776D01*
X84623Y-37705D01*
X84629Y-37700D01*
X84332Y-37402D01*
X84239Y-37427D01*
X84200Y-37537D01*
X84145Y-37403D01*
X83997Y-37255D01*
X83972Y-37244D01*
X84194Y-37022D01*
X86327Y-37022D01*
X86387Y-37082D01*
X86543Y-37147D01*
X86712Y-37147D01*
X86868Y-37082D01*
X86988Y-36963D01*
X87053Y-36807D01*
X87053Y-36697D01*
X87981Y-36697D01*
X90538Y-39254D01*
G54D10*
G36*
X91035Y-43000D02*
X90903Y-43054D01*
X90755Y-43202D01*
X90675Y-43395D01*
X90674Y-43600D01*
X89575Y-44700D01*
X88686Y-44700D01*
X88729Y-44575D01*
X88718Y-44367D01*
X88660Y-44227D01*
X88567Y-44202D01*
X88270Y-44500D01*
X88276Y-44505D01*
X88205Y-44576D01*
X88200Y-44570D01*
X88194Y-44576D01*
X88123Y-44505D01*
X88129Y-44500D01*
X87832Y-44202D01*
X87739Y-44227D01*
X87670Y-44424D01*
X87679Y-44601D01*
X87611Y-44534D01*
X87409Y-44450D01*
X87191Y-44449D01*
X87179Y-44454D01*
X87054Y-44329D01*
X86956Y-44264D01*
X86841Y-44241D01*
X85708Y-44241D01*
X85593Y-44264D01*
X85495Y-44329D01*
X85350Y-44475D01*
X85149Y-44474D01*
X83974Y-43300D01*
X87714Y-43300D01*
X87675Y-43395D01*
X87674Y-43603D01*
X87754Y-43797D01*
X87902Y-43944D01*
X88028Y-43997D01*
X87927Y-44039D01*
X87902Y-44132D01*
X88200Y-44429D01*
X88497Y-44132D01*
X88472Y-44039D01*
X88362Y-44000D01*
X88497Y-43945D01*
X88644Y-43797D01*
X88724Y-43604D01*
X88725Y-43399D01*
X89824Y-42300D01*
X90714Y-42300D01*
X90675Y-42395D01*
X90674Y-42603D01*
X90754Y-42797D01*
X90902Y-42944D01*
X91035Y-43000D01*
X91035Y-43000D01*
G37*
G54D20*
X91035Y-43000D02*
X90903Y-43054D01*
X90755Y-43202D01*
X90675Y-43395D01*
X90674Y-43600D01*
X89575Y-44700D01*
X88686Y-44700D01*
X88729Y-44575D01*
X88718Y-44367D01*
X88660Y-44227D01*
X88567Y-44202D01*
X88270Y-44500D01*
X88276Y-44505D01*
X88205Y-44576D01*
X88200Y-44570D01*
X88194Y-44576D01*
X88123Y-44505D01*
X88129Y-44500D01*
X87832Y-44202D01*
X87739Y-44227D01*
X87670Y-44424D01*
X87679Y-44601D01*
X87611Y-44534D01*
X87409Y-44450D01*
X87191Y-44449D01*
X87179Y-44454D01*
X87054Y-44329D01*
X86956Y-44264D01*
X86841Y-44241D01*
X85708Y-44241D01*
X85593Y-44264D01*
X85495Y-44329D01*
X85350Y-44475D01*
X85149Y-44474D01*
X83974Y-43300D01*
X87714Y-43300D01*
X87675Y-43395D01*
X87674Y-43603D01*
X87754Y-43797D01*
X87902Y-43944D01*
X88028Y-43997D01*
X87927Y-44039D01*
X87902Y-44132D01*
X88200Y-44429D01*
X88497Y-44132D01*
X88472Y-44039D01*
X88362Y-44000D01*
X88497Y-43945D01*
X88644Y-43797D01*
X88724Y-43604D01*
X88725Y-43399D01*
X89824Y-42300D01*
X90714Y-42300D01*
X90675Y-42395D01*
X90674Y-42603D01*
X90754Y-42797D01*
X90902Y-42944D01*
X91035Y-43000D01*
G54D10*
G36*
X91730Y-39231D02*
X91521Y-39022D01*
X91521Y-38198D01*
X91209Y-37886D01*
X90897Y-38198D01*
X90924Y-38293D01*
X91128Y-38365D01*
X91345Y-38354D01*
X91494Y-38293D01*
X91521Y-38198D01*
X91521Y-39022D01*
X91480Y-38981D01*
X91382Y-38916D01*
X91268Y-38894D01*
X91026Y-38894D01*
X90099Y-37967D01*
X90569Y-37967D01*
X90661Y-37929D01*
X90668Y-37922D01*
X90670Y-37951D01*
X90732Y-38100D01*
X90826Y-38127D01*
X91138Y-37815D01*
X90826Y-37503D01*
X90770Y-37519D01*
X90770Y-37077D01*
X90732Y-36985D01*
X90662Y-36914D01*
X90570Y-36876D01*
X90470Y-36876D01*
X89880Y-36876D01*
X89788Y-36914D01*
X89718Y-36984D01*
X89715Y-36991D01*
X89715Y-35985D01*
X89400Y-35670D01*
X89329Y-35741D01*
X89329Y-35600D01*
X89014Y-35284D01*
X88918Y-35312D01*
X88845Y-35518D01*
X88856Y-35736D01*
X88918Y-35887D01*
X89014Y-35915D01*
X89329Y-35600D01*
X89329Y-35741D01*
X89084Y-35985D01*
X89112Y-36081D01*
X89318Y-36154D01*
X89536Y-36143D01*
X89687Y-36081D01*
X89715Y-35985D01*
X89715Y-36991D01*
X89679Y-37076D01*
X89679Y-37176D01*
X89679Y-37547D01*
X88317Y-36185D01*
X88220Y-36120D01*
X88105Y-36097D01*
X83637Y-36097D01*
X83521Y-35981D01*
X83284Y-35882D01*
X83239Y-35882D01*
X83331Y-35791D01*
X85518Y-35791D01*
X85518Y-35791D01*
X85633Y-35768D01*
X85633Y-35768D01*
X85730Y-35703D01*
X86345Y-35088D01*
X86402Y-35144D01*
X86595Y-35224D01*
X86803Y-35225D01*
X86997Y-35145D01*
X87144Y-34997D01*
X87200Y-34864D01*
X87254Y-34997D01*
X87402Y-35144D01*
X87595Y-35224D01*
X87803Y-35225D01*
X87997Y-35145D01*
X88142Y-35000D01*
X89475Y-35000D01*
X89542Y-35066D01*
X89481Y-35045D01*
X89263Y-35056D01*
X89112Y-35118D01*
X89084Y-35214D01*
X89400Y-35529D01*
X89405Y-35523D01*
X89476Y-35594D01*
X89470Y-35600D01*
X89785Y-35915D01*
X89881Y-35887D01*
X89954Y-35681D01*
X89944Y-35468D01*
X90575Y-36099D01*
X90574Y-36303D01*
X90654Y-36497D01*
X90802Y-36644D01*
X90995Y-36724D01*
X91203Y-36725D01*
X91397Y-36645D01*
X91544Y-36497D01*
X91624Y-36304D01*
X91625Y-36096D01*
X91545Y-35903D01*
X91397Y-35755D01*
X91264Y-35699D01*
X91397Y-35645D01*
X91544Y-35497D01*
X91624Y-35304D01*
X91625Y-35096D01*
X91545Y-34903D01*
X91397Y-34755D01*
X91264Y-34699D01*
X91397Y-34645D01*
X91544Y-34497D01*
X91624Y-34304D01*
X91625Y-34096D01*
X91545Y-33903D01*
X91397Y-33755D01*
X91271Y-33702D01*
X91372Y-33660D01*
X91397Y-33567D01*
X91100Y-33270D01*
X90802Y-33567D01*
X90827Y-33660D01*
X90937Y-33699D01*
X90825Y-33745D01*
X90355Y-33275D01*
X90536Y-33166D01*
X90539Y-33169D01*
X90553Y-33156D01*
X90554Y-33155D01*
X90555Y-33153D01*
X90570Y-33138D01*
X90581Y-33332D01*
X90639Y-33472D01*
X90732Y-33497D01*
X91029Y-33200D01*
X90732Y-32902D01*
X90672Y-32918D01*
X90666Y-32882D01*
X90283Y-32772D01*
X90188Y-32676D01*
X90117Y-32747D01*
X90136Y-32766D01*
X90071Y-32991D01*
X89990Y-32911D01*
X90010Y-32843D01*
X90106Y-32747D01*
X90035Y-32676D01*
X90016Y-32695D01*
X89678Y-32598D01*
X89186Y-32106D01*
X89290Y-32149D01*
X89508Y-32150D01*
X89711Y-32066D01*
X89865Y-31911D01*
X89949Y-31709D01*
X89950Y-31491D01*
X89866Y-31288D01*
X89711Y-31134D01*
X89665Y-31114D01*
X89665Y-29571D01*
X89654Y-29354D01*
X89593Y-29205D01*
X89498Y-29178D01*
X89186Y-29490D01*
X89498Y-29802D01*
X89593Y-29775D01*
X89665Y-29571D01*
X89665Y-31114D01*
X89509Y-31050D01*
X89291Y-31049D01*
X89088Y-31133D01*
X88934Y-31288D01*
X88850Y-31490D01*
X88849Y-31708D01*
X88893Y-31813D01*
X88480Y-31400D01*
X88480Y-31020D01*
X89066Y-31020D01*
X89158Y-30982D01*
X89229Y-30911D01*
X89267Y-30820D01*
X89267Y-30720D01*
X89267Y-30130D01*
X89229Y-30038D01*
X89222Y-30031D01*
X89251Y-30029D01*
X89400Y-29967D01*
X89427Y-29873D01*
X89115Y-29561D01*
X89045Y-29631D01*
X89045Y-29490D01*
X88733Y-29178D01*
X88638Y-29205D01*
X88565Y-29409D01*
X88576Y-29626D01*
X88638Y-29775D01*
X88733Y-29802D01*
X89045Y-29490D01*
X89045Y-29631D01*
X88803Y-29873D01*
X88819Y-29929D01*
X88377Y-29929D01*
X88285Y-29967D01*
X88214Y-30037D01*
X88207Y-30056D01*
X88103Y-29952D01*
X88006Y-29887D01*
X87891Y-29864D01*
X86077Y-29864D01*
X86194Y-29747D01*
X86274Y-29554D01*
X86275Y-29346D01*
X86195Y-29153D01*
X86062Y-29019D01*
X88828Y-29019D01*
X88803Y-29108D01*
X89115Y-29419D01*
X89427Y-29108D01*
X89402Y-29019D01*
X90795Y-29019D01*
X90775Y-29028D01*
X90622Y-29181D01*
X90539Y-29381D01*
X90538Y-29598D01*
X90621Y-29799D01*
X90774Y-29952D01*
X90973Y-30035D01*
X90970Y-30037D01*
X90932Y-30129D01*
X90932Y-30229D01*
X90932Y-30819D01*
X90970Y-30911D01*
X91040Y-30981D01*
X91132Y-31020D01*
X91232Y-31020D01*
X91730Y-31020D01*
X91730Y-37635D01*
X91686Y-37530D01*
X91629Y-37514D01*
X91629Y-33275D01*
X91625Y-33186D01*
X91625Y-32425D01*
X91625Y-31875D01*
X91587Y-31783D01*
X91516Y-31713D01*
X91424Y-31675D01*
X91325Y-31674D01*
X90775Y-31674D01*
X90683Y-31712D01*
X90613Y-31783D01*
X90575Y-31875D01*
X90574Y-31974D01*
X90574Y-32207D01*
X90539Y-32172D01*
X90533Y-32178D01*
X90433Y-32099D01*
X90322Y-32115D01*
X90226Y-32451D01*
X90226Y-32088D01*
X90141Y-32015D01*
X89888Y-32053D01*
X89669Y-32186D01*
X89539Y-32349D01*
X89556Y-32459D01*
X90077Y-32609D01*
X90226Y-32088D01*
X90226Y-32451D01*
X90213Y-32498D01*
X90117Y-32594D01*
X90188Y-32665D01*
X90207Y-32646D01*
X90694Y-32786D01*
X90754Y-32716D01*
X90775Y-32724D01*
X90862Y-32725D01*
X90827Y-32739D01*
X90802Y-32832D01*
X91100Y-33129D01*
X91397Y-32832D01*
X91372Y-32739D01*
X91331Y-32725D01*
X91424Y-32725D01*
X91516Y-32687D01*
X91586Y-32616D01*
X91624Y-32524D01*
X91625Y-32425D01*
X91625Y-33186D01*
X91618Y-33067D01*
X91560Y-32927D01*
X91467Y-32902D01*
X91170Y-33200D01*
X91467Y-33497D01*
X91560Y-33472D01*
X91629Y-33275D01*
X91629Y-37514D01*
X91591Y-37503D01*
X91521Y-37574D01*
X91521Y-37433D01*
X91494Y-37338D01*
X91290Y-37265D01*
X91073Y-37276D01*
X90924Y-37338D01*
X90897Y-37433D01*
X91209Y-37745D01*
X91521Y-37433D01*
X91521Y-37574D01*
X91280Y-37815D01*
X91591Y-38127D01*
X91686Y-38100D01*
X91730Y-37978D01*
X91730Y-39231D01*
X91730Y-39231D01*
G37*
G54D20*
X91730Y-39231D02*
X91521Y-39022D01*
X91521Y-38198D01*
X91209Y-37886D01*
X90897Y-38198D01*
X90924Y-38293D01*
X91128Y-38365D01*
X91345Y-38354D01*
X91494Y-38293D01*
X91521Y-38198D01*
X91521Y-39022D01*
X91480Y-38981D01*
X91382Y-38916D01*
X91268Y-38894D01*
X91026Y-38894D01*
X90099Y-37967D01*
X90569Y-37967D01*
X90661Y-37929D01*
X90668Y-37922D01*
X90670Y-37951D01*
X90732Y-38100D01*
X90826Y-38127D01*
X91138Y-37815D01*
X90826Y-37503D01*
X90770Y-37519D01*
X90770Y-37077D01*
X90732Y-36985D01*
X90662Y-36914D01*
X90570Y-36876D01*
X90470Y-36876D01*
X89880Y-36876D01*
X89788Y-36914D01*
X89718Y-36984D01*
X89715Y-36991D01*
X89715Y-35985D01*
X89400Y-35670D01*
X89329Y-35741D01*
X89329Y-35600D01*
X89014Y-35284D01*
X88918Y-35312D01*
X88845Y-35518D01*
X88856Y-35736D01*
X88918Y-35887D01*
X89014Y-35915D01*
X89329Y-35600D01*
X89329Y-35741D01*
X89084Y-35985D01*
X89112Y-36081D01*
X89318Y-36154D01*
X89536Y-36143D01*
X89687Y-36081D01*
X89715Y-35985D01*
X89715Y-36991D01*
X89679Y-37076D01*
X89679Y-37176D01*
X89679Y-37547D01*
X88317Y-36185D01*
X88220Y-36120D01*
X88105Y-36097D01*
X83637Y-36097D01*
X83521Y-35981D01*
X83284Y-35882D01*
X83239Y-35882D01*
X83331Y-35791D01*
X85518Y-35791D01*
X85518Y-35791D01*
X85633Y-35768D01*
X85633Y-35768D01*
X85730Y-35703D01*
X86345Y-35088D01*
X86402Y-35144D01*
X86595Y-35224D01*
X86803Y-35225D01*
X86997Y-35145D01*
X87144Y-34997D01*
X87200Y-34864D01*
X87254Y-34997D01*
X87402Y-35144D01*
X87595Y-35224D01*
X87803Y-35225D01*
X87997Y-35145D01*
X88142Y-35000D01*
X89475Y-35000D01*
X89542Y-35066D01*
X89481Y-35045D01*
X89263Y-35056D01*
X89112Y-35118D01*
X89084Y-35214D01*
X89400Y-35529D01*
X89405Y-35523D01*
X89476Y-35594D01*
X89470Y-35600D01*
X89785Y-35915D01*
X89881Y-35887D01*
X89954Y-35681D01*
X89944Y-35468D01*
X90575Y-36099D01*
X90574Y-36303D01*
X90654Y-36497D01*
X90802Y-36644D01*
X90995Y-36724D01*
X91203Y-36725D01*
X91397Y-36645D01*
X91544Y-36497D01*
X91624Y-36304D01*
X91625Y-36096D01*
X91545Y-35903D01*
X91397Y-35755D01*
X91264Y-35699D01*
X91397Y-35645D01*
X91544Y-35497D01*
X91624Y-35304D01*
X91625Y-35096D01*
X91545Y-34903D01*
X91397Y-34755D01*
X91264Y-34699D01*
X91397Y-34645D01*
X91544Y-34497D01*
X91624Y-34304D01*
X91625Y-34096D01*
X91545Y-33903D01*
X91397Y-33755D01*
X91271Y-33702D01*
X91372Y-33660D01*
X91397Y-33567D01*
X91100Y-33270D01*
X90802Y-33567D01*
X90827Y-33660D01*
X90937Y-33699D01*
X90825Y-33745D01*
X90355Y-33275D01*
X90536Y-33166D01*
X90539Y-33169D01*
X90553Y-33156D01*
X90554Y-33155D01*
X90555Y-33153D01*
X90570Y-33138D01*
X90581Y-33332D01*
X90639Y-33472D01*
X90732Y-33497D01*
X91029Y-33200D01*
X90732Y-32902D01*
X90672Y-32918D01*
X90666Y-32882D01*
X90283Y-32772D01*
X90188Y-32676D01*
X90117Y-32747D01*
X90136Y-32766D01*
X90071Y-32991D01*
X89990Y-32911D01*
X90010Y-32843D01*
X90106Y-32747D01*
X90035Y-32676D01*
X90016Y-32695D01*
X89678Y-32598D01*
X89186Y-32106D01*
X89290Y-32149D01*
X89508Y-32150D01*
X89711Y-32066D01*
X89865Y-31911D01*
X89949Y-31709D01*
X89950Y-31491D01*
X89866Y-31288D01*
X89711Y-31134D01*
X89665Y-31114D01*
X89665Y-29571D01*
X89654Y-29354D01*
X89593Y-29205D01*
X89498Y-29178D01*
X89186Y-29490D01*
X89498Y-29802D01*
X89593Y-29775D01*
X89665Y-29571D01*
X89665Y-31114D01*
X89509Y-31050D01*
X89291Y-31049D01*
X89088Y-31133D01*
X88934Y-31288D01*
X88850Y-31490D01*
X88849Y-31708D01*
X88893Y-31813D01*
X88480Y-31400D01*
X88480Y-31020D01*
X89066Y-31020D01*
X89158Y-30982D01*
X89229Y-30911D01*
X89267Y-30820D01*
X89267Y-30720D01*
X89267Y-30130D01*
X89229Y-30038D01*
X89222Y-30031D01*
X89251Y-30029D01*
X89400Y-29967D01*
X89427Y-29873D01*
X89115Y-29561D01*
X89045Y-29631D01*
X89045Y-29490D01*
X88733Y-29178D01*
X88638Y-29205D01*
X88565Y-29409D01*
X88576Y-29626D01*
X88638Y-29775D01*
X88733Y-29802D01*
X89045Y-29490D01*
X89045Y-29631D01*
X88803Y-29873D01*
X88819Y-29929D01*
X88377Y-29929D01*
X88285Y-29967D01*
X88214Y-30037D01*
X88207Y-30056D01*
X88103Y-29952D01*
X88006Y-29887D01*
X87891Y-29864D01*
X86077Y-29864D01*
X86194Y-29747D01*
X86274Y-29554D01*
X86275Y-29346D01*
X86195Y-29153D01*
X86062Y-29019D01*
X88828Y-29019D01*
X88803Y-29108D01*
X89115Y-29419D01*
X89427Y-29108D01*
X89402Y-29019D01*
X90795Y-29019D01*
X90775Y-29028D01*
X90622Y-29181D01*
X90539Y-29381D01*
X90538Y-29598D01*
X90621Y-29799D01*
X90774Y-29952D01*
X90973Y-30035D01*
X90970Y-30037D01*
X90932Y-30129D01*
X90932Y-30229D01*
X90932Y-30819D01*
X90970Y-30911D01*
X91040Y-30981D01*
X91132Y-31020D01*
X91232Y-31020D01*
X91730Y-31020D01*
X91730Y-37635D01*
X91686Y-37530D01*
X91629Y-37514D01*
X91629Y-33275D01*
X91625Y-33186D01*
X91625Y-32425D01*
X91625Y-31875D01*
X91587Y-31783D01*
X91516Y-31713D01*
X91424Y-31675D01*
X91325Y-31674D01*
X90775Y-31674D01*
X90683Y-31712D01*
X90613Y-31783D01*
X90575Y-31875D01*
X90574Y-31974D01*
X90574Y-32207D01*
X90539Y-32172D01*
X90533Y-32178D01*
X90433Y-32099D01*
X90322Y-32115D01*
X90226Y-32451D01*
X90226Y-32088D01*
X90141Y-32015D01*
X89888Y-32053D01*
X89669Y-32186D01*
X89539Y-32349D01*
X89556Y-32459D01*
X90077Y-32609D01*
X90226Y-32088D01*
X90226Y-32451D01*
X90213Y-32498D01*
X90117Y-32594D01*
X90188Y-32665D01*
X90207Y-32646D01*
X90694Y-32786D01*
X90754Y-32716D01*
X90775Y-32724D01*
X90862Y-32725D01*
X90827Y-32739D01*
X90802Y-32832D01*
X91100Y-33129D01*
X91397Y-32832D01*
X91372Y-32739D01*
X91331Y-32725D01*
X91424Y-32725D01*
X91516Y-32687D01*
X91586Y-32616D01*
X91624Y-32524D01*
X91625Y-32425D01*
X91625Y-33186D01*
X91618Y-33067D01*
X91560Y-32927D01*
X91467Y-32902D01*
X91170Y-33200D01*
X91467Y-33497D01*
X91560Y-33472D01*
X91629Y-33275D01*
X91629Y-37514D01*
X91591Y-37503D01*
X91521Y-37574D01*
X91521Y-37433D01*
X91494Y-37338D01*
X91290Y-37265D01*
X91073Y-37276D01*
X90924Y-37338D01*
X90897Y-37433D01*
X91209Y-37745D01*
X91521Y-37433D01*
X91521Y-37574D01*
X91280Y-37815D01*
X91591Y-38127D01*
X91686Y-38100D01*
X91730Y-37978D01*
X91730Y-39231D01*
G54D10*
G36*
X91730Y-47980D02*
X91630Y-47980D01*
X91647Y-47917D01*
X91350Y-47620D01*
X91279Y-47691D01*
X91279Y-47550D01*
X90982Y-47252D01*
X90889Y-47277D01*
X90820Y-47474D01*
X90831Y-47682D01*
X90889Y-47822D01*
X90982Y-47847D01*
X91279Y-47550D01*
X91279Y-47691D01*
X91052Y-47917D01*
X91069Y-47980D01*
X88047Y-47980D01*
X88047Y-46367D01*
X87750Y-46070D01*
X87452Y-46367D01*
X87477Y-46460D01*
X87674Y-46529D01*
X87882Y-46518D01*
X88022Y-46460D01*
X88047Y-46367D01*
X88047Y-47980D01*
X86272Y-47980D01*
X86274Y-47974D01*
X86275Y-47875D01*
X86275Y-47325D01*
X86237Y-47233D01*
X86166Y-47163D01*
X86074Y-47125D01*
X85975Y-47124D01*
X85425Y-47124D01*
X85333Y-47162D01*
X85263Y-47233D01*
X85225Y-47325D01*
X85224Y-47424D01*
X85224Y-47424D01*
X85195Y-47353D01*
X85047Y-47205D01*
X84854Y-47125D01*
X84646Y-47124D01*
X84453Y-47204D01*
X84305Y-47352D01*
X84249Y-47485D01*
X84195Y-47353D01*
X84047Y-47205D01*
X83992Y-47182D01*
X84649Y-46524D01*
X84853Y-46525D01*
X85047Y-46445D01*
X85194Y-46297D01*
X85250Y-46164D01*
X85304Y-46297D01*
X85452Y-46444D01*
X85645Y-46524D01*
X85853Y-46525D01*
X86047Y-46445D01*
X86194Y-46297D01*
X86250Y-46164D01*
X86304Y-46297D01*
X86452Y-46444D01*
X86645Y-46524D01*
X86853Y-46525D01*
X87047Y-46445D01*
X87194Y-46297D01*
X87247Y-46171D01*
X87289Y-46272D01*
X87382Y-46297D01*
X87679Y-46000D01*
X87673Y-45994D01*
X87744Y-45923D01*
X87750Y-45929D01*
X87755Y-45923D01*
X87826Y-45994D01*
X87820Y-46000D01*
X88117Y-46297D01*
X88210Y-46272D01*
X88249Y-46162D01*
X88304Y-46297D01*
X88452Y-46444D01*
X88645Y-46524D01*
X88853Y-46525D01*
X89047Y-46445D01*
X89194Y-46297D01*
X89274Y-46104D01*
X89275Y-45896D01*
X89214Y-45750D01*
X90249Y-45750D01*
X90249Y-45750D01*
X90364Y-45727D01*
X90364Y-45727D01*
X90461Y-45662D01*
X91099Y-45024D01*
X91303Y-45025D01*
X91497Y-44945D01*
X91644Y-44797D01*
X91724Y-44604D01*
X91725Y-44396D01*
X91645Y-44203D01*
X91497Y-44055D01*
X91364Y-43999D01*
X91497Y-43945D01*
X91644Y-43797D01*
X91724Y-43604D01*
X91725Y-43396D01*
X91645Y-43203D01*
X91497Y-43055D01*
X91364Y-42999D01*
X91497Y-42945D01*
X91644Y-42797D01*
X91724Y-42604D01*
X91725Y-42396D01*
X91645Y-42203D01*
X91585Y-42142D01*
X91730Y-41997D01*
X91730Y-46048D01*
X91674Y-46025D01*
X91575Y-46024D01*
X91025Y-46024D01*
X90933Y-46062D01*
X90863Y-46133D01*
X90825Y-46225D01*
X90824Y-46324D01*
X90824Y-46874D01*
X90862Y-46966D01*
X90933Y-47036D01*
X91025Y-47074D01*
X91112Y-47075D01*
X91077Y-47089D01*
X91052Y-47182D01*
X91350Y-47479D01*
X91647Y-47182D01*
X91622Y-47089D01*
X91581Y-47075D01*
X91674Y-47075D01*
X91730Y-47051D01*
X91730Y-47256D01*
X91717Y-47252D01*
X91420Y-47550D01*
X91717Y-47847D01*
X91730Y-47843D01*
X91730Y-47980D01*
X91730Y-47980D01*
G37*
G54D20*
X91730Y-47980D02*
X91630Y-47980D01*
X91647Y-47917D01*
X91350Y-47620D01*
X91279Y-47691D01*
X91279Y-47550D01*
X90982Y-47252D01*
X90889Y-47277D01*
X90820Y-47474D01*
X90831Y-47682D01*
X90889Y-47822D01*
X90982Y-47847D01*
X91279Y-47550D01*
X91279Y-47691D01*
X91052Y-47917D01*
X91069Y-47980D01*
X88047Y-47980D01*
X88047Y-46367D01*
X87750Y-46070D01*
X87452Y-46367D01*
X87477Y-46460D01*
X87674Y-46529D01*
X87882Y-46518D01*
X88022Y-46460D01*
X88047Y-46367D01*
X88047Y-47980D01*
X86272Y-47980D01*
X86274Y-47974D01*
X86275Y-47875D01*
X86275Y-47325D01*
X86237Y-47233D01*
X86166Y-47163D01*
X86074Y-47125D01*
X85975Y-47124D01*
X85425Y-47124D01*
X85333Y-47162D01*
X85263Y-47233D01*
X85225Y-47325D01*
X85224Y-47424D01*
X85224Y-47424D01*
X85195Y-47353D01*
X85047Y-47205D01*
X84854Y-47125D01*
X84646Y-47124D01*
X84453Y-47204D01*
X84305Y-47352D01*
X84249Y-47485D01*
X84195Y-47353D01*
X84047Y-47205D01*
X83992Y-47182D01*
X84649Y-46524D01*
X84853Y-46525D01*
X85047Y-46445D01*
X85194Y-46297D01*
X85250Y-46164D01*
X85304Y-46297D01*
X85452Y-46444D01*
X85645Y-46524D01*
X85853Y-46525D01*
X86047Y-46445D01*
X86194Y-46297D01*
X86250Y-46164D01*
X86304Y-46297D01*
X86452Y-46444D01*
X86645Y-46524D01*
X86853Y-46525D01*
X87047Y-46445D01*
X87194Y-46297D01*
X87247Y-46171D01*
X87289Y-46272D01*
X87382Y-46297D01*
X87679Y-46000D01*
X87673Y-45994D01*
X87744Y-45923D01*
X87750Y-45929D01*
X87755Y-45923D01*
X87826Y-45994D01*
X87820Y-46000D01*
X88117Y-46297D01*
X88210Y-46272D01*
X88249Y-46162D01*
X88304Y-46297D01*
X88452Y-46444D01*
X88645Y-46524D01*
X88853Y-46525D01*
X89047Y-46445D01*
X89194Y-46297D01*
X89274Y-46104D01*
X89275Y-45896D01*
X89214Y-45750D01*
X90249Y-45750D01*
X90249Y-45750D01*
X90364Y-45727D01*
X90364Y-45727D01*
X90461Y-45662D01*
X91099Y-45024D01*
X91303Y-45025D01*
X91497Y-44945D01*
X91644Y-44797D01*
X91724Y-44604D01*
X91725Y-44396D01*
X91645Y-44203D01*
X91497Y-44055D01*
X91364Y-43999D01*
X91497Y-43945D01*
X91644Y-43797D01*
X91724Y-43604D01*
X91725Y-43396D01*
X91645Y-43203D01*
X91497Y-43055D01*
X91364Y-42999D01*
X91497Y-42945D01*
X91644Y-42797D01*
X91724Y-42604D01*
X91725Y-42396D01*
X91645Y-42203D01*
X91585Y-42142D01*
X91730Y-41997D01*
X91730Y-46048D01*
X91674Y-46025D01*
X91575Y-46024D01*
X91025Y-46024D01*
X90933Y-46062D01*
X90863Y-46133D01*
X90825Y-46225D01*
X90824Y-46324D01*
X90824Y-46874D01*
X90862Y-46966D01*
X90933Y-47036D01*
X91025Y-47074D01*
X91112Y-47075D01*
X91077Y-47089D01*
X91052Y-47182D01*
X91350Y-47479D01*
X91647Y-47182D01*
X91622Y-47089D01*
X91581Y-47075D01*
X91674Y-47075D01*
X91730Y-47051D01*
X91730Y-47256D01*
X91717Y-47252D01*
X91420Y-47550D01*
X91717Y-47847D01*
X91730Y-47843D01*
X91730Y-47980D01*
M02*
