<?xml version="1.0" standalone="no"?>
 <!DOCTYPE svg PUBLIC "-//W3C//DTD SVG 1.1//EN" 
 "http://www.w3.org/Graphics/SVG/1.1/DTD/svg11.dtd"> 
<svg xmlns="http://www.w3.org/2000/svg" version="1.1" 
    width="29.7002cm" height="21.0007cm" viewBox="0 0 116930 82680 ">
<title>SVG Picture created as matrix7219_5cm-B_Cu.svg date 2014/06/01 15:36:14 </title>
  <desc>Picture generated by PCBNEW </desc>
<g style="fill:#000000; fill-opacity:1;stroke:#000000; stroke-opacity:1;
stroke-linecap:round; stroke-linejoin:round; "
 transform="translate(0 0) scale(1 1)">
</g>
<g style="fill:#000000; fill-opacity:0.0; 
stroke:#000000; stroke-width:39.3701; stroke-opacity:1; 
stroke-linecap:round; stroke-linejoin:round;">
<path d="M4000 4000
L112930 4000
L112930 78680
L4000 78680
L4000 4000
" />
<path d="M4700 4700
L112230 4700
L112230 77980
L4700 77980
L4700 4700
" />
<path d="M25780 4000
L25780 4700
" />
<path d="M15032 4552
L14747 4552
" />
<path d="M14890 4552
L14890 4052
L14842 4123
L14794 4171
L14747 4195
" />
<path d="M25780 78680
L25780 77980
" />
<path d="M15032 78532
L14747 78532
" />
<path d="M14890 78532
L14890 78032
L14842 78103
L14794 78151
L14747 78175
" />
<path d="M47560 4000
L47560 4700
" />
<path d="M36527 4100
L36550 4076
L36598 4052
L36717 4052
L36765 4076
L36789 4100
L36812 4147
L36812 4195
L36789 4266
L36503 4552
L36812 4552
" />
<path d="M47560 78680
L47560 77980
" />
<path d="M36527 78080
L36550 78056
L36598 78032
L36717 78032
L36765 78056
L36789 78080
L36812 78127
L36812 78175
L36789 78246
L36503 78532
L36812 78532
" />
<path d="M69340 4000
L69340 4700
" />
<path d="M58283 4052
L58592 4052
L58426 4242
L58497 4242
L58545 4266
L58569 4290
L58592 4338
L58592 4457
L58569 4504
L58545 4528
L58497 4552
L58354 4552
L58307 4528
L58283 4504
" />
<path d="M69340 78680
L69340 77980
" />
<path d="M58283 78032
L58592 78032
L58426 78222
L58497 78222
L58545 78246
L58569 78270
L58592 78318
L58592 78437
L58569 78484
L58545 78508
L58497 78532
L58354 78532
L58307 78508
L58283 78484
" />
<path d="M91120 4000
L91120 4700
" />
<path d="M80325 4219
L80325 4552
" />
<path d="M80206 4028
L80087 4385
L80396 4385
" />
<path d="M91120 78680
L91120 77980
" />
<path d="M80325 78199
L80325 78532
" />
<path d="M80206 78008
L80087 78365
L80396 78365
" />
<path d="M102129 4052
L101890 4052
L101867 4290
L101890 4266
L101938 4242
L102057 4242
L102105 4266
L102129 4290
L102152 4338
L102152 4457
L102129 4504
L102105 4528
L102057 4552
L101938 4552
L101890 4528
L101867 4504
" />
<path d="M102129 78032
L101890 78032
L101867 78270
L101890 78246
L101938 78222
L102057 78222
L102105 78246
L102129 78270
L102152 78318
L102152 78437
L102129 78484
L102105 78508
L102057 78532
L101938 78532
L101890 78508
L101867 78484
" />
<path d="M4000 28890
L4700 28890
" />
<path d="M4230 16509
L4469 16509
" />
<path d="M4183 16652
L4350 16152
L4516 16652
" />
<path d="M112930 28890
L112230 28890
" />
<path d="M112460 16509
L112699 16509
" />
<path d="M112413 16652
L112580 16152
L112746 16652
" />
<path d="M4000 53780
L4700 53780
" />
<path d="M4385 41280
L4457 41304
L4480 41328
L4504 41375
L4504 41447
L4480 41494
L4457 41518
L4409 41542
L4219 41542
L4219 41042
L4385 41042
L4433 41066
L4457 41090
L4480 41137
L4480 41185
L4457 41232
L4433 41256
L4385 41280
L4219 41280
" />
<path d="M112930 53780
L112230 53780
" />
<path d="M112615 41280
L112687 41304
L112710 41328
L112734 41375
L112734 41447
L112710 41494
L112687 41518
L112639 41542
L112449 41542
L112449 41042
L112615 41042
L112663 41066
L112687 41090
L112710 41137
L112710 41185
L112687 41232
L112663 41256
L112615 41280
L112449 41280
" />
<path d="M4504 66384
L4480 66408
L4409 66432
L4361 66432
L4290 66408
L4242 66360
L4219 66313
L4195 66218
L4195 66146
L4219 66051
L4242 66003
L4290 65956
L4361 65932
L4409 65932
L4480 65956
L4504 65980
" />
<path d="M112734 66384
L112710 66408
L112639 66432
L112591 66432
L112520 66408
L112472 66360
L112449 66313
L112425 66218
L112425 66146
L112449 66051
L112472 66003
L112520 65956
L112591 65932
L112639 65932
L112710 65956
L112734 65980
" />
<path d="M79380 76422
L79455 75822
L79597 75822
L79680 75851
L79730 75908
L79751 75965
L79765 76080
L79755 76165
L79712 76280
L79676 76337
L79612 76394
L79522 76422
L79380 76422
" />
<path d="M80237 76422
L80276 76108
L80255 76051
L80201 76022
L80087 76022
L80026 76051
" />
<path d="M80240 76394
L80180 76422
L80037 76422
L79983 76394
L79962 76337
L79969 76280
L80005 76222
L80065 76194
L80208 76194
L80269 76165
" />
<path d="M80487 76022
L80715 76022
" />
<path d="M80597 75822
L80533 76337
L80555 76394
L80608 76422
L80665 76422
" />
<path d="M81097 76394
L81037 76422
L80922 76422
L80869 76394
L80847 76337
L80876 76108
L80912 76051
L80972 76022
L81087 76022
L81140 76051
L81162 76108
L81155 76165
L80862 76222
" />
<path d="M81387 76365
L81412 76394
L81380 76422
L81355 76394
L81387 76365
L81380 76422
" />
<path d="M81426 76051
L81451 76080
L81419 76108
L81394 76080
L81426 76051
L81419 76108
" />
<path d="M82437 76422
L82094 76422
" />
<path d="M82265 76422
L82340 75822
L82272 75908
L82208 75965
L82147 75994
" />
<path d="M83201 76022
L83137 76537
L83101 76594
L83040 76622
L83012 76622
" />
<path d="M83226 75822
L83194 75851
L83219 75880
L83251 75851
L83226 75822
L83219 75880
" />
<path d="M83744 76022
L83694 76422
" />
<path d="M83487 76022
L83447 76337
L83469 76394
L83522 76422
L83608 76422
L83669 76394
L83701 76365
" />
<path d="M84030 76022
L83980 76422
" />
<path d="M84022 76080
L84055 76051
L84115 76022
L84201 76022
L84255 76051
L84276 76108
L84237 76422
" />
<path d="M85019 75880
L85051 75851
L85112 75822
L85255 75822
L85308 75851
L85333 75880
L85355 75937
L85347 75994
L85308 76080
L84922 76422
L85294 76422
" />
<path d="M85740 75822
L85797 75822
L85851 75851
L85876 75880
L85897 75937
L85912 76051
L85894 76194
L85851 76308
L85815 76365
L85783 76394
L85722 76422
L85665 76422
L85612 76394
L85587 76365
L85565 76308
L85551 76194
L85569 76051
L85612 75937
L85647 75880
L85680 75851
L85740 75822
" />
<path d="M86437 76422
L86094 76422
" />
<path d="M86265 76422
L86340 75822
L86272 75908
L86208 75965
L86147 75994
" />
<path d="M87001 76022
L86951 76422
" />
<path d="M86887 75794
L86690 76222
L87062 76222
" />
<path d="M70972 77622
L70972 77022
" />
<path d="M71315 77622
L71058 77280
" />
<path d="M71315 77022
L70972 77365
" />
<path d="M71572 77622
L71572 77222
" />
<path d="M71572 77022
L71544 77051
L71572 77080
L71601 77051
L71572 77022
L71572 77080
" />
<path d="M72201 77565
L72172 77594
L72087 77622
L72030 77622
L71944 77594
L71887 77537
L71858 77480
L71830 77365
L71830 77280
L71858 77165
L71887 77108
L71944 77051
L72030 77022
L72087 77022
L72172 77051
L72201 77080
" />
<path d="M72715 77622
L72715 77308
L72687 77251
L72630 77222
L72515 77222
L72458 77251
" />
<path d="M72715 77594
L72658 77622
L72515 77622
L72458 77594
L72430 77537
L72430 77480
L72458 77422
L72515 77394
L72658 77394
L72715 77365
" />
<path d="M73258 77622
L73258 77022
" />
<path d="M73258 77594
L73201 77622
L73087 77622
L73030 77594
L73001 77565
L72972 77508
L72972 77337
L73001 77280
L73030 77251
L73087 77222
L73201 77222
L73258 77251
" />
<path d="M74001 77308
L74201 77308
" />
<path d="M74287 77622
L74001 77622
L74001 77022
L74287 77022
" />
<path d="M74544 77565
L74572 77594
L74544 77622
L74515 77594
L74544 77565
L74544 77622
" />
<path d="M74829 77622
L74829 77022
L74972 77022
L75058 77051
L75115 77108
L75144 77165
L75172 77280
L75172 77365
L75144 77480
L75115 77537
L75058 77594
L74972 77622
L74829 77622
" />
<path d="M75429 77565
L75458 77594
L75429 77622
L75401 77594
L75429 77565
L75429 77622
" />
<path d="M75687 77451
L75972 77451
" />
<path d="M75629 77622
L75829 77022
L76029 77622
" />
<path d="M76229 77565
L76258 77594
L76229 77622
L76201 77594
L76229 77565
L76229 77622
" />
<path d="M104522 76422
L104358 76137
" />
<path d="M104180 76422
L104255 75822
L104483 75822
L104537 75851
L104562 75880
L104583 75937
L104572 76022
L104537 76080
L104505 76108
L104444 76137
L104215 76137
" />
<path d="M105012 76394
L104951 76422
L104837 76422
L104783 76394
L104762 76337
L104790 76108
L104826 76051
L104887 76022
L105001 76022
L105055 76051
L105076 76108
L105069 76165
L104776 76222
" />
<path d="M105287 76022
L105380 76422
L105572 76022
" />
<path d="M105758 76365
L105783 76394
L105751 76422
L105726 76394
L105758 76365
L105751 76422
" />
<path d="M105797 76051
L105822 76080
L105790 76108
L105765 76080
L105797 76051
L105790 76108
" />
<path d="M70944 76394
L71030 76422
L71172 76422
L71230 76394
L71258 76365
L71287 76308
L71287 76251
L71258 76194
L71230 76165
L71172 76137
L71058 76108
L71001 76080
L70972 76051
L70944 75994
L70944 75937
L70972 75880
L71001 75851
L71058 75822
L71201 75822
L71287 75851
" />
<path d="M71544 76422
L71544 76022
" />
<path d="M71544 75822
L71515 75851
L71544 75880
L71572 75851
L71544 75822
L71544 75880
" />
<path d="M71772 76022
L72087 76022
L71772 76422
L72087 76422
" />
<path d="M72544 76394
L72487 76422
L72372 76422
L72315 76394
L72287 76337
L72287 76108
L72315 76051
L72372 76022
L72487 76022
L72544 76051
L72572 76108
L72572 76165
L72287 76222
" />
<path d="M72830 76365
L72858 76394
L72830 76422
L72801 76394
L72830 76365
L72830 76422
" />
<path d="M72830 76051
L72858 76080
L72830 76108
L72801 76080
L72830 76051
L72830 76108
" />
<path d="M73544 76251
L73830 76251
" />
<path d="M73487 76422
L73687 75822
L73887 76422
" />
<path d="M74344 76022
L74344 76422
" />
<path d="M74201 75794
L74058 76222
L74430 76222
" />
<path d="M104172 77622
L104172 77022
" />
<path d="M104715 77622
L104715 77022
" />
<path d="M104715 77594
L104658 77622
L104544 77622
L104487 77594
L104458 77565
L104430 77508
L104430 77337
L104458 77280
L104487 77251
L104544 77222
L104658 77222
L104715 77251
" />
<path d="M105001 77565
L105030 77594
L105001 77622
L104972 77594
L105001 77565
L105001 77622
" />
<path d="M105001 77251
L105030 77280
L105001 77308
L104972 77280
L105001 77251
L105001 77308
" />
<path d="M106058 77622
L105715 77622
" />
<path d="M105887 77622
L105887 77022
L105829 77108
L105772 77165
L105715 77194
" />
<path d="M106744 76994
L106230 77765
" />
<path d="M107258 77622
L106915 77622
" />
<path d="M107087 77622
L107087 77022
L107029 77108
L106972 77165
L106915 77194
" />
<path d="M70969 74622
L71312 74622
" />
<path d="M71065 75222
L71140 74622
" />
<path d="M71437 75222
L71487 74822
" />
<path d="M71512 74622
L71480 74651
L71505 74680
L71537 74651
L71512 74622
L71505 74680
" />
<path d="M71687 74822
L71915 74822
" />
<path d="M71797 74622
L71733 75137
L71755 75194
L71808 75222
L71865 75222
" />
<path d="M72151 75222
L72097 75194
L72076 75137
L72140 74622
" />
<path d="M72612 75194
L72551 75222
L72437 75222
L72383 75194
L72362 75137
L72390 74908
L72426 74851
L72487 74822
L72601 74822
L72655 74851
L72676 74908
L72669 74965
L72376 75022
" />
<path d="M72901 75165
L72926 75194
L72894 75222
L72869 75194
L72901 75165
L72894 75222
" />
<path d="M72940 74851
L72965 74880
L72933 74908
L72908 74880
L72940 74851
L72933 74908
" />
<path d="M71172 72508
L70972 72508
" />
<path d="M70972 72822
L70972 72222
L71258 72222
" />
<path d="M71487 72822
L71487 72422
" />
<path d="M71487 72222
L71458 72251
L71487 72280
L71515 72251
L71487 72222
L71487 72280
" />
<path d="M71858 72822
L71801 72794
L71772 72737
L71772 72222
" />
<path d="M72315 72794
L72258 72822
L72144 72822
L72087 72794
L72058 72737
L72058 72508
L72087 72451
L72144 72422
L72258 72422
L72315 72451
L72344 72508
L72344 72565
L72058 72622
" />
<path d="M72601 72765
L72630 72794
L72601 72822
L72572 72794
L72601 72765
L72601 72822
" />
<path d="M72601 72451
L72630 72480
L72601 72508
L72572 72480
L72601 72451
L72601 72508
" />
<path d="M73344 72822
L73344 72422
" />
<path d="M73344 72480
L73372 72451
L73430 72422
L73515 72422
L73572 72451
L73601 72508
L73601 72822
" />
<path d="M73601 72508
L73630 72451
L73687 72422
L73772 72422
L73830 72451
L73858 72508
L73858 72822
" />
<path d="M74401 72822
L74401 72508
L74372 72451
L74315 72422
L74201 72422
L74144 72451
" />
<path d="M74401 72794
L74344 72822
L74201 72822
L74144 72794
L74115 72737
L74115 72680
L74144 72622
L74201 72594
L74344 72594
L74401 72565
" />
<path d="M74601 72422
L74830 72422
" />
<path d="M74687 72222
L74687 72737
L74715 72794
L74772 72822
L74830 72822
" />
<path d="M75030 72822
L75030 72422
" />
<path d="M75030 72537
L75058 72480
L75087 72451
L75144 72422
L75201 72422
" />
<path d="M75401 72822
L75401 72422
" />
<path d="M75401 72222
L75372 72251
L75401 72280
L75430 72251
L75401 72222
L75401 72280
" />
<path d="M75630 72822
L75944 72422
" />
<path d="M75630 72422
L75944 72822
" />
<path d="M76115 72222
L76515 72222
L76258 72822
" />
<path d="M76715 72280
L76744 72251
L76801 72222
L76944 72222
L77001 72251
L77030 72280
L77058 72337
L77058 72394
L77030 72480
L76687 72822
L77058 72822
" />
<path d="M77630 72822
L77287 72822
" />
<path d="M77458 72822
L77458 72222
L77401 72308
L77344 72365
L77287 72394
" />
<path d="M77915 72822
L78030 72822
L78087 72794
L78115 72765
L78172 72680
L78201 72565
L78201 72337
L78172 72280
L78144 72251
L78087 72222
L77972 72222
L77915 72251
L77887 72280
L77858 72337
L77858 72480
L77887 72537
L77915 72565
L77972 72594
L78087 72594
L78144 72565
L78172 72537
L78201 72480
" />
<path d="M78315 72880
L78772 72880
" />
<path d="M79201 72222
L78915 72222
L78887 72508
L78915 72480
L78972 72451
L79115 72451
L79172 72480
L79201 72508
L79230 72565
L79230 72708
L79201 72765
L79172 72794
L79115 72822
L78972 72822
L78915 72794
L78887 72765
" />
<path d="M79744 72794
L79687 72822
L79572 72822
L79515 72794
L79487 72765
L79458 72708
L79458 72537
L79487 72480
L79515 72451
L79572 72422
L79687 72422
L79744 72451
" />
<path d="M80001 72822
L80001 72422
" />
<path d="M80001 72480
L80030 72451
L80087 72422
L80172 72422
L80230 72451
L80258 72508
L80258 72822
" />
<path d="M80258 72508
L80287 72451
L80344 72422
L80430 72422
L80487 72451
L80515 72508
L80515 72822
" />
<path d="M80801 72765
L80830 72794
L80801 72822
L80772 72794
L80801 72765
L80801 72822
" />
<path d="M81087 72822
L81087 72222
" />
<path d="M81144 72594
L81315 72822
" />
<path d="M81315 72422
L81087 72651
" />
<path d="M81572 72822
L81572 72422
" />
<path d="M81572 72222
L81544 72251
L81572 72280
L81601 72251
L81572 72222
L81572 72280
" />
<path d="M82115 72794
L82058 72822
L81944 72822
L81887 72794
L81858 72765
L81830 72708
L81830 72537
L81858 72480
L81887 72451
L81944 72422
L82058 72422
L82115 72451
" />
<path d="M82630 72822
L82630 72508
L82601 72451
L82544 72422
L82430 72422
L82372 72451
" />
<path d="M82630 72794
L82572 72822
L82430 72822
L82372 72794
L82344 72737
L82344 72680
L82372 72622
L82430 72594
L82572 72594
L82630 72565
" />
<path d="M83172 72822
L83172 72222
" />
<path d="M83172 72794
L83115 72822
L83001 72822
L82944 72794
L82915 72765
L82887 72708
L82887 72537
L82915 72480
L82944 72451
L83001 72422
L83115 72422
L83172 72451
" />
<path d="M83315 72880
L83772 72880
" />
<path d="M83915 72422
L83915 73022
" />
<path d="M83915 72451
L83972 72422
L84087 72422
L84144 72451
L84172 72480
L84201 72537
L84201 72708
L84172 72765
L84144 72794
L84087 72822
L83972 72822
L83915 72794
" />
<path d="M84715 72794
L84658 72822
L84544 72822
L84487 72794
L84458 72765
L84430 72708
L84430 72537
L84458 72480
L84487 72451
L84544 72422
L84658 72422
L84715 72451
" />
<path d="M84972 72822
L84972 72222
" />
<path d="M84972 72451
L85030 72422
L85144 72422
L85201 72451
L85230 72480
L85258 72537
L85258 72708
L85230 72765
L85201 72794
L85144 72822
L85030 72822
L84972 72794
" />
<path d="M70944 73994
L71030 74022
L71172 74022
L71230 73994
L71258 73965
L71287 73908
L71287 73851
L71258 73794
L71230 73765
L71172 73737
L71058 73708
L71001 73680
L70972 73651
L70944 73594
L70944 73537
L70972 73480
L71001 73451
L71058 73422
L71201 73422
L71287 73451
" />
<path d="M71544 74022
L71544 73422
" />
<path d="M71801 74022
L71801 73708
L71772 73651
L71715 73622
L71630 73622
L71572 73651
L71544 73680
" />
<path d="M72315 73994
L72258 74022
L72144 74022
L72087 73994
L72058 73937
L72058 73708
L72087 73651
L72144 73622
L72258 73622
L72315 73651
L72344 73708
L72344 73765
L72058 73822
" />
<path d="M72830 73994
L72772 74022
L72658 74022
L72601 73994
L72572 73937
L72572 73708
L72601 73651
L72658 73622
L72772 73622
L72830 73651
L72858 73708
L72858 73765
L72572 73822
" />
<path d="M73030 73622
L73258 73622
" />
<path d="M73115 73422
L73115 73937
L73144 73994
L73201 74022
L73258 74022
" />
<path d="M73458 73965
L73487 73994
L73458 74022
L73430 73994
L73458 73965
L73458 74022
" />
<path d="M73458 73651
L73487 73680
L73458 73708
L73430 73680
L73458 73651
L73458 73708
" />
<path d="M70230 71980
L70230 77980
" />
<path d="M70230 71980
L112230 71980
" />
<path d="M70230 71980
L112230 71980
" />
<path d="M70230 74380
L112230 74380
" />
<path d="M103430 75580
L103430 77980
" />
<path d="M70230 76780
L112230 76780
" />
<path d="M70230 75580
L112230 75580
" />
<path d="M76830 75580
L76830 76780
" />
</g>
<g style="fill:#FFFF00; fill-opacity:0.0; 
stroke:#FFFF00; stroke-width:39.3701; stroke-opacity:1; 
stroke-linecap:round; stroke-linejoin:round;">
<path d="M72500 48250
L72500 28750
" />
<path d="M92000 48250
L72500 48250
" />
<path d="M92000 28750
L92000 48250
" />
<path d="M72500 28750
L92000 28750
" />
</g>
<g style="fill:#7F7F00; fill-opacity:0.0; 
stroke:#7F7F00; stroke-width:39.3701; stroke-opacity:1; 
stroke-linecap:round; stroke-linejoin:round;">
</g>
<g style="fill:#7F7F00; fill-opacity:1.0; 
stroke:#7F7F00; stroke-width:39.3701; stroke-opacity:1; 
stroke-linecap:round; stroke-linejoin:round;">
<polyline style="fill-rule:evenodd;"
points="78494,29705
78494,29194
79005,29194
79005,29705
78494,29705
" /> 
<circle cx="79750" cy="29450" r="255.315" /> 
<circle cx="80750" cy="29450" r="255.315" /> 
<circle cx="81750" cy="29450" r="255.315" /> 
<circle cx="82750" cy="29450" r="255.315" /> 
<circle cx="83750" cy="29450" r="255.315" /> 
<circle cx="84750" cy="29450" r="255.315" /> 
<circle cx="85750" cy="29450" r="255.315" /> 
<polyline style="fill-rule:evenodd;"
points="86005,47394
86005,47905
85494,47905
85494,47394
86005,47394
" /> 
<circle cx="84750" cy="47650" r="255.315" /> 
<circle cx="83750" cy="47650" r="255.315" /> 
<circle cx="82750" cy="47650" r="255.315" /> 
<circle cx="81750" cy="47650" r="255.315" /> 
<circle cx="80750" cy="47650" r="255.315" /> 
<circle cx="79750" cy="47650" r="255.315" /> 
<circle cx="78750" cy="47650" r="255.315" /> 
<circle cx="89400" cy="31600" r="280.315" /> 
<circle cx="89400" cy="35600" r="280.315" /> 
<circle cx="81700" cy="42600" r="280.315" /> 
<circle cx="77700" cy="42600" r="280.315" /> 
<polyline style="fill-rule:evenodd;"
points="76444,33855
76444,33344
76955,33344
76955,33855
76444,33855
" /> 
<circle cx="77700" cy="33600" r="255.315" /> 
<circle cx="78700" cy="33600" r="255.315" /> 
<circle cx="79700" cy="33600" r="255.315" /> 
<circle cx="80700" cy="33600" r="255.315" /> 
<circle cx="81700" cy="33600" r="255.315" /> 
<circle cx="82700" cy="33600" r="255.315" /> 
<circle cx="83700" cy="33600" r="255.315" /> 
<circle cx="84700" cy="33600" r="255.315" /> 
<circle cx="85700" cy="33600" r="255.315" /> 
<circle cx="86700" cy="33600" r="255.315" /> 
<circle cx="87700" cy="33600" r="255.315" /> 
<circle cx="87700" cy="30600" r="255.315" /> 
<circle cx="86700" cy="30600" r="255.315" /> 
<circle cx="85700" cy="30600" r="255.315" /> 
<circle cx="84700" cy="30600" r="255.315" /> 
<circle cx="83700" cy="30600" r="255.315" /> 
<circle cx="82700" cy="30600" r="255.315" /> 
<circle cx="81700" cy="30600" r="255.315" /> 
<circle cx="80700" cy="30600" r="255.315" /> 
<circle cx="79700" cy="30600" r="255.315" /> 
<circle cx="78700" cy="30600" r="255.315" /> 
<circle cx="77700" cy="30600" r="255.315" /> 
<circle cx="76700" cy="30600" r="255.315" /> 
<polyline style="fill-rule:evenodd;"
points="75205,34905
74594,34905
74594,34294
75205,34294
75205,34905
" /> 
<circle cx="74900" cy="33600" r="305.315" /> 
<circle cx="74300" cy="31900" r="255.315" /> 
<circle cx="75300" cy="31900" r="255.315" /> 
<polyline style="fill-rule:evenodd;"
points="86005,38494
86005,39005
85494,39005
85494,38494
86005,38494
" /> 
<circle cx="84750" cy="38750" r="255.315" /> 
<circle cx="83750" cy="38750" r="255.315" /> 
<circle cx="82750" cy="38750" r="255.315" /> 
<circle cx="81750" cy="38750" r="255.315" /> 
<circle cx="80750" cy="38750" r="255.315" /> 
<circle cx="79750" cy="38750" r="255.315" /> 
<circle cx="78750" cy="38750" r="255.315" /> 
<polyline style="fill-rule:evenodd;"
points="77494,46255
77494,45744
78005,45744
78005,46255
77494,46255
" /> 
<circle cx="78750" cy="46000" r="255.315" /> 
<circle cx="79750" cy="46000" r="255.315" /> 
<circle cx="80750" cy="46000" r="255.315" /> 
<circle cx="81750" cy="46000" r="255.315" /> 
<circle cx="82750" cy="46000" r="255.315" /> 
<circle cx="83750" cy="46000" r="255.315" /> 
<circle cx="84750" cy="46000" r="255.315" /> 
<circle cx="85750" cy="46000" r="255.315" /> 
<circle cx="86750" cy="46000" r="255.315" /> 
<circle cx="87750" cy="46000" r="255.315" /> 
<circle cx="88750" cy="46000" r="255.315" /> 
<polyline style="fill-rule:evenodd;"
points="89005,39744
89005,40255
88494,40255
88494,39744
89005,39744
" /> 
<circle cx="87750" cy="40000" r="255.315" /> 
<circle cx="86750" cy="40000" r="255.315" /> 
<circle cx="85750" cy="40000" r="255.315" /> 
<circle cx="84750" cy="40000" r="255.315" /> 
<circle cx="83750" cy="40000" r="255.315" /> 
<circle cx="82750" cy="40000" r="255.315" /> 
<circle cx="81750" cy="40000" r="255.315" /> 
<circle cx="80750" cy="40000" r="255.315" /> 
<circle cx="79750" cy="40000" r="255.315" /> 
<circle cx="78750" cy="40000" r="255.315" /> 
<circle cx="77750" cy="40000" r="255.315" /> 
<polyline style="fill-rule:evenodd;"
points="76444,37955
76444,37444
76955,37444
76955,37955
76444,37955
" /> 
<circle cx="77700" cy="37700" r="255.315" /> 
<circle cx="78700" cy="37700" r="255.315" /> 
<circle cx="79700" cy="37700" r="255.315" /> 
<circle cx="80700" cy="37700" r="255.315" /> 
<circle cx="81700" cy="37700" r="255.315" /> 
<circle cx="82700" cy="37700" r="255.315" /> 
<circle cx="83700" cy="37700" r="255.315" /> 
<circle cx="84700" cy="37700" r="255.315" /> 
<circle cx="85700" cy="37700" r="255.315" /> 
<circle cx="86700" cy="37700" r="255.315" /> 
<circle cx="87700" cy="37700" r="255.315" /> 
<circle cx="87700" cy="34700" r="255.315" /> 
<circle cx="86700" cy="34700" r="255.315" /> 
<circle cx="85700" cy="34700" r="255.315" /> 
<circle cx="84700" cy="34700" r="255.315" /> 
<circle cx="83700" cy="34700" r="255.315" /> 
<circle cx="82700" cy="34700" r="255.315" /> 
<circle cx="81700" cy="34700" r="255.315" /> 
<circle cx="80700" cy="34700" r="255.315" /> 
<circle cx="79700" cy="34700" r="255.315" /> 
<circle cx="78700" cy="34700" r="255.315" /> 
<circle cx="77700" cy="34700" r="255.315" /> 
<circle cx="76700" cy="34700" r="255.315" /> 
<polyline style="fill-rule:evenodd;"
points="73144,43355
73144,42844
73655,42844
73655,43355
73144,43355
" /> 
<circle cx="74400" cy="43100" r="255.315" /> 
<circle cx="75400" cy="43100" r="255.315" /> 
<circle cx="76400" cy="43100" r="255.315" /> 
<polyline style="fill-rule:evenodd;"
points="83994,45255
83994,44744
84505,44744
84505,45255
83994,45255
" /> 
<circle cx="85250" cy="45000" r="255.315" /> 
<circle cx="81700" cy="41400" r="280.315" /> 
<circle cx="77700" cy="41400" r="280.315" /> 
<circle cx="87300" cy="45000" r="280.315" /> 
<circle cx="87300" cy="41000" r="280.315" /> 
<circle cx="86400" cy="45000" r="280.315" /> 
<circle cx="86400" cy="41000" r="280.315" /> 
<polyline style="fill-rule:evenodd;"
points="87944,41244
88455,41244
88455,41755
87944,41755
87944,41244
" /> 
<circle cx="88200" cy="42500" r="255.315" /> 
<circle cx="88200" cy="43500" r="255.315" /> 
<circle cx="88200" cy="44500" r="255.315" /> 
<circle cx="91200" cy="44500" r="255.315" /> 
<circle cx="91200" cy="43500" r="255.315" /> 
<circle cx="91200" cy="42500" r="255.315" /> 
<circle cx="91200" cy="41500" r="255.315" /> 
<circle cx="90118.9" cy="32832.1" r="430.315" /> 
<circle cx="81962.2" cy="36635.7" r="430.315" /> 
<polyline style="fill-rule:evenodd;"
points="73144,41655
73144,41144
73655,41144
73655,41655
73144,41655
" /> 
<circle cx="74400" cy="41400" r="255.315" /> 
<circle cx="75400" cy="41400" r="255.315" /> 
<circle cx="76400" cy="41400" r="255.315" /> 
<polyline style="fill-rule:evenodd;"
points="83055,45255
82544,45255
82544,44744
83055,44744
83055,45255
" /> 
<circle cx="82800" cy="44000" r="255.315" /> 
<circle cx="82800" cy="43000" r="255.315" /> 
<circle cx="82800" cy="42000" r="255.315" /> 
<circle cx="91209.4" cy="39784.3" r="275.591" /> 
<circle cx="91209.4" cy="37815.7" r="275.591" /> 
<polyline style="fill-rule:evenodd;"
points="90500,40453
89949,40453
89949,39902
90500,39902
90500,40453
" /> 
<polyline style="fill-rule:evenodd;"
points="90500,37697
89949,37697
89949,37146
90500,37146
90500,37697
" /> 
<circle cx="73290.6" cy="37815.7" r="275.591" /> 
<circle cx="73290.6" cy="39784.3" r="275.591" /> 
<polyline style="fill-rule:evenodd;"
points="73999,37146
74550,37146
74550,37697
73999,37697
73999,37146
" /> 
<polyline style="fill-rule:evenodd;"
points="73999,39902
74550,39902
74550,40453
73999,40453
73999,39902
" /> 
<circle cx="91084.3" cy="29490.6" r="275.591" /> 
<circle cx="89115.7" cy="29490.6" r="275.591" /> 
<polyline style="fill-rule:evenodd;"
points="91753,30199
91753,30750
91202,30750
91202,30199
91753,30199
" /> 
<polyline style="fill-rule:evenodd;"
points="88997,30199
88997,30750
88446,30750
88446,30199
88997,30199
" /> 
<circle cx="75384.3" cy="29490.6" r="275.591" /> 
<circle cx="73415.7" cy="29490.6" r="275.591" /> 
<polyline style="fill-rule:evenodd;"
points="76053,30199
76053,30750
75502,30750
75502,30199
76053,30199
" /> 
<polyline style="fill-rule:evenodd;"
points="73297,30199
73297,30750
72746,30750
72746,30199
73297,30199
" /> 
<polyline style="fill-rule:evenodd;"
points="73044,31944
73555,31944
73555,32455
73044,32455
73044,31944
" /> 
<circle cx="73300" cy="33200" r="255.315" /> 
<circle cx="73300" cy="34200" r="255.315" /> 
<circle cx="73300" cy="35200" r="255.315" /> 
<circle cx="73300" cy="36200" r="255.315" /> 
<polyline style="fill-rule:evenodd;"
points="90844,31944
91355,31944
91355,32455
90844,32455
90844,31944
" /> 
<circle cx="91100" cy="33200" r="255.315" /> 
<circle cx="91100" cy="34200" r="255.315" /> 
<circle cx="91100" cy="35200" r="255.315" /> 
<circle cx="91100" cy="36200" r="255.315" /> 
<polyline style="fill-rule:evenodd;"
points="73144,44094
73655,44094
73655,44605
73144,44605
73144,44094
" /> 
<circle cx="73400" cy="45350" r="255.315" /> 
<circle cx="73400" cy="46350" r="255.315" /> 
<circle cx="73400" cy="47350" r="255.315" /> 
<polyline style="fill-rule:evenodd;"
points="74494,44094
75005,44094
75005,44605
74494,44605
74494,44094
" /> 
<circle cx="74750" cy="45350" r="255.315" /> 
<circle cx="74750" cy="46350" r="255.315" /> 
<circle cx="74750" cy="47350" r="255.315" /> 
<polyline style="fill-rule:evenodd;"
points="75794,44094
76305,44094
76305,44605
75794,44605
75794,44094
" /> 
<circle cx="76050" cy="45350" r="255.315" /> 
<circle cx="76050" cy="46350" r="255.315" /> 
<circle cx="76050" cy="47350" r="255.315" /> 
<polyline style="fill-rule:evenodd;"
points="84094,41255
84094,40744
84605,40744
84605,41255
84094,41255
" /> 
<circle cx="85350" cy="41000" r="255.315" /> 
<polyline style="fill-rule:evenodd;"
points="91094,46294
91605,46294
91605,46805
91094,46805
91094,46294
" /> 
<circle cx="91350" cy="47550" r="255.315" /> 
</g>
<g style="fill:#BFBFBF; fill-opacity:1.0; 
stroke:#BFBFBF; stroke-width:39.3701; stroke-opacity:1; 
stroke-linecap:round; stroke-linejoin:round;">
<circle cx="86999.5" cy="34210.4" r="155.315" /> 
<circle cx="90099.6" cy="39202" r="155.315" /> 
<circle cx="80921.7" cy="31645.7" r="155.315" /> 
<circle cx="85186.9" cy="32805.4" r="155.315" /> 
<circle cx="76751.2" cy="41907.6" r="155.315" /> 
<circle cx="79025.2" cy="43356.4" r="155.315" /> 
<circle cx="77091.1" cy="38277.5" r="155.315" /> 
</g>
<g style="fill:#009F00; fill-opacity:1.0; 
stroke:#009F00; stroke-width:100; stroke-opacity:1; 
stroke-linecap:round; stroke-linejoin:round;">
<path d="M78700 33700
L78700 33600
" />
<path d="M77700 34700
L78700 33700
" />
<path d="M87139 34350
L86999 34210
" />
<path d="M87139 37885
L87139 34350
" />
<path d="M86275 38750
L87139 37885
" />
<path d="M85750 38750
L86275 38750
" />
<path d="M86704 47650
L85750 47650
" />
<path d="M88250 46104
L86704 47650
" />
<path d="M88250 45783
L88250 46104
" />
<path d="M89770 44262
L88250 45783
" />
<path d="M89770 39530
L89770 44262
" />
<path d="M90099 39201
L89770 39530
" />
<path d="M79750 29732
L79750 29450
" />
<path d="M79268 30214
L79750 29732
" />
<path d="M79268 30777
L79268 30214
" />
<path d="M79524 31033
L79268 30777
" />
<path d="M80266 31033
L79524 31033
" />
<path d="M80700 30600
L80266 31033
" />
<path d="M81256 31156
L80700 30600
" />
<path d="M81256 35071
L81256 31156
" />
<path d="M82700 36515
L81256 35071
" />
<path d="M82700 37700
L82700 36515
" />
<path d="M80750 29550
L80750 29450
" />
<path d="M79700 30600
L80750 29550
" />
<path d="M81179 29020
L80750 29450
" />
<path d="M82935 29020
L81179 29020
" />
<path d="M83250 29335
L82935 29020
" />
<path d="M83250 29571
L83250 29335
" />
<path d="M83603 29925
L83250 29571
" />
<path d="M84664 29925
L83603 29925
" />
<path d="M85191 30452
L84664 29925
" />
<path d="M85191 30808
L85191 30452
" />
<path d="M86146 31763
L85191 30808
" />
<path d="M86146 37253
L86146 31763
" />
<path d="M85700 37700
L86146 37253
" />
<path d="M82700 31316
L82700 33600
" />
<path d="M82200 30816
L82700 31316
" />
<path d="M82200 29900
L82200 30816
" />
<path d="M81750 29450
L82200 29900
" />
<path d="M78700 30330
L78700 30600
" />
<path d="M79175 29855
L78700 30330
" />
<path d="M79175 29108
L79175 29855
" />
<path d="M79091 29024
L79175 29108
" />
<path d="M77641 29024
L79091 29024
" />
<path d="M76223 30442
L77641 29024
" />
<path d="M76223 32372
L76223 30442
" />
<path d="M76056 32539
L76223 32372
" />
<path d="M76056 36056
L76056 32539
" />
<path d="M77700 37700
L76056 36056
" />
<path d="M84188 29011
L83750 29450
" />
<path d="M84926 29011
L84188 29011
" />
<path d="M85250 29335
L84926 29011
" />
<path d="M85250 29551
L85250 29335
" />
<path d="M85794 30095
L85250 29551
" />
<path d="M86804 30095
L85794 30095
" />
<path d="M87133 30424
L86804 30095
" />
<path d="M87133 30883
L87133 30424
" />
<path d="M86700 31316
L87133 30883
" />
<path d="M86700 33600
L86700 31316
" />
<path d="M86674 34674
L86700 34700
" />
<path d="M86674 33625
L86674 34674
" />
<path d="M86700 33600
L86674 33625
" />
<path d="M85700 30400
L84750 29450
" />
<path d="M85700 30600
L85700 30400
" />
<path d="M80267 32300
L80921 31645
" />
<path d="M80267 34984
L80267 32300
" />
<path d="M80700 35416
L80267 34984
" />
<path d="M80700 37700
L80700 35416
" />
<path d="M83700 37582
L83700 37700
" />
<path d="M84137 37145
L83700 37582
" />
<path d="M84137 31037
L84137 37145
" />
<path d="M83700 30600
L84137 31037
" />
<path d="M85200 38300
L84750 38750
" />
<path d="M85200 36762
L85200 38300
" />
<path d="M85700 36262
L85200 36762
" />
<path d="M85700 34700
L85700 36262
" />
<path d="M86250 46150
L84750 47650
" />
<path d="M86250 45880
L86250 46150
" />
<path d="M86555 45574
L86250 45880
" />
<path d="M87362 45574
L86555 45574
" />
<path d="M87774 45163
L87362 45574
" />
<path d="M87774 44297
L87774 45163
" />
<path d="M88071 44000
L87774 44297
" />
<path d="M88301 44000
L88071 44000
" />
<path d="M88625 43676
L88301 44000
" />
<path d="M88625 43304
L88625 43676
" />
<path d="M88253 42932
L88625 43304
" />
<path d="M85520 42932
L88253 42932
" />
<path d="M83321 40733
L85520 42932
" />
<path d="M83321 39812
L83321 40733
" />
<path d="M84383 38750
L83321 39812
" />
<path d="M84750 38750
L84383 38750
" />
<path d="M81700 37700
L82750 38750
" />
<path d="M83222 38277
L82750 38750
" />
<path d="M83747 38277
L83222 38277
" />
<path d="M84237 37787
L83747 38277
" />
<path d="M84237 37407
L84237 37787
" />
<path d="M85141 36503
L84237 37407
" />
<path d="M85141 33219
L85141 36503
" />
<path d="M84700 32778
L85141 33219
" />
<path d="M84700 30600
L84700 32778
" />
<path d="M83700 34700
L83700 33600
" />
<path d="M81239 39260
L81750 38750
" />
<path d="M81239 44205
L81239 39260
" />
<path d="M82538 45504
L81239 44205
" />
<path d="M82883 45504
L82538 45504
" />
<path d="M83186 45807
L82883 45504
" />
<path d="M83186 46213
L83186 45807
" />
<path d="M81750 47650
L83186 46213
" />
<path d="M78128 31028
L77700 30600
" />
<path d="M78128 33777
L78128 31028
" />
<path d="M77755 34150
L78128 33777
" />
<path d="M77633 34150
L77755 34150
" />
<path d="M77266 34516
L77633 34150
" />
<path d="M77266 36266
L77266 34516
" />
<path d="M78700 37700
L77266 36266
" />
<path d="M80324 48075
L80750 47650
" />
<path d="M74842 48075
L80324 48075
" />
<path d="M74324 47558
L74842 48075
" />
<path d="M74324 44012
L74324 47558
" />
<path d="M74411 43924
L74324 44012
" />
<path d="M78933 43924
L74411 43924
" />
<path d="M79358 43499
L78933 43924
" />
<path d="M79358 43216
L79358 43499
" />
<path d="M78287 42146
L79358 43216
" />
<path d="M77496 42146
L78287 42146
" />
<path d="M77036 41686
L77496 42146
" />
<path d="M77036 41102
L77036 41686
" />
<path d="M77490 40648
L77036 41102
" />
<path d="M78716 40648
L77490 40648
" />
<path d="M79179 40186
L78716 40648
" />
<path d="M79179 39952
L79179 40186
" />
<path d="M80381 38750
L79179 39952
" />
<path d="M80750 38750
L80381 38750
" />
<path d="M85700 33318
L85700 33600
" />
<path d="M85186 32805
L85700 33318
" />
<path d="M80374 47025
L79750 47650
" />
<path d="M81348 47025
L80374 47025
" />
<path d="M82186 46187
L81348 47025
" />
<path d="M82186 45749
L82186 46187
" />
<path d="M78383 41946
L82186 45749
" />
<path d="M77579 41946
L78383 41946
" />
<path d="M77236 41603
L77579 41946
" />
<path d="M77236 41185
L77236 41603
" />
<path d="M77502 40919
L77236 41185
" />
<path d="M79431 40919
L77502 40919
" />
<path d="M80320 40030
L79431 40919
" />
<path d="M80320 39804
L80320 40030
" />
<path d="M81189 38935
L80320 39804
" />
<path d="M81189 38577
L81189 38935
" />
<path d="M80932 38320
L81189 38577
" />
<path d="M80136 38320
L80932 38320
" />
<path d="M80136 35136
L80136 38320
" />
<path d="M79700 34700
L80136 35136
" />
<path d="M80136 38363
L79750 38750
" />
<path d="M80136 38320
L80136 38363
" />
<path d="M76835 41823
L76751 41907
" />
<path d="M76835 41277
L76835 41823
" />
<path d="M76836 41276
L76835 41277
" />
<path d="M76836 41019
L76836 41276
" />
<path d="M77407 40448
L76836 41019
" />
<path d="M77664 40448
L77407 40448
" />
<path d="M77687 40425
L77664 40448
" />
<path d="M77926 40425
L77687 40425
" />
<path d="M78204 40147
L77926 40425
" />
<path d="M78204 39295
L78204 40147
" />
<path d="M78750 38750
L78204 39295
" />
<path d="M77266 33166
L77700 33600
" />
<path d="M77266 30429
L77266 33166
" />
<path d="M78246 29450
L77266 30429
" />
<path d="M78750 29450
L78246 29450
" />
<path d="M80100 44350
L81750 46000
" />
<path d="M76050 44350
L80100 44350
" />
<path d="M73400 44350
L73825 44350
" />
<path d="M73825 45924
L73825 44350
" />
<path d="M73400 46350
L73825 45924
" />
<path d="M73825 44208
L73825 44350
" />
<path d="M74308 43724
L73825 44208
" />
<path d="M75775 43724
L74308 43724
" />
<path d="M76400 43100
L75775 43724
" />
<path d="M72968 46918
L73400 47350
" />
<path d="M72968 45781
L72968 46918
" />
<path d="M73400 45350
L72968 45781
" />
<path d="M87272 31027
L87700 30600
" />
<path d="M87272 34023
L87272 31027
" />
<path d="M87700 34451
L87272 34023
" />
<path d="M87700 34700
L87700 34451
" />
<path d="M76100 44775
L77324 46000
" />
<path d="M75600 44775
L76100 44775
" />
<path d="M75175 44350
L75600 44775
" />
<path d="M74750 44350
L75175 44350
" />
<path d="M77750 46000
L77324 46000
" />
<path d="M78324 46425
L78750 46000
" />
<path d="M76900 46425
L78324 46425
" />
<path d="M76324 45850
L76900 46425
" />
<path d="M75250 45850
L76324 45850
" />
<path d="M74750 45350
L75250 45850
" />
<path d="M79925 46825
L80750 46000
" />
<path d="M75275 46825
L79925 46825
" />
<path d="M74750 47350
L75275 46825
" />
<path d="M79025 43356
L79025 43356
" />
<path d="M77268 43356
L79025 43356
" />
<path d="M76512 42600
L77268 43356
" />
<path d="M75993 42600
L76512 42600
" />
<path d="M74970 41577
L75993 42600
" />
<path d="M74970 41147
L74970 41577
" />
<path d="M75744 40373
L74970 41147
" />
<path d="M75744 31486
L75744 40373
" />
<path d="M75316 31057
L75744 31486
" />
<path d="M75316 29558
L75316 31057
" />
<path d="M75384 29490
L75316 29558
" />
<path d="M84375 39375
L83750 40000
" />
<path d="M86629 39375
L84375 39375
" />
<path d="M88814 37189
L86629 39375
" />
<path d="M88814 32982
L88814 37189
" />
<path d="M90512 31284
L88814 32982
" />
<path d="M90512 30062
L90512 31284
" />
<path d="M91084 29490
L90512 30062
" />
<path d="M79350 41400
L77700 41400
" />
<path d="M80750 40000
L79350 41400
" />
<path d="M88127 37272
L87700 37700
" />
<path d="M88127 34027
L88127 37272
" />
<path d="M87700 33600
L88127 34027
" />
<path d="M89400 31900
L89400 31600
" />
<path d="M87700 33600
L89400 31900
" />
<path d="M76700 37700
L77125 37700
" />
<path d="M77125 37753
L77125 37700
" />
<path d="M77750 38378
L77125 37753
" />
<path d="M77750 40000
L77750 38378
" />
<path d="M76700 32574
L76700 30600
" />
<path d="M76274 32999
L76700 32574
" />
<path d="M76274 34274
L76274 32999
" />
<path d="M76700 34700
L76274 34274
" />
<path d="M75960 39408
L77091 38277
" />
<path d="M75960 41576
L75960 39408
" />
<path d="M76983 42600
L75960 41576
" />
<path d="M77700 42600
L76983 42600
" />
<path d="M83128 31028
L82700 30600
" />
<path d="M83128 34271
L83128 31028
" />
<path d="M82700 34700
L83128 34271
" />
<path d="M81274 37322
L81962 36635
" />
<path d="M81274 37877
L81274 37322
" />
<path d="M81617 38219
L81274 37877
" />
<path d="M81826 38219
L81617 38219
" />
<path d="M82250 38642
L81826 38219
" />
<path d="M82250 40111
L82250 38642
" />
<path d="M85638 43500
L82250 40111
" />
<path d="M88200 43500
L85638 43500
" />
<path d="M83231 42431
L82800 42000
" />
<path d="M83231 43568
L83231 42431
" />
<path d="M82800 44000
L83231 43568
" />
<path d="M79262 34037
L79700 33600
" />
<path d="M79262 37262
L79262 34037
" />
<path d="M79700 37700
L79262 37262
" />
<path d="M73829 40322
L73290 39784
" />
<path d="M73829 42529
L73829 40322
" />
<path d="M74400 43100
L73829 42529
" />
<path d="M90118 34881
L89400 35600
" />
<path d="M90118 32832
L90118 34881
" />
<path d="M91209 37409
L91209 37815
" />
<path d="M89400 35600
L91209 37409
" />
<path d="M73829 33729
L73829 33729
" />
<path d="M73829 39245
L73829 33729
" />
<path d="M73290 39784
L73829 39245
" />
<path d="M73829 33729
L73300 33200
" />
<path d="M74300 30374
L74300 31900
" />
<path d="M73415 29490
L74300 30374
" />
<path d="M74300 33600
L74900 33600
" />
<path d="M74300 31900
L74300 33600
" />
<path d="M74170 33729
L73829 33729
" />
<path d="M74300 33600
L74170 33729
" />
<path d="M89198 43501
L88200 44500
" />
<path d="M89198 39643
L89198 43501
" />
<path d="M91026 37815
L89198 39643
" />
<path d="M91209 37815
L91026 37815
" />
<path d="M88200 45550
L87750 46000
" />
<path d="M88200 44500
L88200 45550
" />
<path d="M84775 41053
L84775 41000
" />
<path d="M86221 42500
L84775 41053
" />
<path d="M88200 42500
L86221 42500
" />
<path d="M84350 41000
L84775 41000
" />
<path d="M91350 46550
L91350 46124
" />
<path d="M91629 41929
L91200 41500
" />
<path d="M91629 45845
L91629 41929
" />
<path d="M91350 46124
L91629 45845
" />
<path d="M73400 41400
L73400 43100
" />
<path d="M83650 45425
L83225 45000
" />
<path d="M85175 45425
L83650 45425
" />
<path d="M85750 46000
L85175 45425
" />
<path d="M82800 45000
L83225 45000
" />
<path d="M72834 40408
L73400 40974
" />
<path d="M72834 33037
L72834 40408
" />
<path d="M73246 32625
L72834 33037
" />
<path d="M73300 32625
L73246 32625
" />
<path d="M73300 32200
L73300 32625
" />
<path d="M73400 41400
L73400 40974
" />
<path d="M74900 34600
L74900 34124
" />
<path d="M75048 34124
L74900 34124
" />
<path d="M75375 33798
L75048 34124
" />
<path d="M75375 31975
L75375 33798
" />
<path d="M75300 31900
L75375 31975
" />
<path d="M82800 45000
L82800 44574
" />
<path d="M81700 41400
L81700 42600
" />
<path d="M81700 42600
L82450 43350
" />
<path d="M82800 43000
L82450 43350
" />
<path d="M82746 44574
L82800 44574
" />
<path d="M82374 44202
L82746 44574
" />
<path d="M82374 43425
L82374 44202
" />
<path d="M82450 43350
L82374 43425
" />
<path d="M91673 41026
L91200 41500
" />
<path d="M91673 33145
L91673 41026
" />
<path d="M91153 32625
L91673 33145
" />
<path d="M91100 32625
L91153 32625
" />
<path d="M91100 32200
L91100 32625
" />
<path d="M82137 34262
L81700 34700
" />
<path d="M82137 31037
L82137 34262
" />
<path d="M81700 30600
L82137 31037
" />
</g>
<g style="fill:#009F00; fill-opacity:1.0; 
stroke:#009F00; stroke-width:39.3701; stroke-opacity:1; 
stroke-linecap:round; stroke-linejoin:round;">
<polyline style="fill-rule:evenodd;"
points="75444,40249
74820,40873
74820,40423
74820,39833
74782,39741
74711,39670
74620,39632
74520,39632
73930,39632
73838,39670
73831,39677
73829,39648
73767,39499
73673,39472
73361,39784
73673,40096
73729,40080
73729,40522
73767,40614
73837,40685
73929,40723
74029,40723
74619,40723
74711,40685
74781,40615
74820,40523
74820,40423
74820,40873
74758,40935
74726,40983
74697,40955
74504,40875
74296,40874
74103,40954
73955,41102
73925,41174
73925,41075
73887,40983
73816,40913
73724,40875
73680,40875
73680,40875
73677,40860
73612,40762
73612,40762
73169,40319
73209,40334
73426,40323
73575,40261
73602,40166
73290,39854
73284,39860
73214,39789
73219,39784
73214,39778
73284,39707
73290,39713
73602,39401
73575,39306
73371,39234
73154,39245
73134,39253
73134,38341
73181,38360
73398,38361
73599,38278
73752,38125
73835,37926
73837,37929
73929,37967
74029,37967
74619,37967
74711,37929
74781,37859
74820,37767
74820,37667
74820,37077
74782,36985
74711,36914
74620,36876
74520,36876
73930,36876
73838,36914
73829,36922
73829,33275
73818,33067
73760,32927
73667,32902
73370,33200
73667,33497
73760,33472
73829,33275
73829,36922
73767,36984
73729,37076
73729,37176
73729,37483
73599,37353
73399,37270
73182,37270
73134,37290
73134,36699
73195,36724
73403,36725
73597,36645
73744,36497
73824,36304
73825,36096
73745,35903
73597,35755
73464,35699
73597,35645
73744,35497
73824,35304
73825,35096
73745,34903
73597,34755
73464,34699
73597,34645
73744,34497
73824,34304
73825,34096
73745,33903
73597,33755
73471,33702
73572,33660
73597,33567
73300,33270
73294,33276
73223,33205
73229,33200
73223,33194
73294,33123
73300,33129
73597,32832
73574,32744
73577,32739
73580,32725
73624,32725
73716,32687
73786,32616
73824,32524
73825,32425
73825,32138
73839,32172
73932,32197
74229,31900
73965,31636
73965,29571
73954,29354
73893,29205
73798,29178
73486,29490
73798,29802
73893,29775
73965,29571
73965,31636
73932,31602
73839,31627
73785,31781
73716,31713
73624,31675
73525,31674
72975,31674
72883,31712
72813,31783
72775,31875
72774,31974
72774,32524
72812,32616
72822,32625
72769,32678
72769,31020
72776,31020
73366,31020
73458,30982
73529,30911
73567,30820
73567,30720
73567,30130
73529,30038
73522,30031
73551,30029
73700,29967
73727,29873
73415,29561
73345,29631
73345,29490
73033,29178
72938,29205
72865,29409
72876,29626
72938,29775
73033,29802
73345,29490
73345,29631
73103,29873
73119,29929
72769,29929
72769,29019
73128,29019
73103,29108
73415,29419
73727,29108
73702,29019
75095,29019
75075,29028
74922,29181
74839,29381
74838,29598
74921,29799
75016,29894
75016,31057
75039,31172
75104,31270
75209,31374
75196,31374
75003,31454
74855,31602
74802,31728
74760,31627
74667,31602
74597,31673
74597,31532
74572,31439
74375,31370
74167,31381
74027,31439
74002,31532
74300,31829
74597,31532
74597,31673
74370,31900
74667,32197
74760,32172
74799,32062
74854,32197
75002,32344
75075,32375
75075,33051
74987,33020
74759,33030
74597,33098
74597,33098
74597,32267
74300,31970
74002,32267
74027,32360
74224,32429
74432,32418
74572,32360
74597,32267
74597,33098
74566,33195
74900,33529
74905,33523
74976,33594
74970,33600
74976,33605
74905,33676
74900,33670
74829,33741
74829,33600
74495,33266
74398,33297
74320,33512
74330,33740
74398,33902
74495,33933
74829,33600
74829,33741
74566,34004
74573,34024
74525,34024
74433,34062
74363,34133
74325,34225
74324,34324
74324,34974
74362,35066
74433,35136
74525,35174
74624,35175
75274,35175
75366,35137
75436,35066
75444,35047
75444,40249
" /> 
</g>
<g style="fill:#009F00; fill-opacity:0.0; 
stroke:#009F00; stroke-width:100; stroke-opacity:1; 
stroke-linecap:round; stroke-linejoin:round;">
<polyline fill="none;"
points="75444,40249
74820,40873
74820,40423
74820,39833
74782,39741
74711,39670
74620,39632
74520,39632
73930,39632
73838,39670
73831,39677
73829,39648
73767,39499
73673,39472
73361,39784
73673,40096
73729,40080
73729,40522
73767,40614
73837,40685
73929,40723
74029,40723
74619,40723
74711,40685
74781,40615
74820,40523
74820,40423
74820,40873
74758,40935
74726,40983
74697,40955
74504,40875
74296,40874
74103,40954
73955,41102
73925,41174
73925,41075
73887,40983
73816,40913
73724,40875
73680,40875
73680,40875
73677,40860
73612,40762
73612,40762
73169,40319
73209,40334
73426,40323
73575,40261
73602,40166
73290,39854
73284,39860
73214,39789
73219,39784
73214,39778
73284,39707
73290,39713
73602,39401
73575,39306
73371,39234
73154,39245
73134,39253
73134,38341
73181,38360
73398,38361
73599,38278
73752,38125
73835,37926
73837,37929
73929,37967
74029,37967
74619,37967
74711,37929
74781,37859
74820,37767
74820,37667
74820,37077
74782,36985
74711,36914
74620,36876
74520,36876
73930,36876
73838,36914
73829,36922
73829,33275
73818,33067
73760,32927
73667,32902
73370,33200
73667,33497
73760,33472
73829,33275
73829,36922
73767,36984
73729,37076
73729,37176
73729,37483
73599,37353
73399,37270
73182,37270
73134,37290
73134,36699
73195,36724
73403,36725
73597,36645
73744,36497
73824,36304
73825,36096
73745,35903
73597,35755
73464,35699
73597,35645
73744,35497
73824,35304
73825,35096
73745,34903
73597,34755
73464,34699
73597,34645
73744,34497
73824,34304
73825,34096
73745,33903
73597,33755
73471,33702
73572,33660
73597,33567
73300,33270
73294,33276
73223,33205
73229,33200
73223,33194
73294,33123
73300,33129
73597,32832
73574,32744
73577,32739
73580,32725
73624,32725
73716,32687
73786,32616
73824,32524
73825,32425
73825,32138
73839,32172
73932,32197
74229,31900
73965,31636
73965,29571
73954,29354
73893,29205
73798,29178
73486,29490
73798,29802
73893,29775
73965,29571
73965,31636
73932,31602
73839,31627
73785,31781
73716,31713
73624,31675
73525,31674
72975,31674
72883,31712
72813,31783
72775,31875
72774,31974
72774,32524
72812,32616
72822,32625
72769,32678
72769,31020
72776,31020
73366,31020
73458,30982
73529,30911
73567,30820
73567,30720
73567,30130
73529,30038
73522,30031
73551,30029
73700,29967
73727,29873
73415,29561
73345,29631
73345,29490
73033,29178
72938,29205
72865,29409
72876,29626
72938,29775
73033,29802
73345,29490
73345,29631
73103,29873
73119,29929
72769,29929
72769,29019
73128,29019
73103,29108
73415,29419
73727,29108
73702,29019
75095,29019
75075,29028
74922,29181
74839,29381
74838,29598
74921,29799
75016,29894
75016,31057
75039,31172
75104,31270
75209,31374
75196,31374
75003,31454
74855,31602
74802,31728
74760,31627
74667,31602
74597,31673
74597,31532
74572,31439
74375,31370
74167,31381
74027,31439
74002,31532
74300,31829
74597,31532
74597,31673
74370,31900
74667,32197
74760,32172
74799,32062
74854,32197
75002,32344
75075,32375
75075,33051
74987,33020
74759,33030
74597,33098
74597,33098
74597,32267
74300,31970
74002,32267
74027,32360
74224,32429
74432,32418
74572,32360
74597,32267
74597,33098
74566,33195
74900,33529
74905,33523
74976,33594
74970,33600
74976,33605
74905,33676
74900,33670
74829,33741
74829,33600
74495,33266
74398,33297
74320,33512
74330,33740
74398,33902
74495,33933
74829,33600
74829,33741
74566,34004
74573,34024
74525,34024
74433,34062
74363,34133
74325,34225
74324,34324
74324,34974
74362,35066
74433,35136
74525,35174
74624,35175
75274,35175
75366,35137
75436,35066
75444,35047
75444,40249
" /> 
</g>
<g style="fill:#009F00; fill-opacity:1.0; 
stroke:#009F00; stroke-width:39.3701; stroke-opacity:1; 
stroke-linecap:round; stroke-linejoin:round;">
<polyline style="fill-rule:evenodd;"
points="75572,42603
75504,42575
75296,42574
75103,42654
74955,42802
74902,42928
74860,42827
74767,42802
74697,42873
74697,42732
74672,42639
74475,42570
74267,42581
74127,42639
74102,42732
74400,43029
74697,42732
74697,42873
74470,43100
74476,43105
74405,43176
74400,43170
74102,43467
74111,43502
74096,43512
73766,43842
73724,43825
73625,43824
73075,43824
72983,43862
72913,43933
72875,44025
72874,44124
72874,44674
72912,44766
72983,44836
73075,44874
73174,44875
73174,44875
73103,44904
72955,45052
72875,45245
72874,45450
72769,45556
72769,40768
72948,40947
72913,40983
72875,41075
72874,41174
72874,41724
72912,41816
72983,41886
73075,41924
73100,41924
73100,42574
73075,42574
72983,42612
72913,42683
72875,42775
72874,42874
72874,43424
72912,43516
72983,43586
73075,43624
73174,43625
73724,43625
73816,43587
73886,43516
73924,43424
73925,43337
73939,43372
74032,43397
74329,43100
74032,42802
73939,42827
73925,42868
73925,42775
73887,42683
73816,42613
73724,42575
73700,42575
73700,41925
73724,41925
73816,41887
73886,41816
73924,41724
73925,41625
73925,41625
73954,41697
74102,41844
74295,41924
74503,41925
74697,41845
74756,41786
74758,41789
75572,42603
" /> 
</g>
<g style="fill:#009F00; fill-opacity:0.0; 
stroke:#009F00; stroke-width:100; stroke-opacity:1; 
stroke-linecap:round; stroke-linejoin:round;">
<polyline fill="none;"
points="75572,42603
75504,42575
75296,42574
75103,42654
74955,42802
74902,42928
74860,42827
74767,42802
74697,42873
74697,42732
74672,42639
74475,42570
74267,42581
74127,42639
74102,42732
74400,43029
74697,42732
74697,42873
74470,43100
74476,43105
74405,43176
74400,43170
74102,43467
74111,43502
74096,43512
73766,43842
73724,43825
73625,43824
73075,43824
72983,43862
72913,43933
72875,44025
72874,44124
72874,44674
72912,44766
72983,44836
73075,44874
73174,44875
73174,44875
73103,44904
72955,45052
72875,45245
72874,45450
72769,45556
72769,40768
72948,40947
72913,40983
72875,41075
72874,41174
72874,41724
72912,41816
72983,41886
73075,41924
73100,41924
73100,42574
73075,42574
72983,42612
72913,42683
72875,42775
72874,42874
72874,43424
72912,43516
72983,43586
73075,43624
73174,43625
73724,43625
73816,43587
73886,43516
73924,43424
73925,43337
73939,43372
74032,43397
74329,43100
74032,42802
73939,42827
73925,42868
73925,42775
73887,42683
73816,42613
73724,42575
73700,42575
73700,41925
73724,41925
73816,41887
73886,41816
73924,41724
73925,41625
73925,41625
73954,41697
74102,41844
74295,41924
74503,41925
74697,41845
74756,41786
74758,41789
75572,42603
" /> 
</g>
<g style="fill:#009F00; fill-opacity:1.0; 
stroke:#009F00; stroke-width:39.3701; stroke-opacity:1; 
stroke-linecap:round; stroke-linejoin:round;">
<polyline style="fill-rule:evenodd;"
points="76476,41405
76405,41476
76400,41470
76394,41476
76323,41405
76329,41400
76323,41394
76394,41323
76400,41329
76405,41323
76476,41394
76470,41400
76476,41405
" /> 
</g>
<g style="fill:#009F00; fill-opacity:0.0; 
stroke:#009F00; stroke-width:100; stroke-opacity:1; 
stroke-linecap:round; stroke-linejoin:round;">
<polyline fill="none;"
points="76476,41405
76405,41476
76400,41470
76394,41476
76323,41405
76329,41400
76323,41394
76394,41323
76400,41329
76405,41323
76476,41394
76470,41400
76476,41405
" /> 
</g>
<g style="fill:#009F00; fill-opacity:1.0; 
stroke:#009F00; stroke-width:39.3701; stroke-opacity:1; 
stroke-linecap:round; stroke-linejoin:round;">
<polyline style="fill-rule:evenodd;"
points="79836,37191
79775,37170
79567,37181
79427,37239
79402,37332
79700,37629
79705,37623
79776,37694
79770,37700
79776,37705
79705,37776
79700,37770
79402,38067
79427,38160
79624,38229
79635,38229
79453,38304
79305,38452
79249,38585
79195,38453
79047,38305
78854,38225
78804,38225
78997,38145
79144,37997
79197,37871
79239,37972
79332,37997
79629,37700
79332,37402
79239,37427
79200,37537
79145,37403
78997,37255
78804,37175
78599,37174
77566,36142
77566,35213
77595,35224
77803,35225
77997,35145
78144,34997
78200,34864
78254,34997
78402,35144
78595,35224
78803,35225
78997,35145
79144,34997
79200,34864
79254,34997
79402,35144
79595,35224
79800,35225
79836,35260
79836,37191
" /> 
</g>
<g style="fill:#009F00; fill-opacity:0.0; 
stroke:#009F00; stroke-width:100; stroke-opacity:1; 
stroke-linecap:round; stroke-linejoin:round;">
<polyline fill="none;"
points="79836,37191
79775,37170
79567,37181
79427,37239
79402,37332
79700,37629
79705,37623
79776,37694
79770,37700
79776,37705
79705,37776
79700,37770
79402,38067
79427,38160
79624,38229
79635,38229
79453,38304
79305,38452
79249,38585
79195,38453
79047,38305
78854,38225
78804,38225
78997,38145
79144,37997
79197,37871
79239,37972
79332,37997
79629,37700
79332,37402
79239,37427
79200,37537
79145,37403
78997,37255
78804,37175
78599,37174
77566,36142
77566,35213
77595,35224
77803,35225
77997,35145
78144,34997
78200,34864
78254,34997
78402,35144
78595,35224
78803,35225
78997,35145
79144,34997
79200,34864
79254,34997
79402,35144
79595,35224
79800,35225
79836,35260
79836,37191
" /> 
</g>
<g style="fill:#009F00; fill-opacity:1.0; 
stroke:#009F00; stroke-width:39.3701; stroke-opacity:1; 
stroke-linecap:round; stroke-linejoin:round;">
<polyline style="fill-rule:evenodd;"
points="80896,31220
80837,31220
80681,31285
80561,31404
80496,31560
80496,31646
80054,32088
79989,32185
79967,32300
79967,33137
79775,33070
79567,33081
79427,33139
79402,33232
79700,33529
79705,33523
79776,33594
79770,33600
79776,33605
79705,33676
79700,33670
79402,33967
79427,34060
79624,34129
79832,34118
79967,34062
79967,34242
79804,34175
79596,34174
79403,34254
79255,34402
79199,34535
79145,34403
78997,34255
78804,34175
78649,34174
78699,34124
78803,34125
78997,34045
79144,33897
79197,33771
79239,33872
79332,33897
79629,33600
79332,33302
79239,33327
79200,33437
79145,33303
78997,33155
78804,33075
78596,33074
78428,33144
78428,31055
78595,31124
78803,31125
78997,31045
79054,30987
79056,30989
79312,31245
79409,31310
79524,31333
80266,31333
80266,31333
80381,31310
80381,31310
80478,31245
80599,31124
80800,31125
80896,31220
" /> 
</g>
<g style="fill:#009F00; fill-opacity:0.0; 
stroke:#009F00; stroke-width:100; stroke-opacity:1; 
stroke-linecap:round; stroke-linejoin:round;">
<polyline fill="none;"
points="80896,31220
80837,31220
80681,31285
80561,31404
80496,31560
80496,31646
80054,32088
79989,32185
79967,32300
79967,33137
79775,33070
79567,33081
79427,33139
79402,33232
79700,33529
79705,33523
79776,33594
79770,33600
79776,33605
79705,33676
79700,33670
79402,33967
79427,34060
79624,34129
79832,34118
79967,34062
79967,34242
79804,34175
79596,34174
79403,34254
79255,34402
79199,34535
79145,34403
78997,34255
78804,34175
78649,34174
78699,34124
78803,34125
78997,34045
79144,33897
79197,33771
79239,33872
79332,33897
79629,33600
79332,33302
79239,33327
79200,33437
79145,33303
78997,33155
78804,33075
78596,33074
78428,33144
78428,31055
78595,31124
78803,31125
78997,31045
79054,30987
79056,30989
79312,31245
79409,31310
79524,31333
80266,31333
80266,31333
80381,31310
80381,31310
80478,31245
80599,31124
80800,31125
80896,31220
" /> 
</g>
<g style="fill:#009F00; fill-opacity:1.0; 
stroke:#009F00; stroke-width:39.3701; stroke-opacity:1; 
stroke-linecap:round; stroke-linejoin:round;">
<polyline style="fill-rule:evenodd;"
points="84776,33605
84705,33676
84700,33670
84694,33676
84623,33605
84629,33600
84623,33594
84694,33523
84700,33529
84705,33523
84776,33594
84770,33600
84776,33605
" /> 
</g>
<g style="fill:#009F00; fill-opacity:0.0; 
stroke:#009F00; stroke-width:100; stroke-opacity:1; 
stroke-linecap:round; stroke-linejoin:round;">
<polyline fill="none;"
points="84776,33605
84705,33676
84700,33670
84694,33676
84623,33605
84629,33600
84623,33594
84694,33523
84700,33529
84705,33523
84776,33594
84770,33600
84776,33605
" /> 
</g>
<g style="fill:#009F00; fill-opacity:1.0; 
stroke:#009F00; stroke-width:39.3701; stroke-opacity:1; 
stroke-linecap:round; stroke-linejoin:round;">
<polyline style="fill-rule:evenodd;"
points="84776,37705
84705,37776
84700,37770
84694,37776
84623,37705
84629,37700
84623,37694
84694,37623
84700,37629
84705,37623
84776,37694
84770,37700
84776,37705
" /> 
</g>
<g style="fill:#009F00; fill-opacity:0.0; 
stroke:#009F00; stroke-width:100; stroke-opacity:1; 
stroke-linecap:round; stroke-linejoin:round;">
<polyline fill="none;"
points="84776,37705
84705,37776
84700,37770
84694,37776
84623,37705
84629,37700
84623,37694
84694,37623
84700,37629
84705,37623
84776,37694
84770,37700
84776,37705
" /> 
</g>
<g style="fill:#009F00; fill-opacity:1.0; 
stroke:#009F00; stroke-width:39.3701; stroke-opacity:1; 
stroke-linecap:round; stroke-linejoin:round;">
<polyline style="fill-rule:evenodd;"
points="87802,43844
87561,44084
87496,44182
87474,44297
87474,44476
87409,44450
87191,44449
86988,44533
86849,44672
86711,44534
86509,44450
86291,44449
86088,44533
85934,44688
85850,44890
85849,45108
85933,45311
86088,45465
86195,45510
86099,45606
86047,45555
85854,45475
85649,45474
85583,45409
85694,45297
85774,45104
85775,44896
85695,44703
85547,44555
85354,44475
85146,44474
84953,44554
84805,44702
84775,44774
84775,44675
84737,44583
84666,44513
84574,44475
84475,44474
83925,44474
83833,44512
83763,44583
83725,44675
83724,44774
83724,45075
83437,44787
83339,44722
83329,44720
83329,44075
83329,42075
83318,41867
83260,41727
83167,41702
83097,41773
83097,41632
83072,41539
82875,41470
82667,41481
82527,41539
82502,41632
82800,41929
83097,41632
83097,41773
82870,42000
83167,42297
83260,42272
83329,42075
83329,44075
83318,43867
83260,43727
83167,43702
82870,44000
83167,44297
83260,44272
83329,44075
83329,44720
83325,44719
83325,44675
83287,44583
83216,44513
83124,44475
83080,44475
83077,44460
83074,44455
83097,44367
82800,44070
82794,44076
82723,44005
82729,44000
82723,43994
82794,43923
82800,43929
83097,43632
83072,43539
82962,43500
83097,43445
83244,43297
83324,43104
83325,42896
83245,42703
83097,42555
82971,42502
83072,42460
83097,42367
82800,42070
82729,42141
82729,42000
82432,41702
82339,41727
82270,41924
82281,42132
82339,42272
82432,42297
82729,42000
82729,42141
82502,42367
82527,42460
82637,42499
82503,42554
82355,42702
82317,42793
82245,42721
82249,42709
82250,42491
82166,42288
82011,42134
82000,42129
82000,41871
82011,41866
82165,41711
82249,41509
82250,41291
82166,41088
82011,40934
81809,40850
81591,40849
81539,40871
81539,40480
81645,40524
81853,40525
82047,40445
82103,40389
85426,43712
85426,43712
85523,43777
85638,43799
85638,43800
87757,43800
87802,43844
" /> 
</g>
<g style="fill:#009F00; fill-opacity:0.0; 
stroke:#009F00; stroke-width:100; stroke-opacity:1; 
stroke-linecap:round; stroke-linejoin:round;">
<polyline fill="none;"
points="87802,43844
87561,44084
87496,44182
87474,44297
87474,44476
87409,44450
87191,44449
86988,44533
86849,44672
86711,44534
86509,44450
86291,44449
86088,44533
85934,44688
85850,44890
85849,45108
85933,45311
86088,45465
86195,45510
86099,45606
86047,45555
85854,45475
85649,45474
85583,45409
85694,45297
85774,45104
85775,44896
85695,44703
85547,44555
85354,44475
85146,44474
84953,44554
84805,44702
84775,44774
84775,44675
84737,44583
84666,44513
84574,44475
84475,44474
83925,44474
83833,44512
83763,44583
83725,44675
83724,44774
83724,45075
83437,44787
83339,44722
83329,44720
83329,44075
83329,42075
83318,41867
83260,41727
83167,41702
83097,41773
83097,41632
83072,41539
82875,41470
82667,41481
82527,41539
82502,41632
82800,41929
83097,41632
83097,41773
82870,42000
83167,42297
83260,42272
83329,42075
83329,44075
83318,43867
83260,43727
83167,43702
82870,44000
83167,44297
83260,44272
83329,44075
83329,44720
83325,44719
83325,44675
83287,44583
83216,44513
83124,44475
83080,44475
83077,44460
83074,44455
83097,44367
82800,44070
82794,44076
82723,44005
82729,44000
82723,43994
82794,43923
82800,43929
83097,43632
83072,43539
82962,43500
83097,43445
83244,43297
83324,43104
83325,42896
83245,42703
83097,42555
82971,42502
83072,42460
83097,42367
82800,42070
82729,42141
82729,42000
82432,41702
82339,41727
82270,41924
82281,42132
82339,42272
82432,42297
82729,42000
82729,42141
82502,42367
82527,42460
82637,42499
82503,42554
82355,42702
82317,42793
82245,42721
82249,42709
82250,42491
82166,42288
82011,42134
82000,42129
82000,41871
82011,41866
82165,41711
82249,41509
82250,41291
82166,41088
82011,40934
81809,40850
81591,40849
81539,40871
81539,40480
81645,40524
81853,40525
82047,40445
82103,40389
85426,43712
85426,43712
85523,43777
85638,43799
85638,43800
87757,43800
87802,43844
" /> 
</g>
<g style="fill:#009F00; fill-opacity:1.0; 
stroke:#009F00; stroke-width:39.3701; stroke-opacity:1; 
stroke-linecap:round; stroke-linejoin:round;">
<polyline style="fill-rule:evenodd;"
points="87826,46005
87755,46076
87750,46070
87452,46367
87475,46454
86579,47350
86275,47350
86275,47325
86237,47233
86166,47163
86074,47125
85975,47124
85699,47124
86415,46408
86452,46444
86645,46524
86853,46525
87047,46445
87194,46297
87247,46171
87289,46272
87382,46297
87679,46000
87673,45994
87744,45923
87750,45929
87755,45923
87826,45994
87820,46000
87826,46005
" /> 
</g>
<g style="fill:#009F00; fill-opacity:0.0; 
stroke:#009F00; stroke-width:100; stroke-opacity:1; 
stroke-linecap:round; stroke-linejoin:round;">
<polyline fill="none;"
points="87826,46005
87755,46076
87750,46070
87452,46367
87475,46454
86579,47350
86275,47350
86275,47325
86237,47233
86166,47163
86074,47125
85975,47124
85699,47124
86415,46408
86452,46444
86645,46524
86853,46525
87047,46445
87194,46297
87247,46171
87289,46272
87382,46297
87679,46000
87673,45994
87744,45923
87750,45929
87755,45923
87826,45994
87820,46000
87826,46005
" /> 
</g>
<g style="fill:#009F00; fill-opacity:1.0; 
stroke:#009F00; stroke-width:39.3701; stroke-opacity:1; 
stroke-linecap:round; stroke-linejoin:round;">
<polyline style="fill-rule:evenodd;"
points="90795,29019
90775,29028
90622,29181
90539,29381
90538,29598
90542,29607
90299,29850
90234,29947
90212,30062
90212,31160
89930,31442
89866,31288
89711,31134
89665,31114
89665,29571
89654,29354
89593,29205
89498,29178
89186,29490
89498,29802
89593,29775
89665,29571
89665,31114
89509,31050
89291,31049
89088,31133
88934,31288
88850,31490
88849,31708
88933,31911
88949,31926
87800,33075
87596,33074
87572,33084
87572,31152
87599,31124
87803,31125
87997,31045
88144,30897
88177,30820
88214,30911
88284,30981
88376,31020
88476,31020
89066,31020
89158,30982
89229,30911
89267,30820
89267,30720
89267,30130
89229,30038
89222,30031
89251,30029
89400,29967
89427,29873
89115,29561
89045,29631
89045,29490
88733,29178
88638,29205
88565,29409
88576,29626
88638,29775
88733,29802
89045,29490
89045,29631
88803,29873
88819,29929
88377,29929
88285,29967
88214,30037
88176,30129
88176,30229
88176,30378
88145,30303
87997,30155
87804,30075
87596,30074
87403,30154
87345,30212
87016,29883
86918,29818
86804,29795
86146,29795
86194,29747
86274,29554
86275,29346
86195,29153
86062,29019
88828,29019
88803,29108
89115,29419
89427,29108
89402,29019
90795,29019
" /> 
</g>
<g style="fill:#009F00; fill-opacity:0.0; 
stroke:#009F00; stroke-width:100; stroke-opacity:1; 
stroke-linecap:round; stroke-linejoin:round;">
<polyline fill="none;"
points="90795,29019
90775,29028
90622,29181
90539,29381
90538,29598
90542,29607
90299,29850
90234,29947
90212,30062
90212,31160
89930,31442
89866,31288
89711,31134
89665,31114
89665,29571
89654,29354
89593,29205
89498,29178
89186,29490
89498,29802
89593,29775
89665,29571
89665,31114
89509,31050
89291,31049
89088,31133
88934,31288
88850,31490
88849,31708
88933,31911
88949,31926
87800,33075
87596,33074
87572,33084
87572,31152
87599,31124
87803,31125
87997,31045
88144,30897
88177,30820
88214,30911
88284,30981
88376,31020
88476,31020
89066,31020
89158,30982
89229,30911
89267,30820
89267,30720
89267,30130
89229,30038
89222,30031
89251,30029
89400,29967
89427,29873
89115,29561
89045,29631
89045,29490
88733,29178
88638,29205
88565,29409
88576,29626
88638,29775
88733,29802
89045,29490
89045,29631
88803,29873
88819,29929
88377,29929
88285,29967
88214,30037
88176,30129
88176,30229
88176,30378
88145,30303
87997,30155
87804,30075
87596,30074
87403,30154
87345,30212
87016,29883
86918,29818
86804,29795
86146,29795
86194,29747
86274,29554
86275,29346
86195,29153
86062,29019
88828,29019
88803,29108
89115,29419
89427,29108
89402,29019
90795,29019
" /> 
</g>
<g style="fill:#009F00; fill-opacity:1.0; 
stroke:#009F00; stroke-width:39.3701; stroke-opacity:1; 
stroke-linecap:round; stroke-linejoin:round;">
<polyline style="fill-rule:evenodd;"
points="91730,32778
91577,32625
91586,32616
91624,32524
91625,32425
91625,31875
91587,31783
91516,31713
91424,31675
91325,31674
90775,31674
90683,31712
90613,31783
90575,31875
90574,31974
90574,32295
90507,32233
90387,32239
90243,32637
90124,32755
90195,32826
90209,32812
90626,32963
90593,33058
90313,32956
90195,32837
90124,32908
90139,32922
89943,33459
90032,33540
90309,33519
90558,33394
90583,33367
90587,33371
90594,33364
90639,33472
90732,33497
91029,33200
91023,33194
91094,33123
91100,33129
91105,33123
91176,33194
91170,33200
91176,33205
91105,33276
91100,33270
90802,33567
90827,33660
90937,33699
90803,33754
90655,33902
90575,34095
90574,34303
90654,34497
90802,34644
90935,34700
90803,34754
90655,34902
90575,35095
90574,35303
90654,35497
90802,35644
90935,35700
90803,35754
90655,35902
90575,36095
90574,36303
90654,36497
90802,36644
90995,36724
91203,36725
91373,36655
91373,37295
91290,37265
91073,37276
90924,37338
90897,37433
91209,37745
91215,37739
91285,37810
91280,37815
91285,37821
91215,37892
91209,37886
91138,37957
91138,37815
90826,37503
90770,37519
90770,37077
90732,36985
90662,36914
90570,36876
90470,36876
89954,36876
89954,35681
89943,35463
89881,35312
89785,35284
89470,35600
89785,35915
89881,35887
89954,35681
89954,36876
89880,36876
89788,36914
89718,36984
89679,37076
89679,37176
89679,37766
89717,37858
89788,37929
89879,37967
89979,37967
90569,37967
90661,37929
90668,37922
90670,37951
90732,38100
90826,38127
91138,37815
91138,37957
90897,38198
90924,38293
91128,38365
91345,38354
91373,38343
91373,39261
91318,39239
91101,39238
90900,39321
90747,39474
90664,39673
90662,39670
90570,39632
90470,39632
90093,39632
90098,39626
90183,39627
90339,39562
90459,39443
90524,39286
90524,39117
90460,38961
90340,38841
90184,38777
90015,38776
89859,38841
89739,38960
89674,39117
89674,39202
89558,39318
89493,39415
89470,39530
89470,44137
88729,44878
88037,45570
88032,45578
88022,45539
87874,45487
87986,45375
87986,45375
88051,45278
88074,45163
88074,45163
88074,45012
88124,45029
88332,45018
88472,44960
88497,44867
88200,44570
88194,44576
88123,44505
88129,44500
88123,44494
88194,44423
88200,44429
88205,44423
88276,44494
88270,44500
88567,44797
88660,44772
88729,44575
88718,44367
88660,44227
88567,44202
88613,44157
88590,44135
88837,43888
88837,43888
88902,43791
88925,43676
88925,43676
88925,43304
88902,43189
88902,43189
88837,43092
88593,42848
88644,42797
88724,42604
88725,42396
88645,42203
88497,42055
88425,42025
88524,42025
88616,41987
88686,41916
88724,41824
88725,41725
88725,41175
88687,41083
88616,41013
88524,40975
88425,40974
87875,40974
87850,40985
87850,40891
87766,40688
87611,40534
87409,40450
87191,40449
86988,40533
86849,40672
86711,40534
86690,40524
86853,40525
87047,40445
87194,40297
87250,40164
87304,40297
87452,40444
87645,40524
87853,40525
88047,40445
88194,40297
88224,40225
88224,40324
88262,40416
88333,40486
88425,40524
88524,40525
89074,40525
89166,40487
89236,40416
89274,40324
89275,40225
89275,39675
89237,39583
89166,39513
89074,39475
88975,39474
88425,39474
88333,39512
88263,39583
88225,39675
88224,39774
88224,39774
88195,39703
88047,39555
87854,39475
87646,39474
87453,39554
87305,39702
87249,39835
87195,39703
87047,39555
86924,39504
89027,37401
89027,37401
89092,37304
89114,37189
89114,37189
89114,36082
89318,36154
89536,36143
89687,36081
89715,35985
89400,35670
89394,35676
89323,35605
89329,35600
89323,35594
89394,35523
89400,35529
89715,35214
89687,35118
89481,35045
89263,35056
89114,35117
89114,33106
89415,32806
89431,33023
89556,33271
89730,33430
89849,33425
90054,32862
89544,32676
89622,32598
89924,32708
90042,32826
90113,32755
90098,32741
90294,32204
90205,32123
90088,32132
90724,31497
90724,31497
90789,31399
90812,31284
90812,31284
90812,30186
90966,30032
90973,30035
90970,30037
90932,30129
90932,30229
90932,30819
90970,30911
91040,30981
91132,31020
91232,31020
91730,31020
91730,32778
" /> 
</g>
<g style="fill:#009F00; fill-opacity:0.0; 
stroke:#009F00; stroke-width:100; stroke-opacity:1; 
stroke-linecap:round; stroke-linejoin:round;">
<polyline fill="none;"
points="91730,32778
91577,32625
91586,32616
91624,32524
91625,32425
91625,31875
91587,31783
91516,31713
91424,31675
91325,31674
90775,31674
90683,31712
90613,31783
90575,31875
90574,31974
90574,32295
90507,32233
90387,32239
90243,32637
90124,32755
90195,32826
90209,32812
90626,32963
90593,33058
90313,32956
90195,32837
90124,32908
90139,32922
89943,33459
90032,33540
90309,33519
90558,33394
90583,33367
90587,33371
90594,33364
90639,33472
90732,33497
91029,33200
91023,33194
91094,33123
91100,33129
91105,33123
91176,33194
91170,33200
91176,33205
91105,33276
91100,33270
90802,33567
90827,33660
90937,33699
90803,33754
90655,33902
90575,34095
90574,34303
90654,34497
90802,34644
90935,34700
90803,34754
90655,34902
90575,35095
90574,35303
90654,35497
90802,35644
90935,35700
90803,35754
90655,35902
90575,36095
90574,36303
90654,36497
90802,36644
90995,36724
91203,36725
91373,36655
91373,37295
91290,37265
91073,37276
90924,37338
90897,37433
91209,37745
91215,37739
91285,37810
91280,37815
91285,37821
91215,37892
91209,37886
91138,37957
91138,37815
90826,37503
90770,37519
90770,37077
90732,36985
90662,36914
90570,36876
90470,36876
89954,36876
89954,35681
89943,35463
89881,35312
89785,35284
89470,35600
89785,35915
89881,35887
89954,35681
89954,36876
89880,36876
89788,36914
89718,36984
89679,37076
89679,37176
89679,37766
89717,37858
89788,37929
89879,37967
89979,37967
90569,37967
90661,37929
90668,37922
90670,37951
90732,38100
90826,38127
91138,37815
91138,37957
90897,38198
90924,38293
91128,38365
91345,38354
91373,38343
91373,39261
91318,39239
91101,39238
90900,39321
90747,39474
90664,39673
90662,39670
90570,39632
90470,39632
90093,39632
90098,39626
90183,39627
90339,39562
90459,39443
90524,39286
90524,39117
90460,38961
90340,38841
90184,38777
90015,38776
89859,38841
89739,38960
89674,39117
89674,39202
89558,39318
89493,39415
89470,39530
89470,44137
88729,44878
88037,45570
88032,45578
88022,45539
87874,45487
87986,45375
87986,45375
88051,45278
88074,45163
88074,45163
88074,45012
88124,45029
88332,45018
88472,44960
88497,44867
88200,44570
88194,44576
88123,44505
88129,44500
88123,44494
88194,44423
88200,44429
88205,44423
88276,44494
88270,44500
88567,44797
88660,44772
88729,44575
88718,44367
88660,44227
88567,44202
88613,44157
88590,44135
88837,43888
88837,43888
88902,43791
88925,43676
88925,43676
88925,43304
88902,43189
88902,43189
88837,43092
88593,42848
88644,42797
88724,42604
88725,42396
88645,42203
88497,42055
88425,42025
88524,42025
88616,41987
88686,41916
88724,41824
88725,41725
88725,41175
88687,41083
88616,41013
88524,40975
88425,40974
87875,40974
87850,40985
87850,40891
87766,40688
87611,40534
87409,40450
87191,40449
86988,40533
86849,40672
86711,40534
86690,40524
86853,40525
87047,40445
87194,40297
87250,40164
87304,40297
87452,40444
87645,40524
87853,40525
88047,40445
88194,40297
88224,40225
88224,40324
88262,40416
88333,40486
88425,40524
88524,40525
89074,40525
89166,40487
89236,40416
89274,40324
89275,40225
89275,39675
89237,39583
89166,39513
89074,39475
88975,39474
88425,39474
88333,39512
88263,39583
88225,39675
88224,39774
88224,39774
88195,39703
88047,39555
87854,39475
87646,39474
87453,39554
87305,39702
87249,39835
87195,39703
87047,39555
86924,39504
89027,37401
89027,37401
89092,37304
89114,37189
89114,37189
89114,36082
89318,36154
89536,36143
89687,36081
89715,35985
89400,35670
89394,35676
89323,35605
89329,35600
89323,35594
89394,35523
89400,35529
89715,35214
89687,35118
89481,35045
89263,35056
89114,35117
89114,33106
89415,32806
89431,33023
89556,33271
89730,33430
89849,33425
90054,32862
89544,32676
89622,32598
89924,32708
90042,32826
90113,32755
90098,32741
90294,32204
90205,32123
90088,32132
90724,31497
90724,31497
90789,31399
90812,31284
90812,31284
90812,30186
90966,30032
90973,30035
90970,30037
90932,30129
90932,30229
90932,30819
90970,30911
91040,30981
91132,31020
91232,31020
91730,31020
91730,32778
" /> 
</g>
<g style="fill:#009F00; fill-opacity:1.0; 
stroke:#009F00; stroke-width:39.3701; stroke-opacity:1; 
stroke-linecap:round; stroke-linejoin:round;">
<polyline style="fill-rule:evenodd;"
points="91730,47980
91630,47980
91647,47917
91350,47620
91279,47691
91279,47550
90982,47252
90889,47277
90820,47474
90831,47682
90889,47822
90982,47847
91279,47550
91279,47691
91052,47917
91069,47980
86272,47980
86274,47974
86274,47950
86704,47950
86704,47949
86818,47927
86818,47927
86916,47862
88392,46385
88452,46444
88645,46524
88853,46525
89047,46445
89194,46297
89274,46104
89275,45896
89195,45703
89047,45555
88944,45512
89982,44474
89982,44474
90047,44377
90070,44262
90070,44262
90070,40723
90569,40723
90661,40685
90732,40615
90770,40523
90770,40423
90770,40116
90900,40246
91100,40329
91317,40329
91373,40306
91373,40902
91300,40975
91096,40974
90903,41054
90755,41202
90675,41395
90674,41603
90754,41797
90902,41944
91035,42000
90903,42054
90755,42202
90675,42395
90674,42603
90754,42797
90902,42944
91035,43000
90903,43054
90755,43202
90675,43395
90674,43603
90754,43797
90902,43944
91035,44000
90903,44054
90755,44202
90675,44395
90674,44603
90754,44797
90902,44944
91095,45024
91303,45025
91329,45014
91329,45720
91137,45912
91072,46010
91069,46024
91025,46024
90933,46062
90863,46133
90825,46225
90824,46324
90824,46874
90862,46966
90933,47036
91025,47074
91112,47075
91077,47089
91052,47182
91350,47479
91647,47182
91622,47089
91581,47075
91674,47075
91730,47051
91730,47256
91717,47252
91420,47550
91717,47847
91730,47843
91730,47980
" /> 
</g>
<g style="fill:#009F00; fill-opacity:0.0; 
stroke:#009F00; stroke-width:100; stroke-opacity:1; 
stroke-linecap:round; stroke-linejoin:round;">
<polyline fill="none;"
points="91730,47980
91630,47980
91647,47917
91350,47620
91279,47691
91279,47550
90982,47252
90889,47277
90820,47474
90831,47682
90889,47822
90982,47847
91279,47550
91279,47691
91052,47917
91069,47980
86272,47980
86274,47974
86274,47950
86704,47950
86704,47949
86818,47927
86818,47927
86916,47862
88392,46385
88452,46444
88645,46524
88853,46525
89047,46445
89194,46297
89274,46104
89275,45896
89195,45703
89047,45555
88944,45512
89982,44474
89982,44474
90047,44377
90070,44262
90070,44262
90070,40723
90569,40723
90661,40685
90732,40615
90770,40523
90770,40423
90770,40116
90900,40246
91100,40329
91317,40329
91373,40306
91373,40902
91300,40975
91096,40974
90903,41054
90755,41202
90675,41395
90674,41603
90754,41797
90902,41944
91035,42000
90903,42054
90755,42202
90675,42395
90674,42603
90754,42797
90902,42944
91035,43000
90903,43054
90755,43202
90675,43395
90674,43603
90754,43797
90902,43944
91035,44000
90903,44054
90755,44202
90675,44395
90674,44603
90754,44797
90902,44944
91095,45024
91303,45025
91329,45014
91329,45720
91137,45912
91072,46010
91069,46024
91025,46024
90933,46062
90863,46133
90825,46225
90824,46324
90824,46874
90862,46966
90933,47036
91025,47074
91112,47075
91077,47089
91052,47182
91350,47479
91647,47182
91622,47089
91581,47075
91674,47075
91730,47051
91730,47256
91717,47252
91420,47550
91717,47847
91730,47843
91730,47980
" /> 
</g>
<g style="fill:#FFFFFF; fill-opacity:0.0; 
stroke:#FFFFFF; stroke-width:39.3701; stroke-opacity:1; 
stroke-linecap:round; stroke-linejoin:round;">
</g>
<g style="fill:#FFFFFF; fill-opacity:1.0; 
stroke:#FFFFFF; stroke-width:39.3701; stroke-opacity:1; 
stroke-linecap:round; stroke-linejoin:round;">
<circle cx="86999.5" cy="34210.4" r="105.315" /> 
<circle cx="90099.6" cy="39202" r="105.315" /> 
<circle cx="80921.7" cy="31645.7" r="105.315" /> 
<circle cx="85186.9" cy="32805.4" r="105.315" /> 
<circle cx="76751.2" cy="41907.6" r="105.315" /> 
<circle cx="79025.2" cy="43356.4" r="105.315" /> 
<circle cx="77091.1" cy="38277.5" r="105.315" /> 
<circle cx="78750" cy="29450" r="140.315" /> 
<circle cx="79750" cy="29450" r="140.315" /> 
<circle cx="80750" cy="29450" r="140.315" /> 
<circle cx="81750" cy="29450" r="140.315" /> 
<circle cx="82750" cy="29450" r="140.315" /> 
<circle cx="83750" cy="29450" r="140.315" /> 
<circle cx="84750" cy="29450" r="140.315" /> 
<circle cx="85750" cy="29450" r="140.315" /> 
<circle cx="85750" cy="47650" r="140.315" /> 
<circle cx="84750" cy="47650" r="140.315" /> 
<circle cx="83750" cy="47650" r="140.315" /> 
<circle cx="82750" cy="47650" r="140.315" /> 
<circle cx="81750" cy="47650" r="140.315" /> 
<circle cx="80750" cy="47650" r="140.315" /> 
<circle cx="79750" cy="47650" r="140.315" /> 
<circle cx="78750" cy="47650" r="140.315" /> 
<circle cx="89400" cy="31600" r="140.315" /> 
<circle cx="89400" cy="35600" r="140.315" /> 
<circle cx="81700" cy="42600" r="140.315" /> 
<circle cx="77700" cy="42600" r="140.315" /> 
<circle cx="76700" cy="33600" r="140.315" /> 
<circle cx="77700" cy="33600" r="140.315" /> 
<circle cx="78700" cy="33600" r="140.315" /> 
<circle cx="79700" cy="33600" r="140.315" /> 
<circle cx="80700" cy="33600" r="140.315" /> 
<circle cx="81700" cy="33600" r="140.315" /> 
<circle cx="82700" cy="33600" r="140.315" /> 
<circle cx="83700" cy="33600" r="140.315" /> 
<circle cx="84700" cy="33600" r="140.315" /> 
<circle cx="85700" cy="33600" r="140.315" /> 
<circle cx="86700" cy="33600" r="140.315" /> 
<circle cx="87700" cy="33600" r="140.315" /> 
<circle cx="87700" cy="30600" r="140.315" /> 
<circle cx="86700" cy="30600" r="140.315" /> 
<circle cx="85700" cy="30600" r="140.315" /> 
<circle cx="84700" cy="30600" r="140.315" /> 
<circle cx="83700" cy="30600" r="140.315" /> 
<circle cx="82700" cy="30600" r="140.315" /> 
<circle cx="81700" cy="30600" r="140.315" /> 
<circle cx="80700" cy="30600" r="140.315" /> 
<circle cx="79700" cy="30600" r="140.315" /> 
<circle cx="78700" cy="30600" r="140.315" /> 
<circle cx="77700" cy="30600" r="140.315" /> 
<circle cx="76700" cy="30600" r="140.315" /> 
<circle cx="74900" cy="34600" r="140.315" /> 
<circle cx="74900" cy="33600" r="140.315" /> 
<circle cx="74300" cy="31900" r="140.315" /> 
<circle cx="75300" cy="31900" r="140.315" /> 
<circle cx="85750" cy="38750" r="140.315" /> 
<circle cx="84750" cy="38750" r="140.315" /> 
<circle cx="83750" cy="38750" r="140.315" /> 
<circle cx="82750" cy="38750" r="140.315" /> 
<circle cx="81750" cy="38750" r="140.315" /> 
<circle cx="80750" cy="38750" r="140.315" /> 
<circle cx="79750" cy="38750" r="140.315" /> 
<circle cx="78750" cy="38750" r="140.315" /> 
<circle cx="77750" cy="46000" r="140.315" /> 
<circle cx="78750" cy="46000" r="140.315" /> 
<circle cx="79750" cy="46000" r="140.315" /> 
<circle cx="80750" cy="46000" r="140.315" /> 
<circle cx="81750" cy="46000" r="140.315" /> 
<circle cx="82750" cy="46000" r="140.315" /> 
<circle cx="83750" cy="46000" r="140.315" /> 
<circle cx="84750" cy="46000" r="140.315" /> 
<circle cx="85750" cy="46000" r="140.315" /> 
<circle cx="86750" cy="46000" r="140.315" /> 
<circle cx="87750" cy="46000" r="140.315" /> 
<circle cx="88750" cy="46000" r="140.315" /> 
<circle cx="88750" cy="40000" r="140.315" /> 
<circle cx="87750" cy="40000" r="140.315" /> 
<circle cx="86750" cy="40000" r="140.315" /> 
<circle cx="85750" cy="40000" r="140.315" /> 
<circle cx="84750" cy="40000" r="140.315" /> 
<circle cx="83750" cy="40000" r="140.315" /> 
<circle cx="82750" cy="40000" r="140.315" /> 
<circle cx="81750" cy="40000" r="140.315" /> 
<circle cx="80750" cy="40000" r="140.315" /> 
<circle cx="79750" cy="40000" r="140.315" /> 
<circle cx="78750" cy="40000" r="140.315" /> 
<circle cx="77750" cy="40000" r="140.315" /> 
<circle cx="76700" cy="37700" r="140.315" /> 
<circle cx="77700" cy="37700" r="140.315" /> 
<circle cx="78700" cy="37700" r="140.315" /> 
<circle cx="79700" cy="37700" r="140.315" /> 
<circle cx="80700" cy="37700" r="140.315" /> 
<circle cx="81700" cy="37700" r="140.315" /> 
<circle cx="82700" cy="37700" r="140.315" /> 
<circle cx="83700" cy="37700" r="140.315" /> 
<circle cx="84700" cy="37700" r="140.315" /> 
<circle cx="85700" cy="37700" r="140.315" /> 
<circle cx="86700" cy="37700" r="140.315" /> 
<circle cx="87700" cy="37700" r="140.315" /> 
<circle cx="87700" cy="34700" r="140.315" /> 
<circle cx="86700" cy="34700" r="140.315" /> 
<circle cx="85700" cy="34700" r="140.315" /> 
<circle cx="84700" cy="34700" r="140.315" /> 
<circle cx="83700" cy="34700" r="140.315" /> 
<circle cx="82700" cy="34700" r="140.315" /> 
<circle cx="81700" cy="34700" r="140.315" /> 
<circle cx="80700" cy="34700" r="140.315" /> 
<circle cx="79700" cy="34700" r="140.315" /> 
<circle cx="78700" cy="34700" r="140.315" /> 
<circle cx="77700" cy="34700" r="140.315" /> 
<circle cx="76700" cy="34700" r="140.315" /> 
<circle cx="73400" cy="43100" r="140.315" /> 
<circle cx="74400" cy="43100" r="140.315" /> 
<circle cx="75400" cy="43100" r="140.315" /> 
<circle cx="76400" cy="43100" r="140.315" /> 
<circle cx="84250" cy="45000" r="140.315" /> 
<circle cx="85250" cy="45000" r="140.315" /> 
<circle cx="81700" cy="41400" r="140.315" /> 
<circle cx="77700" cy="41400" r="140.315" /> 
<circle cx="87300" cy="45000" r="140.315" /> 
<circle cx="87300" cy="41000" r="140.315" /> 
<circle cx="86400" cy="45000" r="140.315" /> 
<circle cx="86400" cy="41000" r="140.315" /> 
<circle cx="88200" cy="41500" r="140.315" /> 
<circle cx="88200" cy="42500" r="140.315" /> 
<circle cx="88200" cy="43500" r="140.315" /> 
<circle cx="88200" cy="44500" r="140.315" /> 
<circle cx="91200" cy="44500" r="140.315" /> 
<circle cx="91200" cy="43500" r="140.315" /> 
<circle cx="91200" cy="42500" r="140.315" /> 
<circle cx="91200" cy="41500" r="140.315" /> 
<circle cx="90118.9" cy="32832.1" r="180.315" /> 
<circle cx="81962.2" cy="36635.7" r="180.315" /> 
<circle cx="73400" cy="41400" r="140.315" /> 
<circle cx="74400" cy="41400" r="140.315" /> 
<circle cx="75400" cy="41400" r="140.315" /> 
<circle cx="76400" cy="41400" r="140.315" /> 
<circle cx="82800" cy="45000" r="140.315" /> 
<circle cx="82800" cy="44000" r="140.315" /> 
<circle cx="82800" cy="43000" r="140.315" /> 
<circle cx="82800" cy="42000" r="140.315" /> 
</g>
<g style="fill:#FFFFFF; fill-opacity:1.0; 
stroke:#FFFFFF; stroke-width:236.22; stroke-opacity:1; 
stroke-linecap:round; stroke-linejoin:round;">
<path d="M91209 39803
L91209 39764
" />
<path d="M91209 37835
L91209 37796
" />
<path d="M90146 40177
L90303 40177
" />
<path d="M90146 37422
L90303 37422
" />
<path d="M73290 37796
L73290 37835
" />
<path d="M73290 39764
L73290 39803
" />
<path d="M74353 37422
L74196 37422
" />
<path d="M74353 40177
L74196 40177
" />
<path d="M91103 29490
L91064 29490
" />
<path d="M89135 29490
L89096 29490
" />
<path d="M91477 30553
L91477 30396
" />
<path d="M88722 30553
L88722 30396
" />
<path d="M75403 29490
L75364 29490
" />
<path d="M73435 29490
L73396 29490
" />
<path d="M75777 30553
L75777 30396
" />
<path d="M73022 30553
L73022 30396
" />
</g>
<g style="fill:#FFFFFF; fill-opacity:1.0; 
stroke:#FFFFFF; stroke-width:39.3701; stroke-opacity:1; 
stroke-linecap:round; stroke-linejoin:round;">
<circle cx="73300" cy="32200" r="140.315" /> 
<circle cx="73300" cy="33200" r="140.315" /> 
<circle cx="73300" cy="34200" r="140.315" /> 
<circle cx="73300" cy="35200" r="140.315" /> 
<circle cx="73300" cy="36200" r="140.315" /> 
<circle cx="91100" cy="32200" r="140.315" /> 
<circle cx="91100" cy="33200" r="140.315" /> 
<circle cx="91100" cy="34200" r="140.315" /> 
<circle cx="91100" cy="35200" r="140.315" /> 
<circle cx="91100" cy="36200" r="140.315" /> 
<circle cx="73400" cy="44350" r="140.315" /> 
<circle cx="73400" cy="45350" r="140.315" /> 
<circle cx="73400" cy="46350" r="140.315" /> 
<circle cx="73400" cy="47350" r="140.315" /> 
<circle cx="74750" cy="44350" r="140.315" /> 
<circle cx="74750" cy="45350" r="140.315" /> 
<circle cx="74750" cy="46350" r="140.315" /> 
<circle cx="74750" cy="47350" r="140.315" /> 
<circle cx="76050" cy="44350" r="140.315" /> 
<circle cx="76050" cy="45350" r="140.315" /> 
<circle cx="76050" cy="46350" r="140.315" /> 
<circle cx="76050" cy="47350" r="140.315" /> 
<circle cx="84350" cy="41000" r="140.315" /> 
<circle cx="85350" cy="41000" r="140.315" /> 
<circle cx="91350" cy="46550" r="140.315" /> 
<circle cx="91350" cy="47550" r="140.315" /> 
</g> 
</svg>
