G04 (created by PCBNEW (2013-07-07 BZR 4022)-stable) date 01/06/2014 15:28:08*
%MOIN*%
G04 Gerber Fmt 3.4, Leading zero omitted, Abs format*
%FSLAX34Y34*%
G01*
G70*
G90*
G04 APERTURE LIST*
%ADD10C,0.00590551*%
%ADD11R,0.055X0.055*%
%ADD12C,0.055*%
%ADD13C,0.06*%
%ADD14R,0.065X0.065*%
%ADD15C,0.065*%
%ADD16C,0.09*%
%ADD17C,0.0590551*%
%ADD18R,0.0590551X0.0590551*%
%ADD19C,0.035*%
%ADD20C,0.01*%
G04 APERTURE END LIST*
G54D10*
G54D11*
X78750Y-29450D03*
G54D12*
X79750Y-29450D03*
X80750Y-29450D03*
X81750Y-29450D03*
X82750Y-29450D03*
X83750Y-29450D03*
X84750Y-29450D03*
X85750Y-29450D03*
G54D11*
X85750Y-47650D03*
G54D12*
X84750Y-47650D03*
X83750Y-47650D03*
X82750Y-47650D03*
X81750Y-47650D03*
X80750Y-47650D03*
X79750Y-47650D03*
X78750Y-47650D03*
G54D13*
X89400Y-31600D03*
X89400Y-35600D03*
X81700Y-42600D03*
X77700Y-42600D03*
G54D11*
X76700Y-33600D03*
G54D12*
X77700Y-33600D03*
X78700Y-33600D03*
X79700Y-33600D03*
X80700Y-33600D03*
X81700Y-33600D03*
X82700Y-33600D03*
X83700Y-33600D03*
X84700Y-33600D03*
X85700Y-33600D03*
X86700Y-33600D03*
X87700Y-33600D03*
X87700Y-30600D03*
X86700Y-30600D03*
X85700Y-30600D03*
X84700Y-30600D03*
X83700Y-30600D03*
X82700Y-30600D03*
X81700Y-30600D03*
X80700Y-30600D03*
X79700Y-30600D03*
X78700Y-30600D03*
X77700Y-30600D03*
X76700Y-30600D03*
G54D14*
X74900Y-34600D03*
G54D15*
X74900Y-33600D03*
G54D12*
X74300Y-31900D03*
X75300Y-31900D03*
G54D11*
X85750Y-38750D03*
G54D12*
X84750Y-38750D03*
X83750Y-38750D03*
X82750Y-38750D03*
X81750Y-38750D03*
X80750Y-38750D03*
X79750Y-38750D03*
X78750Y-38750D03*
G54D11*
X77750Y-46000D03*
G54D12*
X78750Y-46000D03*
X79750Y-46000D03*
X80750Y-46000D03*
X81750Y-46000D03*
X82750Y-46000D03*
X83750Y-46000D03*
X84750Y-46000D03*
X85750Y-46000D03*
X86750Y-46000D03*
X87750Y-46000D03*
X88750Y-46000D03*
G54D11*
X88750Y-40000D03*
G54D12*
X87750Y-40000D03*
X86750Y-40000D03*
X85750Y-40000D03*
X84750Y-40000D03*
X83750Y-40000D03*
X82750Y-40000D03*
X81750Y-40000D03*
X80750Y-40000D03*
X79750Y-40000D03*
X78750Y-40000D03*
X77750Y-40000D03*
G54D11*
X76700Y-37700D03*
G54D12*
X77700Y-37700D03*
X78700Y-37700D03*
X79700Y-37700D03*
X80700Y-37700D03*
X81700Y-37700D03*
X82700Y-37700D03*
X83700Y-37700D03*
X84700Y-37700D03*
X85700Y-37700D03*
X86700Y-37700D03*
X87700Y-37700D03*
X87700Y-34700D03*
X86700Y-34700D03*
X85700Y-34700D03*
X84700Y-34700D03*
X83700Y-34700D03*
X82700Y-34700D03*
X81700Y-34700D03*
X80700Y-34700D03*
X79700Y-34700D03*
X78700Y-34700D03*
X77700Y-34700D03*
X76700Y-34700D03*
G54D11*
X73400Y-43100D03*
G54D12*
X74400Y-43100D03*
X75400Y-43100D03*
X76400Y-43100D03*
G54D11*
X84250Y-45000D03*
G54D12*
X85250Y-45000D03*
G54D13*
X81700Y-41400D03*
X77700Y-41400D03*
X87300Y-45000D03*
X87300Y-41000D03*
X86400Y-45000D03*
X86400Y-41000D03*
G54D11*
X88200Y-41500D03*
G54D12*
X88200Y-42500D03*
X88200Y-43500D03*
X88200Y-44500D03*
X91200Y-44500D03*
X91200Y-43500D03*
X91200Y-42500D03*
X91200Y-41500D03*
G54D16*
X90118Y-32832D03*
X81962Y-36635D03*
G54D11*
X73400Y-41400D03*
G54D12*
X74400Y-41400D03*
X75400Y-41400D03*
X76400Y-41400D03*
G54D11*
X82800Y-45000D03*
G54D12*
X82800Y-44000D03*
X82800Y-43000D03*
X82800Y-42000D03*
G54D17*
X91209Y-39784D03*
X91209Y-37815D03*
G54D18*
X90225Y-40177D03*
X90225Y-37422D03*
G54D17*
X73290Y-37815D03*
X73290Y-39784D03*
G54D18*
X74274Y-37422D03*
X74274Y-40177D03*
G54D17*
X91084Y-29490D03*
X89115Y-29490D03*
G54D18*
X91477Y-30474D03*
X88722Y-30474D03*
G54D17*
X75384Y-29490D03*
X73415Y-29490D03*
G54D18*
X75777Y-30474D03*
X73022Y-30474D03*
G54D11*
X73300Y-32200D03*
G54D12*
X73300Y-33200D03*
X73300Y-34200D03*
X73300Y-35200D03*
X73300Y-36200D03*
G54D11*
X91100Y-32200D03*
G54D12*
X91100Y-33200D03*
X91100Y-34200D03*
X91100Y-35200D03*
X91100Y-36200D03*
G54D11*
X73400Y-44350D03*
G54D12*
X73400Y-45350D03*
X73400Y-46350D03*
X73400Y-47350D03*
G54D11*
X74750Y-44350D03*
G54D12*
X74750Y-45350D03*
X74750Y-46350D03*
X74750Y-47350D03*
G54D11*
X76050Y-44350D03*
G54D12*
X76050Y-45350D03*
X76050Y-46350D03*
X76050Y-47350D03*
G54D11*
X84350Y-41000D03*
G54D12*
X85350Y-41000D03*
G54D11*
X91350Y-46550D03*
G54D12*
X91350Y-47550D03*
G54D19*
X86999Y-34210D03*
X90099Y-39201D03*
X80921Y-31645D03*
X85186Y-32805D03*
X76751Y-41907D03*
X79025Y-43356D03*
X77091Y-38277D03*
G54D20*
X78700Y-33700D02*
X78700Y-33600D01*
X77700Y-34700D02*
X78700Y-33700D01*
X87139Y-34350D02*
X86999Y-34210D01*
X87139Y-37885D02*
X87139Y-34350D01*
X86275Y-38750D02*
X87139Y-37885D01*
X85750Y-38750D02*
X86275Y-38750D01*
X86704Y-47650D02*
X85750Y-47650D01*
X88250Y-46104D02*
X86704Y-47650D01*
X88250Y-45783D02*
X88250Y-46104D01*
X89770Y-44262D02*
X88250Y-45783D01*
X89770Y-39530D02*
X89770Y-44262D01*
X90099Y-39201D02*
X89770Y-39530D01*
X79750Y-29732D02*
X79750Y-29450D01*
X79268Y-30214D02*
X79750Y-29732D01*
X79268Y-30777D02*
X79268Y-30214D01*
X79524Y-31033D02*
X79268Y-30777D01*
X80266Y-31033D02*
X79524Y-31033D01*
X80700Y-30600D02*
X80266Y-31033D01*
X81256Y-31156D02*
X80700Y-30600D01*
X81256Y-35071D02*
X81256Y-31156D01*
X82700Y-36515D02*
X81256Y-35071D01*
X82700Y-37700D02*
X82700Y-36515D01*
X80750Y-29550D02*
X80750Y-29450D01*
X79700Y-30600D02*
X80750Y-29550D01*
X81179Y-29020D02*
X80750Y-29450D01*
X82935Y-29020D02*
X81179Y-29020D01*
X83250Y-29335D02*
X82935Y-29020D01*
X83250Y-29571D02*
X83250Y-29335D01*
X83603Y-29925D02*
X83250Y-29571D01*
X84664Y-29925D02*
X83603Y-29925D01*
X85191Y-30452D02*
X84664Y-29925D01*
X85191Y-30808D02*
X85191Y-30452D01*
X86146Y-31763D02*
X85191Y-30808D01*
X86146Y-37253D02*
X86146Y-31763D01*
X85700Y-37700D02*
X86146Y-37253D01*
X82700Y-31316D02*
X82700Y-33600D01*
X82200Y-30816D02*
X82700Y-31316D01*
X82200Y-29900D02*
X82200Y-30816D01*
X81750Y-29450D02*
X82200Y-29900D01*
X78700Y-30330D02*
X78700Y-30600D01*
X79175Y-29855D02*
X78700Y-30330D01*
X79175Y-29108D02*
X79175Y-29855D01*
X79091Y-29024D02*
X79175Y-29108D01*
X77641Y-29024D02*
X79091Y-29024D01*
X76223Y-30442D02*
X77641Y-29024D01*
X76223Y-32372D02*
X76223Y-30442D01*
X76056Y-32539D02*
X76223Y-32372D01*
X76056Y-36056D02*
X76056Y-32539D01*
X77700Y-37700D02*
X76056Y-36056D01*
X84188Y-29011D02*
X83750Y-29450D01*
X84926Y-29011D02*
X84188Y-29011D01*
X85250Y-29335D02*
X84926Y-29011D01*
X85250Y-29551D02*
X85250Y-29335D01*
X85794Y-30095D02*
X85250Y-29551D01*
X86804Y-30095D02*
X85794Y-30095D01*
X87133Y-30424D02*
X86804Y-30095D01*
X87133Y-30883D02*
X87133Y-30424D01*
X86700Y-31316D02*
X87133Y-30883D01*
X86700Y-33600D02*
X86700Y-31316D01*
X86674Y-34674D02*
X86700Y-34700D01*
X86674Y-33625D02*
X86674Y-34674D01*
X86700Y-33600D02*
X86674Y-33625D01*
X85700Y-30400D02*
X84750Y-29450D01*
X85700Y-30600D02*
X85700Y-30400D01*
X80267Y-32300D02*
X80921Y-31645D01*
X80267Y-34984D02*
X80267Y-32300D01*
X80700Y-35416D02*
X80267Y-34984D01*
X80700Y-37700D02*
X80700Y-35416D01*
X83700Y-37582D02*
X83700Y-37700D01*
X84137Y-37145D02*
X83700Y-37582D01*
X84137Y-31037D02*
X84137Y-37145D01*
X83700Y-30600D02*
X84137Y-31037D01*
X85200Y-38300D02*
X84750Y-38750D01*
X85200Y-36762D02*
X85200Y-38300D01*
X85700Y-36262D02*
X85200Y-36762D01*
X85700Y-34700D02*
X85700Y-36262D01*
X86250Y-46150D02*
X84750Y-47650D01*
X86250Y-45880D02*
X86250Y-46150D01*
X86555Y-45574D02*
X86250Y-45880D01*
X87362Y-45574D02*
X86555Y-45574D01*
X87774Y-45163D02*
X87362Y-45574D01*
X87774Y-44297D02*
X87774Y-45163D01*
X88071Y-44000D02*
X87774Y-44297D01*
X88301Y-44000D02*
X88071Y-44000D01*
X88625Y-43676D02*
X88301Y-44000D01*
X88625Y-43304D02*
X88625Y-43676D01*
X88253Y-42932D02*
X88625Y-43304D01*
X85520Y-42932D02*
X88253Y-42932D01*
X83321Y-40733D02*
X85520Y-42932D01*
X83321Y-39812D02*
X83321Y-40733D01*
X84383Y-38750D02*
X83321Y-39812D01*
X84750Y-38750D02*
X84383Y-38750D01*
X81700Y-37700D02*
X82750Y-38750D01*
X83222Y-38277D02*
X82750Y-38750D01*
X83747Y-38277D02*
X83222Y-38277D01*
X84237Y-37787D02*
X83747Y-38277D01*
X84237Y-37407D02*
X84237Y-37787D01*
X85141Y-36503D02*
X84237Y-37407D01*
X85141Y-33219D02*
X85141Y-36503D01*
X84700Y-32778D02*
X85141Y-33219D01*
X84700Y-30600D02*
X84700Y-32778D01*
X83700Y-34700D02*
X83700Y-33600D01*
X81239Y-39260D02*
X81750Y-38750D01*
X81239Y-44205D02*
X81239Y-39260D01*
X82538Y-45504D02*
X81239Y-44205D01*
X82883Y-45504D02*
X82538Y-45504D01*
X83186Y-45807D02*
X82883Y-45504D01*
X83186Y-46213D02*
X83186Y-45807D01*
X81750Y-47650D02*
X83186Y-46213D01*
X78128Y-31028D02*
X77700Y-30600D01*
X78128Y-33777D02*
X78128Y-31028D01*
X77755Y-34150D02*
X78128Y-33777D01*
X77633Y-34150D02*
X77755Y-34150D01*
X77266Y-34516D02*
X77633Y-34150D01*
X77266Y-36266D02*
X77266Y-34516D01*
X78700Y-37700D02*
X77266Y-36266D01*
X80324Y-48075D02*
X80750Y-47650D01*
X74842Y-48075D02*
X80324Y-48075D01*
X74324Y-47558D02*
X74842Y-48075D01*
X74324Y-44012D02*
X74324Y-47558D01*
X74411Y-43924D02*
X74324Y-44012D01*
X78933Y-43924D02*
X74411Y-43924D01*
X79358Y-43499D02*
X78933Y-43924D01*
X79358Y-43216D02*
X79358Y-43499D01*
X78287Y-42146D02*
X79358Y-43216D01*
X77496Y-42146D02*
X78287Y-42146D01*
X77036Y-41686D02*
X77496Y-42146D01*
X77036Y-41102D02*
X77036Y-41686D01*
X77490Y-40648D02*
X77036Y-41102D01*
X78716Y-40648D02*
X77490Y-40648D01*
X79179Y-40186D02*
X78716Y-40648D01*
X79179Y-39952D02*
X79179Y-40186D01*
X80381Y-38750D02*
X79179Y-39952D01*
X80750Y-38750D02*
X80381Y-38750D01*
X85700Y-33318D02*
X85700Y-33600D01*
X85186Y-32805D02*
X85700Y-33318D01*
X80374Y-47025D02*
X79750Y-47650D01*
X81348Y-47025D02*
X80374Y-47025D01*
X82186Y-46187D02*
X81348Y-47025D01*
X82186Y-45749D02*
X82186Y-46187D01*
X78383Y-41946D02*
X82186Y-45749D01*
X77579Y-41946D02*
X78383Y-41946D01*
X77236Y-41603D02*
X77579Y-41946D01*
X77236Y-41185D02*
X77236Y-41603D01*
X77502Y-40919D02*
X77236Y-41185D01*
X79431Y-40919D02*
X77502Y-40919D01*
X80320Y-40030D02*
X79431Y-40919D01*
X80320Y-39804D02*
X80320Y-40030D01*
X81189Y-38935D02*
X80320Y-39804D01*
X81189Y-38577D02*
X81189Y-38935D01*
X80932Y-38320D02*
X81189Y-38577D01*
X80136Y-38320D02*
X80932Y-38320D01*
X80136Y-35136D02*
X80136Y-38320D01*
X79700Y-34700D02*
X80136Y-35136D01*
X80136Y-38363D02*
X79750Y-38750D01*
X80136Y-38320D02*
X80136Y-38363D01*
X76835Y-41823D02*
X76751Y-41907D01*
X76835Y-41277D02*
X76835Y-41823D01*
X76836Y-41276D02*
X76835Y-41277D01*
X76836Y-41019D02*
X76836Y-41276D01*
X77407Y-40448D02*
X76836Y-41019D01*
X77664Y-40448D02*
X77407Y-40448D01*
X77687Y-40425D02*
X77664Y-40448D01*
X77926Y-40425D02*
X77687Y-40425D01*
X78204Y-40147D02*
X77926Y-40425D01*
X78204Y-39295D02*
X78204Y-40147D01*
X78750Y-38750D02*
X78204Y-39295D01*
X77266Y-33166D02*
X77700Y-33600D01*
X77266Y-30429D02*
X77266Y-33166D01*
X78246Y-29450D02*
X77266Y-30429D01*
X78750Y-29450D02*
X78246Y-29450D01*
X80100Y-44350D02*
X81750Y-46000D01*
X76050Y-44350D02*
X80100Y-44350D01*
X73400Y-44350D02*
X73825Y-44350D01*
X73825Y-45924D02*
X73825Y-44350D01*
X73400Y-46350D02*
X73825Y-45924D01*
X73825Y-44208D02*
X73825Y-44350D01*
X74308Y-43724D02*
X73825Y-44208D01*
X75775Y-43724D02*
X74308Y-43724D01*
X76400Y-43100D02*
X75775Y-43724D01*
X72968Y-46918D02*
X73400Y-47350D01*
X72968Y-45781D02*
X72968Y-46918D01*
X73400Y-45350D02*
X72968Y-45781D01*
X87272Y-31027D02*
X87700Y-30600D01*
X87272Y-34023D02*
X87272Y-31027D01*
X87700Y-34451D02*
X87272Y-34023D01*
X87700Y-34700D02*
X87700Y-34451D01*
X76100Y-44775D02*
X77324Y-46000D01*
X75600Y-44775D02*
X76100Y-44775D01*
X75175Y-44350D02*
X75600Y-44775D01*
X74750Y-44350D02*
X75175Y-44350D01*
X77750Y-46000D02*
X77324Y-46000D01*
X78324Y-46425D02*
X78750Y-46000D01*
X76900Y-46425D02*
X78324Y-46425D01*
X76324Y-45850D02*
X76900Y-46425D01*
X75250Y-45850D02*
X76324Y-45850D01*
X74750Y-45350D02*
X75250Y-45850D01*
X79925Y-46825D02*
X80750Y-46000D01*
X75275Y-46825D02*
X79925Y-46825D01*
X74750Y-47350D02*
X75275Y-46825D01*
X79025Y-43356D02*
X79025Y-43356D01*
X77268Y-43356D02*
X79025Y-43356D01*
X76512Y-42600D02*
X77268Y-43356D01*
X75993Y-42600D02*
X76512Y-42600D01*
X74970Y-41577D02*
X75993Y-42600D01*
X74970Y-41147D02*
X74970Y-41577D01*
X75744Y-40373D02*
X74970Y-41147D01*
X75744Y-31486D02*
X75744Y-40373D01*
X75316Y-31057D02*
X75744Y-31486D01*
X75316Y-29558D02*
X75316Y-31057D01*
X75384Y-29490D02*
X75316Y-29558D01*
X84375Y-39375D02*
X83750Y-40000D01*
X86629Y-39375D02*
X84375Y-39375D01*
X88814Y-37189D02*
X86629Y-39375D01*
X88814Y-32982D02*
X88814Y-37189D01*
X90512Y-31284D02*
X88814Y-32982D01*
X90512Y-30062D02*
X90512Y-31284D01*
X91084Y-29490D02*
X90512Y-30062D01*
X79350Y-41400D02*
X77700Y-41400D01*
X80750Y-40000D02*
X79350Y-41400D01*
X88127Y-37272D02*
X87700Y-37700D01*
X88127Y-34027D02*
X88127Y-37272D01*
X87700Y-33600D02*
X88127Y-34027D01*
X89400Y-31900D02*
X89400Y-31600D01*
X87700Y-33600D02*
X89400Y-31900D01*
X76700Y-37700D02*
X77125Y-37700D01*
X77125Y-37753D02*
X77125Y-37700D01*
X77750Y-38378D02*
X77125Y-37753D01*
X77750Y-40000D02*
X77750Y-38378D01*
X76700Y-32574D02*
X76700Y-30600D01*
X76274Y-32999D02*
X76700Y-32574D01*
X76274Y-34274D02*
X76274Y-32999D01*
X76700Y-34700D02*
X76274Y-34274D01*
X75960Y-39408D02*
X77091Y-38277D01*
X75960Y-41576D02*
X75960Y-39408D01*
X76983Y-42600D02*
X75960Y-41576D01*
X77700Y-42600D02*
X76983Y-42600D01*
X83128Y-31028D02*
X82700Y-30600D01*
X83128Y-34271D02*
X83128Y-31028D01*
X82700Y-34700D02*
X83128Y-34271D01*
X81274Y-37322D02*
X81962Y-36635D01*
X81274Y-37877D02*
X81274Y-37322D01*
X81617Y-38219D02*
X81274Y-37877D01*
X81826Y-38219D02*
X81617Y-38219D01*
X82250Y-38642D02*
X81826Y-38219D01*
X82250Y-40111D02*
X82250Y-38642D01*
X85638Y-43500D02*
X82250Y-40111D01*
X88200Y-43500D02*
X85638Y-43500D01*
X83231Y-42431D02*
X82800Y-42000D01*
X83231Y-43568D02*
X83231Y-42431D01*
X82800Y-44000D02*
X83231Y-43568D01*
X79262Y-34037D02*
X79700Y-33600D01*
X79262Y-37262D02*
X79262Y-34037D01*
X79700Y-37700D02*
X79262Y-37262D01*
X73829Y-40322D02*
X73290Y-39784D01*
X73829Y-42529D02*
X73829Y-40322D01*
X74400Y-43100D02*
X73829Y-42529D01*
X90118Y-34881D02*
X89400Y-35600D01*
X90118Y-32832D02*
X90118Y-34881D01*
X91209Y-37409D02*
X91209Y-37815D01*
X89400Y-35600D02*
X91209Y-37409D01*
X73829Y-33729D02*
X73829Y-33729D01*
X73829Y-39245D02*
X73829Y-33729D01*
X73290Y-39784D02*
X73829Y-39245D01*
X73829Y-33729D02*
X73300Y-33200D01*
X74300Y-30374D02*
X74300Y-31900D01*
X73415Y-29490D02*
X74300Y-30374D01*
X74300Y-33600D02*
X74900Y-33600D01*
X74300Y-31900D02*
X74300Y-33600D01*
X74170Y-33729D02*
X73829Y-33729D01*
X74300Y-33600D02*
X74170Y-33729D01*
X89198Y-43501D02*
X88200Y-44500D01*
X89198Y-39643D02*
X89198Y-43501D01*
X91026Y-37815D02*
X89198Y-39643D01*
X91209Y-37815D02*
X91026Y-37815D01*
X88200Y-45550D02*
X87750Y-46000D01*
X88200Y-44500D02*
X88200Y-45550D01*
X84775Y-41053D02*
X84775Y-41000D01*
X86221Y-42500D02*
X84775Y-41053D01*
X88200Y-42500D02*
X86221Y-42500D01*
X84350Y-41000D02*
X84775Y-41000D01*
X91350Y-46550D02*
X91350Y-46124D01*
X91629Y-41929D02*
X91200Y-41500D01*
X91629Y-45845D02*
X91629Y-41929D01*
X91350Y-46124D02*
X91629Y-45845D01*
X73400Y-41400D02*
X73400Y-43100D01*
X83650Y-45425D02*
X83225Y-45000D01*
X85175Y-45425D02*
X83650Y-45425D01*
X85750Y-46000D02*
X85175Y-45425D01*
X82800Y-45000D02*
X83225Y-45000D01*
X72834Y-40408D02*
X73400Y-40974D01*
X72834Y-33037D02*
X72834Y-40408D01*
X73246Y-32625D02*
X72834Y-33037D01*
X73300Y-32625D02*
X73246Y-32625D01*
X73300Y-32200D02*
X73300Y-32625D01*
X73400Y-41400D02*
X73400Y-40974D01*
X74900Y-34600D02*
X74900Y-34124D01*
X75048Y-34124D02*
X74900Y-34124D01*
X75375Y-33798D02*
X75048Y-34124D01*
X75375Y-31975D02*
X75375Y-33798D01*
X75300Y-31900D02*
X75375Y-31975D01*
X82800Y-45000D02*
X82800Y-44574D01*
X81700Y-41400D02*
X81700Y-42600D01*
X81700Y-42600D02*
X82450Y-43350D01*
X82800Y-43000D02*
X82450Y-43350D01*
X82746Y-44574D02*
X82800Y-44574D01*
X82374Y-44202D02*
X82746Y-44574D01*
X82374Y-43425D02*
X82374Y-44202D01*
X82450Y-43350D02*
X82374Y-43425D01*
X91673Y-41026D02*
X91200Y-41500D01*
X91673Y-33145D02*
X91673Y-41026D01*
X91153Y-32625D02*
X91673Y-33145D01*
X91100Y-32625D02*
X91153Y-32625D01*
X91100Y-32200D02*
X91100Y-32625D01*
X82137Y-34262D02*
X81700Y-34700D01*
X82137Y-31037D02*
X82137Y-34262D01*
X81700Y-30600D02*
X82137Y-31037D01*
G54D10*
G36*
X75444Y-40249D02*
X74820Y-40873D01*
X74820Y-40423D01*
X74820Y-39833D01*
X74782Y-39741D01*
X74711Y-39670D01*
X74620Y-39632D01*
X74520Y-39632D01*
X73930Y-39632D01*
X73838Y-39670D01*
X73831Y-39677D01*
X73829Y-39648D01*
X73767Y-39499D01*
X73673Y-39472D01*
X73361Y-39784D01*
X73673Y-40096D01*
X73729Y-40080D01*
X73729Y-40522D01*
X73767Y-40614D01*
X73837Y-40685D01*
X73929Y-40723D01*
X74029Y-40723D01*
X74619Y-40723D01*
X74711Y-40685D01*
X74781Y-40615D01*
X74820Y-40523D01*
X74820Y-40423D01*
X74820Y-40873D01*
X74758Y-40935D01*
X74726Y-40983D01*
X74697Y-40955D01*
X74504Y-40875D01*
X74296Y-40874D01*
X74103Y-40954D01*
X73955Y-41102D01*
X73925Y-41174D01*
X73925Y-41075D01*
X73887Y-40983D01*
X73816Y-40913D01*
X73724Y-40875D01*
X73680Y-40875D01*
X73680Y-40875D01*
X73677Y-40860D01*
X73612Y-40762D01*
X73612Y-40762D01*
X73169Y-40319D01*
X73209Y-40334D01*
X73426Y-40323D01*
X73575Y-40261D01*
X73602Y-40166D01*
X73290Y-39854D01*
X73284Y-39860D01*
X73214Y-39789D01*
X73219Y-39784D01*
X73214Y-39778D01*
X73284Y-39707D01*
X73290Y-39713D01*
X73602Y-39401D01*
X73575Y-39306D01*
X73371Y-39234D01*
X73154Y-39245D01*
X73134Y-39253D01*
X73134Y-38341D01*
X73181Y-38360D01*
X73398Y-38361D01*
X73599Y-38278D01*
X73752Y-38125D01*
X73835Y-37926D01*
X73837Y-37929D01*
X73929Y-37967D01*
X74029Y-37967D01*
X74619Y-37967D01*
X74711Y-37929D01*
X74781Y-37859D01*
X74820Y-37767D01*
X74820Y-37667D01*
X74820Y-37077D01*
X74782Y-36985D01*
X74711Y-36914D01*
X74620Y-36876D01*
X74520Y-36876D01*
X73930Y-36876D01*
X73838Y-36914D01*
X73829Y-36922D01*
X73829Y-33275D01*
X73818Y-33067D01*
X73760Y-32927D01*
X73667Y-32902D01*
X73370Y-33200D01*
X73667Y-33497D01*
X73760Y-33472D01*
X73829Y-33275D01*
X73829Y-36922D01*
X73767Y-36984D01*
X73729Y-37076D01*
X73729Y-37176D01*
X73729Y-37483D01*
X73599Y-37353D01*
X73399Y-37270D01*
X73182Y-37270D01*
X73134Y-37290D01*
X73134Y-36699D01*
X73195Y-36724D01*
X73403Y-36725D01*
X73597Y-36645D01*
X73744Y-36497D01*
X73824Y-36304D01*
X73825Y-36096D01*
X73745Y-35903D01*
X73597Y-35755D01*
X73464Y-35699D01*
X73597Y-35645D01*
X73744Y-35497D01*
X73824Y-35304D01*
X73825Y-35096D01*
X73745Y-34903D01*
X73597Y-34755D01*
X73464Y-34699D01*
X73597Y-34645D01*
X73744Y-34497D01*
X73824Y-34304D01*
X73825Y-34096D01*
X73745Y-33903D01*
X73597Y-33755D01*
X73471Y-33702D01*
X73572Y-33660D01*
X73597Y-33567D01*
X73300Y-33270D01*
X73294Y-33276D01*
X73223Y-33205D01*
X73229Y-33200D01*
X73223Y-33194D01*
X73294Y-33123D01*
X73300Y-33129D01*
X73597Y-32832D01*
X73574Y-32744D01*
X73577Y-32739D01*
X73580Y-32725D01*
X73624Y-32725D01*
X73716Y-32687D01*
X73786Y-32616D01*
X73824Y-32524D01*
X73825Y-32425D01*
X73825Y-32138D01*
X73839Y-32172D01*
X73932Y-32197D01*
X74229Y-31900D01*
X73965Y-31636D01*
X73965Y-29571D01*
X73954Y-29354D01*
X73893Y-29205D01*
X73798Y-29178D01*
X73486Y-29490D01*
X73798Y-29802D01*
X73893Y-29775D01*
X73965Y-29571D01*
X73965Y-31636D01*
X73932Y-31602D01*
X73839Y-31627D01*
X73785Y-31781D01*
X73716Y-31713D01*
X73624Y-31675D01*
X73525Y-31674D01*
X72975Y-31674D01*
X72883Y-31712D01*
X72813Y-31783D01*
X72775Y-31875D01*
X72774Y-31974D01*
X72774Y-32524D01*
X72812Y-32616D01*
X72822Y-32625D01*
X72769Y-32678D01*
X72769Y-31020D01*
X72776Y-31020D01*
X73366Y-31020D01*
X73458Y-30982D01*
X73529Y-30911D01*
X73567Y-30820D01*
X73567Y-30720D01*
X73567Y-30130D01*
X73529Y-30038D01*
X73522Y-30031D01*
X73551Y-30029D01*
X73700Y-29967D01*
X73727Y-29873D01*
X73415Y-29561D01*
X73345Y-29631D01*
X73345Y-29490D01*
X73033Y-29178D01*
X72938Y-29205D01*
X72865Y-29409D01*
X72876Y-29626D01*
X72938Y-29775D01*
X73033Y-29802D01*
X73345Y-29490D01*
X73345Y-29631D01*
X73103Y-29873D01*
X73119Y-29929D01*
X72769Y-29929D01*
X72769Y-29019D01*
X73128Y-29019D01*
X73103Y-29108D01*
X73415Y-29419D01*
X73727Y-29108D01*
X73702Y-29019D01*
X75095Y-29019D01*
X75075Y-29028D01*
X74922Y-29181D01*
X74839Y-29381D01*
X74838Y-29598D01*
X74921Y-29799D01*
X75016Y-29894D01*
X75016Y-31057D01*
X75039Y-31172D01*
X75104Y-31270D01*
X75209Y-31374D01*
X75196Y-31374D01*
X75003Y-31454D01*
X74855Y-31602D01*
X74802Y-31728D01*
X74760Y-31627D01*
X74667Y-31602D01*
X74597Y-31673D01*
X74597Y-31532D01*
X74572Y-31439D01*
X74375Y-31370D01*
X74167Y-31381D01*
X74027Y-31439D01*
X74002Y-31532D01*
X74300Y-31829D01*
X74597Y-31532D01*
X74597Y-31673D01*
X74370Y-31900D01*
X74667Y-32197D01*
X74760Y-32172D01*
X74799Y-32062D01*
X74854Y-32197D01*
X75002Y-32344D01*
X75075Y-32375D01*
X75075Y-33051D01*
X74987Y-33020D01*
X74759Y-33030D01*
X74597Y-33098D01*
X74597Y-33098D01*
X74597Y-32267D01*
X74300Y-31970D01*
X74002Y-32267D01*
X74027Y-32360D01*
X74224Y-32429D01*
X74432Y-32418D01*
X74572Y-32360D01*
X74597Y-32267D01*
X74597Y-33098D01*
X74566Y-33195D01*
X74900Y-33529D01*
X74905Y-33523D01*
X74976Y-33594D01*
X74970Y-33600D01*
X74976Y-33605D01*
X74905Y-33676D01*
X74900Y-33670D01*
X74829Y-33741D01*
X74829Y-33600D01*
X74495Y-33266D01*
X74398Y-33297D01*
X74320Y-33512D01*
X74330Y-33740D01*
X74398Y-33902D01*
X74495Y-33933D01*
X74829Y-33600D01*
X74829Y-33741D01*
X74566Y-34004D01*
X74573Y-34024D01*
X74525Y-34024D01*
X74433Y-34062D01*
X74363Y-34133D01*
X74325Y-34225D01*
X74324Y-34324D01*
X74324Y-34974D01*
X74362Y-35066D01*
X74433Y-35136D01*
X74525Y-35174D01*
X74624Y-35175D01*
X75274Y-35175D01*
X75366Y-35137D01*
X75436Y-35066D01*
X75444Y-35047D01*
X75444Y-40249D01*
X75444Y-40249D01*
G37*
G54D20*
X75444Y-40249D02*
X74820Y-40873D01*
X74820Y-40423D01*
X74820Y-39833D01*
X74782Y-39741D01*
X74711Y-39670D01*
X74620Y-39632D01*
X74520Y-39632D01*
X73930Y-39632D01*
X73838Y-39670D01*
X73831Y-39677D01*
X73829Y-39648D01*
X73767Y-39499D01*
X73673Y-39472D01*
X73361Y-39784D01*
X73673Y-40096D01*
X73729Y-40080D01*
X73729Y-40522D01*
X73767Y-40614D01*
X73837Y-40685D01*
X73929Y-40723D01*
X74029Y-40723D01*
X74619Y-40723D01*
X74711Y-40685D01*
X74781Y-40615D01*
X74820Y-40523D01*
X74820Y-40423D01*
X74820Y-40873D01*
X74758Y-40935D01*
X74726Y-40983D01*
X74697Y-40955D01*
X74504Y-40875D01*
X74296Y-40874D01*
X74103Y-40954D01*
X73955Y-41102D01*
X73925Y-41174D01*
X73925Y-41075D01*
X73887Y-40983D01*
X73816Y-40913D01*
X73724Y-40875D01*
X73680Y-40875D01*
X73680Y-40875D01*
X73677Y-40860D01*
X73612Y-40762D01*
X73612Y-40762D01*
X73169Y-40319D01*
X73209Y-40334D01*
X73426Y-40323D01*
X73575Y-40261D01*
X73602Y-40166D01*
X73290Y-39854D01*
X73284Y-39860D01*
X73214Y-39789D01*
X73219Y-39784D01*
X73214Y-39778D01*
X73284Y-39707D01*
X73290Y-39713D01*
X73602Y-39401D01*
X73575Y-39306D01*
X73371Y-39234D01*
X73154Y-39245D01*
X73134Y-39253D01*
X73134Y-38341D01*
X73181Y-38360D01*
X73398Y-38361D01*
X73599Y-38278D01*
X73752Y-38125D01*
X73835Y-37926D01*
X73837Y-37929D01*
X73929Y-37967D01*
X74029Y-37967D01*
X74619Y-37967D01*
X74711Y-37929D01*
X74781Y-37859D01*
X74820Y-37767D01*
X74820Y-37667D01*
X74820Y-37077D01*
X74782Y-36985D01*
X74711Y-36914D01*
X74620Y-36876D01*
X74520Y-36876D01*
X73930Y-36876D01*
X73838Y-36914D01*
X73829Y-36922D01*
X73829Y-33275D01*
X73818Y-33067D01*
X73760Y-32927D01*
X73667Y-32902D01*
X73370Y-33200D01*
X73667Y-33497D01*
X73760Y-33472D01*
X73829Y-33275D01*
X73829Y-36922D01*
X73767Y-36984D01*
X73729Y-37076D01*
X73729Y-37176D01*
X73729Y-37483D01*
X73599Y-37353D01*
X73399Y-37270D01*
X73182Y-37270D01*
X73134Y-37290D01*
X73134Y-36699D01*
X73195Y-36724D01*
X73403Y-36725D01*
X73597Y-36645D01*
X73744Y-36497D01*
X73824Y-36304D01*
X73825Y-36096D01*
X73745Y-35903D01*
X73597Y-35755D01*
X73464Y-35699D01*
X73597Y-35645D01*
X73744Y-35497D01*
X73824Y-35304D01*
X73825Y-35096D01*
X73745Y-34903D01*
X73597Y-34755D01*
X73464Y-34699D01*
X73597Y-34645D01*
X73744Y-34497D01*
X73824Y-34304D01*
X73825Y-34096D01*
X73745Y-33903D01*
X73597Y-33755D01*
X73471Y-33702D01*
X73572Y-33660D01*
X73597Y-33567D01*
X73300Y-33270D01*
X73294Y-33276D01*
X73223Y-33205D01*
X73229Y-33200D01*
X73223Y-33194D01*
X73294Y-33123D01*
X73300Y-33129D01*
X73597Y-32832D01*
X73574Y-32744D01*
X73577Y-32739D01*
X73580Y-32725D01*
X73624Y-32725D01*
X73716Y-32687D01*
X73786Y-32616D01*
X73824Y-32524D01*
X73825Y-32425D01*
X73825Y-32138D01*
X73839Y-32172D01*
X73932Y-32197D01*
X74229Y-31900D01*
X73965Y-31636D01*
X73965Y-29571D01*
X73954Y-29354D01*
X73893Y-29205D01*
X73798Y-29178D01*
X73486Y-29490D01*
X73798Y-29802D01*
X73893Y-29775D01*
X73965Y-29571D01*
X73965Y-31636D01*
X73932Y-31602D01*
X73839Y-31627D01*
X73785Y-31781D01*
X73716Y-31713D01*
X73624Y-31675D01*
X73525Y-31674D01*
X72975Y-31674D01*
X72883Y-31712D01*
X72813Y-31783D01*
X72775Y-31875D01*
X72774Y-31974D01*
X72774Y-32524D01*
X72812Y-32616D01*
X72822Y-32625D01*
X72769Y-32678D01*
X72769Y-31020D01*
X72776Y-31020D01*
X73366Y-31020D01*
X73458Y-30982D01*
X73529Y-30911D01*
X73567Y-30820D01*
X73567Y-30720D01*
X73567Y-30130D01*
X73529Y-30038D01*
X73522Y-30031D01*
X73551Y-30029D01*
X73700Y-29967D01*
X73727Y-29873D01*
X73415Y-29561D01*
X73345Y-29631D01*
X73345Y-29490D01*
X73033Y-29178D01*
X72938Y-29205D01*
X72865Y-29409D01*
X72876Y-29626D01*
X72938Y-29775D01*
X73033Y-29802D01*
X73345Y-29490D01*
X73345Y-29631D01*
X73103Y-29873D01*
X73119Y-29929D01*
X72769Y-29929D01*
X72769Y-29019D01*
X73128Y-29019D01*
X73103Y-29108D01*
X73415Y-29419D01*
X73727Y-29108D01*
X73702Y-29019D01*
X75095Y-29019D01*
X75075Y-29028D01*
X74922Y-29181D01*
X74839Y-29381D01*
X74838Y-29598D01*
X74921Y-29799D01*
X75016Y-29894D01*
X75016Y-31057D01*
X75039Y-31172D01*
X75104Y-31270D01*
X75209Y-31374D01*
X75196Y-31374D01*
X75003Y-31454D01*
X74855Y-31602D01*
X74802Y-31728D01*
X74760Y-31627D01*
X74667Y-31602D01*
X74597Y-31673D01*
X74597Y-31532D01*
X74572Y-31439D01*
X74375Y-31370D01*
X74167Y-31381D01*
X74027Y-31439D01*
X74002Y-31532D01*
X74300Y-31829D01*
X74597Y-31532D01*
X74597Y-31673D01*
X74370Y-31900D01*
X74667Y-32197D01*
X74760Y-32172D01*
X74799Y-32062D01*
X74854Y-32197D01*
X75002Y-32344D01*
X75075Y-32375D01*
X75075Y-33051D01*
X74987Y-33020D01*
X74759Y-33030D01*
X74597Y-33098D01*
X74597Y-33098D01*
X74597Y-32267D01*
X74300Y-31970D01*
X74002Y-32267D01*
X74027Y-32360D01*
X74224Y-32429D01*
X74432Y-32418D01*
X74572Y-32360D01*
X74597Y-32267D01*
X74597Y-33098D01*
X74566Y-33195D01*
X74900Y-33529D01*
X74905Y-33523D01*
X74976Y-33594D01*
X74970Y-33600D01*
X74976Y-33605D01*
X74905Y-33676D01*
X74900Y-33670D01*
X74829Y-33741D01*
X74829Y-33600D01*
X74495Y-33266D01*
X74398Y-33297D01*
X74320Y-33512D01*
X74330Y-33740D01*
X74398Y-33902D01*
X74495Y-33933D01*
X74829Y-33600D01*
X74829Y-33741D01*
X74566Y-34004D01*
X74573Y-34024D01*
X74525Y-34024D01*
X74433Y-34062D01*
X74363Y-34133D01*
X74325Y-34225D01*
X74324Y-34324D01*
X74324Y-34974D01*
X74362Y-35066D01*
X74433Y-35136D01*
X74525Y-35174D01*
X74624Y-35175D01*
X75274Y-35175D01*
X75366Y-35137D01*
X75436Y-35066D01*
X75444Y-35047D01*
X75444Y-40249D01*
G54D10*
G36*
X75572Y-42603D02*
X75504Y-42575D01*
X75296Y-42574D01*
X75103Y-42654D01*
X74955Y-42802D01*
X74902Y-42928D01*
X74860Y-42827D01*
X74767Y-42802D01*
X74697Y-42873D01*
X74697Y-42732D01*
X74672Y-42639D01*
X74475Y-42570D01*
X74267Y-42581D01*
X74127Y-42639D01*
X74102Y-42732D01*
X74400Y-43029D01*
X74697Y-42732D01*
X74697Y-42873D01*
X74470Y-43100D01*
X74476Y-43105D01*
X74405Y-43176D01*
X74400Y-43170D01*
X74102Y-43467D01*
X74111Y-43502D01*
X74096Y-43512D01*
X73766Y-43842D01*
X73724Y-43825D01*
X73625Y-43824D01*
X73075Y-43824D01*
X72983Y-43862D01*
X72913Y-43933D01*
X72875Y-44025D01*
X72874Y-44124D01*
X72874Y-44674D01*
X72912Y-44766D01*
X72983Y-44836D01*
X73075Y-44874D01*
X73174Y-44875D01*
X73174Y-44875D01*
X73103Y-44904D01*
X72955Y-45052D01*
X72875Y-45245D01*
X72874Y-45450D01*
X72769Y-45556D01*
X72769Y-40768D01*
X72948Y-40947D01*
X72913Y-40983D01*
X72875Y-41075D01*
X72874Y-41174D01*
X72874Y-41724D01*
X72912Y-41816D01*
X72983Y-41886D01*
X73075Y-41924D01*
X73100Y-41924D01*
X73100Y-42574D01*
X73075Y-42574D01*
X72983Y-42612D01*
X72913Y-42683D01*
X72875Y-42775D01*
X72874Y-42874D01*
X72874Y-43424D01*
X72912Y-43516D01*
X72983Y-43586D01*
X73075Y-43624D01*
X73174Y-43625D01*
X73724Y-43625D01*
X73816Y-43587D01*
X73886Y-43516D01*
X73924Y-43424D01*
X73925Y-43337D01*
X73939Y-43372D01*
X74032Y-43397D01*
X74329Y-43100D01*
X74032Y-42802D01*
X73939Y-42827D01*
X73925Y-42868D01*
X73925Y-42775D01*
X73887Y-42683D01*
X73816Y-42613D01*
X73724Y-42575D01*
X73700Y-42575D01*
X73700Y-41925D01*
X73724Y-41925D01*
X73816Y-41887D01*
X73886Y-41816D01*
X73924Y-41724D01*
X73925Y-41625D01*
X73925Y-41625D01*
X73954Y-41697D01*
X74102Y-41844D01*
X74295Y-41924D01*
X74503Y-41925D01*
X74697Y-41845D01*
X74756Y-41786D01*
X74758Y-41789D01*
X75572Y-42603D01*
X75572Y-42603D01*
G37*
G54D20*
X75572Y-42603D02*
X75504Y-42575D01*
X75296Y-42574D01*
X75103Y-42654D01*
X74955Y-42802D01*
X74902Y-42928D01*
X74860Y-42827D01*
X74767Y-42802D01*
X74697Y-42873D01*
X74697Y-42732D01*
X74672Y-42639D01*
X74475Y-42570D01*
X74267Y-42581D01*
X74127Y-42639D01*
X74102Y-42732D01*
X74400Y-43029D01*
X74697Y-42732D01*
X74697Y-42873D01*
X74470Y-43100D01*
X74476Y-43105D01*
X74405Y-43176D01*
X74400Y-43170D01*
X74102Y-43467D01*
X74111Y-43502D01*
X74096Y-43512D01*
X73766Y-43842D01*
X73724Y-43825D01*
X73625Y-43824D01*
X73075Y-43824D01*
X72983Y-43862D01*
X72913Y-43933D01*
X72875Y-44025D01*
X72874Y-44124D01*
X72874Y-44674D01*
X72912Y-44766D01*
X72983Y-44836D01*
X73075Y-44874D01*
X73174Y-44875D01*
X73174Y-44875D01*
X73103Y-44904D01*
X72955Y-45052D01*
X72875Y-45245D01*
X72874Y-45450D01*
X72769Y-45556D01*
X72769Y-40768D01*
X72948Y-40947D01*
X72913Y-40983D01*
X72875Y-41075D01*
X72874Y-41174D01*
X72874Y-41724D01*
X72912Y-41816D01*
X72983Y-41886D01*
X73075Y-41924D01*
X73100Y-41924D01*
X73100Y-42574D01*
X73075Y-42574D01*
X72983Y-42612D01*
X72913Y-42683D01*
X72875Y-42775D01*
X72874Y-42874D01*
X72874Y-43424D01*
X72912Y-43516D01*
X72983Y-43586D01*
X73075Y-43624D01*
X73174Y-43625D01*
X73724Y-43625D01*
X73816Y-43587D01*
X73886Y-43516D01*
X73924Y-43424D01*
X73925Y-43337D01*
X73939Y-43372D01*
X74032Y-43397D01*
X74329Y-43100D01*
X74032Y-42802D01*
X73939Y-42827D01*
X73925Y-42868D01*
X73925Y-42775D01*
X73887Y-42683D01*
X73816Y-42613D01*
X73724Y-42575D01*
X73700Y-42575D01*
X73700Y-41925D01*
X73724Y-41925D01*
X73816Y-41887D01*
X73886Y-41816D01*
X73924Y-41724D01*
X73925Y-41625D01*
X73925Y-41625D01*
X73954Y-41697D01*
X74102Y-41844D01*
X74295Y-41924D01*
X74503Y-41925D01*
X74697Y-41845D01*
X74756Y-41786D01*
X74758Y-41789D01*
X75572Y-42603D01*
G54D10*
G36*
X76476Y-41405D02*
X76405Y-41476D01*
X76400Y-41470D01*
X76394Y-41476D01*
X76323Y-41405D01*
X76329Y-41400D01*
X76323Y-41394D01*
X76394Y-41323D01*
X76400Y-41329D01*
X76405Y-41323D01*
X76476Y-41394D01*
X76470Y-41400D01*
X76476Y-41405D01*
X76476Y-41405D01*
G37*
G54D20*
X76476Y-41405D02*
X76405Y-41476D01*
X76400Y-41470D01*
X76394Y-41476D01*
X76323Y-41405D01*
X76329Y-41400D01*
X76323Y-41394D01*
X76394Y-41323D01*
X76400Y-41329D01*
X76405Y-41323D01*
X76476Y-41394D01*
X76470Y-41400D01*
X76476Y-41405D01*
G54D10*
G36*
X79836Y-37191D02*
X79775Y-37170D01*
X79567Y-37181D01*
X79427Y-37239D01*
X79402Y-37332D01*
X79700Y-37629D01*
X79705Y-37623D01*
X79776Y-37694D01*
X79770Y-37700D01*
X79776Y-37705D01*
X79705Y-37776D01*
X79700Y-37770D01*
X79402Y-38067D01*
X79427Y-38160D01*
X79624Y-38229D01*
X79635Y-38229D01*
X79453Y-38304D01*
X79305Y-38452D01*
X79249Y-38585D01*
X79195Y-38453D01*
X79047Y-38305D01*
X78854Y-38225D01*
X78804Y-38225D01*
X78997Y-38145D01*
X79144Y-37997D01*
X79197Y-37871D01*
X79239Y-37972D01*
X79332Y-37997D01*
X79629Y-37700D01*
X79332Y-37402D01*
X79239Y-37427D01*
X79200Y-37537D01*
X79145Y-37403D01*
X78997Y-37255D01*
X78804Y-37175D01*
X78599Y-37174D01*
X77566Y-36142D01*
X77566Y-35213D01*
X77595Y-35224D01*
X77803Y-35225D01*
X77997Y-35145D01*
X78144Y-34997D01*
X78200Y-34864D01*
X78254Y-34997D01*
X78402Y-35144D01*
X78595Y-35224D01*
X78803Y-35225D01*
X78997Y-35145D01*
X79144Y-34997D01*
X79200Y-34864D01*
X79254Y-34997D01*
X79402Y-35144D01*
X79595Y-35224D01*
X79800Y-35225D01*
X79836Y-35260D01*
X79836Y-37191D01*
X79836Y-37191D01*
G37*
G54D20*
X79836Y-37191D02*
X79775Y-37170D01*
X79567Y-37181D01*
X79427Y-37239D01*
X79402Y-37332D01*
X79700Y-37629D01*
X79705Y-37623D01*
X79776Y-37694D01*
X79770Y-37700D01*
X79776Y-37705D01*
X79705Y-37776D01*
X79700Y-37770D01*
X79402Y-38067D01*
X79427Y-38160D01*
X79624Y-38229D01*
X79635Y-38229D01*
X79453Y-38304D01*
X79305Y-38452D01*
X79249Y-38585D01*
X79195Y-38453D01*
X79047Y-38305D01*
X78854Y-38225D01*
X78804Y-38225D01*
X78997Y-38145D01*
X79144Y-37997D01*
X79197Y-37871D01*
X79239Y-37972D01*
X79332Y-37997D01*
X79629Y-37700D01*
X79332Y-37402D01*
X79239Y-37427D01*
X79200Y-37537D01*
X79145Y-37403D01*
X78997Y-37255D01*
X78804Y-37175D01*
X78599Y-37174D01*
X77566Y-36142D01*
X77566Y-35213D01*
X77595Y-35224D01*
X77803Y-35225D01*
X77997Y-35145D01*
X78144Y-34997D01*
X78200Y-34864D01*
X78254Y-34997D01*
X78402Y-35144D01*
X78595Y-35224D01*
X78803Y-35225D01*
X78997Y-35145D01*
X79144Y-34997D01*
X79200Y-34864D01*
X79254Y-34997D01*
X79402Y-35144D01*
X79595Y-35224D01*
X79800Y-35225D01*
X79836Y-35260D01*
X79836Y-37191D01*
G54D10*
G36*
X80896Y-31220D02*
X80837Y-31220D01*
X80681Y-31285D01*
X80561Y-31404D01*
X80496Y-31560D01*
X80496Y-31646D01*
X80054Y-32088D01*
X79989Y-32185D01*
X79967Y-32300D01*
X79967Y-33137D01*
X79775Y-33070D01*
X79567Y-33081D01*
X79427Y-33139D01*
X79402Y-33232D01*
X79700Y-33529D01*
X79705Y-33523D01*
X79776Y-33594D01*
X79770Y-33600D01*
X79776Y-33605D01*
X79705Y-33676D01*
X79700Y-33670D01*
X79402Y-33967D01*
X79427Y-34060D01*
X79624Y-34129D01*
X79832Y-34118D01*
X79967Y-34062D01*
X79967Y-34242D01*
X79804Y-34175D01*
X79596Y-34174D01*
X79403Y-34254D01*
X79255Y-34402D01*
X79199Y-34535D01*
X79145Y-34403D01*
X78997Y-34255D01*
X78804Y-34175D01*
X78649Y-34174D01*
X78699Y-34124D01*
X78803Y-34125D01*
X78997Y-34045D01*
X79144Y-33897D01*
X79197Y-33771D01*
X79239Y-33872D01*
X79332Y-33897D01*
X79629Y-33600D01*
X79332Y-33302D01*
X79239Y-33327D01*
X79200Y-33437D01*
X79145Y-33303D01*
X78997Y-33155D01*
X78804Y-33075D01*
X78596Y-33074D01*
X78428Y-33144D01*
X78428Y-31055D01*
X78595Y-31124D01*
X78803Y-31125D01*
X78997Y-31045D01*
X79054Y-30987D01*
X79056Y-30989D01*
X79312Y-31245D01*
X79409Y-31310D01*
X79524Y-31333D01*
X80266Y-31333D01*
X80266Y-31333D01*
X80381Y-31310D01*
X80381Y-31310D01*
X80478Y-31245D01*
X80599Y-31124D01*
X80800Y-31125D01*
X80896Y-31220D01*
X80896Y-31220D01*
G37*
G54D20*
X80896Y-31220D02*
X80837Y-31220D01*
X80681Y-31285D01*
X80561Y-31404D01*
X80496Y-31560D01*
X80496Y-31646D01*
X80054Y-32088D01*
X79989Y-32185D01*
X79967Y-32300D01*
X79967Y-33137D01*
X79775Y-33070D01*
X79567Y-33081D01*
X79427Y-33139D01*
X79402Y-33232D01*
X79700Y-33529D01*
X79705Y-33523D01*
X79776Y-33594D01*
X79770Y-33600D01*
X79776Y-33605D01*
X79705Y-33676D01*
X79700Y-33670D01*
X79402Y-33967D01*
X79427Y-34060D01*
X79624Y-34129D01*
X79832Y-34118D01*
X79967Y-34062D01*
X79967Y-34242D01*
X79804Y-34175D01*
X79596Y-34174D01*
X79403Y-34254D01*
X79255Y-34402D01*
X79199Y-34535D01*
X79145Y-34403D01*
X78997Y-34255D01*
X78804Y-34175D01*
X78649Y-34174D01*
X78699Y-34124D01*
X78803Y-34125D01*
X78997Y-34045D01*
X79144Y-33897D01*
X79197Y-33771D01*
X79239Y-33872D01*
X79332Y-33897D01*
X79629Y-33600D01*
X79332Y-33302D01*
X79239Y-33327D01*
X79200Y-33437D01*
X79145Y-33303D01*
X78997Y-33155D01*
X78804Y-33075D01*
X78596Y-33074D01*
X78428Y-33144D01*
X78428Y-31055D01*
X78595Y-31124D01*
X78803Y-31125D01*
X78997Y-31045D01*
X79054Y-30987D01*
X79056Y-30989D01*
X79312Y-31245D01*
X79409Y-31310D01*
X79524Y-31333D01*
X80266Y-31333D01*
X80266Y-31333D01*
X80381Y-31310D01*
X80381Y-31310D01*
X80478Y-31245D01*
X80599Y-31124D01*
X80800Y-31125D01*
X80896Y-31220D01*
G54D10*
G36*
X84776Y-33605D02*
X84705Y-33676D01*
X84700Y-33670D01*
X84694Y-33676D01*
X84623Y-33605D01*
X84629Y-33600D01*
X84623Y-33594D01*
X84694Y-33523D01*
X84700Y-33529D01*
X84705Y-33523D01*
X84776Y-33594D01*
X84770Y-33600D01*
X84776Y-33605D01*
X84776Y-33605D01*
G37*
G54D20*
X84776Y-33605D02*
X84705Y-33676D01*
X84700Y-33670D01*
X84694Y-33676D01*
X84623Y-33605D01*
X84629Y-33600D01*
X84623Y-33594D01*
X84694Y-33523D01*
X84700Y-33529D01*
X84705Y-33523D01*
X84776Y-33594D01*
X84770Y-33600D01*
X84776Y-33605D01*
G54D10*
G36*
X84776Y-37705D02*
X84705Y-37776D01*
X84700Y-37770D01*
X84694Y-37776D01*
X84623Y-37705D01*
X84629Y-37700D01*
X84623Y-37694D01*
X84694Y-37623D01*
X84700Y-37629D01*
X84705Y-37623D01*
X84776Y-37694D01*
X84770Y-37700D01*
X84776Y-37705D01*
X84776Y-37705D01*
G37*
G54D20*
X84776Y-37705D02*
X84705Y-37776D01*
X84700Y-37770D01*
X84694Y-37776D01*
X84623Y-37705D01*
X84629Y-37700D01*
X84623Y-37694D01*
X84694Y-37623D01*
X84700Y-37629D01*
X84705Y-37623D01*
X84776Y-37694D01*
X84770Y-37700D01*
X84776Y-37705D01*
G54D10*
G36*
X87802Y-43844D02*
X87561Y-44084D01*
X87496Y-44182D01*
X87474Y-44297D01*
X87474Y-44476D01*
X87409Y-44450D01*
X87191Y-44449D01*
X86988Y-44533D01*
X86849Y-44672D01*
X86711Y-44534D01*
X86509Y-44450D01*
X86291Y-44449D01*
X86088Y-44533D01*
X85934Y-44688D01*
X85850Y-44890D01*
X85849Y-45108D01*
X85933Y-45311D01*
X86088Y-45465D01*
X86195Y-45510D01*
X86099Y-45606D01*
X86047Y-45555D01*
X85854Y-45475D01*
X85649Y-45474D01*
X85583Y-45409D01*
X85694Y-45297D01*
X85774Y-45104D01*
X85775Y-44896D01*
X85695Y-44703D01*
X85547Y-44555D01*
X85354Y-44475D01*
X85146Y-44474D01*
X84953Y-44554D01*
X84805Y-44702D01*
X84775Y-44774D01*
X84775Y-44675D01*
X84737Y-44583D01*
X84666Y-44513D01*
X84574Y-44475D01*
X84475Y-44474D01*
X83925Y-44474D01*
X83833Y-44512D01*
X83763Y-44583D01*
X83725Y-44675D01*
X83724Y-44774D01*
X83724Y-45075D01*
X83437Y-44787D01*
X83339Y-44722D01*
X83329Y-44720D01*
X83329Y-44075D01*
X83329Y-42075D01*
X83318Y-41867D01*
X83260Y-41727D01*
X83167Y-41702D01*
X83097Y-41773D01*
X83097Y-41632D01*
X83072Y-41539D01*
X82875Y-41470D01*
X82667Y-41481D01*
X82527Y-41539D01*
X82502Y-41632D01*
X82800Y-41929D01*
X83097Y-41632D01*
X83097Y-41773D01*
X82870Y-42000D01*
X83167Y-42297D01*
X83260Y-42272D01*
X83329Y-42075D01*
X83329Y-44075D01*
X83318Y-43867D01*
X83260Y-43727D01*
X83167Y-43702D01*
X82870Y-44000D01*
X83167Y-44297D01*
X83260Y-44272D01*
X83329Y-44075D01*
X83329Y-44720D01*
X83325Y-44719D01*
X83325Y-44675D01*
X83287Y-44583D01*
X83216Y-44513D01*
X83124Y-44475D01*
X83080Y-44475D01*
X83077Y-44460D01*
X83074Y-44455D01*
X83097Y-44367D01*
X82800Y-44070D01*
X82794Y-44076D01*
X82723Y-44005D01*
X82729Y-44000D01*
X82723Y-43994D01*
X82794Y-43923D01*
X82800Y-43929D01*
X83097Y-43632D01*
X83072Y-43539D01*
X82962Y-43500D01*
X83097Y-43445D01*
X83244Y-43297D01*
X83324Y-43104D01*
X83325Y-42896D01*
X83245Y-42703D01*
X83097Y-42555D01*
X82971Y-42502D01*
X83072Y-42460D01*
X83097Y-42367D01*
X82800Y-42070D01*
X82729Y-42141D01*
X82729Y-42000D01*
X82432Y-41702D01*
X82339Y-41727D01*
X82270Y-41924D01*
X82281Y-42132D01*
X82339Y-42272D01*
X82432Y-42297D01*
X82729Y-42000D01*
X82729Y-42141D01*
X82502Y-42367D01*
X82527Y-42460D01*
X82637Y-42499D01*
X82503Y-42554D01*
X82355Y-42702D01*
X82317Y-42793D01*
X82245Y-42721D01*
X82249Y-42709D01*
X82250Y-42491D01*
X82166Y-42288D01*
X82011Y-42134D01*
X82000Y-42129D01*
X82000Y-41871D01*
X82011Y-41866D01*
X82165Y-41711D01*
X82249Y-41509D01*
X82250Y-41291D01*
X82166Y-41088D01*
X82011Y-40934D01*
X81809Y-40850D01*
X81591Y-40849D01*
X81539Y-40871D01*
X81539Y-40480D01*
X81645Y-40524D01*
X81853Y-40525D01*
X82047Y-40445D01*
X82103Y-40389D01*
X85426Y-43712D01*
X85426Y-43712D01*
X85523Y-43777D01*
X85638Y-43799D01*
X85638Y-43800D01*
X87757Y-43800D01*
X87802Y-43844D01*
X87802Y-43844D01*
G37*
G54D20*
X87802Y-43844D02*
X87561Y-44084D01*
X87496Y-44182D01*
X87474Y-44297D01*
X87474Y-44476D01*
X87409Y-44450D01*
X87191Y-44449D01*
X86988Y-44533D01*
X86849Y-44672D01*
X86711Y-44534D01*
X86509Y-44450D01*
X86291Y-44449D01*
X86088Y-44533D01*
X85934Y-44688D01*
X85850Y-44890D01*
X85849Y-45108D01*
X85933Y-45311D01*
X86088Y-45465D01*
X86195Y-45510D01*
X86099Y-45606D01*
X86047Y-45555D01*
X85854Y-45475D01*
X85649Y-45474D01*
X85583Y-45409D01*
X85694Y-45297D01*
X85774Y-45104D01*
X85775Y-44896D01*
X85695Y-44703D01*
X85547Y-44555D01*
X85354Y-44475D01*
X85146Y-44474D01*
X84953Y-44554D01*
X84805Y-44702D01*
X84775Y-44774D01*
X84775Y-44675D01*
X84737Y-44583D01*
X84666Y-44513D01*
X84574Y-44475D01*
X84475Y-44474D01*
X83925Y-44474D01*
X83833Y-44512D01*
X83763Y-44583D01*
X83725Y-44675D01*
X83724Y-44774D01*
X83724Y-45075D01*
X83437Y-44787D01*
X83339Y-44722D01*
X83329Y-44720D01*
X83329Y-44075D01*
X83329Y-42075D01*
X83318Y-41867D01*
X83260Y-41727D01*
X83167Y-41702D01*
X83097Y-41773D01*
X83097Y-41632D01*
X83072Y-41539D01*
X82875Y-41470D01*
X82667Y-41481D01*
X82527Y-41539D01*
X82502Y-41632D01*
X82800Y-41929D01*
X83097Y-41632D01*
X83097Y-41773D01*
X82870Y-42000D01*
X83167Y-42297D01*
X83260Y-42272D01*
X83329Y-42075D01*
X83329Y-44075D01*
X83318Y-43867D01*
X83260Y-43727D01*
X83167Y-43702D01*
X82870Y-44000D01*
X83167Y-44297D01*
X83260Y-44272D01*
X83329Y-44075D01*
X83329Y-44720D01*
X83325Y-44719D01*
X83325Y-44675D01*
X83287Y-44583D01*
X83216Y-44513D01*
X83124Y-44475D01*
X83080Y-44475D01*
X83077Y-44460D01*
X83074Y-44455D01*
X83097Y-44367D01*
X82800Y-44070D01*
X82794Y-44076D01*
X82723Y-44005D01*
X82729Y-44000D01*
X82723Y-43994D01*
X82794Y-43923D01*
X82800Y-43929D01*
X83097Y-43632D01*
X83072Y-43539D01*
X82962Y-43500D01*
X83097Y-43445D01*
X83244Y-43297D01*
X83324Y-43104D01*
X83325Y-42896D01*
X83245Y-42703D01*
X83097Y-42555D01*
X82971Y-42502D01*
X83072Y-42460D01*
X83097Y-42367D01*
X82800Y-42070D01*
X82729Y-42141D01*
X82729Y-42000D01*
X82432Y-41702D01*
X82339Y-41727D01*
X82270Y-41924D01*
X82281Y-42132D01*
X82339Y-42272D01*
X82432Y-42297D01*
X82729Y-42000D01*
X82729Y-42141D01*
X82502Y-42367D01*
X82527Y-42460D01*
X82637Y-42499D01*
X82503Y-42554D01*
X82355Y-42702D01*
X82317Y-42793D01*
X82245Y-42721D01*
X82249Y-42709D01*
X82250Y-42491D01*
X82166Y-42288D01*
X82011Y-42134D01*
X82000Y-42129D01*
X82000Y-41871D01*
X82011Y-41866D01*
X82165Y-41711D01*
X82249Y-41509D01*
X82250Y-41291D01*
X82166Y-41088D01*
X82011Y-40934D01*
X81809Y-40850D01*
X81591Y-40849D01*
X81539Y-40871D01*
X81539Y-40480D01*
X81645Y-40524D01*
X81853Y-40525D01*
X82047Y-40445D01*
X82103Y-40389D01*
X85426Y-43712D01*
X85426Y-43712D01*
X85523Y-43777D01*
X85638Y-43799D01*
X85638Y-43800D01*
X87757Y-43800D01*
X87802Y-43844D01*
G54D10*
G36*
X87826Y-46005D02*
X87755Y-46076D01*
X87750Y-46070D01*
X87452Y-46367D01*
X87475Y-46454D01*
X86579Y-47350D01*
X86275Y-47350D01*
X86275Y-47325D01*
X86237Y-47233D01*
X86166Y-47163D01*
X86074Y-47125D01*
X85975Y-47124D01*
X85699Y-47124D01*
X86415Y-46408D01*
X86452Y-46444D01*
X86645Y-46524D01*
X86853Y-46525D01*
X87047Y-46445D01*
X87194Y-46297D01*
X87247Y-46171D01*
X87289Y-46272D01*
X87382Y-46297D01*
X87679Y-46000D01*
X87673Y-45994D01*
X87744Y-45923D01*
X87750Y-45929D01*
X87755Y-45923D01*
X87826Y-45994D01*
X87820Y-46000D01*
X87826Y-46005D01*
X87826Y-46005D01*
G37*
G54D20*
X87826Y-46005D02*
X87755Y-46076D01*
X87750Y-46070D01*
X87452Y-46367D01*
X87475Y-46454D01*
X86579Y-47350D01*
X86275Y-47350D01*
X86275Y-47325D01*
X86237Y-47233D01*
X86166Y-47163D01*
X86074Y-47125D01*
X85975Y-47124D01*
X85699Y-47124D01*
X86415Y-46408D01*
X86452Y-46444D01*
X86645Y-46524D01*
X86853Y-46525D01*
X87047Y-46445D01*
X87194Y-46297D01*
X87247Y-46171D01*
X87289Y-46272D01*
X87382Y-46297D01*
X87679Y-46000D01*
X87673Y-45994D01*
X87744Y-45923D01*
X87750Y-45929D01*
X87755Y-45923D01*
X87826Y-45994D01*
X87820Y-46000D01*
X87826Y-46005D01*
G54D10*
G36*
X90795Y-29019D02*
X90775Y-29028D01*
X90622Y-29181D01*
X90539Y-29381D01*
X90538Y-29598D01*
X90542Y-29607D01*
X90299Y-29850D01*
X90234Y-29947D01*
X90212Y-30062D01*
X90212Y-31160D01*
X89930Y-31442D01*
X89866Y-31288D01*
X89711Y-31134D01*
X89665Y-31114D01*
X89665Y-29571D01*
X89654Y-29354D01*
X89593Y-29205D01*
X89498Y-29178D01*
X89186Y-29490D01*
X89498Y-29802D01*
X89593Y-29775D01*
X89665Y-29571D01*
X89665Y-31114D01*
X89509Y-31050D01*
X89291Y-31049D01*
X89088Y-31133D01*
X88934Y-31288D01*
X88850Y-31490D01*
X88849Y-31708D01*
X88933Y-31911D01*
X88949Y-31926D01*
X87800Y-33075D01*
X87596Y-33074D01*
X87572Y-33084D01*
X87572Y-31152D01*
X87599Y-31124D01*
X87803Y-31125D01*
X87997Y-31045D01*
X88144Y-30897D01*
X88177Y-30820D01*
X88214Y-30911D01*
X88284Y-30981D01*
X88376Y-31020D01*
X88476Y-31020D01*
X89066Y-31020D01*
X89158Y-30982D01*
X89229Y-30911D01*
X89267Y-30820D01*
X89267Y-30720D01*
X89267Y-30130D01*
X89229Y-30038D01*
X89222Y-30031D01*
X89251Y-30029D01*
X89400Y-29967D01*
X89427Y-29873D01*
X89115Y-29561D01*
X89045Y-29631D01*
X89045Y-29490D01*
X88733Y-29178D01*
X88638Y-29205D01*
X88565Y-29409D01*
X88576Y-29626D01*
X88638Y-29775D01*
X88733Y-29802D01*
X89045Y-29490D01*
X89045Y-29631D01*
X88803Y-29873D01*
X88819Y-29929D01*
X88377Y-29929D01*
X88285Y-29967D01*
X88214Y-30037D01*
X88176Y-30129D01*
X88176Y-30229D01*
X88176Y-30378D01*
X88145Y-30303D01*
X87997Y-30155D01*
X87804Y-30075D01*
X87596Y-30074D01*
X87403Y-30154D01*
X87345Y-30212D01*
X87016Y-29883D01*
X86918Y-29818D01*
X86804Y-29795D01*
X86146Y-29795D01*
X86194Y-29747D01*
X86274Y-29554D01*
X86275Y-29346D01*
X86195Y-29153D01*
X86062Y-29019D01*
X88828Y-29019D01*
X88803Y-29108D01*
X89115Y-29419D01*
X89427Y-29108D01*
X89402Y-29019D01*
X90795Y-29019D01*
X90795Y-29019D01*
G37*
G54D20*
X90795Y-29019D02*
X90775Y-29028D01*
X90622Y-29181D01*
X90539Y-29381D01*
X90538Y-29598D01*
X90542Y-29607D01*
X90299Y-29850D01*
X90234Y-29947D01*
X90212Y-30062D01*
X90212Y-31160D01*
X89930Y-31442D01*
X89866Y-31288D01*
X89711Y-31134D01*
X89665Y-31114D01*
X89665Y-29571D01*
X89654Y-29354D01*
X89593Y-29205D01*
X89498Y-29178D01*
X89186Y-29490D01*
X89498Y-29802D01*
X89593Y-29775D01*
X89665Y-29571D01*
X89665Y-31114D01*
X89509Y-31050D01*
X89291Y-31049D01*
X89088Y-31133D01*
X88934Y-31288D01*
X88850Y-31490D01*
X88849Y-31708D01*
X88933Y-31911D01*
X88949Y-31926D01*
X87800Y-33075D01*
X87596Y-33074D01*
X87572Y-33084D01*
X87572Y-31152D01*
X87599Y-31124D01*
X87803Y-31125D01*
X87997Y-31045D01*
X88144Y-30897D01*
X88177Y-30820D01*
X88214Y-30911D01*
X88284Y-30981D01*
X88376Y-31020D01*
X88476Y-31020D01*
X89066Y-31020D01*
X89158Y-30982D01*
X89229Y-30911D01*
X89267Y-30820D01*
X89267Y-30720D01*
X89267Y-30130D01*
X89229Y-30038D01*
X89222Y-30031D01*
X89251Y-30029D01*
X89400Y-29967D01*
X89427Y-29873D01*
X89115Y-29561D01*
X89045Y-29631D01*
X89045Y-29490D01*
X88733Y-29178D01*
X88638Y-29205D01*
X88565Y-29409D01*
X88576Y-29626D01*
X88638Y-29775D01*
X88733Y-29802D01*
X89045Y-29490D01*
X89045Y-29631D01*
X88803Y-29873D01*
X88819Y-29929D01*
X88377Y-29929D01*
X88285Y-29967D01*
X88214Y-30037D01*
X88176Y-30129D01*
X88176Y-30229D01*
X88176Y-30378D01*
X88145Y-30303D01*
X87997Y-30155D01*
X87804Y-30075D01*
X87596Y-30074D01*
X87403Y-30154D01*
X87345Y-30212D01*
X87016Y-29883D01*
X86918Y-29818D01*
X86804Y-29795D01*
X86146Y-29795D01*
X86194Y-29747D01*
X86274Y-29554D01*
X86275Y-29346D01*
X86195Y-29153D01*
X86062Y-29019D01*
X88828Y-29019D01*
X88803Y-29108D01*
X89115Y-29419D01*
X89427Y-29108D01*
X89402Y-29019D01*
X90795Y-29019D01*
G54D10*
G36*
X91730Y-32778D02*
X91577Y-32625D01*
X91586Y-32616D01*
X91624Y-32524D01*
X91625Y-32425D01*
X91625Y-31875D01*
X91587Y-31783D01*
X91516Y-31713D01*
X91424Y-31675D01*
X91325Y-31674D01*
X90775Y-31674D01*
X90683Y-31712D01*
X90613Y-31783D01*
X90575Y-31875D01*
X90574Y-31974D01*
X90574Y-32295D01*
X90507Y-32233D01*
X90387Y-32239D01*
X90243Y-32637D01*
X90124Y-32755D01*
X90195Y-32826D01*
X90209Y-32812D01*
X90626Y-32963D01*
X90593Y-33058D01*
X90313Y-32956D01*
X90195Y-32837D01*
X90124Y-32908D01*
X90139Y-32922D01*
X89943Y-33459D01*
X90032Y-33540D01*
X90309Y-33519D01*
X90558Y-33394D01*
X90583Y-33367D01*
X90587Y-33371D01*
X90594Y-33364D01*
X90639Y-33472D01*
X90732Y-33497D01*
X91029Y-33200D01*
X91023Y-33194D01*
X91094Y-33123D01*
X91100Y-33129D01*
X91105Y-33123D01*
X91176Y-33194D01*
X91170Y-33200D01*
X91176Y-33205D01*
X91105Y-33276D01*
X91100Y-33270D01*
X90802Y-33567D01*
X90827Y-33660D01*
X90937Y-33699D01*
X90803Y-33754D01*
X90655Y-33902D01*
X90575Y-34095D01*
X90574Y-34303D01*
X90654Y-34497D01*
X90802Y-34644D01*
X90935Y-34700D01*
X90803Y-34754D01*
X90655Y-34902D01*
X90575Y-35095D01*
X90574Y-35303D01*
X90654Y-35497D01*
X90802Y-35644D01*
X90935Y-35700D01*
X90803Y-35754D01*
X90655Y-35902D01*
X90575Y-36095D01*
X90574Y-36303D01*
X90654Y-36497D01*
X90802Y-36644D01*
X90995Y-36724D01*
X91203Y-36725D01*
X91373Y-36655D01*
X91373Y-37295D01*
X91290Y-37265D01*
X91073Y-37276D01*
X90924Y-37338D01*
X90897Y-37433D01*
X91209Y-37745D01*
X91215Y-37739D01*
X91285Y-37810D01*
X91280Y-37815D01*
X91285Y-37821D01*
X91215Y-37892D01*
X91209Y-37886D01*
X91138Y-37957D01*
X91138Y-37815D01*
X90826Y-37503D01*
X90770Y-37519D01*
X90770Y-37077D01*
X90732Y-36985D01*
X90662Y-36914D01*
X90570Y-36876D01*
X90470Y-36876D01*
X89954Y-36876D01*
X89954Y-35681D01*
X89943Y-35463D01*
X89881Y-35312D01*
X89785Y-35284D01*
X89470Y-35600D01*
X89785Y-35915D01*
X89881Y-35887D01*
X89954Y-35681D01*
X89954Y-36876D01*
X89880Y-36876D01*
X89788Y-36914D01*
X89718Y-36984D01*
X89679Y-37076D01*
X89679Y-37176D01*
X89679Y-37766D01*
X89717Y-37858D01*
X89788Y-37929D01*
X89879Y-37967D01*
X89979Y-37967D01*
X90569Y-37967D01*
X90661Y-37929D01*
X90668Y-37922D01*
X90670Y-37951D01*
X90732Y-38100D01*
X90826Y-38127D01*
X91138Y-37815D01*
X91138Y-37957D01*
X90897Y-38198D01*
X90924Y-38293D01*
X91128Y-38365D01*
X91345Y-38354D01*
X91373Y-38343D01*
X91373Y-39261D01*
X91318Y-39239D01*
X91101Y-39238D01*
X90900Y-39321D01*
X90747Y-39474D01*
X90664Y-39673D01*
X90662Y-39670D01*
X90570Y-39632D01*
X90470Y-39632D01*
X90093Y-39632D01*
X90098Y-39626D01*
X90183Y-39627D01*
X90339Y-39562D01*
X90459Y-39443D01*
X90524Y-39286D01*
X90524Y-39117D01*
X90460Y-38961D01*
X90340Y-38841D01*
X90184Y-38777D01*
X90015Y-38776D01*
X89859Y-38841D01*
X89739Y-38960D01*
X89674Y-39117D01*
X89674Y-39202D01*
X89558Y-39318D01*
X89493Y-39415D01*
X89470Y-39530D01*
X89470Y-44137D01*
X88729Y-44878D01*
X88037Y-45570D01*
X88032Y-45578D01*
X88022Y-45539D01*
X87874Y-45487D01*
X87986Y-45375D01*
X87986Y-45375D01*
X88051Y-45278D01*
X88074Y-45163D01*
X88074Y-45163D01*
X88074Y-45012D01*
X88124Y-45029D01*
X88332Y-45018D01*
X88472Y-44960D01*
X88497Y-44867D01*
X88200Y-44570D01*
X88194Y-44576D01*
X88123Y-44505D01*
X88129Y-44500D01*
X88123Y-44494D01*
X88194Y-44423D01*
X88200Y-44429D01*
X88205Y-44423D01*
X88276Y-44494D01*
X88270Y-44500D01*
X88567Y-44797D01*
X88660Y-44772D01*
X88729Y-44575D01*
X88718Y-44367D01*
X88660Y-44227D01*
X88567Y-44202D01*
X88613Y-44157D01*
X88590Y-44135D01*
X88837Y-43888D01*
X88837Y-43888D01*
X88902Y-43791D01*
X88925Y-43676D01*
X88925Y-43676D01*
X88925Y-43304D01*
X88902Y-43189D01*
X88902Y-43189D01*
X88837Y-43092D01*
X88593Y-42848D01*
X88644Y-42797D01*
X88724Y-42604D01*
X88725Y-42396D01*
X88645Y-42203D01*
X88497Y-42055D01*
X88425Y-42025D01*
X88524Y-42025D01*
X88616Y-41987D01*
X88686Y-41916D01*
X88724Y-41824D01*
X88725Y-41725D01*
X88725Y-41175D01*
X88687Y-41083D01*
X88616Y-41013D01*
X88524Y-40975D01*
X88425Y-40974D01*
X87875Y-40974D01*
X87850Y-40985D01*
X87850Y-40891D01*
X87766Y-40688D01*
X87611Y-40534D01*
X87409Y-40450D01*
X87191Y-40449D01*
X86988Y-40533D01*
X86849Y-40672D01*
X86711Y-40534D01*
X86690Y-40524D01*
X86853Y-40525D01*
X87047Y-40445D01*
X87194Y-40297D01*
X87250Y-40164D01*
X87304Y-40297D01*
X87452Y-40444D01*
X87645Y-40524D01*
X87853Y-40525D01*
X88047Y-40445D01*
X88194Y-40297D01*
X88224Y-40225D01*
X88224Y-40324D01*
X88262Y-40416D01*
X88333Y-40486D01*
X88425Y-40524D01*
X88524Y-40525D01*
X89074Y-40525D01*
X89166Y-40487D01*
X89236Y-40416D01*
X89274Y-40324D01*
X89275Y-40225D01*
X89275Y-39675D01*
X89237Y-39583D01*
X89166Y-39513D01*
X89074Y-39475D01*
X88975Y-39474D01*
X88425Y-39474D01*
X88333Y-39512D01*
X88263Y-39583D01*
X88225Y-39675D01*
X88224Y-39774D01*
X88224Y-39774D01*
X88195Y-39703D01*
X88047Y-39555D01*
X87854Y-39475D01*
X87646Y-39474D01*
X87453Y-39554D01*
X87305Y-39702D01*
X87249Y-39835D01*
X87195Y-39703D01*
X87047Y-39555D01*
X86924Y-39504D01*
X89027Y-37401D01*
X89027Y-37401D01*
X89092Y-37304D01*
X89114Y-37189D01*
X89114Y-37189D01*
X89114Y-36082D01*
X89318Y-36154D01*
X89536Y-36143D01*
X89687Y-36081D01*
X89715Y-35985D01*
X89400Y-35670D01*
X89394Y-35676D01*
X89323Y-35605D01*
X89329Y-35600D01*
X89323Y-35594D01*
X89394Y-35523D01*
X89400Y-35529D01*
X89715Y-35214D01*
X89687Y-35118D01*
X89481Y-35045D01*
X89263Y-35056D01*
X89114Y-35117D01*
X89114Y-33106D01*
X89415Y-32806D01*
X89431Y-33023D01*
X89556Y-33271D01*
X89730Y-33430D01*
X89849Y-33425D01*
X90054Y-32862D01*
X89544Y-32676D01*
X89622Y-32598D01*
X89924Y-32708D01*
X90042Y-32826D01*
X90113Y-32755D01*
X90098Y-32741D01*
X90294Y-32204D01*
X90205Y-32123D01*
X90088Y-32132D01*
X90724Y-31497D01*
X90724Y-31497D01*
X90789Y-31399D01*
X90812Y-31284D01*
X90812Y-31284D01*
X90812Y-30186D01*
X90966Y-30032D01*
X90973Y-30035D01*
X90970Y-30037D01*
X90932Y-30129D01*
X90932Y-30229D01*
X90932Y-30819D01*
X90970Y-30911D01*
X91040Y-30981D01*
X91132Y-31020D01*
X91232Y-31020D01*
X91730Y-31020D01*
X91730Y-32778D01*
X91730Y-32778D01*
G37*
G54D20*
X91730Y-32778D02*
X91577Y-32625D01*
X91586Y-32616D01*
X91624Y-32524D01*
X91625Y-32425D01*
X91625Y-31875D01*
X91587Y-31783D01*
X91516Y-31713D01*
X91424Y-31675D01*
X91325Y-31674D01*
X90775Y-31674D01*
X90683Y-31712D01*
X90613Y-31783D01*
X90575Y-31875D01*
X90574Y-31974D01*
X90574Y-32295D01*
X90507Y-32233D01*
X90387Y-32239D01*
X90243Y-32637D01*
X90124Y-32755D01*
X90195Y-32826D01*
X90209Y-32812D01*
X90626Y-32963D01*
X90593Y-33058D01*
X90313Y-32956D01*
X90195Y-32837D01*
X90124Y-32908D01*
X90139Y-32922D01*
X89943Y-33459D01*
X90032Y-33540D01*
X90309Y-33519D01*
X90558Y-33394D01*
X90583Y-33367D01*
X90587Y-33371D01*
X90594Y-33364D01*
X90639Y-33472D01*
X90732Y-33497D01*
X91029Y-33200D01*
X91023Y-33194D01*
X91094Y-33123D01*
X91100Y-33129D01*
X91105Y-33123D01*
X91176Y-33194D01*
X91170Y-33200D01*
X91176Y-33205D01*
X91105Y-33276D01*
X91100Y-33270D01*
X90802Y-33567D01*
X90827Y-33660D01*
X90937Y-33699D01*
X90803Y-33754D01*
X90655Y-33902D01*
X90575Y-34095D01*
X90574Y-34303D01*
X90654Y-34497D01*
X90802Y-34644D01*
X90935Y-34700D01*
X90803Y-34754D01*
X90655Y-34902D01*
X90575Y-35095D01*
X90574Y-35303D01*
X90654Y-35497D01*
X90802Y-35644D01*
X90935Y-35700D01*
X90803Y-35754D01*
X90655Y-35902D01*
X90575Y-36095D01*
X90574Y-36303D01*
X90654Y-36497D01*
X90802Y-36644D01*
X90995Y-36724D01*
X91203Y-36725D01*
X91373Y-36655D01*
X91373Y-37295D01*
X91290Y-37265D01*
X91073Y-37276D01*
X90924Y-37338D01*
X90897Y-37433D01*
X91209Y-37745D01*
X91215Y-37739D01*
X91285Y-37810D01*
X91280Y-37815D01*
X91285Y-37821D01*
X91215Y-37892D01*
X91209Y-37886D01*
X91138Y-37957D01*
X91138Y-37815D01*
X90826Y-37503D01*
X90770Y-37519D01*
X90770Y-37077D01*
X90732Y-36985D01*
X90662Y-36914D01*
X90570Y-36876D01*
X90470Y-36876D01*
X89954Y-36876D01*
X89954Y-35681D01*
X89943Y-35463D01*
X89881Y-35312D01*
X89785Y-35284D01*
X89470Y-35600D01*
X89785Y-35915D01*
X89881Y-35887D01*
X89954Y-35681D01*
X89954Y-36876D01*
X89880Y-36876D01*
X89788Y-36914D01*
X89718Y-36984D01*
X89679Y-37076D01*
X89679Y-37176D01*
X89679Y-37766D01*
X89717Y-37858D01*
X89788Y-37929D01*
X89879Y-37967D01*
X89979Y-37967D01*
X90569Y-37967D01*
X90661Y-37929D01*
X90668Y-37922D01*
X90670Y-37951D01*
X90732Y-38100D01*
X90826Y-38127D01*
X91138Y-37815D01*
X91138Y-37957D01*
X90897Y-38198D01*
X90924Y-38293D01*
X91128Y-38365D01*
X91345Y-38354D01*
X91373Y-38343D01*
X91373Y-39261D01*
X91318Y-39239D01*
X91101Y-39238D01*
X90900Y-39321D01*
X90747Y-39474D01*
X90664Y-39673D01*
X90662Y-39670D01*
X90570Y-39632D01*
X90470Y-39632D01*
X90093Y-39632D01*
X90098Y-39626D01*
X90183Y-39627D01*
X90339Y-39562D01*
X90459Y-39443D01*
X90524Y-39286D01*
X90524Y-39117D01*
X90460Y-38961D01*
X90340Y-38841D01*
X90184Y-38777D01*
X90015Y-38776D01*
X89859Y-38841D01*
X89739Y-38960D01*
X89674Y-39117D01*
X89674Y-39202D01*
X89558Y-39318D01*
X89493Y-39415D01*
X89470Y-39530D01*
X89470Y-44137D01*
X88729Y-44878D01*
X88037Y-45570D01*
X88032Y-45578D01*
X88022Y-45539D01*
X87874Y-45487D01*
X87986Y-45375D01*
X87986Y-45375D01*
X88051Y-45278D01*
X88074Y-45163D01*
X88074Y-45163D01*
X88074Y-45012D01*
X88124Y-45029D01*
X88332Y-45018D01*
X88472Y-44960D01*
X88497Y-44867D01*
X88200Y-44570D01*
X88194Y-44576D01*
X88123Y-44505D01*
X88129Y-44500D01*
X88123Y-44494D01*
X88194Y-44423D01*
X88200Y-44429D01*
X88205Y-44423D01*
X88276Y-44494D01*
X88270Y-44500D01*
X88567Y-44797D01*
X88660Y-44772D01*
X88729Y-44575D01*
X88718Y-44367D01*
X88660Y-44227D01*
X88567Y-44202D01*
X88613Y-44157D01*
X88590Y-44135D01*
X88837Y-43888D01*
X88837Y-43888D01*
X88902Y-43791D01*
X88925Y-43676D01*
X88925Y-43676D01*
X88925Y-43304D01*
X88902Y-43189D01*
X88902Y-43189D01*
X88837Y-43092D01*
X88593Y-42848D01*
X88644Y-42797D01*
X88724Y-42604D01*
X88725Y-42396D01*
X88645Y-42203D01*
X88497Y-42055D01*
X88425Y-42025D01*
X88524Y-42025D01*
X88616Y-41987D01*
X88686Y-41916D01*
X88724Y-41824D01*
X88725Y-41725D01*
X88725Y-41175D01*
X88687Y-41083D01*
X88616Y-41013D01*
X88524Y-40975D01*
X88425Y-40974D01*
X87875Y-40974D01*
X87850Y-40985D01*
X87850Y-40891D01*
X87766Y-40688D01*
X87611Y-40534D01*
X87409Y-40450D01*
X87191Y-40449D01*
X86988Y-40533D01*
X86849Y-40672D01*
X86711Y-40534D01*
X86690Y-40524D01*
X86853Y-40525D01*
X87047Y-40445D01*
X87194Y-40297D01*
X87250Y-40164D01*
X87304Y-40297D01*
X87452Y-40444D01*
X87645Y-40524D01*
X87853Y-40525D01*
X88047Y-40445D01*
X88194Y-40297D01*
X88224Y-40225D01*
X88224Y-40324D01*
X88262Y-40416D01*
X88333Y-40486D01*
X88425Y-40524D01*
X88524Y-40525D01*
X89074Y-40525D01*
X89166Y-40487D01*
X89236Y-40416D01*
X89274Y-40324D01*
X89275Y-40225D01*
X89275Y-39675D01*
X89237Y-39583D01*
X89166Y-39513D01*
X89074Y-39475D01*
X88975Y-39474D01*
X88425Y-39474D01*
X88333Y-39512D01*
X88263Y-39583D01*
X88225Y-39675D01*
X88224Y-39774D01*
X88224Y-39774D01*
X88195Y-39703D01*
X88047Y-39555D01*
X87854Y-39475D01*
X87646Y-39474D01*
X87453Y-39554D01*
X87305Y-39702D01*
X87249Y-39835D01*
X87195Y-39703D01*
X87047Y-39555D01*
X86924Y-39504D01*
X89027Y-37401D01*
X89027Y-37401D01*
X89092Y-37304D01*
X89114Y-37189D01*
X89114Y-37189D01*
X89114Y-36082D01*
X89318Y-36154D01*
X89536Y-36143D01*
X89687Y-36081D01*
X89715Y-35985D01*
X89400Y-35670D01*
X89394Y-35676D01*
X89323Y-35605D01*
X89329Y-35600D01*
X89323Y-35594D01*
X89394Y-35523D01*
X89400Y-35529D01*
X89715Y-35214D01*
X89687Y-35118D01*
X89481Y-35045D01*
X89263Y-35056D01*
X89114Y-35117D01*
X89114Y-33106D01*
X89415Y-32806D01*
X89431Y-33023D01*
X89556Y-33271D01*
X89730Y-33430D01*
X89849Y-33425D01*
X90054Y-32862D01*
X89544Y-32676D01*
X89622Y-32598D01*
X89924Y-32708D01*
X90042Y-32826D01*
X90113Y-32755D01*
X90098Y-32741D01*
X90294Y-32204D01*
X90205Y-32123D01*
X90088Y-32132D01*
X90724Y-31497D01*
X90724Y-31497D01*
X90789Y-31399D01*
X90812Y-31284D01*
X90812Y-31284D01*
X90812Y-30186D01*
X90966Y-30032D01*
X90973Y-30035D01*
X90970Y-30037D01*
X90932Y-30129D01*
X90932Y-30229D01*
X90932Y-30819D01*
X90970Y-30911D01*
X91040Y-30981D01*
X91132Y-31020D01*
X91232Y-31020D01*
X91730Y-31020D01*
X91730Y-32778D01*
G54D10*
G36*
X91730Y-47980D02*
X91630Y-47980D01*
X91647Y-47917D01*
X91350Y-47620D01*
X91279Y-47691D01*
X91279Y-47550D01*
X90982Y-47252D01*
X90889Y-47277D01*
X90820Y-47474D01*
X90831Y-47682D01*
X90889Y-47822D01*
X90982Y-47847D01*
X91279Y-47550D01*
X91279Y-47691D01*
X91052Y-47917D01*
X91069Y-47980D01*
X86272Y-47980D01*
X86274Y-47974D01*
X86274Y-47950D01*
X86704Y-47950D01*
X86704Y-47949D01*
X86818Y-47927D01*
X86818Y-47927D01*
X86916Y-47862D01*
X88392Y-46385D01*
X88452Y-46444D01*
X88645Y-46524D01*
X88853Y-46525D01*
X89047Y-46445D01*
X89194Y-46297D01*
X89274Y-46104D01*
X89275Y-45896D01*
X89195Y-45703D01*
X89047Y-45555D01*
X88944Y-45512D01*
X89982Y-44474D01*
X89982Y-44474D01*
X90047Y-44377D01*
X90070Y-44262D01*
X90070Y-44262D01*
X90070Y-40723D01*
X90569Y-40723D01*
X90661Y-40685D01*
X90732Y-40615D01*
X90770Y-40523D01*
X90770Y-40423D01*
X90770Y-40116D01*
X90900Y-40246D01*
X91100Y-40329D01*
X91317Y-40329D01*
X91373Y-40306D01*
X91373Y-40902D01*
X91300Y-40975D01*
X91096Y-40974D01*
X90903Y-41054D01*
X90755Y-41202D01*
X90675Y-41395D01*
X90674Y-41603D01*
X90754Y-41797D01*
X90902Y-41944D01*
X91035Y-42000D01*
X90903Y-42054D01*
X90755Y-42202D01*
X90675Y-42395D01*
X90674Y-42603D01*
X90754Y-42797D01*
X90902Y-42944D01*
X91035Y-43000D01*
X90903Y-43054D01*
X90755Y-43202D01*
X90675Y-43395D01*
X90674Y-43603D01*
X90754Y-43797D01*
X90902Y-43944D01*
X91035Y-44000D01*
X90903Y-44054D01*
X90755Y-44202D01*
X90675Y-44395D01*
X90674Y-44603D01*
X90754Y-44797D01*
X90902Y-44944D01*
X91095Y-45024D01*
X91303Y-45025D01*
X91329Y-45014D01*
X91329Y-45720D01*
X91137Y-45912D01*
X91072Y-46010D01*
X91069Y-46024D01*
X91025Y-46024D01*
X90933Y-46062D01*
X90863Y-46133D01*
X90825Y-46225D01*
X90824Y-46324D01*
X90824Y-46874D01*
X90862Y-46966D01*
X90933Y-47036D01*
X91025Y-47074D01*
X91112Y-47075D01*
X91077Y-47089D01*
X91052Y-47182D01*
X91350Y-47479D01*
X91647Y-47182D01*
X91622Y-47089D01*
X91581Y-47075D01*
X91674Y-47075D01*
X91730Y-47051D01*
X91730Y-47256D01*
X91717Y-47252D01*
X91420Y-47550D01*
X91717Y-47847D01*
X91730Y-47843D01*
X91730Y-47980D01*
X91730Y-47980D01*
G37*
G54D20*
X91730Y-47980D02*
X91630Y-47980D01*
X91647Y-47917D01*
X91350Y-47620D01*
X91279Y-47691D01*
X91279Y-47550D01*
X90982Y-47252D01*
X90889Y-47277D01*
X90820Y-47474D01*
X90831Y-47682D01*
X90889Y-47822D01*
X90982Y-47847D01*
X91279Y-47550D01*
X91279Y-47691D01*
X91052Y-47917D01*
X91069Y-47980D01*
X86272Y-47980D01*
X86274Y-47974D01*
X86274Y-47950D01*
X86704Y-47950D01*
X86704Y-47949D01*
X86818Y-47927D01*
X86818Y-47927D01*
X86916Y-47862D01*
X88392Y-46385D01*
X88452Y-46444D01*
X88645Y-46524D01*
X88853Y-46525D01*
X89047Y-46445D01*
X89194Y-46297D01*
X89274Y-46104D01*
X89275Y-45896D01*
X89195Y-45703D01*
X89047Y-45555D01*
X88944Y-45512D01*
X89982Y-44474D01*
X89982Y-44474D01*
X90047Y-44377D01*
X90070Y-44262D01*
X90070Y-44262D01*
X90070Y-40723D01*
X90569Y-40723D01*
X90661Y-40685D01*
X90732Y-40615D01*
X90770Y-40523D01*
X90770Y-40423D01*
X90770Y-40116D01*
X90900Y-40246D01*
X91100Y-40329D01*
X91317Y-40329D01*
X91373Y-40306D01*
X91373Y-40902D01*
X91300Y-40975D01*
X91096Y-40974D01*
X90903Y-41054D01*
X90755Y-41202D01*
X90675Y-41395D01*
X90674Y-41603D01*
X90754Y-41797D01*
X90902Y-41944D01*
X91035Y-42000D01*
X90903Y-42054D01*
X90755Y-42202D01*
X90675Y-42395D01*
X90674Y-42603D01*
X90754Y-42797D01*
X90902Y-42944D01*
X91035Y-43000D01*
X90903Y-43054D01*
X90755Y-43202D01*
X90675Y-43395D01*
X90674Y-43603D01*
X90754Y-43797D01*
X90902Y-43944D01*
X91035Y-44000D01*
X90903Y-44054D01*
X90755Y-44202D01*
X90675Y-44395D01*
X90674Y-44603D01*
X90754Y-44797D01*
X90902Y-44944D01*
X91095Y-45024D01*
X91303Y-45025D01*
X91329Y-45014D01*
X91329Y-45720D01*
X91137Y-45912D01*
X91072Y-46010D01*
X91069Y-46024D01*
X91025Y-46024D01*
X90933Y-46062D01*
X90863Y-46133D01*
X90825Y-46225D01*
X90824Y-46324D01*
X90824Y-46874D01*
X90862Y-46966D01*
X90933Y-47036D01*
X91025Y-47074D01*
X91112Y-47075D01*
X91077Y-47089D01*
X91052Y-47182D01*
X91350Y-47479D01*
X91647Y-47182D01*
X91622Y-47089D01*
X91581Y-47075D01*
X91674Y-47075D01*
X91730Y-47051D01*
X91730Y-47256D01*
X91717Y-47252D01*
X91420Y-47550D01*
X91717Y-47847D01*
X91730Y-47843D01*
X91730Y-47980D01*
M02*
