<?xml version="1.0" standalone="no"?>
 <!DOCTYPE svg PUBLIC "-//W3C//DTD SVG 1.1//EN" 
 "http://www.w3.org/Graphics/SVG/1.1/DTD/svg11.dtd"> 
<svg xmlns="http://www.w3.org/2000/svg" version="1.1" 
    width="29.7002cm" height="21.0007cm" viewBox="0 0 116930 82680 ">
<title>SVG Picture created as matrix7219_5cm-F_SilkS.svg date 2014/06/01 15:36:14 </title>
  <desc>Picture generated by PCBNEW </desc>
<g style="fill:#000000; fill-opacity:1;stroke:#000000; stroke-opacity:1;
stroke-linecap:round; stroke-linejoin:round; "
 transform="translate(0 0) scale(1 1)">
</g>
<g style="fill:#000000; fill-opacity:0.0; 
stroke:#000000; stroke-width:39.3701; stroke-opacity:1; 
stroke-linecap:round; stroke-linejoin:round;">
<path d="M4000 4000
L112930 4000
L112930 78680
L4000 78680
L4000 4000
" />
<path d="M4700 4700
L112230 4700
L112230 77980
L4700 77980
L4700 4700
" />
<path d="M25780 4000
L25780 4700
" />
<path d="M15032 4552
L14747 4552
" />
<path d="M14890 4552
L14890 4052
L14842 4123
L14794 4171
L14747 4195
" />
<path d="M25780 78680
L25780 77980
" />
<path d="M15032 78532
L14747 78532
" />
<path d="M14890 78532
L14890 78032
L14842 78103
L14794 78151
L14747 78175
" />
<path d="M47560 4000
L47560 4700
" />
<path d="M36527 4100
L36550 4076
L36598 4052
L36717 4052
L36765 4076
L36789 4100
L36812 4147
L36812 4195
L36789 4266
L36503 4552
L36812 4552
" />
<path d="M47560 78680
L47560 77980
" />
<path d="M36527 78080
L36550 78056
L36598 78032
L36717 78032
L36765 78056
L36789 78080
L36812 78127
L36812 78175
L36789 78246
L36503 78532
L36812 78532
" />
<path d="M69340 4000
L69340 4700
" />
<path d="M58283 4052
L58592 4052
L58426 4242
L58497 4242
L58545 4266
L58569 4290
L58592 4338
L58592 4457
L58569 4504
L58545 4528
L58497 4552
L58354 4552
L58307 4528
L58283 4504
" />
<path d="M69340 78680
L69340 77980
" />
<path d="M58283 78032
L58592 78032
L58426 78222
L58497 78222
L58545 78246
L58569 78270
L58592 78318
L58592 78437
L58569 78484
L58545 78508
L58497 78532
L58354 78532
L58307 78508
L58283 78484
" />
<path d="M91120 4000
L91120 4700
" />
<path d="M80325 4219
L80325 4552
" />
<path d="M80206 4028
L80087 4385
L80396 4385
" />
<path d="M91120 78680
L91120 77980
" />
<path d="M80325 78199
L80325 78532
" />
<path d="M80206 78008
L80087 78365
L80396 78365
" />
<path d="M102129 4052
L101890 4052
L101867 4290
L101890 4266
L101938 4242
L102057 4242
L102105 4266
L102129 4290
L102152 4338
L102152 4457
L102129 4504
L102105 4528
L102057 4552
L101938 4552
L101890 4528
L101867 4504
" />
<path d="M102129 78032
L101890 78032
L101867 78270
L101890 78246
L101938 78222
L102057 78222
L102105 78246
L102129 78270
L102152 78318
L102152 78437
L102129 78484
L102105 78508
L102057 78532
L101938 78532
L101890 78508
L101867 78484
" />
<path d="M4000 28890
L4700 28890
" />
<path d="M4230 16509
L4469 16509
" />
<path d="M4183 16652
L4350 16152
L4516 16652
" />
<path d="M112930 28890
L112230 28890
" />
<path d="M112460 16509
L112699 16509
" />
<path d="M112413 16652
L112580 16152
L112746 16652
" />
<path d="M4000 53780
L4700 53780
" />
<path d="M4385 41280
L4457 41304
L4480 41328
L4504 41375
L4504 41447
L4480 41494
L4457 41518
L4409 41542
L4219 41542
L4219 41042
L4385 41042
L4433 41066
L4457 41090
L4480 41137
L4480 41185
L4457 41232
L4433 41256
L4385 41280
L4219 41280
" />
<path d="M112930 53780
L112230 53780
" />
<path d="M112615 41280
L112687 41304
L112710 41328
L112734 41375
L112734 41447
L112710 41494
L112687 41518
L112639 41542
L112449 41542
L112449 41042
L112615 41042
L112663 41066
L112687 41090
L112710 41137
L112710 41185
L112687 41232
L112663 41256
L112615 41280
L112449 41280
" />
<path d="M4504 66384
L4480 66408
L4409 66432
L4361 66432
L4290 66408
L4242 66360
L4219 66313
L4195 66218
L4195 66146
L4219 66051
L4242 66003
L4290 65956
L4361 65932
L4409 65932
L4480 65956
L4504 65980
" />
<path d="M112734 66384
L112710 66408
L112639 66432
L112591 66432
L112520 66408
L112472 66360
L112449 66313
L112425 66218
L112425 66146
L112449 66051
L112472 66003
L112520 65956
L112591 65932
L112639 65932
L112710 65956
L112734 65980
" />
<path d="M79380 76422
L79455 75822
L79597 75822
L79680 75851
L79730 75908
L79751 75965
L79765 76080
L79755 76165
L79712 76280
L79676 76337
L79612 76394
L79522 76422
L79380 76422
" />
<path d="M80237 76422
L80276 76108
L80255 76051
L80201 76022
L80087 76022
L80026 76051
" />
<path d="M80240 76394
L80180 76422
L80037 76422
L79983 76394
L79962 76337
L79969 76280
L80005 76222
L80065 76194
L80208 76194
L80269 76165
" />
<path d="M80487 76022
L80715 76022
" />
<path d="M80597 75822
L80533 76337
L80555 76394
L80608 76422
L80665 76422
" />
<path d="M81097 76394
L81037 76422
L80922 76422
L80869 76394
L80847 76337
L80876 76108
L80912 76051
L80972 76022
L81087 76022
L81140 76051
L81162 76108
L81155 76165
L80862 76222
" />
<path d="M81387 76365
L81412 76394
L81380 76422
L81355 76394
L81387 76365
L81380 76422
" />
<path d="M81426 76051
L81451 76080
L81419 76108
L81394 76080
L81426 76051
L81419 76108
" />
<path d="M82437 76422
L82094 76422
" />
<path d="M82265 76422
L82340 75822
L82272 75908
L82208 75965
L82147 75994
" />
<path d="M83201 76022
L83137 76537
L83101 76594
L83040 76622
L83012 76622
" />
<path d="M83226 75822
L83194 75851
L83219 75880
L83251 75851
L83226 75822
L83219 75880
" />
<path d="M83744 76022
L83694 76422
" />
<path d="M83487 76022
L83447 76337
L83469 76394
L83522 76422
L83608 76422
L83669 76394
L83701 76365
" />
<path d="M84030 76022
L83980 76422
" />
<path d="M84022 76080
L84055 76051
L84115 76022
L84201 76022
L84255 76051
L84276 76108
L84237 76422
" />
<path d="M85019 75880
L85051 75851
L85112 75822
L85255 75822
L85308 75851
L85333 75880
L85355 75937
L85347 75994
L85308 76080
L84922 76422
L85294 76422
" />
<path d="M85740 75822
L85797 75822
L85851 75851
L85876 75880
L85897 75937
L85912 76051
L85894 76194
L85851 76308
L85815 76365
L85783 76394
L85722 76422
L85665 76422
L85612 76394
L85587 76365
L85565 76308
L85551 76194
L85569 76051
L85612 75937
L85647 75880
L85680 75851
L85740 75822
" />
<path d="M86437 76422
L86094 76422
" />
<path d="M86265 76422
L86340 75822
L86272 75908
L86208 75965
L86147 75994
" />
<path d="M87001 76022
L86951 76422
" />
<path d="M86887 75794
L86690 76222
L87062 76222
" />
<path d="M70972 77622
L70972 77022
" />
<path d="M71315 77622
L71058 77280
" />
<path d="M71315 77022
L70972 77365
" />
<path d="M71572 77622
L71572 77222
" />
<path d="M71572 77022
L71544 77051
L71572 77080
L71601 77051
L71572 77022
L71572 77080
" />
<path d="M72201 77565
L72172 77594
L72087 77622
L72030 77622
L71944 77594
L71887 77537
L71858 77480
L71830 77365
L71830 77280
L71858 77165
L71887 77108
L71944 77051
L72030 77022
L72087 77022
L72172 77051
L72201 77080
" />
<path d="M72715 77622
L72715 77308
L72687 77251
L72630 77222
L72515 77222
L72458 77251
" />
<path d="M72715 77594
L72658 77622
L72515 77622
L72458 77594
L72430 77537
L72430 77480
L72458 77422
L72515 77394
L72658 77394
L72715 77365
" />
<path d="M73258 77622
L73258 77022
" />
<path d="M73258 77594
L73201 77622
L73087 77622
L73030 77594
L73001 77565
L72972 77508
L72972 77337
L73001 77280
L73030 77251
L73087 77222
L73201 77222
L73258 77251
" />
<path d="M74001 77308
L74201 77308
" />
<path d="M74287 77622
L74001 77622
L74001 77022
L74287 77022
" />
<path d="M74544 77565
L74572 77594
L74544 77622
L74515 77594
L74544 77565
L74544 77622
" />
<path d="M74829 77622
L74829 77022
L74972 77022
L75058 77051
L75115 77108
L75144 77165
L75172 77280
L75172 77365
L75144 77480
L75115 77537
L75058 77594
L74972 77622
L74829 77622
" />
<path d="M75429 77565
L75458 77594
L75429 77622
L75401 77594
L75429 77565
L75429 77622
" />
<path d="M75687 77451
L75972 77451
" />
<path d="M75629 77622
L75829 77022
L76029 77622
" />
<path d="M76229 77565
L76258 77594
L76229 77622
L76201 77594
L76229 77565
L76229 77622
" />
<path d="M104522 76422
L104358 76137
" />
<path d="M104180 76422
L104255 75822
L104483 75822
L104537 75851
L104562 75880
L104583 75937
L104572 76022
L104537 76080
L104505 76108
L104444 76137
L104215 76137
" />
<path d="M105012 76394
L104951 76422
L104837 76422
L104783 76394
L104762 76337
L104790 76108
L104826 76051
L104887 76022
L105001 76022
L105055 76051
L105076 76108
L105069 76165
L104776 76222
" />
<path d="M105287 76022
L105380 76422
L105572 76022
" />
<path d="M105758 76365
L105783 76394
L105751 76422
L105726 76394
L105758 76365
L105751 76422
" />
<path d="M105797 76051
L105822 76080
L105790 76108
L105765 76080
L105797 76051
L105790 76108
" />
<path d="M70944 76394
L71030 76422
L71172 76422
L71230 76394
L71258 76365
L71287 76308
L71287 76251
L71258 76194
L71230 76165
L71172 76137
L71058 76108
L71001 76080
L70972 76051
L70944 75994
L70944 75937
L70972 75880
L71001 75851
L71058 75822
L71201 75822
L71287 75851
" />
<path d="M71544 76422
L71544 76022
" />
<path d="M71544 75822
L71515 75851
L71544 75880
L71572 75851
L71544 75822
L71544 75880
" />
<path d="M71772 76022
L72087 76022
L71772 76422
L72087 76422
" />
<path d="M72544 76394
L72487 76422
L72372 76422
L72315 76394
L72287 76337
L72287 76108
L72315 76051
L72372 76022
L72487 76022
L72544 76051
L72572 76108
L72572 76165
L72287 76222
" />
<path d="M72830 76365
L72858 76394
L72830 76422
L72801 76394
L72830 76365
L72830 76422
" />
<path d="M72830 76051
L72858 76080
L72830 76108
L72801 76080
L72830 76051
L72830 76108
" />
<path d="M73544 76251
L73830 76251
" />
<path d="M73487 76422
L73687 75822
L73887 76422
" />
<path d="M74344 76022
L74344 76422
" />
<path d="M74201 75794
L74058 76222
L74430 76222
" />
<path d="M104172 77622
L104172 77022
" />
<path d="M104715 77622
L104715 77022
" />
<path d="M104715 77594
L104658 77622
L104544 77622
L104487 77594
L104458 77565
L104430 77508
L104430 77337
L104458 77280
L104487 77251
L104544 77222
L104658 77222
L104715 77251
" />
<path d="M105001 77565
L105030 77594
L105001 77622
L104972 77594
L105001 77565
L105001 77622
" />
<path d="M105001 77251
L105030 77280
L105001 77308
L104972 77280
L105001 77251
L105001 77308
" />
<path d="M106058 77622
L105715 77622
" />
<path d="M105887 77622
L105887 77022
L105829 77108
L105772 77165
L105715 77194
" />
<path d="M106744 76994
L106230 77765
" />
<path d="M107258 77622
L106915 77622
" />
<path d="M107087 77622
L107087 77022
L107029 77108
L106972 77165
L106915 77194
" />
<path d="M70969 74622
L71312 74622
" />
<path d="M71065 75222
L71140 74622
" />
<path d="M71437 75222
L71487 74822
" />
<path d="M71512 74622
L71480 74651
L71505 74680
L71537 74651
L71512 74622
L71505 74680
" />
<path d="M71687 74822
L71915 74822
" />
<path d="M71797 74622
L71733 75137
L71755 75194
L71808 75222
L71865 75222
" />
<path d="M72151 75222
L72097 75194
L72076 75137
L72140 74622
" />
<path d="M72612 75194
L72551 75222
L72437 75222
L72383 75194
L72362 75137
L72390 74908
L72426 74851
L72487 74822
L72601 74822
L72655 74851
L72676 74908
L72669 74965
L72376 75022
" />
<path d="M72901 75165
L72926 75194
L72894 75222
L72869 75194
L72901 75165
L72894 75222
" />
<path d="M72940 74851
L72965 74880
L72933 74908
L72908 74880
L72940 74851
L72933 74908
" />
<path d="M71172 72508
L70972 72508
" />
<path d="M70972 72822
L70972 72222
L71258 72222
" />
<path d="M71487 72822
L71487 72422
" />
<path d="M71487 72222
L71458 72251
L71487 72280
L71515 72251
L71487 72222
L71487 72280
" />
<path d="M71858 72822
L71801 72794
L71772 72737
L71772 72222
" />
<path d="M72315 72794
L72258 72822
L72144 72822
L72087 72794
L72058 72737
L72058 72508
L72087 72451
L72144 72422
L72258 72422
L72315 72451
L72344 72508
L72344 72565
L72058 72622
" />
<path d="M72601 72765
L72630 72794
L72601 72822
L72572 72794
L72601 72765
L72601 72822
" />
<path d="M72601 72451
L72630 72480
L72601 72508
L72572 72480
L72601 72451
L72601 72508
" />
<path d="M73344 72822
L73344 72422
" />
<path d="M73344 72480
L73372 72451
L73430 72422
L73515 72422
L73572 72451
L73601 72508
L73601 72822
" />
<path d="M73601 72508
L73630 72451
L73687 72422
L73772 72422
L73830 72451
L73858 72508
L73858 72822
" />
<path d="M74401 72822
L74401 72508
L74372 72451
L74315 72422
L74201 72422
L74144 72451
" />
<path d="M74401 72794
L74344 72822
L74201 72822
L74144 72794
L74115 72737
L74115 72680
L74144 72622
L74201 72594
L74344 72594
L74401 72565
" />
<path d="M74601 72422
L74830 72422
" />
<path d="M74687 72222
L74687 72737
L74715 72794
L74772 72822
L74830 72822
" />
<path d="M75030 72822
L75030 72422
" />
<path d="M75030 72537
L75058 72480
L75087 72451
L75144 72422
L75201 72422
" />
<path d="M75401 72822
L75401 72422
" />
<path d="M75401 72222
L75372 72251
L75401 72280
L75430 72251
L75401 72222
L75401 72280
" />
<path d="M75630 72822
L75944 72422
" />
<path d="M75630 72422
L75944 72822
" />
<path d="M76115 72222
L76515 72222
L76258 72822
" />
<path d="M76715 72280
L76744 72251
L76801 72222
L76944 72222
L77001 72251
L77030 72280
L77058 72337
L77058 72394
L77030 72480
L76687 72822
L77058 72822
" />
<path d="M77630 72822
L77287 72822
" />
<path d="M77458 72822
L77458 72222
L77401 72308
L77344 72365
L77287 72394
" />
<path d="M77915 72822
L78030 72822
L78087 72794
L78115 72765
L78172 72680
L78201 72565
L78201 72337
L78172 72280
L78144 72251
L78087 72222
L77972 72222
L77915 72251
L77887 72280
L77858 72337
L77858 72480
L77887 72537
L77915 72565
L77972 72594
L78087 72594
L78144 72565
L78172 72537
L78201 72480
" />
<path d="M78315 72880
L78772 72880
" />
<path d="M79201 72222
L78915 72222
L78887 72508
L78915 72480
L78972 72451
L79115 72451
L79172 72480
L79201 72508
L79230 72565
L79230 72708
L79201 72765
L79172 72794
L79115 72822
L78972 72822
L78915 72794
L78887 72765
" />
<path d="M79744 72794
L79687 72822
L79572 72822
L79515 72794
L79487 72765
L79458 72708
L79458 72537
L79487 72480
L79515 72451
L79572 72422
L79687 72422
L79744 72451
" />
<path d="M80001 72822
L80001 72422
" />
<path d="M80001 72480
L80030 72451
L80087 72422
L80172 72422
L80230 72451
L80258 72508
L80258 72822
" />
<path d="M80258 72508
L80287 72451
L80344 72422
L80430 72422
L80487 72451
L80515 72508
L80515 72822
" />
<path d="M80801 72765
L80830 72794
L80801 72822
L80772 72794
L80801 72765
L80801 72822
" />
<path d="M81087 72822
L81087 72222
" />
<path d="M81144 72594
L81315 72822
" />
<path d="M81315 72422
L81087 72651
" />
<path d="M81572 72822
L81572 72422
" />
<path d="M81572 72222
L81544 72251
L81572 72280
L81601 72251
L81572 72222
L81572 72280
" />
<path d="M82115 72794
L82058 72822
L81944 72822
L81887 72794
L81858 72765
L81830 72708
L81830 72537
L81858 72480
L81887 72451
L81944 72422
L82058 72422
L82115 72451
" />
<path d="M82630 72822
L82630 72508
L82601 72451
L82544 72422
L82430 72422
L82372 72451
" />
<path d="M82630 72794
L82572 72822
L82430 72822
L82372 72794
L82344 72737
L82344 72680
L82372 72622
L82430 72594
L82572 72594
L82630 72565
" />
<path d="M83172 72822
L83172 72222
" />
<path d="M83172 72794
L83115 72822
L83001 72822
L82944 72794
L82915 72765
L82887 72708
L82887 72537
L82915 72480
L82944 72451
L83001 72422
L83115 72422
L83172 72451
" />
<path d="M83315 72880
L83772 72880
" />
<path d="M83915 72422
L83915 73022
" />
<path d="M83915 72451
L83972 72422
L84087 72422
L84144 72451
L84172 72480
L84201 72537
L84201 72708
L84172 72765
L84144 72794
L84087 72822
L83972 72822
L83915 72794
" />
<path d="M84715 72794
L84658 72822
L84544 72822
L84487 72794
L84458 72765
L84430 72708
L84430 72537
L84458 72480
L84487 72451
L84544 72422
L84658 72422
L84715 72451
" />
<path d="M84972 72822
L84972 72222
" />
<path d="M84972 72451
L85030 72422
L85144 72422
L85201 72451
L85230 72480
L85258 72537
L85258 72708
L85230 72765
L85201 72794
L85144 72822
L85030 72822
L84972 72794
" />
<path d="M70944 73994
L71030 74022
L71172 74022
L71230 73994
L71258 73965
L71287 73908
L71287 73851
L71258 73794
L71230 73765
L71172 73737
L71058 73708
L71001 73680
L70972 73651
L70944 73594
L70944 73537
L70972 73480
L71001 73451
L71058 73422
L71201 73422
L71287 73451
" />
<path d="M71544 74022
L71544 73422
" />
<path d="M71801 74022
L71801 73708
L71772 73651
L71715 73622
L71630 73622
L71572 73651
L71544 73680
" />
<path d="M72315 73994
L72258 74022
L72144 74022
L72087 73994
L72058 73937
L72058 73708
L72087 73651
L72144 73622
L72258 73622
L72315 73651
L72344 73708
L72344 73765
L72058 73822
" />
<path d="M72830 73994
L72772 74022
L72658 74022
L72601 73994
L72572 73937
L72572 73708
L72601 73651
L72658 73622
L72772 73622
L72830 73651
L72858 73708
L72858 73765
L72572 73822
" />
<path d="M73030 73622
L73258 73622
" />
<path d="M73115 73422
L73115 73937
L73144 73994
L73201 74022
L73258 74022
" />
<path d="M73458 73965
L73487 73994
L73458 74022
L73430 73994
L73458 73965
L73458 74022
" />
<path d="M73458 73651
L73487 73680
L73458 73708
L73430 73680
L73458 73651
L73458 73708
" />
<path d="M70230 71980
L70230 77980
" />
<path d="M70230 71980
L112230 71980
" />
<path d="M70230 71980
L112230 71980
" />
<path d="M70230 74380
L112230 74380
" />
<path d="M103430 75580
L103430 77980
" />
<path d="M70230 76780
L112230 76780
" />
<path d="M70230 75580
L112230 75580
" />
<path d="M76830 75580
L76830 76780
" />
</g>
<g style="fill:#009F9F; fill-opacity:0.0; 
stroke:#009F9F; stroke-width:98.4252; stroke-opacity:1; 
stroke-linecap:round; stroke-linejoin:round;">
<path d="M76856 32489
L76669 32489
L76669 31898
" />
<path d="M76987 32179
L77118 32179
" />
<path d="M77175 32489
L76987 32489
L76987 31898
L77175 31898
" />
<path d="M77343 32489
L77343 31898
L77437 31898
L77493 31926
L77531 31982
L77550 32039
L77568 32151
L77568 32235
L77550 32348
L77531 32404
L77493 32460
L77437 32489
L77343 32489
" />
<path d="M77737 32489
L77737 31898
L77868 32320
L78000 31898
L78000 32489
" />
<path d="M78168 32320
L78356 32320
" />
<path d="M78131 32489
L78262 31898
L78393 32489
" />
<path d="M78468 31898
L78693 31898
" />
<path d="M78581 32489
L78581 31898
" />
<path d="M79049 32489
L78918 32207
" />
<path d="M78824 32489
L78824 31898
L78974 31898
L79012 31926
L79031 31954
L79049 32010
L79049 32095
L79031 32151
L79012 32179
L78974 32207
L78824 32207
" />
<path d="M79218 32489
L79218 31898
" />
<path d="M79368 31898
L79631 32489
" />
<path d="M79631 31898
L79368 32489
" />
<path d="M79687 32545
L79987 32545
" />
<path d="M80156 31898
L80193 31898
L80231 31926
L80249 31954
L80268 32010
L80287 32123
L80287 32264
L80268 32376
L80249 32432
L80231 32460
L80193 32489
L80156 32489
L80118 32460
L80099 32432
L80081 32376
L80062 32264
L80062 32123
L80081 32010
L80099 31954
L80118 31926
L80156 31898
" />
<path d="M80456 32432
L80474 32460
L80456 32489
L80437 32460
L80456 32432
L80456 32489
" />
<path d="M80606 31898
L80849 31898
L80718 32123
L80774 32123
L80812 32151
L80830 32179
L80849 32235
L80849 32376
L80830 32432
L80812 32460
L80774 32489
L80662 32489
L80624 32460
L80606 32432
" />
<path d="M76825 40009
L76900 40009
L76937 39990
L76956 39971
L76993 39915
L77012 39840
L77012 39690
L76993 39653
L76974 39634
L76937 39615
L76862 39615
L76825 39634
L76806 39653
L76787 39690
L76787 39784
L76806 39821
L76825 39840
L76862 39859
L76937 39859
L76974 39840
L76993 39821
L77012 39784
" />
<path d="M77675 47059
L77450 47059
" />
<path d="M77562 47059
L77562 46665
L77525 46721
L77487 46759
L77450 46778
" />
<path d="M77918 46665
L77956 46665
L77993 46684
L78012 46703
L78031 46740
L78049 46815
L78049 46909
L78031 46984
L78012 47021
L77993 47040
L77956 47059
L77918 47059
L77881 47040
L77862 47021
L77843 46984
L77824 46909
L77824 46815
L77843 46740
L77862 46703
L77881 46684
L77918 46665
" />
<path d="M90349 36009
L90050 36009
" />
<path d="M90349 35009
L90050 35009
" />
<path d="M90199 35159
L90199 34859
" />
<path d="M90025 34159
L89837 34159
L89837 33765
" />
<path d="M90156 34159
L90156 33765
L90249 33765
L90306 33784
L90343 33821
L90362 33859
L90381 33934
L90381 33990
L90362 34065
L90343 34103
L90306 34140
L90249 34159
L90156 34159
" />
<path d="M89925 33121
L89906 33140
L89850 33159
L89812 33159
L89756 33140
L89718 33103
L89700 33065
L89681 32990
L89681 32934
L89700 32859
L89718 32821
L89756 32784
L89812 32765
L89850 32765
L89906 32784
L89925 32803
" />
<path d="M90093 33159
L90093 32765
" />
<path d="M90318 33159
L90149 32934
" />
<path d="M90318 32765
L90093 32990
" />
<path d="M90096 32159
L90096 31765
L90190 31765
L90246 31784
L90284 31821
L90303 31859
L90321 31934
L90321 31990
L90303 32065
L90284 32103
L90246 32140
L90190 32159
L90096 32159
" />
<path d="M76906 36489
L76719 36489
L76719 35898
" />
<path d="M77037 36179
L77168 36179
" />
<path d="M77225 36489
L77037 36489
L77037 35898
L77225 35898
" />
<path d="M77393 36489
L77393 35898
L77487 35898
L77543 35926
L77581 35982
L77600 36039
L77618 36151
L77618 36235
L77600 36348
L77581 36404
L77543 36460
L77487 36489
L77393 36489
" />
<path d="M77787 36489
L77787 35898
L77918 36320
L78050 35898
L78050 36489
" />
<path d="M78218 36320
L78406 36320
" />
<path d="M78181 36489
L78312 35898
L78443 36489
" />
<path d="M78518 35898
L78743 35898
" />
<path d="M78631 36489
L78631 35898
" />
<path d="M79099 36489
L78968 36207
" />
<path d="M78874 36489
L78874 35898
L79024 35898
L79062 35926
L79081 35954
L79099 36010
L79099 36095
L79081 36151
L79062 36179
L79024 36207
L78874 36207
" />
<path d="M79268 36489
L79268 35898
" />
<path d="M79418 35898
L79681 36489
" />
<path d="M79681 35898
L79418 36489
" />
<path d="M79737 36545
L80037 36545
" />
<path d="M80206 35898
L80243 35898
L80281 35926
L80299 35954
L80318 36010
L80337 36123
L80337 36264
L80318 36376
L80299 36432
L80281 36460
L80243 36489
L80206 36489
L80168 36460
L80149 36432
L80131 36376
L80112 36264
L80112 36123
L80131 36010
L80149 35954
L80168 35926
L80206 35898
" />
<path d="M80506 36432
L80524 36460
L80506 36489
L80487 36460
L80506 36432
L80506 36489
" />
<path d="M80656 35898
L80899 35898
L80768 36123
L80824 36123
L80862 36151
L80880 36179
L80899 36235
L80899 36376
L80880 36432
L80862 36460
L80824 36489
L80712 36489
L80674 36460
L80656 36432
" />
</g>
<g style="fill:#FFFF00; fill-opacity:0.0; 
stroke:#FFFF00; stroke-width:39.3701; stroke-opacity:1; 
stroke-linecap:round; stroke-linejoin:round;">
<path d="M72500 48250
L72500 28750
" />
<path d="M92000 48250
L72500 48250
" />
<path d="M92000 28750
L92000 48250
" />
<path d="M72500 28750
L92000 28750
" />
</g>
<g style="fill:#009F9F; fill-opacity:0.0; 
stroke:#009F9F; stroke-width:78.7402; stroke-opacity:1; 
stroke-linecap:round; stroke-linejoin:round;">
<path d="M92000 28750
L72500 28750
" />
<path d="M92000 48250
L92000 28750
" />
<path d="M72500 48250
L92000 48250
" />
<path d="M72500 28750
L72500 48250
" />
<path d="M85750 38750
L86000 38750
" />
<path d="M85750 29250
L85750 38750
" />
<path d="M78750 29250
L78750 47500
" />
</g>
<g style="fill:#009F9F; fill-opacity:0.0; 
stroke:#009F9F; stroke-width:120; stroke-opacity:1; 
stroke-linecap:round; stroke-linejoin:round;">
</g>
<g style="fill:#009F9F; fill-opacity:0.0; 
stroke:#009F9F; stroke-width:100; stroke-opacity:1; 
stroke-linecap:round; stroke-linejoin:round;">
<path d="M86685 29142
L86685 29628
L86704 29685
L86723 29714
L86761 29742
L86838 29742
L86876 29714
L86895 29685
L86914 29628
L86914 29142
" />
<path d="M87104 29742
L87104 29142
L87257 29142
L87295 29171
L87314 29200
L87333 29257
L87333 29342
L87314 29400
L87295 29428
L87257 29457
L87104 29457
" />
</g>
<g style="fill:#009F9F; fill-opacity:0.0; 
stroke:#009F9F; stroke-width:120; stroke-opacity:1; 
stroke-linecap:round; stroke-linejoin:round;">
</g>
<g style="fill:#009F9F; fill-opacity:0.0; 
stroke:#009F9F; stroke-width:100; stroke-opacity:1; 
stroke-linecap:round; stroke-linejoin:round;">
<path d="M86557 47892
L86557 47292
L86652 47292
L86709 47321
L86747 47378
L86766 47435
L86785 47550
L86785 47635
L86766 47750
L86747 47807
L86709 47864
L86652 47892
L86557 47892
" />
<path d="M87033 47292
L87109 47292
L87147 47321
L87185 47378
L87204 47492
L87204 47692
L87185 47807
L87147 47864
L87109 47892
L87033 47892
L86995 47864
L86957 47807
L86938 47692
L86938 47492
L86957 47378
L86995 47321
L87033 47292
" />
<path d="M87338 47292
L87433 47892
L87509 47464
L87585 47892
L87680 47292
" />
<path d="M87833 47892
L87833 47292
L88061 47892
L88061 47292
" />
<path d="M88442 47292
L88252 47292
L88233 47578
L88252 47550
L88290 47521
L88385 47521
L88423 47550
L88442 47578
L88461 47635
L88461 47778
L88442 47835
L88423 47864
L88385 47892
L88290 47892
L88252 47864
L88233 47835
" />
</g>
<g style="fill:#009F9F; fill-opacity:0.0; 
stroke:#009F9F; stroke-width:120; stroke-opacity:1; 
stroke-linecap:round; stroke-linejoin:round;">
</g>
<g style="fill:#009F9F; fill-opacity:0.0; 
stroke:#009F9F; stroke-width:80; stroke-opacity:1; 
stroke-linecap:round; stroke-linejoin:round;">
<path d="M89622 34647
L89622 34933
" />
<path d="M89622 34790
L89072 34790
L89151 34838
L89203 34885
L89229 34933
" />
<path d="M89072 34338
L89072 34290
L89098 34242
L89125 34219
L89177 34195
L89282 34171
L89413 34171
L89517 34195
L89570 34219
L89596 34242
L89622 34290
L89622 34338
L89596 34385
L89570 34409
L89517 34433
L89413 34457
L89282 34457
L89177 34433
L89125 34409
L89098 34385
L89072 34338
" />
<path d="M89622 33957
L89072 33957
" />
<path d="M89413 33909
L89622 33766
" />
<path d="M89255 33766
L89465 33957
" />
<path d="M79866 42325
L79890 42298
L79938 42272
L80057 42272
L80104 42298
L80128 42325
L80152 42377
L80152 42429
L80128 42508
L79842 42822
L80152 42822
" />
<path d="M80319 42272
L80652 42272
L80438 42822
" />
<path d="M80842 42822
L80842 42272
" />
<path d="M80890 42613
L81033 42822
" />
<path d="M81033 42455
L80842 42665
" />
</g>
<g style="fill:#009F9F; fill-opacity:0.0; 
stroke:#009F9F; stroke-width:120; stroke-opacity:1; 
stroke-linecap:round; stroke-linejoin:round;">
</g>
<g style="fill:#009F9F; fill-opacity:0.0; 
stroke:#009F9F; stroke-width:112.5; stroke-opacity:1; 
stroke-linecap:round; stroke-linejoin:round;">
<path d="M83682 32183
L83982 32183
L83789 32883
" />
<path d="M84132 32250
L84153 32216
L84196 32183
L84303 32183
L84346 32216
L84367 32250
L84389 32316
L84389 32383
L84367 32483
L84110 32883
L84389 32883
" />
<path d="M84817 32883
L84560 32883
" />
<path d="M84689 32883
L84689 32183
L84646 32283
L84603 32350
L84560 32383
" />
<path d="M85032 32883
L85117 32883
L85160 32850
L85182 32816
L85225 32716
L85246 32583
L85246 32316
L85225 32250
L85203 32216
L85160 32183
L85075 32183
L85032 32216
L85010 32250
L84989 32316
L84989 32483
L85010 32550
L85032 32583
L85075 32616
L85160 32616
L85203 32583
L85225 32550
L85246 32483
" />
<path d="M85439 32883
L85439 32183
" />
<path d="M85696 32883
L85503 32483
" />
<path d="M85696 32183
L85439 32583
" />
</g>
<g style="fill:#009F9F; fill-opacity:0.0; 
stroke:#009F9F; stroke-width:120; stroke-opacity:1; 
stroke-linecap:round; stroke-linejoin:round;">
</g>
<g style="fill:#009F9F; fill-opacity:0.0; 
stroke:#009F9F; stroke-width:80; stroke-opacity:1; 
stroke-linecap:round; stroke-linejoin:round;">
<path d="M75823 34158
L75842 34175
L75861 34225
L75861 34258
L75842 34308
L75804 34341
L75766 34358
L75690 34375
L75633 34375
L75557 34358
L75519 34341
L75480 34308
L75461 34258
L75461 34225
L75480 34175
L75500 34158
" />
<path d="M75500 34025
L75480 34008
L75461 33975
L75461 33891
L75480 33858
L75500 33841
L75538 33825
L75576 33825
L75633 33841
L75861 34041
L75861 33825
" />
<path d="M74362 34608
L74362 34808
" />
<path d="M74362 34708
L73962 34708
L74020 34741
L74058 34775
L74077 34808
" />
<path d="M73962 34391
L73962 34358
L73981 34325
L74001 34308
L74039 34291
L74115 34275
L74210 34275
L74286 34291
L74324 34308
L74343 34325
L74362 34358
L74362 34391
L74343 34425
L74324 34441
L74286 34458
L74210 34475
L74115 34475
L74039 34458
L74001 34441
L73981 34425
L73962 34391
" />
<path d="M74096 33708
L74362 33708
" />
<path d="M74096 33858
L74305 33858
L74343 33841
L74362 33808
L74362 33758
L74343 33725
L74324 33708
" />
<path d="M74153 33425
L74153 33541
" />
<path d="M74362 33541
L73962 33541
L73962 33375
" />
<path d="M74914 35527
L74914 35070
" />
<path d="M75142 35298
L74685 35298
" />
<path d="M74142 32461
L74180 32461
L74219 32480
L74238 32500
L74257 32538
L74276 32614
L74276 32709
L74257 32785
L74238 32823
L74219 32842
L74180 32861
L74142 32861
L74104 32842
L74085 32823
L74066 32785
L74047 32709
L74047 32614
L74066 32538
L74085 32500
L74104 32480
L74142 32461
" />
<path d="M74447 32823
L74466 32842
L74447 32861
L74428 32842
L74447 32823
L74447 32861
" />
<path d="M74847 32861
L74619 32861
" />
<path d="M74733 32861
L74733 32461
L74695 32519
L74657 32557
L74619 32576
" />
<path d="M75190 32595
L75190 32861
" />
<path d="M75019 32595
L75019 32804
L75038 32842
L75076 32861
L75133 32861
L75171 32842
L75190 32823
" />
<path d="M75514 32652
L75380 32652
" />
<path d="M75380 32861
L75380 32461
L75571 32461
" />
</g>
<g style="fill:#009F9F; fill-opacity:0.0; 
stroke:#009F9F; stroke-width:120; stroke-opacity:1; 
stroke-linecap:round; stroke-linejoin:round;">
</g>
<g style="fill:#009F9F; fill-opacity:0.0; 
stroke:#009F9F; stroke-width:100; stroke-opacity:1; 
stroke-linecap:round; stroke-linejoin:round;">
<path d="M87457 39042
L87457 38442
L87552 38442
L87609 38471
L87647 38528
L87666 38585
L87685 38700
L87685 38785
L87666 38900
L87647 38957
L87609 39014
L87552 39042
L87457 39042
" />
<path d="M87933 38442
L88009 38442
L88047 38471
L88085 38528
L88104 38642
L88104 38842
L88085 38957
L88047 39014
L88009 39042
L87933 39042
L87895 39014
L87857 38957
L87838 38842
L87838 38642
L87857 38528
L87895 38471
L87933 38442
" />
<path d="M88238 38442
L88333 39042
L88409 38614
L88485 39042
L88580 38442
" />
<path d="M88733 39042
L88733 38442
L88961 39042
L88961 38442
" />
<path d="M89114 38442
L89361 38442
L89228 38671
L89285 38671
L89323 38700
L89342 38728
L89361 38785
L89361 38928
L89342 38985
L89323 39014
L89285 39042
L89171 39042
L89133 39014
L89114 38985
" />
</g>
<g style="fill:#009F9F; fill-opacity:0.0; 
stroke:#009F9F; stroke-width:120; stroke-opacity:1; 
stroke-linecap:round; stroke-linejoin:round;">
</g>
<g style="fill:#009F9F; fill-opacity:0.0; 
stroke:#009F9F; stroke-width:100; stroke-opacity:1; 
stroke-linecap:round; stroke-linejoin:round;">
<path d="M89414 46292
L89414 45692
L89566 45692
L89604 45721
L89623 45750
L89642 45807
L89642 45892
L89623 45950
L89604 45978
L89566 46007
L89414 46007
" />
<path d="M89814 46292
L89814 45692
L89947 46121
L90080 45692
L90080 46292
" />
<path d="M90176 46350
L90480 46350
" />
<path d="M90709 45978
L90766 46007
L90785 46035
L90804 46092
L90804 46178
L90785 46235
L90766 46264
L90728 46292
L90576 46292
L90576 45692
L90709 45692
L90747 45721
L90766 45750
L90785 45807
L90785 45864
L90766 45921
L90747 45950
L90709 45978
L90576 45978
" />
</g>
<g style="fill:#009F9F; fill-opacity:0.0; 
stroke:#009F9F; stroke-width:120; stroke-opacity:1; 
stroke-linecap:round; stroke-linejoin:round;">
</g>
<g style="fill:#009F9F; fill-opacity:0.0; 
stroke:#009F9F; stroke-width:100; stroke-opacity:1; 
stroke-linecap:round; stroke-linejoin:round;">
<path d="M76842 39392
L76842 38792
L76995 38792
L77033 38821
L77052 38850
L77071 38907
L77071 38992
L77052 39050
L77033 39078
L76995 39107
L76842 39107
" />
<path d="M77242 39392
L77242 38792
L77376 39221
L77509 38792
L77509 39392
" />
<path d="M77604 39450
L77909 39450
" />
<path d="M77985 39221
L78176 39221
" />
<path d="M77947 39392
L78080 38792
L78214 39392
" />
</g>
<g style="fill:#009F9F; fill-opacity:0.0; 
stroke:#009F9F; stroke-width:120; stroke-opacity:1; 
stroke-linecap:round; stroke-linejoin:round;">
</g>
<g style="fill:#009F9F; fill-opacity:0.0; 
stroke:#009F9F; stroke-width:112.5; stroke-opacity:1; 
stroke-linecap:round; stroke-linejoin:round;">
<path d="M83714 36283
L84014 36283
L83821 36983
" />
<path d="M84164 36350
L84185 36316
L84228 36283
L84335 36283
L84378 36316
L84400 36350
L84421 36416
L84421 36483
L84400 36583
L84142 36983
L84421 36983
" />
<path d="M84850 36983
L84592 36983
" />
<path d="M84721 36983
L84721 36283
L84678 36383
L84635 36450
L84592 36483
" />
<path d="M85064 36983
L85150 36983
L85192 36950
L85214 36916
L85257 36816
L85278 36683
L85278 36416
L85257 36350
L85235 36316
L85192 36283
L85107 36283
L85064 36316
L85042 36350
L85021 36416
L85021 36583
L85042 36650
L85064 36683
L85107 36716
L85192 36716
L85235 36683
L85257 36650
L85278 36583
" />
<path d="M85449 36783
L85664 36783
" />
<path d="M85407 36983
L85557 36283
L85707 36983
" />
</g>
<g style="fill:#009F9F; fill-opacity:0.0; 
stroke:#009F9F; stroke-width:120; stroke-opacity:1; 
stroke-linecap:round; stroke-linejoin:round;">
</g>
<g style="fill:#009F9F; fill-opacity:0.0; 
stroke:#009F9F; stroke-width:100; stroke-opacity:1; 
stroke-linecap:round; stroke-linejoin:round;">
<path d="M74728 42228
L74785 42257
L74804 42285
L74823 42342
L74823 42428
L74804 42485
L74785 42514
L74747 42542
L74595 42542
L74595 41942
L74728 41942
L74766 41971
L74785 42000
L74804 42057
L74804 42114
L74785 42171
L74766 42200
L74728 42228
L74595 42228
" />
<path d="M74995 42542
L74995 41942
L75128 42371
L75261 41942
L75261 42542
" />
<path d="M75452 42542
L75452 41942
L75604 41942
L75642 41971
L75661 42000
L75680 42057
L75680 42142
L75661 42200
L75642 42228
L75604 42257
L75452 42257
" />
<path d="M76061 42542
L75833 42542
" />
<path d="M75947 42542
L75947 41942
L75909 42028
L75871 42085
L75833 42114
" />
<path d="M76290 42200
L76252 42171
L76233 42142
L76214 42085
L76214 42057
L76233 42000
L76252 41971
L76290 41942
L76366 41942
L76404 41971
L76423 42000
L76442 42057
L76442 42085
L76423 42142
L76404 42171
L76366 42200
L76290 42200
L76252 42228
L76233 42257
L76214 42314
L76214 42428
L76233 42485
L76252 42514
L76290 42542
L76366 42542
L76404 42514
L76423 42485
L76442 42428
L76442 42314
L76423 42257
L76404 42228
L76366 42200
" />
<path d="M76690 41942
L76728 41942
L76766 41971
L76785 42000
L76804 42057
L76823 42171
L76823 42314
L76804 42428
L76785 42485
L76766 42514
L76728 42542
L76690 42542
L76652 42514
L76633 42485
L76614 42428
L76595 42314
L76595 42171
L76614 42057
L76633 42000
L76652 41971
L76690 41942
" />
</g>
<g style="fill:#009F9F; fill-opacity:0.0; 
stroke:#009F9F; stroke-width:80; stroke-opacity:1; 
stroke-linecap:round; stroke-linejoin:round;">
<path d="M78852 41572
L78566 41572
" />
<path d="M78709 41572
L78709 41022
L78661 41101
L78614 41153
L78566 41179
" />
<path d="M79161 41022
L79209 41022
L79257 41048
L79280 41075
L79304 41127
L79328 41232
L79328 41363
L79304 41467
L79280 41520
L79257 41546
L79209 41572
L79161 41572
L79114 41546
L79090 41520
L79066 41467
L79042 41363
L79042 41232
L79066 41127
L79090 41075
L79114 41048
L79161 41022
" />
<path d="M79542 41572
L79542 41022
" />
<path d="M79590 41363
L79733 41572
" />
<path d="M79733 41205
L79542 41415
" />
<path d="M87522 42697
L87522 42983
" />
<path d="M87522 42840
L86972 42840
L87051 42888
L87103 42935
L87129 42983
" />
<path d="M86972 42388
L86972 42340
L86998 42292
L87025 42269
L87077 42245
L87182 42221
L87313 42221
L87417 42245
L87470 42269
L87496 42292
L87522 42340
L87522 42388
L87496 42435
L87470 42459
L87417 42483
L87313 42507
L87182 42507
L87077 42483
L87025 42459
L86998 42435
L86972 42388
" />
<path d="M87522 42007
L86972 42007
" />
<path d="M87313 41959
L87522 41816
" />
<path d="M87155 41816
L87365 42007
" />
<path d="M86672 42647
L86672 42933
" />
<path d="M86672 42790
L86122 42790
L86201 42838
L86253 42885
L86279 42933
" />
<path d="M86122 42338
L86122 42290
L86148 42242
L86175 42219
L86227 42195
L86332 42171
L86463 42171
L86567 42195
L86620 42219
L86646 42242
L86672 42290
L86672 42338
L86646 42385
L86620 42409
L86567 42433
L86463 42457
L86332 42457
L86227 42433
L86175 42409
L86148 42385
L86122 42338
" />
<path d="M86672 41957
L86122 41957
" />
<path d="M86463 41909
L86672 41766
" />
<path d="M86305 41766
L86515 41957
" />
<path d="M89367 40702
L89367 40202
L89539 40202
L89582 40226
L89603 40250
L89625 40297
L89625 40369
L89603 40416
L89582 40440
L89539 40464
L89367 40464
" />
<path d="M89882 40416
L89839 40392
L89817 40369
L89796 40321
L89796 40297
L89817 40250
L89839 40226
L89882 40202
L89967 40202
L90010 40226
L90032 40250
L90053 40297
L90053 40321
L90032 40369
L90010 40392
L89967 40416
L89882 40416
L89839 40440
L89817 40464
L89796 40511
L89796 40607
L89817 40654
L89839 40678
L89882 40702
L89967 40702
L90010 40678
L90032 40654
L90053 40607
L90053 40511
L90032 40464
L90010 40440
L89967 40416
" />
<path d="M89902 44057
L89402 44057
L89402 43961
L89426 43904
L89473 43866
L89521 43847
L89616 43828
L89688 43828
L89783 43847
L89830 43866
L89878 43904
L89902 43961
L89902 44057
" />
<path d="M89878 43676
L89902 43619
L89902 43523
L89878 43485
L89854 43466
L89807 43447
L89759 43447
L89711 43466
L89688 43485
L89664 43523
L89640 43599
L89616 43638
L89592 43657
L89545 43676
L89497 43676
L89450 43657
L89426 43638
L89402 43599
L89402 43504
L89426 43447
" />
<path d="M89902 43066
L89902 43295
" />
<path d="M89902 43180
L89402 43180
L89473 43219
L89521 43257
L89545 43295
" />
<path d="M89402 42933
L89402 42685
L89592 42819
L89592 42761
L89616 42723
L89640 42704
L89688 42685
L89807 42685
L89854 42704
L89878 42723
L89902 42761
L89902 42876
L89878 42914
L89854 42933
" />
<path d="M89402 42438
L89402 42400
L89426 42361
L89450 42342
L89497 42323
L89592 42304
L89711 42304
L89807 42323
L89854 42342
L89878 42361
L89902 42400
L89902 42438
L89878 42476
L89854 42495
L89807 42514
L89711 42533
L89592 42533
L89497 42514
L89450 42495
L89426 42476
L89402 42438
" />
<path d="M89402 42171
L89402 41904
L89902 42076
" />
</g>
<g style="fill:#009F9F; fill-opacity:0.0; 
stroke:#009F9F; stroke-width:100; stroke-opacity:1; 
stroke-linecap:round; stroke-linejoin:round;">
<path d="M75033 40692
L75033 40092
L75128 40092
L75185 40121
L75223 40178
L75242 40235
L75261 40350
L75261 40435
L75242 40550
L75223 40607
L75185 40664
L75128 40692
L75033 40692
" />
<path d="M75433 40692
L75433 40092
" />
<path d="M75433 40378
L75661 40378
" />
<path d="M75661 40692
L75661 40092
" />
<path d="M75795 40092
L76023 40092
" />
<path d="M75909 40692
L75909 40092
" />
</g>
<g style="fill:#009F9F; fill-opacity:0.0; 
stroke:#009F9F; stroke-width:59.0551; stroke-opacity:1; 
stroke-linecap:round; stroke-linejoin:round;">
<path d="M90965 38959
L90984 38903
L91003 38884
L91040 38865
L91096 38865
L91134 38884
L91153 38903
L91171 38940
L91171 39090
L90778 39090
L90778 38959
L90797 38921
L90815 38903
L90853 38884
L90890 38884
L90928 38903
L90946 38921
L90965 38959
L90965 39090
" />
<path d="M90778 38734
L90778 38490
L90928 38621
L90928 38565
L90946 38528
L90965 38509
L91003 38490
L91096 38490
L91134 38509
L91153 38528
L91171 38565
L91171 38678
L91153 38715
L91134 38734
" />
<path d="M73440 38959
L73459 38903
L73478 38884
L73515 38865
L73571 38865
L73609 38884
L73628 38903
L73646 38940
L73646 39090
L73253 39090
L73253 38959
L73271 38921
L73290 38903
L73328 38884
L73365 38884
L73403 38903
L73421 38921
L73440 38959
L73440 39090
" />
<path d="M73290 38715
L73271 38696
L73253 38659
L73253 38565
L73271 38528
L73290 38509
L73328 38490
L73365 38490
L73421 38509
L73646 38734
L73646 38490
" />
<path d="M89940 29640
L89996 29659
L90015 29678
L90034 29715
L90034 29771
L90015 29809
L89996 29828
L89959 29846
L89809 29846
L89809 29453
L89940 29453
L89978 29471
L89996 29490
L90015 29528
L90015 29565
L89996 29603
L89978 29621
L89940 29640
L89809 29640
" />
<path d="M90409 29846
L90184 29846
" />
<path d="M90296 29846
L90296 29453
L90259 29509
L90221 29546
L90184 29565
" />
<path d="M74240 29640
L74296 29659
L74315 29678
L74334 29715
L74334 29771
L74315 29809
L74296 29828
L74259 29846
L74109 29846
L74109 29453
L74240 29453
L74278 29471
L74296 29490
L74315 29528
L74315 29565
L74296 29603
L74278 29621
L74240 29640
L74109 29640
" />
<path d="M74578 29453
L74615 29453
L74653 29471
L74671 29490
L74690 29528
L74709 29603
L74709 29696
L74690 29771
L74671 29809
L74653 29828
L74615 29846
L74578 29846
L74540 29828
L74521 29809
L74503 29771
L74484 29696
L74484 29603
L74503 29528
L74521 29490
L74540 29471
L74578 29453
" />
</g>
<g style="fill:#009F9F; fill-opacity:0.0; 
stroke:#009F9F; stroke-width:100; stroke-opacity:1; 
stroke-linecap:round; stroke-linejoin:round;">
<path d="M73992 36399
L73992 36323
L74021 36285
L74078 36247
L74192 36228
L74392 36228
L74507 36247
L74564 36285
L74592 36323
L74592 36399
L74564 36438
L74507 36476
L74392 36495
L74192 36495
L74078 36476
L74021 36438
L73992 36399
" />
<path d="M73992 36057
L74478 36057
L74535 36038
L74564 36019
L74592 35980
L74592 35904
L74564 35866
L74535 35847
L74478 35828
L73992 35828
" />
<path d="M73992 35695
L73992 35466
" />
<path d="M74592 35580
L73992 35580
" />
<path d="M90442 34359
L89842 34359
" />
<path d="M90442 34169
L89842 34169
L90442 33940
L89842 33940
" />
<path d="M74292 46240
L73692 46240
" />
<path d="M73750 46069
L73721 46049
L73692 46011
L73692 45916
L73721 45878
L73750 45859
L73807 45840
L73864 45840
L73950 45859
L74292 46088
L74292 45840
" />
<path d="M74235 45440
L74264 45459
L74292 45516
L74292 45554
L74264 45611
L74207 45649
L74150 45669
L74035 45688
L73950 45688
L73835 45669
L73778 45649
L73721 45611
L73692 45554
L73692 45516
L73721 45459
L73750 45440
" />
<path d="M75614 46209
L75642 46152
L75642 46057
L75614 46019
L75585 46000
L75528 45980
L75471 45980
L75414 46000
L75385 46019
L75357 46057
L75328 46133
L75300 46171
L75271 46190
L75214 46209
L75157 46209
L75100 46190
L75071 46171
L75042 46133
L75042 46038
L75071 45980
" />
<path d="M75642 45809
L75042 45809
L75042 45657
L75071 45619
L75100 45600
L75157 45580
L75242 45580
L75300 45600
L75328 45619
L75357 45657
L75357 45809
" />
<path d="M75642 45409
L75042 45409
" />
<path d="M76971 46276
L76971 46085
" />
<path d="M77142 46314
L76542 46180
L77142 46047
" />
<path d="M76542 45838
L76542 45800
L76571 45761
L76600 45742
L76657 45723
L76771 45704
L76914 45704
L77028 45723
L77085 45742
L77114 45761
L77142 45800
L77142 45838
L77114 45876
L77085 45895
L77028 45914
L76914 45933
L76771 45933
L76657 45914
L76600 45895
L76571 45876
L76542 45838
" />
<path d="M76542 45571
L76542 45323
L76771 45457
L76771 45400
L76800 45361
L76828 45342
L76885 45323
L77028 45323
L77085 45342
L77114 45361
L77142 45400
L77142 45514
L77114 45552
L77085 45571
" />
<path d="M84606 42121
L84816 41721
" />
<path d="M84606 41721
L84816 42121
" />
<path d="M84911 41721
L85063 41721
" />
<path d="M84968 41521
L84968 42035
L84987 42092
L85025 42121
L85063 42121
" />
<path d="M85254 42121
L85216 42092
L85196 42035
L85196 41521
" />
<path d="M91642 45783
L91042 45783
L91042 45630
L91071 45592
L91100 45573
L91157 45554
L91242 45554
L91300 45573
L91328 45592
L91357 45630
L91357 45783
" />
<path d="M91042 45421
L91642 45326
L91214 45250
L91642 45173
L91042 45078
" />
</g>
<g style="fill:#009F9F; fill-opacity:0.0; 
stroke:#009F9F; stroke-width:120; stroke-opacity:1; 
stroke-linecap:round; stroke-linejoin:round;">
<path d="M78250 28950
L86250 28950
" />
<path d="M86250 28950
L86250 29950
" />
<path d="M86250 29950
L78250 29950
" />
<path d="M78250 29950
L78250 28950
" />
<path d="M79250 29950
L79250 28950
" />
<path d="M86250 48150
L78250 48150
" />
<path d="M78250 48150
L78250 47150
" />
<path d="M78250 47150
L86250 47150
" />
<path d="M86250 47150
L86250 48150
" />
<path d="M85250 47150
L85250 48150
" />
<path d="M89400 31600
L89400 32000
" />
<path d="M89400 32000
L89800 32000
" />
<path d="M89800 32000
L89800 35200
" />
<path d="M89800 35200
L89000 35200
" />
<path d="M89000 35200
L89000 32000
" />
<path d="M89000 32000
L89400 32000
" />
<path d="M89600 32000
L89800 32200
" />
<path d="M89400 35600
L89400 35200
" />
<path d="M81700 42600
L81300 42600
" />
<path d="M81300 42600
L81300 43000
" />
<path d="M81300 43000
L78100 43000
" />
<path d="M78100 43000
L78100 42200
" />
<path d="M78100 42200
L81300 42200
" />
<path d="M81300 42200
L81300 42600
" />
<path d="M81300 42800
L81100 43000
" />
<path d="M77700 42600
L78100 42600
" />
</g>
<g style="fill:#009F9F; fill-opacity:0.0; 
stroke:#009F9F; stroke-width:150; stroke-opacity:1; 
stroke-linecap:round; stroke-linejoin:round;">
<path d="M75700 31600
L76200 31600
" />
<path d="M76200 31600
L76200 32600
" />
<path d="M76200 32600
L75700 32600
" />
<path d="M75700 32600
L75700 32600
" />
<path d="M75700 31100
L88700 31100
" />
<path d="M88700 31100
L88700 33100
" />
<path d="M88700 33100
L75700 33100
" />
<path d="M75700 33100
L75700 31100
" />
</g>
<g style="fill:#009F9F; fill-opacity:0.0; 
stroke:#009F9F; stroke-width:80; stroke-opacity:1; 
stroke-linecap:round; stroke-linejoin:round;">
<circle cx="74900" cy="34100" r="1600" /> 
</g>
<g style="fill:#009F9F; fill-opacity:0.0; 
stroke:#009F9F; stroke-width:120; stroke-opacity:1; 
stroke-linecap:round; stroke-linejoin:round;">
<path d="M73820 31400
L75800 31400
" />
<path d="M75800 31400
L75800 32400
" />
<path d="M75800 32400
L73800 32400
" />
<path d="M73800 32400
L73800 31400
" />
<path d="M73800 31650
L74050 31400
" />
<path d="M86250 39250
L78250 39250
" />
<path d="M78250 39250
L78250 38250
" />
<path d="M78250 38250
L86250 38250
" />
<path d="M86250 38250
L86250 39250
" />
<path d="M85250 38250
L85250 39250
" />
<path d="M77250 46500
L77250 46500
" />
<path d="M77250 46500
L77250 45500
" />
<path d="M77250 45500
L87250 45500
" />
<path d="M87250 46500
L77250 46500
" />
<path d="M78250 46500
L78250 45500
" />
<path d="M87250 45500
L89000 45500
" />
<path d="M89000 45500
L89250 45500
" />
<path d="M89250 45500
L89250 46500
" />
<path d="M89250 46500
L87250 46500
" />
<path d="M89250 39500
L89250 39500
" />
<path d="M89250 39500
L89250 40500
" />
<path d="M89250 40500
L79250 40500
" />
<path d="M79250 39500
L89250 39500
" />
<path d="M88250 39500
L88250 40500
" />
<path d="M79250 40500
L77500 40500
" />
<path d="M77500 40500
L77250 40500
" />
<path d="M77250 40500
L77250 39500
" />
<path d="M77250 39500
L79250 39500
" />
</g>
<g style="fill:#009F9F; fill-opacity:0.0; 
stroke:#009F9F; stroke-width:150; stroke-opacity:1; 
stroke-linecap:round; stroke-linejoin:round;">
<path d="M75700 35700
L76200 35700
" />
<path d="M76200 35700
L76200 36700
" />
<path d="M76200 36700
L75700 36700
" />
<path d="M75700 36700
L75700 36700
" />
<path d="M75700 35200
L88700 35200
" />
<path d="M88700 35200
L88700 37200
" />
<path d="M88700 37200
L75700 37200
" />
<path d="M75700 37200
L75700 35200
" />
</g>
<g style="fill:#009F9F; fill-opacity:0.0; 
stroke:#009F9F; stroke-width:120; stroke-opacity:1; 
stroke-linecap:round; stroke-linejoin:round;">
<path d="M72900 42600
L72900 42600
" />
<path d="M72900 43600
L72900 42600
" />
<path d="M72900 42600
L72900 42600
" />
<path d="M72900 42600
L76900 42600
" />
<path d="M76900 42600
L76900 43600
" />
<path d="M76900 43600
L72900 43600
" />
<path d="M73900 43600
L73900 42600
" />
<path d="M83750 45500
L83750 44500
" />
<path d="M83750 44500
L85750 44500
" />
<path d="M85750 44500
L85750 45500
" />
<path d="M85750 45500
L83750 45500
" />
<path d="M81700 41400
L81300 41400
" />
<path d="M81300 41400
L81300 41800
" />
<path d="M81300 41800
L78100 41800
" />
<path d="M78100 41800
L78100 41000
" />
<path d="M78100 41000
L81300 41000
" />
<path d="M81300 41000
L81300 41400
" />
<path d="M81300 41600
L81100 41800
" />
<path d="M77700 41400
L78100 41400
" />
<path d="M87300 45000
L87300 44600
" />
<path d="M87300 44600
L86900 44600
" />
<path d="M86900 44600
L86900 41400
" />
<path d="M86900 41400
L87700 41400
" />
<path d="M87700 41400
L87700 44600
" />
<path d="M87700 44600
L87300 44600
" />
<path d="M87100 44600
L86900 44400
" />
<path d="M87300 41000
L87300 41400
" />
<path d="M86400 45000
L86400 44600
" />
<path d="M86400 44600
L86000 44600
" />
<path d="M86000 44600
L86000 41400
" />
<path d="M86000 41400
L86800 41400
" />
<path d="M86800 41400
L86800 44600
" />
<path d="M86800 44600
L86400 44600
" />
<path d="M86200 44600
L86000 44400
" />
<path d="M86400 41000
L86400 41400
" />
</g>
<g style="fill:#009F9F; fill-opacity:0.0; 
stroke:#009F9F; stroke-width:100; stroke-opacity:1; 
stroke-linecap:round; stroke-linejoin:round;">
<path d="M90200 41000
L90200 41500
" />
<path d="M90200 41500
L89200 41500
" />
<path d="M89200 41500
L89200 41000
" />
<path d="M90700 41000
L90700 45000
" />
<path d="M90700 45000
L88700 45000
" />
<path d="M88700 45000
L88700 41000
" />
<path d="M88700 41000
L90700 41000
" />
</g>
<g style="fill:#009F9F; fill-opacity:0.0; 
stroke:#009F9F; stroke-width:120; stroke-opacity:1; 
stroke-linecap:round; stroke-linejoin:round;">
<path d="M72900 40900
L72900 40900
" />
<path d="M72900 41900
L72900 40900
" />
<path d="M72900 40900
L72900 40900
" />
<path d="M72900 40900
L76900 40900
" />
<path d="M76900 40900
L76900 41900
" />
<path d="M76900 41900
L72900 41900
" />
<path d="M73900 41900
L73900 40900
" />
</g>
<g style="fill:#009F9F; fill-opacity:0.0; 
stroke:#009F9F; stroke-width:59.0551; stroke-opacity:1; 
stroke-linecap:round; stroke-linejoin:round;">
<path d="M89634 40768
L91996 40768
" />
<path d="M91996 40768
L91996 36831
" />
<path d="M91996 36831
L89634 36831
" />
<path d="M89634 36831
L89634 40768
" />
<path d="M74865 36831
L72503 36831
" />
<path d="M72503 36831
L72503 40768
" />
<path d="M72503 40768
L74865 40768
" />
<path d="M74865 40768
L74865 36831
" />
<path d="M92068 31065
L92068 28703
" />
<path d="M92068 28703
L88131 28703
" />
<path d="M88131 28703
L88131 31065
" />
<path d="M88131 31065
L92068 31065
" />
<path d="M76368 31065
L76368 28703
" />
<path d="M76368 28703
L72431 28703
" />
<path d="M72431 28703
L72431 31065
" />
<path d="M72431 31065
L76368 31065
" />
</g>
<g style="fill:#009F9F; fill-opacity:0.0; 
stroke:#009F9F; stroke-width:120; stroke-opacity:1; 
stroke-linecap:round; stroke-linejoin:round;">
<path d="M72800 31700
L73800 31700
" />
<path d="M73800 31700
L73800 36700
" />
<path d="M73800 36700
L72800 36700
" />
<path d="M72800 36700
L72800 31700
" />
<path d="M72800 32700
L73800 32700
" />
<path d="M90600 31700
L91600 31700
" />
<path d="M91600 31700
L91600 36700
" />
<path d="M91600 36700
L90600 36700
" />
<path d="M90600 36700
L90600 31700
" />
<path d="M90600 32700
L91600 32700
" />
<path d="M73900 43850
L73900 43850
" />
<path d="M72900 43850
L73900 43850
" />
<path d="M73900 43850
L73900 43850
" />
<path d="M73900 43850
L73900 47850
" />
<path d="M73900 47850
L72900 47850
" />
<path d="M72900 47850
L72900 43850
" />
<path d="M72900 44850
L73900 44850
" />
<path d="M75250 43850
L75250 43850
" />
<path d="M74250 43850
L75250 43850
" />
<path d="M75250 43850
L75250 43850
" />
<path d="M75250 43850
L75250 47850
" />
<path d="M75250 47850
L74250 47850
" />
<path d="M74250 47850
L74250 43850
" />
<path d="M74250 44850
L75250 44850
" />
<path d="M76550 43850
L76550 43850
" />
<path d="M75550 43850
L76550 43850
" />
<path d="M76550 43850
L76550 43850
" />
<path d="M76550 43850
L76550 47850
" />
<path d="M76550 47850
L75550 47850
" />
<path d="M75550 47850
L75550 43850
" />
<path d="M75550 44850
L76550 44850
" />
<path d="M83850 41500
L83850 40500
" />
<path d="M83850 40500
L85850 40500
" />
<path d="M85850 40500
L85850 41500
" />
<path d="M85850 41500
L83850 41500
" />
<path d="M90850 46050
L91850 46050
" />
<path d="M91850 46050
L91850 48050
" />
<path d="M91850 48050
L90850 48050
" />
<path d="M90850 48050
L90850 46050
" />
</g>
<g style="fill:#7F7F00; fill-opacity:0.0; 
stroke:#7F7F00; stroke-width:39.3701; stroke-opacity:1; 
stroke-linecap:round; stroke-linejoin:round;">
</g>
<g style="fill:#7F7F00; fill-opacity:1.0; 
stroke:#7F7F00; stroke-width:39.3701; stroke-opacity:1; 
stroke-linecap:round; stroke-linejoin:round;">
<polyline style="fill-rule:evenodd;"
points="78494,29705
78494,29194
79005,29194
79005,29705
78494,29705
" /> 
<circle cx="79750" cy="29450" r="255.315" /> 
<circle cx="80750" cy="29450" r="255.315" /> 
<circle cx="81750" cy="29450" r="255.315" /> 
<circle cx="82750" cy="29450" r="255.315" /> 
<circle cx="83750" cy="29450" r="255.315" /> 
<circle cx="84750" cy="29450" r="255.315" /> 
<circle cx="85750" cy="29450" r="255.315" /> 
<polyline style="fill-rule:evenodd;"
points="86005,47394
86005,47905
85494,47905
85494,47394
86005,47394
" /> 
<circle cx="84750" cy="47650" r="255.315" /> 
<circle cx="83750" cy="47650" r="255.315" /> 
<circle cx="82750" cy="47650" r="255.315" /> 
<circle cx="81750" cy="47650" r="255.315" /> 
<circle cx="80750" cy="47650" r="255.315" /> 
<circle cx="79750" cy="47650" r="255.315" /> 
<circle cx="78750" cy="47650" r="255.315" /> 
<circle cx="89400" cy="31600" r="280.315" /> 
<circle cx="89400" cy="35600" r="280.315" /> 
<circle cx="81700" cy="42600" r="280.315" /> 
<circle cx="77700" cy="42600" r="280.315" /> 
<polyline style="fill-rule:evenodd;"
points="76444,33855
76444,33344
76955,33344
76955,33855
76444,33855
" /> 
<circle cx="77700" cy="33600" r="255.315" /> 
<circle cx="78700" cy="33600" r="255.315" /> 
<circle cx="79700" cy="33600" r="255.315" /> 
<circle cx="80700" cy="33600" r="255.315" /> 
<circle cx="81700" cy="33600" r="255.315" /> 
<circle cx="82700" cy="33600" r="255.315" /> 
<circle cx="83700" cy="33600" r="255.315" /> 
<circle cx="84700" cy="33600" r="255.315" /> 
<circle cx="85700" cy="33600" r="255.315" /> 
<circle cx="86700" cy="33600" r="255.315" /> 
<circle cx="87700" cy="33600" r="255.315" /> 
<circle cx="87700" cy="30600" r="255.315" /> 
<circle cx="86700" cy="30600" r="255.315" /> 
<circle cx="85700" cy="30600" r="255.315" /> 
<circle cx="84700" cy="30600" r="255.315" /> 
<circle cx="83700" cy="30600" r="255.315" /> 
<circle cx="82700" cy="30600" r="255.315" /> 
<circle cx="81700" cy="30600" r="255.315" /> 
<circle cx="80700" cy="30600" r="255.315" /> 
<circle cx="79700" cy="30600" r="255.315" /> 
<circle cx="78700" cy="30600" r="255.315" /> 
<circle cx="77700" cy="30600" r="255.315" /> 
<circle cx="76700" cy="30600" r="255.315" /> 
<polyline style="fill-rule:evenodd;"
points="75205,34905
74594,34905
74594,34294
75205,34294
75205,34905
" /> 
<circle cx="74900" cy="33600" r="305.315" /> 
<circle cx="74300" cy="31900" r="255.315" /> 
<circle cx="75300" cy="31900" r="255.315" /> 
<polyline style="fill-rule:evenodd;"
points="86005,38494
86005,39005
85494,39005
85494,38494
86005,38494
" /> 
<circle cx="84750" cy="38750" r="255.315" /> 
<circle cx="83750" cy="38750" r="255.315" /> 
<circle cx="82750" cy="38750" r="255.315" /> 
<circle cx="81750" cy="38750" r="255.315" /> 
<circle cx="80750" cy="38750" r="255.315" /> 
<circle cx="79750" cy="38750" r="255.315" /> 
<circle cx="78750" cy="38750" r="255.315" /> 
<polyline style="fill-rule:evenodd;"
points="77494,46255
77494,45744
78005,45744
78005,46255
77494,46255
" /> 
<circle cx="78750" cy="46000" r="255.315" /> 
<circle cx="79750" cy="46000" r="255.315" /> 
<circle cx="80750" cy="46000" r="255.315" /> 
<circle cx="81750" cy="46000" r="255.315" /> 
<circle cx="82750" cy="46000" r="255.315" /> 
<circle cx="83750" cy="46000" r="255.315" /> 
<circle cx="84750" cy="46000" r="255.315" /> 
<circle cx="85750" cy="46000" r="255.315" /> 
<circle cx="86750" cy="46000" r="255.315" /> 
<circle cx="87750" cy="46000" r="255.315" /> 
<circle cx="88750" cy="46000" r="255.315" /> 
<polyline style="fill-rule:evenodd;"
points="89005,39744
89005,40255
88494,40255
88494,39744
89005,39744
" /> 
<circle cx="87750" cy="40000" r="255.315" /> 
<circle cx="86750" cy="40000" r="255.315" /> 
<circle cx="85750" cy="40000" r="255.315" /> 
<circle cx="84750" cy="40000" r="255.315" /> 
<circle cx="83750" cy="40000" r="255.315" /> 
<circle cx="82750" cy="40000" r="255.315" /> 
<circle cx="81750" cy="40000" r="255.315" /> 
<circle cx="80750" cy="40000" r="255.315" /> 
<circle cx="79750" cy="40000" r="255.315" /> 
<circle cx="78750" cy="40000" r="255.315" /> 
<circle cx="77750" cy="40000" r="255.315" /> 
<polyline style="fill-rule:evenodd;"
points="76444,37955
76444,37444
76955,37444
76955,37955
76444,37955
" /> 
<circle cx="77700" cy="37700" r="255.315" /> 
<circle cx="78700" cy="37700" r="255.315" /> 
<circle cx="79700" cy="37700" r="255.315" /> 
<circle cx="80700" cy="37700" r="255.315" /> 
<circle cx="81700" cy="37700" r="255.315" /> 
<circle cx="82700" cy="37700" r="255.315" /> 
<circle cx="83700" cy="37700" r="255.315" /> 
<circle cx="84700" cy="37700" r="255.315" /> 
<circle cx="85700" cy="37700" r="255.315" /> 
<circle cx="86700" cy="37700" r="255.315" /> 
<circle cx="87700" cy="37700" r="255.315" /> 
<circle cx="87700" cy="34700" r="255.315" /> 
<circle cx="86700" cy="34700" r="255.315" /> 
<circle cx="85700" cy="34700" r="255.315" /> 
<circle cx="84700" cy="34700" r="255.315" /> 
<circle cx="83700" cy="34700" r="255.315" /> 
<circle cx="82700" cy="34700" r="255.315" /> 
<circle cx="81700" cy="34700" r="255.315" /> 
<circle cx="80700" cy="34700" r="255.315" /> 
<circle cx="79700" cy="34700" r="255.315" /> 
<circle cx="78700" cy="34700" r="255.315" /> 
<circle cx="77700" cy="34700" r="255.315" /> 
<circle cx="76700" cy="34700" r="255.315" /> 
<polyline style="fill-rule:evenodd;"
points="73144,43355
73144,42844
73655,42844
73655,43355
73144,43355
" /> 
<circle cx="74400" cy="43100" r="255.315" /> 
<circle cx="75400" cy="43100" r="255.315" /> 
<circle cx="76400" cy="43100" r="255.315" /> 
<polyline style="fill-rule:evenodd;"
points="83994,45255
83994,44744
84505,44744
84505,45255
83994,45255
" /> 
<circle cx="85250" cy="45000" r="255.315" /> 
<circle cx="81700" cy="41400" r="280.315" /> 
<circle cx="77700" cy="41400" r="280.315" /> 
<circle cx="87300" cy="45000" r="280.315" /> 
<circle cx="87300" cy="41000" r="280.315" /> 
<circle cx="86400" cy="45000" r="280.315" /> 
<circle cx="86400" cy="41000" r="280.315" /> 
<polyline style="fill-rule:evenodd;"
points="87944,41244
88455,41244
88455,41755
87944,41755
87944,41244
" /> 
<circle cx="88200" cy="42500" r="255.315" /> 
<circle cx="88200" cy="43500" r="255.315" /> 
<circle cx="88200" cy="44500" r="255.315" /> 
<circle cx="91200" cy="44500" r="255.315" /> 
<circle cx="91200" cy="43500" r="255.315" /> 
<circle cx="91200" cy="42500" r="255.315" /> 
<circle cx="91200" cy="41500" r="255.315" /> 
<polyline style="fill-rule:evenodd;"
points="73144,41655
73144,41144
73655,41144
73655,41655
73144,41655
" /> 
<circle cx="74400" cy="41400" r="255.315" /> 
<circle cx="75400" cy="41400" r="255.315" /> 
<circle cx="76400" cy="41400" r="255.315" /> 
<circle cx="91209.4" cy="39784.3" r="275.591" /> 
<circle cx="91209.4" cy="37815.7" r="275.591" /> 
<polyline style="fill-rule:evenodd;"
points="90500,40453
89949,40453
89949,39902
90500,39902
90500,40453
" /> 
<polyline style="fill-rule:evenodd;"
points="90500,37697
89949,37697
89949,37146
90500,37146
90500,37697
" /> 
<circle cx="73290.6" cy="37815.7" r="275.591" /> 
<circle cx="73290.6" cy="39784.3" r="275.591" /> 
<polyline style="fill-rule:evenodd;"
points="73999,37146
74550,37146
74550,37697
73999,37697
73999,37146
" /> 
<polyline style="fill-rule:evenodd;"
points="73999,39902
74550,39902
74550,40453
73999,40453
73999,39902
" /> 
<circle cx="91084.3" cy="29490.6" r="275.591" /> 
<circle cx="89115.7" cy="29490.6" r="275.591" /> 
<polyline style="fill-rule:evenodd;"
points="91753,30199
91753,30750
91202,30750
91202,30199
91753,30199
" /> 
<polyline style="fill-rule:evenodd;"
points="88997,30199
88997,30750
88446,30750
88446,30199
88997,30199
" /> 
<circle cx="75384.3" cy="29490.6" r="275.591" /> 
<circle cx="73415.7" cy="29490.6" r="275.591" /> 
<polyline style="fill-rule:evenodd;"
points="76053,30199
76053,30750
75502,30750
75502,30199
76053,30199
" /> 
<polyline style="fill-rule:evenodd;"
points="73297,30199
73297,30750
72746,30750
72746,30199
73297,30199
" /> 
<polyline style="fill-rule:evenodd;"
points="73044,31944
73555,31944
73555,32455
73044,32455
73044,31944
" /> 
<circle cx="73300" cy="33200" r="255.315" /> 
<circle cx="73300" cy="34200" r="255.315" /> 
<circle cx="73300" cy="35200" r="255.315" /> 
<circle cx="73300" cy="36200" r="255.315" /> 
<polyline style="fill-rule:evenodd;"
points="90844,31944
91355,31944
91355,32455
90844,32455
90844,31944
" /> 
<circle cx="91100" cy="33200" r="255.315" /> 
<circle cx="91100" cy="34200" r="255.315" /> 
<circle cx="91100" cy="35200" r="255.315" /> 
<circle cx="91100" cy="36200" r="255.315" /> 
<polyline style="fill-rule:evenodd;"
points="73144,44094
73655,44094
73655,44605
73144,44605
73144,44094
" /> 
<circle cx="73400" cy="45350" r="255.315" /> 
<circle cx="73400" cy="46350" r="255.315" /> 
<circle cx="73400" cy="47350" r="255.315" /> 
<polyline style="fill-rule:evenodd;"
points="74494,44094
75005,44094
75005,44605
74494,44605
74494,44094
" /> 
<circle cx="74750" cy="45350" r="255.315" /> 
<circle cx="74750" cy="46350" r="255.315" /> 
<circle cx="74750" cy="47350" r="255.315" /> 
<polyline style="fill-rule:evenodd;"
points="75794,44094
76305,44094
76305,44605
75794,44605
75794,44094
" /> 
<circle cx="76050" cy="45350" r="255.315" /> 
<circle cx="76050" cy="46350" r="255.315" /> 
<circle cx="76050" cy="47350" r="255.315" /> 
<polyline style="fill-rule:evenodd;"
points="84094,41255
84094,40744
84605,40744
84605,41255
84094,41255
" /> 
<circle cx="85350" cy="41000" r="255.315" /> 
<polyline style="fill-rule:evenodd;"
points="91094,46294
91605,46294
91605,46805
91094,46805
91094,46294
" /> 
<circle cx="91350" cy="47550" r="255.315" /> 
</g> 
</svg>
