<?xml version="1.0" standalone="no"?>
 <!DOCTYPE svg PUBLIC "-//W3C//DTD SVG 1.1//EN" 
 "http://www.w3.org/Graphics/SVG/1.1/DTD/svg11.dtd"> 
<svg xmlns="http://www.w3.org/2000/svg" version="1.1" 
    width="29.7002cm" height="21.0007cm" viewBox="0 0 116930 82680 ">
<title>SVG Picture created as matrix7219_5cm-F_Cu.svg date 2014/06/01 15:36:14 </title>
  <desc>Picture generated by PCBNEW </desc>
<g style="fill:#000000; fill-opacity:1;stroke:#000000; stroke-opacity:1;
stroke-linecap:round; stroke-linejoin:round; "
 transform="translate(0 0) scale(1 1)">
</g>
<g style="fill:#000000; fill-opacity:0.0; 
stroke:#000000; stroke-width:39.3701; stroke-opacity:1; 
stroke-linecap:round; stroke-linejoin:round;">
<path d="M4000 4000
L112930 4000
L112930 78680
L4000 78680
L4000 4000
" />
<path d="M4700 4700
L112230 4700
L112230 77980
L4700 77980
L4700 4700
" />
<path d="M25780 4000
L25780 4700
" />
<path d="M15032 4552
L14747 4552
" />
<path d="M14890 4552
L14890 4052
L14842 4123
L14794 4171
L14747 4195
" />
<path d="M25780 78680
L25780 77980
" />
<path d="M15032 78532
L14747 78532
" />
<path d="M14890 78532
L14890 78032
L14842 78103
L14794 78151
L14747 78175
" />
<path d="M47560 4000
L47560 4700
" />
<path d="M36527 4100
L36550 4076
L36598 4052
L36717 4052
L36765 4076
L36789 4100
L36812 4147
L36812 4195
L36789 4266
L36503 4552
L36812 4552
" />
<path d="M47560 78680
L47560 77980
" />
<path d="M36527 78080
L36550 78056
L36598 78032
L36717 78032
L36765 78056
L36789 78080
L36812 78127
L36812 78175
L36789 78246
L36503 78532
L36812 78532
" />
<path d="M69340 4000
L69340 4700
" />
<path d="M58283 4052
L58592 4052
L58426 4242
L58497 4242
L58545 4266
L58569 4290
L58592 4338
L58592 4457
L58569 4504
L58545 4528
L58497 4552
L58354 4552
L58307 4528
L58283 4504
" />
<path d="M69340 78680
L69340 77980
" />
<path d="M58283 78032
L58592 78032
L58426 78222
L58497 78222
L58545 78246
L58569 78270
L58592 78318
L58592 78437
L58569 78484
L58545 78508
L58497 78532
L58354 78532
L58307 78508
L58283 78484
" />
<path d="M91120 4000
L91120 4700
" />
<path d="M80325 4219
L80325 4552
" />
<path d="M80206 4028
L80087 4385
L80396 4385
" />
<path d="M91120 78680
L91120 77980
" />
<path d="M80325 78199
L80325 78532
" />
<path d="M80206 78008
L80087 78365
L80396 78365
" />
<path d="M102129 4052
L101890 4052
L101867 4290
L101890 4266
L101938 4242
L102057 4242
L102105 4266
L102129 4290
L102152 4338
L102152 4457
L102129 4504
L102105 4528
L102057 4552
L101938 4552
L101890 4528
L101867 4504
" />
<path d="M102129 78032
L101890 78032
L101867 78270
L101890 78246
L101938 78222
L102057 78222
L102105 78246
L102129 78270
L102152 78318
L102152 78437
L102129 78484
L102105 78508
L102057 78532
L101938 78532
L101890 78508
L101867 78484
" />
<path d="M4000 28890
L4700 28890
" />
<path d="M4230 16509
L4469 16509
" />
<path d="M4183 16652
L4350 16152
L4516 16652
" />
<path d="M112930 28890
L112230 28890
" />
<path d="M112460 16509
L112699 16509
" />
<path d="M112413 16652
L112580 16152
L112746 16652
" />
<path d="M4000 53780
L4700 53780
" />
<path d="M4385 41280
L4457 41304
L4480 41328
L4504 41375
L4504 41447
L4480 41494
L4457 41518
L4409 41542
L4219 41542
L4219 41042
L4385 41042
L4433 41066
L4457 41090
L4480 41137
L4480 41185
L4457 41232
L4433 41256
L4385 41280
L4219 41280
" />
<path d="M112930 53780
L112230 53780
" />
<path d="M112615 41280
L112687 41304
L112710 41328
L112734 41375
L112734 41447
L112710 41494
L112687 41518
L112639 41542
L112449 41542
L112449 41042
L112615 41042
L112663 41066
L112687 41090
L112710 41137
L112710 41185
L112687 41232
L112663 41256
L112615 41280
L112449 41280
" />
<path d="M4504 66384
L4480 66408
L4409 66432
L4361 66432
L4290 66408
L4242 66360
L4219 66313
L4195 66218
L4195 66146
L4219 66051
L4242 66003
L4290 65956
L4361 65932
L4409 65932
L4480 65956
L4504 65980
" />
<path d="M112734 66384
L112710 66408
L112639 66432
L112591 66432
L112520 66408
L112472 66360
L112449 66313
L112425 66218
L112425 66146
L112449 66051
L112472 66003
L112520 65956
L112591 65932
L112639 65932
L112710 65956
L112734 65980
" />
<path d="M79380 76422
L79455 75822
L79597 75822
L79680 75851
L79730 75908
L79751 75965
L79765 76080
L79755 76165
L79712 76280
L79676 76337
L79612 76394
L79522 76422
L79380 76422
" />
<path d="M80237 76422
L80276 76108
L80255 76051
L80201 76022
L80087 76022
L80026 76051
" />
<path d="M80240 76394
L80180 76422
L80037 76422
L79983 76394
L79962 76337
L79969 76280
L80005 76222
L80065 76194
L80208 76194
L80269 76165
" />
<path d="M80487 76022
L80715 76022
" />
<path d="M80597 75822
L80533 76337
L80555 76394
L80608 76422
L80665 76422
" />
<path d="M81097 76394
L81037 76422
L80922 76422
L80869 76394
L80847 76337
L80876 76108
L80912 76051
L80972 76022
L81087 76022
L81140 76051
L81162 76108
L81155 76165
L80862 76222
" />
<path d="M81387 76365
L81412 76394
L81380 76422
L81355 76394
L81387 76365
L81380 76422
" />
<path d="M81426 76051
L81451 76080
L81419 76108
L81394 76080
L81426 76051
L81419 76108
" />
<path d="M82437 76422
L82094 76422
" />
<path d="M82265 76422
L82340 75822
L82272 75908
L82208 75965
L82147 75994
" />
<path d="M83201 76022
L83137 76537
L83101 76594
L83040 76622
L83012 76622
" />
<path d="M83226 75822
L83194 75851
L83219 75880
L83251 75851
L83226 75822
L83219 75880
" />
<path d="M83744 76022
L83694 76422
" />
<path d="M83487 76022
L83447 76337
L83469 76394
L83522 76422
L83608 76422
L83669 76394
L83701 76365
" />
<path d="M84030 76022
L83980 76422
" />
<path d="M84022 76080
L84055 76051
L84115 76022
L84201 76022
L84255 76051
L84276 76108
L84237 76422
" />
<path d="M85019 75880
L85051 75851
L85112 75822
L85255 75822
L85308 75851
L85333 75880
L85355 75937
L85347 75994
L85308 76080
L84922 76422
L85294 76422
" />
<path d="M85740 75822
L85797 75822
L85851 75851
L85876 75880
L85897 75937
L85912 76051
L85894 76194
L85851 76308
L85815 76365
L85783 76394
L85722 76422
L85665 76422
L85612 76394
L85587 76365
L85565 76308
L85551 76194
L85569 76051
L85612 75937
L85647 75880
L85680 75851
L85740 75822
" />
<path d="M86437 76422
L86094 76422
" />
<path d="M86265 76422
L86340 75822
L86272 75908
L86208 75965
L86147 75994
" />
<path d="M87001 76022
L86951 76422
" />
<path d="M86887 75794
L86690 76222
L87062 76222
" />
<path d="M70972 77622
L70972 77022
" />
<path d="M71315 77622
L71058 77280
" />
<path d="M71315 77022
L70972 77365
" />
<path d="M71572 77622
L71572 77222
" />
<path d="M71572 77022
L71544 77051
L71572 77080
L71601 77051
L71572 77022
L71572 77080
" />
<path d="M72201 77565
L72172 77594
L72087 77622
L72030 77622
L71944 77594
L71887 77537
L71858 77480
L71830 77365
L71830 77280
L71858 77165
L71887 77108
L71944 77051
L72030 77022
L72087 77022
L72172 77051
L72201 77080
" />
<path d="M72715 77622
L72715 77308
L72687 77251
L72630 77222
L72515 77222
L72458 77251
" />
<path d="M72715 77594
L72658 77622
L72515 77622
L72458 77594
L72430 77537
L72430 77480
L72458 77422
L72515 77394
L72658 77394
L72715 77365
" />
<path d="M73258 77622
L73258 77022
" />
<path d="M73258 77594
L73201 77622
L73087 77622
L73030 77594
L73001 77565
L72972 77508
L72972 77337
L73001 77280
L73030 77251
L73087 77222
L73201 77222
L73258 77251
" />
<path d="M74001 77308
L74201 77308
" />
<path d="M74287 77622
L74001 77622
L74001 77022
L74287 77022
" />
<path d="M74544 77565
L74572 77594
L74544 77622
L74515 77594
L74544 77565
L74544 77622
" />
<path d="M74829 77622
L74829 77022
L74972 77022
L75058 77051
L75115 77108
L75144 77165
L75172 77280
L75172 77365
L75144 77480
L75115 77537
L75058 77594
L74972 77622
L74829 77622
" />
<path d="M75429 77565
L75458 77594
L75429 77622
L75401 77594
L75429 77565
L75429 77622
" />
<path d="M75687 77451
L75972 77451
" />
<path d="M75629 77622
L75829 77022
L76029 77622
" />
<path d="M76229 77565
L76258 77594
L76229 77622
L76201 77594
L76229 77565
L76229 77622
" />
<path d="M104522 76422
L104358 76137
" />
<path d="M104180 76422
L104255 75822
L104483 75822
L104537 75851
L104562 75880
L104583 75937
L104572 76022
L104537 76080
L104505 76108
L104444 76137
L104215 76137
" />
<path d="M105012 76394
L104951 76422
L104837 76422
L104783 76394
L104762 76337
L104790 76108
L104826 76051
L104887 76022
L105001 76022
L105055 76051
L105076 76108
L105069 76165
L104776 76222
" />
<path d="M105287 76022
L105380 76422
L105572 76022
" />
<path d="M105758 76365
L105783 76394
L105751 76422
L105726 76394
L105758 76365
L105751 76422
" />
<path d="M105797 76051
L105822 76080
L105790 76108
L105765 76080
L105797 76051
L105790 76108
" />
<path d="M70944 76394
L71030 76422
L71172 76422
L71230 76394
L71258 76365
L71287 76308
L71287 76251
L71258 76194
L71230 76165
L71172 76137
L71058 76108
L71001 76080
L70972 76051
L70944 75994
L70944 75937
L70972 75880
L71001 75851
L71058 75822
L71201 75822
L71287 75851
" />
<path d="M71544 76422
L71544 76022
" />
<path d="M71544 75822
L71515 75851
L71544 75880
L71572 75851
L71544 75822
L71544 75880
" />
<path d="M71772 76022
L72087 76022
L71772 76422
L72087 76422
" />
<path d="M72544 76394
L72487 76422
L72372 76422
L72315 76394
L72287 76337
L72287 76108
L72315 76051
L72372 76022
L72487 76022
L72544 76051
L72572 76108
L72572 76165
L72287 76222
" />
<path d="M72830 76365
L72858 76394
L72830 76422
L72801 76394
L72830 76365
L72830 76422
" />
<path d="M72830 76051
L72858 76080
L72830 76108
L72801 76080
L72830 76051
L72830 76108
" />
<path d="M73544 76251
L73830 76251
" />
<path d="M73487 76422
L73687 75822
L73887 76422
" />
<path d="M74344 76022
L74344 76422
" />
<path d="M74201 75794
L74058 76222
L74430 76222
" />
<path d="M104172 77622
L104172 77022
" />
<path d="M104715 77622
L104715 77022
" />
<path d="M104715 77594
L104658 77622
L104544 77622
L104487 77594
L104458 77565
L104430 77508
L104430 77337
L104458 77280
L104487 77251
L104544 77222
L104658 77222
L104715 77251
" />
<path d="M105001 77565
L105030 77594
L105001 77622
L104972 77594
L105001 77565
L105001 77622
" />
<path d="M105001 77251
L105030 77280
L105001 77308
L104972 77280
L105001 77251
L105001 77308
" />
<path d="M106058 77622
L105715 77622
" />
<path d="M105887 77622
L105887 77022
L105829 77108
L105772 77165
L105715 77194
" />
<path d="M106744 76994
L106230 77765
" />
<path d="M107258 77622
L106915 77622
" />
<path d="M107087 77622
L107087 77022
L107029 77108
L106972 77165
L106915 77194
" />
<path d="M70969 74622
L71312 74622
" />
<path d="M71065 75222
L71140 74622
" />
<path d="M71437 75222
L71487 74822
" />
<path d="M71512 74622
L71480 74651
L71505 74680
L71537 74651
L71512 74622
L71505 74680
" />
<path d="M71687 74822
L71915 74822
" />
<path d="M71797 74622
L71733 75137
L71755 75194
L71808 75222
L71865 75222
" />
<path d="M72151 75222
L72097 75194
L72076 75137
L72140 74622
" />
<path d="M72612 75194
L72551 75222
L72437 75222
L72383 75194
L72362 75137
L72390 74908
L72426 74851
L72487 74822
L72601 74822
L72655 74851
L72676 74908
L72669 74965
L72376 75022
" />
<path d="M72901 75165
L72926 75194
L72894 75222
L72869 75194
L72901 75165
L72894 75222
" />
<path d="M72940 74851
L72965 74880
L72933 74908
L72908 74880
L72940 74851
L72933 74908
" />
<path d="M71172 72508
L70972 72508
" />
<path d="M70972 72822
L70972 72222
L71258 72222
" />
<path d="M71487 72822
L71487 72422
" />
<path d="M71487 72222
L71458 72251
L71487 72280
L71515 72251
L71487 72222
L71487 72280
" />
<path d="M71858 72822
L71801 72794
L71772 72737
L71772 72222
" />
<path d="M72315 72794
L72258 72822
L72144 72822
L72087 72794
L72058 72737
L72058 72508
L72087 72451
L72144 72422
L72258 72422
L72315 72451
L72344 72508
L72344 72565
L72058 72622
" />
<path d="M72601 72765
L72630 72794
L72601 72822
L72572 72794
L72601 72765
L72601 72822
" />
<path d="M72601 72451
L72630 72480
L72601 72508
L72572 72480
L72601 72451
L72601 72508
" />
<path d="M73344 72822
L73344 72422
" />
<path d="M73344 72480
L73372 72451
L73430 72422
L73515 72422
L73572 72451
L73601 72508
L73601 72822
" />
<path d="M73601 72508
L73630 72451
L73687 72422
L73772 72422
L73830 72451
L73858 72508
L73858 72822
" />
<path d="M74401 72822
L74401 72508
L74372 72451
L74315 72422
L74201 72422
L74144 72451
" />
<path d="M74401 72794
L74344 72822
L74201 72822
L74144 72794
L74115 72737
L74115 72680
L74144 72622
L74201 72594
L74344 72594
L74401 72565
" />
<path d="M74601 72422
L74830 72422
" />
<path d="M74687 72222
L74687 72737
L74715 72794
L74772 72822
L74830 72822
" />
<path d="M75030 72822
L75030 72422
" />
<path d="M75030 72537
L75058 72480
L75087 72451
L75144 72422
L75201 72422
" />
<path d="M75401 72822
L75401 72422
" />
<path d="M75401 72222
L75372 72251
L75401 72280
L75430 72251
L75401 72222
L75401 72280
" />
<path d="M75630 72822
L75944 72422
" />
<path d="M75630 72422
L75944 72822
" />
<path d="M76115 72222
L76515 72222
L76258 72822
" />
<path d="M76715 72280
L76744 72251
L76801 72222
L76944 72222
L77001 72251
L77030 72280
L77058 72337
L77058 72394
L77030 72480
L76687 72822
L77058 72822
" />
<path d="M77630 72822
L77287 72822
" />
<path d="M77458 72822
L77458 72222
L77401 72308
L77344 72365
L77287 72394
" />
<path d="M77915 72822
L78030 72822
L78087 72794
L78115 72765
L78172 72680
L78201 72565
L78201 72337
L78172 72280
L78144 72251
L78087 72222
L77972 72222
L77915 72251
L77887 72280
L77858 72337
L77858 72480
L77887 72537
L77915 72565
L77972 72594
L78087 72594
L78144 72565
L78172 72537
L78201 72480
" />
<path d="M78315 72880
L78772 72880
" />
<path d="M79201 72222
L78915 72222
L78887 72508
L78915 72480
L78972 72451
L79115 72451
L79172 72480
L79201 72508
L79230 72565
L79230 72708
L79201 72765
L79172 72794
L79115 72822
L78972 72822
L78915 72794
L78887 72765
" />
<path d="M79744 72794
L79687 72822
L79572 72822
L79515 72794
L79487 72765
L79458 72708
L79458 72537
L79487 72480
L79515 72451
L79572 72422
L79687 72422
L79744 72451
" />
<path d="M80001 72822
L80001 72422
" />
<path d="M80001 72480
L80030 72451
L80087 72422
L80172 72422
L80230 72451
L80258 72508
L80258 72822
" />
<path d="M80258 72508
L80287 72451
L80344 72422
L80430 72422
L80487 72451
L80515 72508
L80515 72822
" />
<path d="M80801 72765
L80830 72794
L80801 72822
L80772 72794
L80801 72765
L80801 72822
" />
<path d="M81087 72822
L81087 72222
" />
<path d="M81144 72594
L81315 72822
" />
<path d="M81315 72422
L81087 72651
" />
<path d="M81572 72822
L81572 72422
" />
<path d="M81572 72222
L81544 72251
L81572 72280
L81601 72251
L81572 72222
L81572 72280
" />
<path d="M82115 72794
L82058 72822
L81944 72822
L81887 72794
L81858 72765
L81830 72708
L81830 72537
L81858 72480
L81887 72451
L81944 72422
L82058 72422
L82115 72451
" />
<path d="M82630 72822
L82630 72508
L82601 72451
L82544 72422
L82430 72422
L82372 72451
" />
<path d="M82630 72794
L82572 72822
L82430 72822
L82372 72794
L82344 72737
L82344 72680
L82372 72622
L82430 72594
L82572 72594
L82630 72565
" />
<path d="M83172 72822
L83172 72222
" />
<path d="M83172 72794
L83115 72822
L83001 72822
L82944 72794
L82915 72765
L82887 72708
L82887 72537
L82915 72480
L82944 72451
L83001 72422
L83115 72422
L83172 72451
" />
<path d="M83315 72880
L83772 72880
" />
<path d="M83915 72422
L83915 73022
" />
<path d="M83915 72451
L83972 72422
L84087 72422
L84144 72451
L84172 72480
L84201 72537
L84201 72708
L84172 72765
L84144 72794
L84087 72822
L83972 72822
L83915 72794
" />
<path d="M84715 72794
L84658 72822
L84544 72822
L84487 72794
L84458 72765
L84430 72708
L84430 72537
L84458 72480
L84487 72451
L84544 72422
L84658 72422
L84715 72451
" />
<path d="M84972 72822
L84972 72222
" />
<path d="M84972 72451
L85030 72422
L85144 72422
L85201 72451
L85230 72480
L85258 72537
L85258 72708
L85230 72765
L85201 72794
L85144 72822
L85030 72822
L84972 72794
" />
<path d="M70944 73994
L71030 74022
L71172 74022
L71230 73994
L71258 73965
L71287 73908
L71287 73851
L71258 73794
L71230 73765
L71172 73737
L71058 73708
L71001 73680
L70972 73651
L70944 73594
L70944 73537
L70972 73480
L71001 73451
L71058 73422
L71201 73422
L71287 73451
" />
<path d="M71544 74022
L71544 73422
" />
<path d="M71801 74022
L71801 73708
L71772 73651
L71715 73622
L71630 73622
L71572 73651
L71544 73680
" />
<path d="M72315 73994
L72258 74022
L72144 74022
L72087 73994
L72058 73937
L72058 73708
L72087 73651
L72144 73622
L72258 73622
L72315 73651
L72344 73708
L72344 73765
L72058 73822
" />
<path d="M72830 73994
L72772 74022
L72658 74022
L72601 73994
L72572 73937
L72572 73708
L72601 73651
L72658 73622
L72772 73622
L72830 73651
L72858 73708
L72858 73765
L72572 73822
" />
<path d="M73030 73622
L73258 73622
" />
<path d="M73115 73422
L73115 73937
L73144 73994
L73201 74022
L73258 74022
" />
<path d="M73458 73965
L73487 73994
L73458 74022
L73430 73994
L73458 73965
L73458 74022
" />
<path d="M73458 73651
L73487 73680
L73458 73708
L73430 73680
L73458 73651
L73458 73708
" />
<path d="M70230 71980
L70230 77980
" />
<path d="M70230 71980
L112230 71980
" />
<path d="M70230 71980
L112230 71980
" />
<path d="M70230 74380
L112230 74380
" />
<path d="M103430 75580
L103430 77980
" />
<path d="M70230 76780
L112230 76780
" />
<path d="M70230 75580
L112230 75580
" />
<path d="M76830 75580
L76830 76780
" />
</g>
<g style="fill:#FFFF00; fill-opacity:0.0; 
stroke:#FFFF00; stroke-width:39.3701; stroke-opacity:1; 
stroke-linecap:round; stroke-linejoin:round;">
<path d="M72500 48250
L72500 28750
" />
<path d="M92000 48250
L72500 48250
" />
<path d="M92000 28750
L92000 48250
" />
<path d="M72500 28750
L92000 28750
" />
</g>
<g style="fill:#7F7F00; fill-opacity:0.0; 
stroke:#7F7F00; stroke-width:39.3701; stroke-opacity:1; 
stroke-linecap:round; stroke-linejoin:round;">
</g>
<g style="fill:#7F7F00; fill-opacity:1.0; 
stroke:#7F7F00; stroke-width:39.3701; stroke-opacity:1; 
stroke-linecap:round; stroke-linejoin:round;">
<polyline style="fill-rule:evenodd;"
points="78494,29705
78494,29194
79005,29194
79005,29705
78494,29705
" /> 
<circle cx="79750" cy="29450" r="255.315" /> 
<circle cx="80750" cy="29450" r="255.315" /> 
<circle cx="81750" cy="29450" r="255.315" /> 
<circle cx="82750" cy="29450" r="255.315" /> 
<circle cx="83750" cy="29450" r="255.315" /> 
<circle cx="84750" cy="29450" r="255.315" /> 
<circle cx="85750" cy="29450" r="255.315" /> 
<polyline style="fill-rule:evenodd;"
points="86005,47394
86005,47905
85494,47905
85494,47394
86005,47394
" /> 
<circle cx="84750" cy="47650" r="255.315" /> 
<circle cx="83750" cy="47650" r="255.315" /> 
<circle cx="82750" cy="47650" r="255.315" /> 
<circle cx="81750" cy="47650" r="255.315" /> 
<circle cx="80750" cy="47650" r="255.315" /> 
<circle cx="79750" cy="47650" r="255.315" /> 
<circle cx="78750" cy="47650" r="255.315" /> 
<circle cx="89400" cy="31600" r="280.315" /> 
<circle cx="89400" cy="35600" r="280.315" /> 
<circle cx="81700" cy="42600" r="280.315" /> 
<circle cx="77700" cy="42600" r="280.315" /> 
<polyline style="fill-rule:evenodd;"
points="76444,33855
76444,33344
76955,33344
76955,33855
76444,33855
" /> 
<circle cx="77700" cy="33600" r="255.315" /> 
<circle cx="78700" cy="33600" r="255.315" /> 
<circle cx="79700" cy="33600" r="255.315" /> 
<circle cx="80700" cy="33600" r="255.315" /> 
<circle cx="81700" cy="33600" r="255.315" /> 
<circle cx="82700" cy="33600" r="255.315" /> 
<circle cx="83700" cy="33600" r="255.315" /> 
<circle cx="84700" cy="33600" r="255.315" /> 
<circle cx="85700" cy="33600" r="255.315" /> 
<circle cx="86700" cy="33600" r="255.315" /> 
<circle cx="87700" cy="33600" r="255.315" /> 
<circle cx="87700" cy="30600" r="255.315" /> 
<circle cx="86700" cy="30600" r="255.315" /> 
<circle cx="85700" cy="30600" r="255.315" /> 
<circle cx="84700" cy="30600" r="255.315" /> 
<circle cx="83700" cy="30600" r="255.315" /> 
<circle cx="82700" cy="30600" r="255.315" /> 
<circle cx="81700" cy="30600" r="255.315" /> 
<circle cx="80700" cy="30600" r="255.315" /> 
<circle cx="79700" cy="30600" r="255.315" /> 
<circle cx="78700" cy="30600" r="255.315" /> 
<circle cx="77700" cy="30600" r="255.315" /> 
<circle cx="76700" cy="30600" r="255.315" /> 
<polyline style="fill-rule:evenodd;"
points="75205,34905
74594,34905
74594,34294
75205,34294
75205,34905
" /> 
<circle cx="74900" cy="33600" r="305.315" /> 
<circle cx="74300" cy="31900" r="255.315" /> 
<circle cx="75300" cy="31900" r="255.315" /> 
<polyline style="fill-rule:evenodd;"
points="86005,38494
86005,39005
85494,39005
85494,38494
86005,38494
" /> 
<circle cx="84750" cy="38750" r="255.315" /> 
<circle cx="83750" cy="38750" r="255.315" /> 
<circle cx="82750" cy="38750" r="255.315" /> 
<circle cx="81750" cy="38750" r="255.315" /> 
<circle cx="80750" cy="38750" r="255.315" /> 
<circle cx="79750" cy="38750" r="255.315" /> 
<circle cx="78750" cy="38750" r="255.315" /> 
<polyline style="fill-rule:evenodd;"
points="77494,46255
77494,45744
78005,45744
78005,46255
77494,46255
" /> 
<circle cx="78750" cy="46000" r="255.315" /> 
<circle cx="79750" cy="46000" r="255.315" /> 
<circle cx="80750" cy="46000" r="255.315" /> 
<circle cx="81750" cy="46000" r="255.315" /> 
<circle cx="82750" cy="46000" r="255.315" /> 
<circle cx="83750" cy="46000" r="255.315" /> 
<circle cx="84750" cy="46000" r="255.315" /> 
<circle cx="85750" cy="46000" r="255.315" /> 
<circle cx="86750" cy="46000" r="255.315" /> 
<circle cx="87750" cy="46000" r="255.315" /> 
<circle cx="88750" cy="46000" r="255.315" /> 
<polyline style="fill-rule:evenodd;"
points="89005,39744
89005,40255
88494,40255
88494,39744
89005,39744
" /> 
<circle cx="87750" cy="40000" r="255.315" /> 
<circle cx="86750" cy="40000" r="255.315" /> 
<circle cx="85750" cy="40000" r="255.315" /> 
<circle cx="84750" cy="40000" r="255.315" /> 
<circle cx="83750" cy="40000" r="255.315" /> 
<circle cx="82750" cy="40000" r="255.315" /> 
<circle cx="81750" cy="40000" r="255.315" /> 
<circle cx="80750" cy="40000" r="255.315" /> 
<circle cx="79750" cy="40000" r="255.315" /> 
<circle cx="78750" cy="40000" r="255.315" /> 
<circle cx="77750" cy="40000" r="255.315" /> 
<polyline style="fill-rule:evenodd;"
points="76444,37955
76444,37444
76955,37444
76955,37955
76444,37955
" /> 
<circle cx="77700" cy="37700" r="255.315" /> 
<circle cx="78700" cy="37700" r="255.315" /> 
<circle cx="79700" cy="37700" r="255.315" /> 
<circle cx="80700" cy="37700" r="255.315" /> 
<circle cx="81700" cy="37700" r="255.315" /> 
<circle cx="82700" cy="37700" r="255.315" /> 
<circle cx="83700" cy="37700" r="255.315" /> 
<circle cx="84700" cy="37700" r="255.315" /> 
<circle cx="85700" cy="37700" r="255.315" /> 
<circle cx="86700" cy="37700" r="255.315" /> 
<circle cx="87700" cy="37700" r="255.315" /> 
<circle cx="87700" cy="34700" r="255.315" /> 
<circle cx="86700" cy="34700" r="255.315" /> 
<circle cx="85700" cy="34700" r="255.315" /> 
<circle cx="84700" cy="34700" r="255.315" /> 
<circle cx="83700" cy="34700" r="255.315" /> 
<circle cx="82700" cy="34700" r="255.315" /> 
<circle cx="81700" cy="34700" r="255.315" /> 
<circle cx="80700" cy="34700" r="255.315" /> 
<circle cx="79700" cy="34700" r="255.315" /> 
<circle cx="78700" cy="34700" r="255.315" /> 
<circle cx="77700" cy="34700" r="255.315" /> 
<circle cx="76700" cy="34700" r="255.315" /> 
<polyline style="fill-rule:evenodd;"
points="73144,43355
73144,42844
73655,42844
73655,43355
73144,43355
" /> 
<circle cx="74400" cy="43100" r="255.315" /> 
<circle cx="75400" cy="43100" r="255.315" /> 
<circle cx="76400" cy="43100" r="255.315" /> 
<polyline style="fill-rule:evenodd;"
points="83994,45255
83994,44744
84505,44744
84505,45255
83994,45255
" /> 
<circle cx="85250" cy="45000" r="255.315" /> 
<circle cx="81700" cy="41400" r="280.315" /> 
<circle cx="77700" cy="41400" r="280.315" /> 
<circle cx="87300" cy="45000" r="280.315" /> 
<circle cx="87300" cy="41000" r="280.315" /> 
<circle cx="86400" cy="45000" r="280.315" /> 
<circle cx="86400" cy="41000" r="280.315" /> 
<polyline style="fill-rule:evenodd;"
points="87944,41244
88455,41244
88455,41755
87944,41755
87944,41244
" /> 
<circle cx="88200" cy="42500" r="255.315" /> 
<circle cx="88200" cy="43500" r="255.315" /> 
<circle cx="88200" cy="44500" r="255.315" /> 
<circle cx="91200" cy="44500" r="255.315" /> 
<circle cx="91200" cy="43500" r="255.315" /> 
<circle cx="91200" cy="42500" r="255.315" /> 
<circle cx="91200" cy="41500" r="255.315" /> 
<circle cx="90118.9" cy="32832.1" r="430.315" /> 
<circle cx="81962.2" cy="36635.7" r="430.315" /> 
<polyline style="fill-rule:evenodd;"
points="73144,41655
73144,41144
73655,41144
73655,41655
73144,41655
" /> 
<circle cx="74400" cy="41400" r="255.315" /> 
<circle cx="75400" cy="41400" r="255.315" /> 
<circle cx="76400" cy="41400" r="255.315" /> 
<polyline style="fill-rule:evenodd;"
points="83055,45255
82544,45255
82544,44744
83055,44744
83055,45255
" /> 
<circle cx="82800" cy="44000" r="255.315" /> 
<circle cx="82800" cy="43000" r="255.315" /> 
<circle cx="82800" cy="42000" r="255.315" /> 
<circle cx="91209.4" cy="39784.3" r="275.591" /> 
<circle cx="91209.4" cy="37815.7" r="275.591" /> 
<polyline style="fill-rule:evenodd;"
points="90500,40453
89949,40453
89949,39902
90500,39902
90500,40453
" /> 
<polyline style="fill-rule:evenodd;"
points="90500,37697
89949,37697
89949,37146
90500,37146
90500,37697
" /> 
<circle cx="73290.6" cy="37815.7" r="275.591" /> 
<circle cx="73290.6" cy="39784.3" r="275.591" /> 
<polyline style="fill-rule:evenodd;"
points="73999,37146
74550,37146
74550,37697
73999,37697
73999,37146
" /> 
<polyline style="fill-rule:evenodd;"
points="73999,39902
74550,39902
74550,40453
73999,40453
73999,39902
" /> 
<circle cx="91084.3" cy="29490.6" r="275.591" /> 
<circle cx="89115.7" cy="29490.6" r="275.591" /> 
<polyline style="fill-rule:evenodd;"
points="91753,30199
91753,30750
91202,30750
91202,30199
91753,30199
" /> 
<polyline style="fill-rule:evenodd;"
points="88997,30199
88997,30750
88446,30750
88446,30199
88997,30199
" /> 
<circle cx="75384.3" cy="29490.6" r="275.591" /> 
<circle cx="73415.7" cy="29490.6" r="275.591" /> 
<polyline style="fill-rule:evenodd;"
points="76053,30199
76053,30750
75502,30750
75502,30199
76053,30199
" /> 
<polyline style="fill-rule:evenodd;"
points="73297,30199
73297,30750
72746,30750
72746,30199
73297,30199
" /> 
<polyline style="fill-rule:evenodd;"
points="73044,31944
73555,31944
73555,32455
73044,32455
73044,31944
" /> 
<circle cx="73300" cy="33200" r="255.315" /> 
<circle cx="73300" cy="34200" r="255.315" /> 
<circle cx="73300" cy="35200" r="255.315" /> 
<circle cx="73300" cy="36200" r="255.315" /> 
<polyline style="fill-rule:evenodd;"
points="90844,31944
91355,31944
91355,32455
90844,32455
90844,31944
" /> 
<circle cx="91100" cy="33200" r="255.315" /> 
<circle cx="91100" cy="34200" r="255.315" /> 
<circle cx="91100" cy="35200" r="255.315" /> 
<circle cx="91100" cy="36200" r="255.315" /> 
<polyline style="fill-rule:evenodd;"
points="73144,44094
73655,44094
73655,44605
73144,44605
73144,44094
" /> 
<circle cx="73400" cy="45350" r="255.315" /> 
<circle cx="73400" cy="46350" r="255.315" /> 
<circle cx="73400" cy="47350" r="255.315" /> 
<polyline style="fill-rule:evenodd;"
points="74494,44094
75005,44094
75005,44605
74494,44605
74494,44094
" /> 
<circle cx="74750" cy="45350" r="255.315" /> 
<circle cx="74750" cy="46350" r="255.315" /> 
<circle cx="74750" cy="47350" r="255.315" /> 
<polyline style="fill-rule:evenodd;"
points="75794,44094
76305,44094
76305,44605
75794,44605
75794,44094
" /> 
<circle cx="76050" cy="45350" r="255.315" /> 
<circle cx="76050" cy="46350" r="255.315" /> 
<circle cx="76050" cy="47350" r="255.315" /> 
<polyline style="fill-rule:evenodd;"
points="84094,41255
84094,40744
84605,40744
84605,41255
84094,41255
" /> 
<circle cx="85350" cy="41000" r="255.315" /> 
<polyline style="fill-rule:evenodd;"
points="91094,46294
91605,46294
91605,46805
91094,46805
91094,46294
" /> 
<circle cx="91350" cy="47550" r="255.315" /> 
</g>
<g style="fill:#BFBFBF; fill-opacity:1.0; 
stroke:#BFBFBF; stroke-width:39.3701; stroke-opacity:1; 
stroke-linecap:round; stroke-linejoin:round;">
<circle cx="86999.5" cy="34210.4" r="155.315" /> 
<circle cx="90099.6" cy="39202" r="155.315" /> 
<circle cx="80921.7" cy="31645.7" r="155.315" /> 
<circle cx="85186.9" cy="32805.4" r="155.315" /> 
<circle cx="76751.2" cy="41907.6" r="155.315" /> 
<circle cx="79025.2" cy="43356.4" r="155.315" /> 
<circle cx="77091.1" cy="38277.5" r="155.315" /> 
</g>
<g style="fill:#9F0000; fill-opacity:1.0; 
stroke:#9F0000; stroke-width:100; stroke-opacity:1; 
stroke-linecap:round; stroke-linejoin:round;">
<path d="M79928 32371
L78700 33600
" />
<path d="M86079 32371
L79928 32371
" />
<path d="M87125 33416
L86079 32371
" />
<path d="M87125 34084
L87125 33416
" />
<path d="M86999 34210
L87125 34084
" />
<path d="M88170 37273
L90099 39201
" />
<path d="M87506 37273
L88170 37273
" />
<path d="M87200 37579
L87506 37273
" />
<path d="M87200 37801
L87200 37579
" />
<path d="M86251 38750
L87200 37801
" />
<path d="M85750 38750
L86251 38750
" />
<path d="M82150 34150
L82700 33600
" />
<path d="M81250 34150
L82150 34150
" />
<path d="M80700 34700
L81250 34150
" />
<path d="M82150 30050
L82750 29450
" />
<path d="M79250 30050
L82150 30050
" />
<path d="M78700 30600
L79250 30050
" />
<path d="M84654 31645
L80921 31645
" />
<path d="M85700 30600
L84654 31645
" />
<path d="M84300 30000
L83700 30600
" />
<path d="M85200 30000
L84300 30000
" />
<path d="M85750 29450
L85200 30000
" />
<path d="M81326 32973
L80700 33600
" />
<path d="M83697 32973
L81326 32973
" />
<path d="M84200 33475
L83697 32973
" />
<path d="M84200 33729
L84200 33475
" />
<path d="M84508 34038
L84200 33729
" />
<path d="M85038 34038
L84508 34038
" />
<path d="M85700 34700
L85038 34038
" />
<path d="M84195 48095
L83750 47650
" />
<path d="M91417 48095
L84195 48095
" />
<path d="M91787 47726
L91417 48095
" />
<path d="M91787 37737
L91787 47726
" />
<path d="M90988 36938
L91787 37737
" />
<path d="M88272 29027
L86700 30600
" />
<path d="M89307 29027
L88272 29027
" />
<path d="M90100 29820
L89307 29027
" />
<path d="M90100 30191
L90100 29820
" />
<path d="M91534 31626
L90100 30191
" />
<path d="M91534 36392
L91534 31626
" />
<path d="M90988 36938
L91534 36392
" />
<path d="M87461 36938
L86700 37700
" />
<path d="M90988 36938
L87461 36938
" />
<path d="M84195 38305
L83750 38750
" />
<path d="M86095 38305
L84195 38305
" />
<path d="M86700 37700
L86095 38305
" />
<path d="M82304 48095
L82750 47650
" />
<path d="M73532 48095
L82304 48095
" />
<path d="M72654 47217
L73532 48095
" />
<path d="M72654 33241
L72654 47217
" />
<path d="M73266 32629
L72654 33241
" />
<path d="M75198 32629
L73266 32629
" />
<path d="M76511 31316
L75198 32629
" />
<path d="M83983 31316
L76511 31316
" />
<path d="M84700 30600
L83983 31316
" />
<path d="M82200 38300
L81750 38750
" />
<path d="M82200 37310
L82200 38300
" />
<path d="M83700 35810
L82200 37310
" />
<path d="M83700 34700
L83700 35810
" />
<path d="M80219 38219
L80750 38750
" />
<path d="M79219 38219
L80219 38219
" />
<path d="M78700 37700
L79219 38219
" />
<path d="M84952 32571
L85186 32805
" />
<path d="M80127 32571
L84952 32571
" />
<path d="M79274 33424
L80127 32571
" />
<path d="M79274 34274
L79274 33424
" />
<path d="M79700 34700
L79274 34274
" />
<path d="M75991 41907
L76751 41907
" />
<path d="M74974 42923
L75991 41907
" />
<path d="M74974 43150
L74974 42923
" />
<path d="M74511 43613
L74974 43150
" />
<path d="M74440 43613
L74511 43613
" />
<path d="M73904 44150
L74440 43613
" />
<path d="M73904 44633
L73904 44150
" />
<path d="M73684 44853
L73904 44633
" />
<path d="M73270 44853
L73684 44853
" />
<path d="M72974 45149
L73270 44853
" />
<path d="M72974 46525
L72974 45149
" />
<path d="M73223 46775
L72974 46525
" />
<path d="M73431 46775
L73223 46775
" />
<path d="M74456 47800
L73431 46775
" />
<path d="M78599 47800
L74456 47800
" />
<path d="M78750 47650
L78599 47800
" />
<path d="M84071 34071
L83570 34071
" />
<path d="M84700 34700
L84071 34071
" />
<path d="M82126 33173
L81700 33600
" />
<path d="M82902 33173
L82126 33173
" />
<path d="M83200 33470
L82902 33173
" />
<path d="M83200 33701
L83200 33470
" />
<path d="M83570 34071
L83200 33701
" />
<path d="M83200 34441
L83570 34071
" />
<path d="M83200 34820
L83200 34441
" />
<path d="M82013 36006
L83200 34820
" />
<path d="M79774 36006
L82013 36006
" />
<path d="M78273 37507
L79774 36006
" />
<path d="M78273 38273
L78273 37507
" />
<path d="M78750 38750
L78273 38273
" />
<path d="M78700 34600
L77700 33600
" />
<path d="M78700 34700
L78700 34600
" />
<path d="M82100 45350
L82750 46000
" />
<path d="M76050 45350
L82100 45350
" />
<path d="M83307 46442
L83750 46000
" />
<path d="M76142 46442
L83307 46442
" />
<path d="M76050 46350
L76142 46442
" />
<path d="M76663 46736
L76050 47350
" />
<path d="M84013 46736
L76663 46736
" />
<path d="M84750 46000
L84013 46736
" />
<path d="M86850 45450
L86400 45000
" />
<path d="M90249 45450
L86850 45450
" />
<path d="M91200 44500
L90249 45450
" />
<path d="M84675 45053
L84675 45000
" />
<path d="M85047 45425
L84675 45053
" />
<path d="M85974 45425
L85047 45425
" />
<path d="M86400 45000
L85974 45425
" />
<path d="M84462 45000
L84445 45000
" />
<path d="M84250 45000
L84445 45000
" />
<path d="M84462 45000
L84675 45000
" />
<path d="M73900 45850
L73400 46350
" />
<path d="M74913 45850
L73900 45850
" />
<path d="M75842 44920
L74913 45850
" />
<path d="M81956 44920
L75842 44920
" />
<path d="M82465 45429
L81956 44920
" />
<path d="M84016 45429
L82465 45429
" />
<path d="M84445 45000
L84016 45429
" />
<path d="M74615 43884
L75400 43100
" />
<path d="M74452 43884
L74615 43884
" />
<path d="M74174 44162
L74452 43884
" />
<path d="M74174 44645
L74174 44162
" />
<path d="M73470 45350
L74174 44645
" />
<path d="M73400 45350
L73470 45350
" />
<path d="M84727 44477
L85250 45000
" />
<path d="M81513 44477
L84727 44477
" />
<path d="M80717 43681
L81513 44477
" />
<path d="M75981 43681
L80717 43681
" />
<path d="M75400 43100
L75981 43681
" />
<path d="M89700 45000
L87300 45000
" />
<path d="M91200 43500
L89700 45000
" />
<path d="M85701 44548
L85250 45000
" />
<path d="M86848 44548
L85701 44548
" />
<path d="M87300 45000
L86848 44548
" />
<path d="M78154 39404
L78750 40000
" />
<path d="M77059 39404
L78154 39404
" />
<path d="M73855 36200
L77059 39404
" />
<path d="M73300 36200
L73855 36200
" />
<path d="M89600 34700
L87700 34700
" />
<path d="M91100 36200
L89600 34700
" />
<path d="M86329 31970
L87700 30600
" />
<path d="M76140 31970
L86329 31970
" />
<path d="M75210 32900
L76140 31970
" />
<path d="M74927 32900
L75210 32900
" />
<path d="M74128 33700
L74927 32900
" />
<path d="M73188 33700
L74128 33700
" />
<path d="M72869 34018
L73188 33700
" />
<path d="M72869 35769
L72869 34018
" />
<path d="M73300 36200
L72869 35769
" />
<path d="M79300 45550
L79750 46000
" />
<path d="M77108 45550
L79300 45550
" />
<path d="M76808 45849
L77108 45550
" />
<path d="M75250 45849
L76808 45849
" />
<path d="M74750 46350
L75250 45849
" />
<path d="M81608 43356
L79025 43356
" />
<path d="M82465 42500
L81608 43356
" />
<path d="M82902 42500
L82465 42500
" />
<path d="M83776 41626
L82902 42500
" />
<path d="M83776 40798
L83776 41626
" />
<path d="M84575 40000
L83776 40798
" />
<path d="M84750 40000
L84575 40000
" />
<path d="M82324 40425
L82750 40000
" />
<path d="M75899 40425
L82324 40425
" />
<path d="M73290 37815
L75899 40425
" />
<path d="M82179 39570
L81750 40000
" />
<path d="M90995 39570
L82179 39570
" />
<path d="M91209 39784
L90995 39570
" />
<path d="M77270 40970
L77700 41400
" />
<path d="M74829 40970
L77270 40970
" />
<path d="M74400 41400
L74829 40970
" />
<path d="M90330 34430
L91100 35200
" />
<path d="M88530 34430
L90330 34430
" />
<path d="M87700 33600
L88530 34430
" />
<path d="M78925 39175
L79750 40000
" />
<path d="M77275 39175
L78925 39175
" />
<path d="M73300 35200
L77275 39175
" />
<path d="M80445 39304
L79750 40000
" />
<path d="M86095 39304
L80445 39304
" />
<path d="M87700 37700
L86095 39304
" />
<path d="M76700 33600
L77098 33600
" />
<path d="M77125 36849
L76700 37274
" />
<path d="M77125 33626
L77125 36849
" />
<path d="M77098 33600
L77125 33626
" />
<path d="M76700 37700
L76700 37274
" />
<path d="M78527 32170
L77098 33600
" />
<path d="M87258 32170
L78527 32170
" />
<path d="M89287 34200
L87258 32170
" />
<path d="M91100 34200
L89287 34200
" />
<path d="M76124 34124
L76700 34700
" />
<path d="M73375 34124
L76124 34124
" />
<path d="M73300 34200
L73375 34124
" />
<path d="M77129 38239
L77091 38277
" />
<path d="M77129 37669
L77129 38239
" />
<path d="M79075 35723
L77129 37669
" />
<path d="M81676 35723
L79075 35723
" />
<path d="M82700 34700
L81676 35723
" />
<path d="M89300 47550
L87750 46000
" />
<path d="M91350 47550
L89300 47550
" />
<path d="M87700 44000
L88200 44500
" />
<path d="M82800 44000
L87700 44000
" />
<path d="M89400 35600
L86200 35600
" />
<path d="M86200 36200
L86200 35600
" />
<path d="M84700 37700
L86200 36200
" />
<path d="M90118 30493
L89115 29490
" />
<path d="M90118 32832
L90118 30493
" />
<path d="M86200 33484
L86200 35600
" />
<path d="M85890 33174
L86200 33484
" />
<path d="M85125 33174
L85890 33174
" />
<path d="M84700 33600
L85125 33174
" />
<path d="M80526 32773
L79700 33600
" />
<path d="M83873 32773
L80526 32773
" />
<path d="M84700 33600
L83873 32773
" />
<path d="M76931 41400
L76400 41400
" />
<path d="M77531 42000
L76931 41400
" />
<path d="M82800 42000
L77531 42000
" />
<path d="M76100 41400
L74400 43100
" />
<path d="M76400 41400
L76100 41400
" />
<path d="M90486 33200
L90118 32832
" />
<path d="M91100 33200
L90486 33200
" />
<path d="M85850 41500
L85350 41000
" />
<path d="M88200 41500
L85850 41500
" />
<path d="M73400 41400
L73825 41400
" />
<path d="M73300 32200
L73725 32200
" />
<path d="M74872 32327
L75300 31900
" />
<path d="M73852 32327
L74872 32327
" />
<path d="M73725 32200
L73852 32327
" />
<path d="M81060 40760
L81700 41400
" />
<path d="M74411 40760
L81060 40760
" />
<path d="M73825 41346
L74411 40760
" />
<path d="M73825 41400
L73825 41346
" />
<path d="M90700 41000
L87300 41000
" />
<path d="M91200 41500
L90700 41000
" />
<path d="M87300 41000
L86400 41000
" />
<path d="M83133 43000
L82800 43000
" />
<path d="M84842 41291
L83133 43000
" />
<path d="M84842 40890
L84842 41291
" />
<path d="M85160 40572
L84842 40890
" />
<path d="M85972 40572
L85160 40572
" />
<path d="M86400 41000
L85972 40572
" />
<path d="M76083 31116
L75300 31900
" />
<path d="M81183 31116
L76083 31116
" />
<path d="M81700 30600
L81183 31116
" />
</g>
<g style="fill:#9F0000; fill-opacity:1.0; 
stroke:#9F0000; stroke-width:39.3701; stroke-opacity:1; 
stroke-linecap:round; stroke-linejoin:round;">
<polyline style="fill-rule:evenodd;"
points="73376,33205
73305,33276
73300,33270
73294,33276
73223,33205
73229,33200
73223,33194
73294,33123
73300,33129
73305,33123
73376,33194
73370,33200
73376,33205
" /> 
</g>
<g style="fill:#9F0000; fill-opacity:0.0; 
stroke:#9F0000; stroke-width:100; stroke-opacity:1; 
stroke-linecap:round; stroke-linejoin:round;">
<polyline fill="none;"
points="73376,33205
73305,33276
73300,33270
73294,33276
73223,33205
73229,33200
73223,33194
73294,33123
73300,33129
73305,33123
73376,33194
73370,33200
73376,33205
" /> 
</g>
<g style="fill:#9F0000; fill-opacity:1.0; 
stroke:#9F0000; stroke-width:39.3701; stroke-opacity:1; 
stroke-linecap:round; stroke-linejoin:round;">
<polyline style="fill-rule:evenodd;"
points="75511,40460
74820,40460
74820,40423
74820,39833
74782,39741
74711,39670
74620,39632
74520,39632
73930,39632
73838,39670
73831,39677
73829,39648
73767,39499
73673,39472
73602,39543
73361,39784
73673,40096
73729,40080
73729,40522
73767,40614
73837,40685
73929,40723
74024,40723
73825,40922
73816,40913
73724,40875
73625,40874
73602,40874
73075,40874
72983,40912
72954,40942
72954,40191
72978,40166
73005,40261
73209,40334
73426,40323
73575,40261
73602,40166
73290,39854
73284,39860
73214,39789
73219,39784
73214,39778
73284,39707
73290,39713
73602,39401
73575,39306
73371,39234
73154,39245
73005,39306
72978,39401
72954,39377
72954,38250
72981,38277
73181,38360
73398,38361
73407,38357
75511,40460
" /> 
</g>
<g style="fill:#9F0000; fill-opacity:0.0; 
stroke:#9F0000; stroke-width:100; stroke-opacity:1; 
stroke-linecap:round; stroke-linejoin:round;">
<polyline fill="none;"
points="75511,40460
74820,40460
74820,40423
74820,39833
74782,39741
74711,39670
74620,39632
74520,39632
73930,39632
73838,39670
73831,39677
73829,39648
73767,39499
73673,39472
73602,39543
73361,39784
73673,40096
73729,40080
73729,40522
73767,40614
73837,40685
73929,40723
74024,40723
73825,40922
73816,40913
73724,40875
73625,40874
73602,40874
73075,40874
72983,40912
72954,40942
72954,40191
72978,40166
73005,40261
73209,40334
73426,40323
73575,40261
73602,40166
73290,39854
73284,39860
73214,39789
73219,39784
73214,39778
73284,39707
73290,39713
73602,39401
73575,39306
73371,39234
73154,39245
73005,39306
72978,39401
72954,39377
72954,38250
72981,38277
73181,38360
73398,38361
73407,38357
75511,40460
" /> 
</g>
<g style="fill:#9F0000; fill-opacity:1.0; 
stroke:#9F0000; stroke-width:39.3701; stroke-opacity:1; 
stroke-linecap:round; stroke-linejoin:round;">
<polyline style="fill-rule:evenodd;"
points="75581,41893
74765,42709
74742,42686
74697,42732
74672,42639
74475,42570
74267,42581
74127,42639
74102,42732
74400,43029
74405,43023
74476,43094
74470,43100
74476,43105
74405,43176
74400,43170
74102,43467
74115,43514
73781,43848
73724,43825
73625,43824
73075,43824
72983,43862
72954,43892
72954,43557
72983,43586
73075,43624
73174,43625
73724,43625
73816,43587
73886,43516
73924,43424
73925,43337
73939,43372
74032,43397
74329,43100
74032,42802
73939,42827
73925,42868
73925,42775
73887,42683
73816,42613
73724,42575
73625,42574
73075,42574
72983,42612
72954,42642
72954,41857
72983,41886
73075,41924
73174,41925
73724,41925
73816,41887
73886,41816
73924,41724
73924,41680
73939,41677
73945,41673
73954,41697
74102,41844
74295,41924
74503,41925
74697,41845
74844,41697
74900,41564
74954,41697
75102,41844
75295,41924
75503,41925
75581,41893
" /> 
</g>
<g style="fill:#9F0000; fill-opacity:0.0; 
stroke:#9F0000; stroke-width:100; stroke-opacity:1; 
stroke-linecap:round; stroke-linejoin:round;">
<polyline fill="none;"
points="75581,41893
74765,42709
74742,42686
74697,42732
74672,42639
74475,42570
74267,42581
74127,42639
74102,42732
74400,43029
74405,43023
74476,43094
74470,43100
74476,43105
74405,43176
74400,43170
74102,43467
74115,43514
73781,43848
73724,43825
73625,43824
73075,43824
72983,43862
72954,43892
72954,43557
72983,43586
73075,43624
73174,43625
73724,43625
73816,43587
73886,43516
73924,43424
73925,43337
73939,43372
74032,43397
74329,43100
74032,42802
73939,42827
73925,42868
73925,42775
73887,42683
73816,42613
73724,42575
73625,42574
73075,42574
72983,42612
72954,42642
72954,41857
72983,41886
73075,41924
73174,41925
73724,41925
73816,41887
73886,41816
73924,41724
73924,41680
73939,41677
73945,41673
73954,41697
74102,41844
74295,41924
74503,41925
74697,41845
74844,41697
74900,41564
74954,41697
75102,41844
75295,41924
75503,41925
75581,41893
" /> 
</g>
<g style="fill:#9F0000; fill-opacity:1.0; 
stroke:#9F0000; stroke-width:39.3701; stroke-opacity:1; 
stroke-linecap:round; stroke-linejoin:round;">
<polyline style="fill-rule:evenodd;"
points="75755,31020
75400,31375
75196,31374
75003,31454
74855,31602
74802,31728
74760,31627
74667,31602
74597,31673
74597,31532
74572,31439
74375,31370
74167,31381
74027,31439
74002,31532
74300,31829
74597,31532
74597,31673
74370,31900
74376,31905
74305,31976
74300,31970
74294,31976
74223,31905
74229,31900
73965,31636
73965,29571
73954,29354
73893,29205
73798,29178
73486,29490
73798,29802
73893,29775
73965,29571
73965,31636
73932,31602
73839,31627
73785,31781
73716,31713
73624,31675
73525,31674
72975,31674
72883,31712
72827,31769
72833,31020
73366,31020
73458,30982
73529,30911
73567,30820
73567,30720
73567,30130
73529,30038
73522,30031
73551,30029
73700,29967
73727,29873
73415,29561
73345,29631
73345,29490
73033,29178
72938,29205
72865,29409
72876,29626
72938,29775
73033,29802
73345,29490
73345,29631
73103,29873
73119,29929
72841,29929
72848,29019
73128,29019
73103,29108
73415,29419
73727,29108
73702,29019
75095,29019
75075,29028
74922,29181
74839,29381
74838,29598
74921,29799
75074,29952
75273,30035
75270,30037
75232,30129
75232,30229
75232,30819
75270,30911
75340,30981
75432,31020
75532,31020
75755,31020
" /> 
</g>
<g style="fill:#9F0000; fill-opacity:0.0; 
stroke:#9F0000; stroke-width:100; stroke-opacity:1; 
stroke-linecap:round; stroke-linejoin:round;">
<polyline fill="none;"
points="75755,31020
75400,31375
75196,31374
75003,31454
74855,31602
74802,31728
74760,31627
74667,31602
74597,31673
74597,31532
74572,31439
74375,31370
74167,31381
74027,31439
74002,31532
74300,31829
74597,31532
74597,31673
74370,31900
74376,31905
74305,31976
74300,31970
74294,31976
74223,31905
74229,31900
73965,31636
73965,29571
73954,29354
73893,29205
73798,29178
73486,29490
73798,29802
73893,29775
73965,29571
73965,31636
73932,31602
73839,31627
73785,31781
73716,31713
73624,31675
73525,31674
72975,31674
72883,31712
72827,31769
72833,31020
73366,31020
73458,30982
73529,30911
73567,30820
73567,30720
73567,30130
73529,30038
73522,30031
73551,30029
73700,29967
73727,29873
73415,29561
73345,29631
73345,29490
73033,29178
72938,29205
72865,29409
72876,29626
72938,29775
73033,29802
73345,29490
73345,29631
73103,29873
73119,29929
72841,29929
72848,29019
73128,29019
73103,29108
73415,29419
73727,29108
73702,29019
75095,29019
75075,29028
74922,29181
74839,29381
74838,29598
74921,29799
75074,29952
75273,30035
75270,30037
75232,30129
75232,30229
75232,30819
75270,30911
75340,30981
75432,31020
75532,31020
75755,31020
" /> 
</g>
<g style="fill:#9F0000; fill-opacity:1.0; 
stroke:#9F0000; stroke-width:39.3701; stroke-opacity:1; 
stroke-linecap:round; stroke-linejoin:round;">
<polyline style="fill-rule:evenodd;"
points="76476,41405
76405,41476
76400,41470
76394,41476
76323,41405
76329,41400
76323,41394
76394,41323
76400,41329
76405,41323
76476,41394
76470,41400
76476,41405
" /> 
</g>
<g style="fill:#9F0000; fill-opacity:0.0; 
stroke:#9F0000; stroke-width:100; stroke-opacity:1; 
stroke-linecap:round; stroke-linejoin:round;">
<polyline fill="none;"
points="76476,41405
76405,41476
76400,41470
76394,41476
76323,41405
76329,41400
76323,41394
76394,41323
76400,41329
76405,41323
76476,41394
76470,41400
76476,41405
" /> 
</g>
<g style="fill:#9F0000; fill-opacity:1.0; 
stroke:#9F0000; stroke-width:39.3701; stroke-opacity:1; 
stroke-linecap:round; stroke-linejoin:round;">
<polyline style="fill-rule:evenodd;"
points="78003,32270
77138,33135
77116,33113
77024,33075
76925,33074
76375,33074
76283,33112
76213,33183
76175,33275
76174,33374
76174,33834
76124,33824
75430,33824
75479,33687
75469,33459
75401,33297
75304,33266
74970,33600
74976,33605
74905,33676
74900,33670
74894,33676
74823,33605
74829,33600
74823,33594
74894,33523
74900,33529
75233,33195
75233,33195
75325,33177
75325,33177
75423,33112
76264,32270
78003,32270
" /> 
</g>
<g style="fill:#9F0000; fill-opacity:0.0; 
stroke:#9F0000; stroke-width:100; stroke-opacity:1; 
stroke-linecap:round; stroke-linejoin:round;">
<polyline fill="none;"
points="78003,32270
77138,33135
77116,33113
77024,33075
76925,33074
76375,33074
76283,33112
76213,33183
76175,33275
76174,33374
76174,33834
76124,33824
75430,33824
75479,33687
75469,33459
75401,33297
75304,33266
74970,33600
74976,33605
74905,33676
74900,33670
74894,33676
74823,33605
74829,33600
74823,33594
74894,33523
74900,33529
75233,33195
75233,33195
75325,33177
75325,33177
75423,33112
76264,32270
78003,32270
" /> 
</g>
<g style="fill:#9F0000; fill-opacity:1.0; 
stroke:#9F0000; stroke-width:39.3701; stroke-opacity:1; 
stroke-linecap:round; stroke-linejoin:round;">
<polyline style="fill-rule:evenodd;"
points="81004,32871
80800,33075
80596,33074
80403,33154
80255,33302
80202,33428
80160,33327
80067,33302
79770,33600
80067,33897
80160,33872
80199,33762
80254,33897
80402,34044
80595,34124
80803,34125
80883,34092
80800,34175
80596,34174
80403,34254
80255,34402
80199,34535
80145,34403
79997,34255
79804,34175
79599,34174
79574,34149
79574,34112
79624,34129
79832,34118
79972,34060
79997,33967
79700,33670
79694,33676
79623,33605
79629,33600
79623,33594
79694,33523
79700,33529
79997,33232
79975,33147
80251,32871
81004,32871
" /> 
</g>
<g style="fill:#9F0000; fill-opacity:0.0; 
stroke:#9F0000; stroke-width:100; stroke-opacity:1; 
stroke-linecap:round; stroke-linejoin:round;">
<polyline fill="none;"
points="81004,32871
80800,33075
80596,33074
80403,33154
80255,33302
80202,33428
80160,33327
80067,33302
79770,33600
80067,33897
80160,33872
80199,33762
80254,33897
80402,34044
80595,34124
80803,34125
80883,34092
80800,34175
80596,34174
80403,34254
80255,34402
80199,34535
80145,34403
79997,34255
79804,34175
79599,34174
79574,34149
79574,34112
79624,34129
79832,34118
79972,34060
79997,33967
79700,33670
79694,33676
79623,33605
79629,33600
79623,33594
79694,33523
79700,33529
79997,33232
79975,33147
80251,32871
81004,32871
" /> 
</g>
<g style="fill:#9F0000; fill-opacity:1.0; 
stroke:#9F0000; stroke-width:39.3701; stroke-opacity:1; 
stroke-linecap:round; stroke-linejoin:round;">
<polyline style="fill-rule:evenodd;"
points="81536,37199
81403,37254
81255,37402
81199,37535
81145,37403
80997,37255
80804,37175
80596,37174
80403,37254
80255,37402
80202,37528
80160,37427
80067,37402
79997,37473
79997,37332
79972,37239
79775,37170
79567,37181
79427,37239
79402,37332
79700,37629
79997,37332
79997,37473
79770,37700
79776,37705
79705,37776
79700,37770
79694,37776
79623,37705
79629,37700
79332,37402
79239,37427
79200,37537
79145,37403
78997,37255
78964,37241
79898,36306
81340,36306
81262,36495
81262,36774
81368,37031
81536,37199
" /> 
</g>
<g style="fill:#9F0000; fill-opacity:0.0; 
stroke:#9F0000; stroke-width:100; stroke-opacity:1; 
stroke-linecap:round; stroke-linejoin:round;">
<polyline fill="none;"
points="81536,37199
81403,37254
81255,37402
81199,37535
81145,37403
80997,37255
80804,37175
80596,37174
80403,37254
80255,37402
80202,37528
80160,37427
80067,37402
79997,37473
79997,37332
79972,37239
79775,37170
79567,37181
79427,37239
79402,37332
79700,37629
79997,37332
79997,37473
79770,37700
79776,37705
79705,37776
79700,37770
79694,37776
79623,37705
79629,37700
79332,37402
79239,37427
79200,37537
79145,37403
78997,37255
78964,37241
79898,36306
81340,36306
81262,36495
81262,36774
81368,37031
81536,37199
" /> 
</g>
<g style="fill:#9F0000; fill-opacity:1.0; 
stroke:#9F0000; stroke-width:39.3701; stroke-opacity:1; 
stroke-linecap:round; stroke-linejoin:round;">
<polyline style="fill-rule:evenodd;"
points="83631,40519
83564,40586
83499,40683
83476,40798
83476,41501
83252,41725
83167,41702
83097,41773
83097,41632
83072,41539
82875,41470
82667,41481
82527,41539
82502,41632
82800,41929
83097,41632
83097,41773
82870,42000
82876,42005
82805,42076
82800,42070
82794,42076
82723,42005
82729,42000
82432,41702
82339,41727
82270,41924
82281,42132
82325,42239
82253,42287
82191,42349
82166,42288
82011,42134
81809,42050
81591,42049
81388,42133
81234,42288
81150,42490
81149,42708
81233,42911
81378,43056
79326,43056
79266,42996
79110,42931
78940,42931
78784,42995
78665,43115
78600,43271
78600,43381
78250,43381
78250,42491
78166,42288
78011,42134
77809,42050
77591,42049
77388,42133
77234,42288
77150,42490
77149,42708
77233,42911
77388,43065
77590,43149
77808,43150
78011,43066
78165,42911
78249,42709
78250,42491
78250,43381
76851,43381
76924,43204
76925,42996
76845,42803
76697,42655
76504,42575
76296,42574
76103,42654
75955,42802
75899,42935
75845,42803
75697,42655
75676,42646
76115,42207
76450,42207
76510,42267
76666,42332
76835,42332
76991,42268
77111,42148
77176,41992
77176,41823
77111,41667
76992,41547
76915,41515
76929,41475
76918,41270
77146,41270
77154,41278
77150,41290
77149,41508
77233,41711
77388,41865
77590,41949
77808,41950
78011,41866
78165,41711
78249,41509
78250,41291
78166,41088
78138,41060
80936,41060
81154,41278
81150,41290
81149,41508
81233,41711
81388,41865
81590,41949
81808,41950
82011,41866
82165,41711
82249,41509
82250,41291
82166,41088
82011,40934
81809,40850
81591,40849
81579,40854
81449,40725
82324,40725
82324,40725
82439,40702
82439,40702
82536,40637
82649,40524
82853,40525
83047,40445
83194,40297
83250,40164
83304,40297
83452,40444
83631,40519
" /> 
</g>
<g style="fill:#9F0000; fill-opacity:0.0; 
stroke:#9F0000; stroke-width:100; stroke-opacity:1; 
stroke-linecap:round; stroke-linejoin:round;">
<polyline fill="none;"
points="83631,40519
83564,40586
83499,40683
83476,40798
83476,41501
83252,41725
83167,41702
83097,41773
83097,41632
83072,41539
82875,41470
82667,41481
82527,41539
82502,41632
82800,41929
83097,41632
83097,41773
82870,42000
82876,42005
82805,42076
82800,42070
82794,42076
82723,42005
82729,42000
82432,41702
82339,41727
82270,41924
82281,42132
82325,42239
82253,42287
82191,42349
82166,42288
82011,42134
81809,42050
81591,42049
81388,42133
81234,42288
81150,42490
81149,42708
81233,42911
81378,43056
79326,43056
79266,42996
79110,42931
78940,42931
78784,42995
78665,43115
78600,43271
78600,43381
78250,43381
78250,42491
78166,42288
78011,42134
77809,42050
77591,42049
77388,42133
77234,42288
77150,42490
77149,42708
77233,42911
77388,43065
77590,43149
77808,43150
78011,43066
78165,42911
78249,42709
78250,42491
78250,43381
76851,43381
76924,43204
76925,42996
76845,42803
76697,42655
76504,42575
76296,42574
76103,42654
75955,42802
75899,42935
75845,42803
75697,42655
75676,42646
76115,42207
76450,42207
76510,42267
76666,42332
76835,42332
76991,42268
77111,42148
77176,41992
77176,41823
77111,41667
76992,41547
76915,41515
76929,41475
76918,41270
77146,41270
77154,41278
77150,41290
77149,41508
77233,41711
77388,41865
77590,41949
77808,41950
78011,41866
78165,41711
78249,41509
78250,41291
78166,41088
78138,41060
80936,41060
81154,41278
81150,41290
81149,41508
81233,41711
81388,41865
81590,41949
81808,41950
82011,41866
82165,41711
82249,41509
82250,41291
82166,41088
82011,40934
81809,40850
81591,40849
81579,40854
81449,40725
82324,40725
82324,40725
82439,40702
82439,40702
82536,40637
82649,40524
82853,40525
83047,40445
83194,40297
83250,40164
83304,40297
83452,40444
83631,40519
" /> 
</g>
<g style="fill:#9F0000; fill-opacity:1.0; 
stroke:#9F0000; stroke-width:39.3701; stroke-opacity:1; 
stroke-linecap:round; stroke-linejoin:round;">
<polyline style="fill-rule:evenodd;"
points="85366,33190
85255,33302
85202,33428
85160,33327
85067,33302
84770,33600
84776,33605
84705,33676
84700,33670
84694,33676
84623,33605
84629,33600
84623,33594
84694,33523
84700,33529
84997,33232
84983,33181
85101,33230
85271,33230
85366,33190
" /> 
</g>
<g style="fill:#9F0000; fill-opacity:0.0; 
stroke:#9F0000; stroke-width:100; stroke-opacity:1; 
stroke-linecap:round; stroke-linejoin:round;">
<polyline fill="none;"
points="85366,33190
85255,33302
85202,33428
85160,33327
85067,33302
84770,33600
84776,33605
84705,33676
84700,33670
84694,33676
84623,33605
84629,33600
84623,33594
84694,33523
84700,33529
84997,33232
84983,33181
85101,33230
85271,33230
85366,33190
" /> 
</g>
<g style="fill:#9F0000; fill-opacity:1.0; 
stroke:#9F0000; stroke-width:39.3701; stroke-opacity:1; 
stroke-linecap:round; stroke-linejoin:round;">
<polyline style="fill-rule:evenodd;"
points="90796,36638
89715,36638
89715,35985
89400,35670
89329,35741
89329,35600
89014,35284
88918,35312
88845,35518
88856,35736
88918,35887
89014,35915
89329,35600
89329,35741
89084,35985
89112,36081
89318,36154
89536,36143
89687,36081
89715,35985
89715,36638
87461,36638
87346,36661
87249,36726
86800,37175
86596,37174
86403,37254
86255,37402
86199,37535
86145,37403
85997,37255
85804,37175
85596,37174
85403,37254
85255,37402
85202,37528
85160,37427
85067,37402
84997,37473
84997,37332
84972,37239
84775,37170
84567,37181
84427,37239
84402,37332
84700,37629
84997,37332
84997,37473
84770,37700
84776,37705
84705,37776
84700,37770
84694,37776
84623,37705
84629,37700
84332,37402
84239,37427
84200,37537
84145,37403
83997,37255
83804,37175
83596,37174
83403,37254
83255,37402
83199,37535
83145,37403
82997,37255
82804,37175
82759,37175
83912,36022
83912,36022
83977,35925
83999,35810
84000,35810
84000,35142
84144,34997
84200,34864
84254,34997
84402,35144
84595,35224
84803,35225
84997,35145
85144,34997
85200,34864
85254,34997
85402,35144
85595,35224
85803,35225
85997,35145
86144,34997
86200,34864
86254,34997
86402,35144
86595,35224
86803,35225
86997,35145
87144,34997
87200,34864
87254,34997
87402,35144
87595,35224
87803,35225
87997,35145
88142,35000
89475,35000
89542,35066
89481,35045
89263,35056
89112,35118
89084,35214
89400,35529
89405,35523
89476,35594
89470,35600
89785,35915
89881,35887
89954,35681
89944,35468
90575,36099
90574,36303
90654,36497
90796,36638
" /> 
</g>
<g style="fill:#9F0000; fill-opacity:0.0; 
stroke:#9F0000; stroke-width:100; stroke-opacity:1; 
stroke-linecap:round; stroke-linejoin:round;">
<polyline fill="none;"
points="90796,36638
89715,36638
89715,35985
89400,35670
89329,35741
89329,35600
89014,35284
88918,35312
88845,35518
88856,35736
88918,35887
89014,35915
89329,35600
89329,35741
89084,35985
89112,36081
89318,36154
89536,36143
89687,36081
89715,35985
89715,36638
87461,36638
87346,36661
87249,36726
86800,37175
86596,37174
86403,37254
86255,37402
86199,37535
86145,37403
85997,37255
85804,37175
85596,37174
85403,37254
85255,37402
85202,37528
85160,37427
85067,37402
84997,37473
84997,37332
84972,37239
84775,37170
84567,37181
84427,37239
84402,37332
84700,37629
84997,37332
84997,37473
84770,37700
84776,37705
84705,37776
84700,37770
84694,37776
84623,37705
84629,37700
84332,37402
84239,37427
84200,37537
84145,37403
83997,37255
83804,37175
83596,37174
83403,37254
83255,37402
83199,37535
83145,37403
82997,37255
82804,37175
82759,37175
83912,36022
83912,36022
83977,35925
83999,35810
84000,35810
84000,35142
84144,34997
84200,34864
84254,34997
84402,35144
84595,35224
84803,35225
84997,35145
85144,34997
85200,34864
85254,34997
85402,35144
85595,35224
85803,35225
85997,35145
86144,34997
86200,34864
86254,34997
86402,35144
86595,35224
86803,35225
86997,35145
87144,34997
87200,34864
87254,34997
87402,35144
87595,35224
87803,35225
87997,35145
88142,35000
89475,35000
89542,35066
89481,35045
89263,35056
89112,35118
89084,35214
89400,35529
89405,35523
89476,35594
89470,35600
89785,35915
89881,35887
89954,35681
89944,35468
90575,36099
90574,36303
90654,36497
90796,36638
" /> 
</g>
<g style="fill:#9F0000; fill-opacity:1.0; 
stroke:#9F0000; stroke-width:39.3701; stroke-opacity:1; 
stroke-linecap:round; stroke-linejoin:round;">
<polyline style="fill-rule:evenodd;"
points="91035,43000
90903,43054
90755,43202
90675,43395
90674,43600
89575,44700
88686,44700
88729,44575
88718,44367
88660,44227
88567,44202
88270,44500
88276,44505
88205,44576
88200,44570
88194,44576
88123,44505
88129,44500
87832,44202
87739,44227
87670,44424
87679,44601
87611,44534
87409,44450
87191,44449
87179,44454
87061,44336
86963,44271
86848,44248
85701,44248
85586,44271
85488,44336
85350,44475
85149,44474
84939,44265
84842,44200
84727,44177
83294,44177
83329,44075
83318,43867
83260,43727
83167,43702
82870,44000
82876,44005
82805,44076
82800,44070
82794,44076
82723,44005
82729,44000
82432,43702
82339,43727
82270,43924
82281,44132
82299,44177
81637,44177
81116,43656
81608,43656
81608,43656
81723,43633
81723,43633
81820,43568
82278,43111
82354,43297
82502,43444
82628,43497
82527,43539
82502,43632
82800,43929
83097,43632
83072,43539
82962,43500
83097,43445
83244,43297
83255,43272
83346,43212
85054,41503
85084,41458
85245,41524
85450,41525
85637,41712
85637,41712
85735,41777
85850,41800
87674,41800
87674,41824
87712,41916
87783,41986
87875,42024
87974,42025
87974,42025
87903,42054
87755,42202
87675,42395
87674,42603
87754,42797
87902,42944
88035,43000
87903,43054
87755,43202
87675,43395
87674,43603
87754,43797
87902,43944
88028,43997
87927,44039
87902,44132
88200,44429
88497,44132
88472,44039
88362,44000
88497,43945
88644,43797
88724,43604
88725,43396
88645,43203
88497,43055
88364,42999
88497,42945
88644,42797
88724,42604
88725,42396
88645,42203
88497,42055
88425,42025
88524,42025
88616,41987
88686,41916
88724,41824
88725,41725
88725,41300
90575,41300
90675,41399
90674,41603
90754,41797
90902,41944
91035,42000
90903,42054
90755,42202
90675,42395
90674,42603
90754,42797
90902,42944
91035,43000
" /> 
</g>
<g style="fill:#9F0000; fill-opacity:0.0; 
stroke:#9F0000; stroke-width:100; stroke-opacity:1; 
stroke-linecap:round; stroke-linejoin:round;">
<polyline fill="none;"
points="91035,43000
90903,43054
90755,43202
90675,43395
90674,43600
89575,44700
88686,44700
88729,44575
88718,44367
88660,44227
88567,44202
88270,44500
88276,44505
88205,44576
88200,44570
88194,44576
88123,44505
88129,44500
87832,44202
87739,44227
87670,44424
87679,44601
87611,44534
87409,44450
87191,44449
87179,44454
87061,44336
86963,44271
86848,44248
85701,44248
85586,44271
85488,44336
85350,44475
85149,44474
84939,44265
84842,44200
84727,44177
83294,44177
83329,44075
83318,43867
83260,43727
83167,43702
82870,44000
82876,44005
82805,44076
82800,44070
82794,44076
82723,44005
82729,44000
82432,43702
82339,43727
82270,43924
82281,44132
82299,44177
81637,44177
81116,43656
81608,43656
81608,43656
81723,43633
81723,43633
81820,43568
82278,43111
82354,43297
82502,43444
82628,43497
82527,43539
82502,43632
82800,43929
83097,43632
83072,43539
82962,43500
83097,43445
83244,43297
83255,43272
83346,43212
85054,41503
85084,41458
85245,41524
85450,41525
85637,41712
85637,41712
85735,41777
85850,41800
87674,41800
87674,41824
87712,41916
87783,41986
87875,42024
87974,42025
87974,42025
87903,42054
87755,42202
87675,42395
87674,42603
87754,42797
87902,42944
88035,43000
87903,43054
87755,43202
87675,43395
87674,43603
87754,43797
87902,43944
88028,43997
87927,44039
87902,44132
88200,44429
88497,44132
88472,44039
88362,44000
88497,43945
88644,43797
88724,43604
88725,43396
88645,43203
88497,43055
88364,42999
88497,42945
88644,42797
88724,42604
88725,42396
88645,42203
88497,42055
88425,42025
88524,42025
88616,41987
88686,41916
88724,41824
88725,41725
88725,41300
90575,41300
90675,41399
90674,41603
90754,41797
90902,41944
91035,42000
90903,42054
90755,42202
90675,42395
90674,42603
90754,42797
90902,42944
91035,43000
" /> 
</g>
<g style="fill:#9F0000; fill-opacity:1.0; 
stroke:#9F0000; stroke-width:39.3701; stroke-opacity:1; 
stroke-linecap:round; stroke-linejoin:round;">
<polyline style="fill-rule:evenodd;"
points="91176,33205
91105,33276
91100,33270
90802,33567
90827,33660
90937,33699
90803,33754
90657,33900
89411,33900
87470,31958
87373,31893
87258,31870
86853,31870
87599,31124
87803,31125
87997,31045
88144,30897
88177,30820
88214,30911
88284,30981
88376,31020
88476,31020
89066,31020
89158,30982
89229,30911
89267,30820
89267,30720
89267,30130
89229,30038
89222,30031
89251,30029
89400,29967
89427,29873
89115,29561
88803,29873
88819,29929
88377,29929
88285,29967
88214,30037
88176,30129
88176,30229
88176,30378
88145,30303
87997,30155
87804,30075
87649,30074
88396,29327
88595,29327
88565,29409
88576,29626
88638,29775
88733,29802
89045,29490
89039,29484
89110,29414
89115,29419
89121,29414
89192,29484
89186,29490
89498,29802
89593,29775
89603,29747
89800,29944
89800,30191
89822,30306
89887,30403
91158,31674
90775,31674
90683,31712
90613,31783
90575,31875
90574,31974
90574,32295
90507,32233
90387,32239
90294,32497
90294,32204
90205,32123
89950,32142
89950,31491
89866,31288
89711,31134
89509,31050
89291,31049
89088,31133
88934,31288
88850,31490
88849,31708
88933,31911
89088,32065
89290,32149
89508,32150
89711,32066
89865,31911
89949,31709
89950,31491
89950,32142
89927,32144
89679,32269
89520,32443
89525,32563
90089,32768
90294,32204
90294,32497
90243,32637
90124,32755
90195,32826
90209,32812
90626,32963
90593,33058
90313,32956
90195,32837
90124,32908
90139,32922
90054,33154
90054,32862
89491,32657
89410,32745
89431,33023
89556,33271
89730,33430
89849,33425
90054,32862
90054,33154
89943,33459
90032,33540
90309,33519
90558,33394
90583,33367
90587,33371
90594,33364
90639,33472
90732,33497
91029,33200
91023,33194
91094,33123
91100,33129
91105,33123
91176,33194
91170,33200
91176,33205
" /> 
</g>
<g style="fill:#9F0000; fill-opacity:0.0; 
stroke:#9F0000; stroke-width:100; stroke-opacity:1; 
stroke-linecap:round; stroke-linejoin:round;">
<polyline fill="none;"
points="91176,33205
91105,33276
91100,33270
90802,33567
90827,33660
90937,33699
90803,33754
90657,33900
89411,33900
87470,31958
87373,31893
87258,31870
86853,31870
87599,31124
87803,31125
87997,31045
88144,30897
88177,30820
88214,30911
88284,30981
88376,31020
88476,31020
89066,31020
89158,30982
89229,30911
89267,30820
89267,30720
89267,30130
89229,30038
89222,30031
89251,30029
89400,29967
89427,29873
89115,29561
88803,29873
88819,29929
88377,29929
88285,29967
88214,30037
88176,30129
88176,30229
88176,30378
88145,30303
87997,30155
87804,30075
87649,30074
88396,29327
88595,29327
88565,29409
88576,29626
88638,29775
88733,29802
89045,29490
89039,29484
89110,29414
89115,29419
89121,29414
89192,29484
89186,29490
89498,29802
89593,29775
89603,29747
89800,29944
89800,30191
89822,30306
89887,30403
91158,31674
90775,31674
90683,31712
90613,31783
90575,31875
90574,31974
90574,32295
90507,32233
90387,32239
90294,32497
90294,32204
90205,32123
89950,32142
89950,31491
89866,31288
89711,31134
89509,31050
89291,31049
89088,31133
88934,31288
88850,31490
88849,31708
88933,31911
89088,32065
89290,32149
89508,32150
89711,32066
89865,31911
89949,31709
89950,31491
89950,32142
89927,32144
89679,32269
89520,32443
89525,32563
90089,32768
90294,32204
90294,32497
90243,32637
90124,32755
90195,32826
90209,32812
90626,32963
90593,33058
90313,32956
90195,32837
90124,32908
90139,32922
90054,33154
90054,32862
89491,32657
89410,32745
89431,33023
89556,33271
89730,33430
89849,33425
90054,32862
90054,33154
89943,33459
90032,33540
90309,33519
90558,33394
90583,33367
90587,33371
90594,33364
90639,33472
90732,33497
91029,33200
91023,33194
91094,33123
91100,33129
91105,33123
91176,33194
91170,33200
91176,33205
" /> 
</g>
<g style="fill:#9F0000; fill-opacity:1.0; 
stroke:#9F0000; stroke-width:39.3701; stroke-opacity:1; 
stroke-linecap:round; stroke-linejoin:round;">
<polyline style="fill-rule:evenodd;"
points="91487,39309
91318,39239
91101,39238
91015,39274
90995,39270
90524,39270
90524,39117
90460,38961
90340,38841
90184,38777
90098,38776
88560,37238
89679,37238
89679,37766
89717,37858
89788,37929
89879,37967
89979,37967
90569,37967
90661,37929
90668,37922
90670,37951
90732,38100
90826,38127
91138,37815
90826,37503
90770,37519
90770,37238
90864,37238
90952,37326
90924,37338
90897,37433
91209,37745
91215,37739
91285,37810
91280,37815
91285,37821
91215,37892
91209,37886
90897,38198
90924,38293
91128,38365
91345,38354
91487,38296
91487,39309
" /> 
</g>
<g style="fill:#9F0000; fill-opacity:0.0; 
stroke:#9F0000; stroke-width:100; stroke-opacity:1; 
stroke-linecap:round; stroke-linejoin:round;">
<polyline fill="none;"
points="91487,39309
91318,39239
91101,39238
91015,39274
90995,39270
90524,39270
90524,39117
90460,38961
90340,38841
90184,38777
90098,38776
88560,37238
89679,37238
89679,37766
89717,37858
89788,37929
89879,37967
89979,37967
90569,37967
90661,37929
90668,37922
90670,37951
90732,38100
90826,38127
91138,37815
90826,37503
90770,37519
90770,37238
90864,37238
90952,37326
90924,37338
90897,37433
91209,37745
91215,37739
91285,37810
91280,37815
91285,37821
91215,37892
91209,37886
90897,38198
90924,38293
91128,38365
91345,38354
91487,38296
91487,39309
" /> 
</g>
<g style="fill:#9F0000; fill-opacity:1.0; 
stroke:#9F0000; stroke-width:39.3701; stroke-opacity:1; 
stroke-linecap:round; stroke-linejoin:round;">
<polyline style="fill-rule:evenodd;"
points="91487,46024
91025,46024
90933,46062
90863,46133
90825,46225
90824,46324
90824,46874
90862,46966
90933,47036
91025,47074
91112,47075
91077,47089
91052,47182
91350,47479
91355,47473
91426,47544
91420,47550
91426,47555
91355,47626
91350,47620
91344,47626
91273,47555
91279,47550
90982,47252
90889,47277
90820,47474
90831,47682
90878,47795
88047,47795
88047,46367
87750,46070
87452,46367
87477,46460
87674,46529
87882,46518
88022,46460
88047,46367
88047,47795
86275,47795
86275,47325
86237,47233
86166,47163
86074,47125
85975,47124
85425,47124
85333,47162
85263,47233
85225,47325
85224,47424
85224,47424
85195,47353
85047,47205
84854,47125
84646,47124
84453,47204
84305,47352
84249,47485
84195,47353
84047,47205
83854,47125
83646,47124
83453,47204
83305,47352
83249,47485
83195,47353
83047,47205
82854,47125
82646,47124
82453,47204
82305,47352
82249,47485
82195,47353
82047,47205
81854,47125
81646,47124
81453,47204
81305,47352
81249,47485
81195,47353
81047,47205
80854,47125
80646,47124
80453,47204
80305,47352
80249,47485
80195,47353
80047,47205
79854,47125
79646,47124
79453,47204
79305,47352
79249,47485
79195,47353
79047,47205
78854,47125
78646,47124
78453,47204
78305,47352
78243,47500
76555,47500
76574,47454
76575,47249
76788,47036
84013,47036
84013,47036
84128,47013
84128,47013
84226,46948
84649,46524
84853,46525
85047,46445
85194,46297
85250,46164
85304,46297
85452,46444
85645,46524
85853,46525
86047,46445
86194,46297
86250,46164
86304,46297
86452,46444
86645,46524
86853,46525
87047,46445
87194,46297
87247,46171
87289,46272
87382,46297
87679,46000
87673,45994
87744,45923
87750,45929
87755,45923
87826,45994
87820,46000
88117,46297
88210,46272
88249,46162
88304,46297
88452,46444
88645,46524
88853,46525
89047,46445
89194,46297
89274,46104
89275,45896
89214,45750
90249,45750
90249,45750
90364,45727
90364,45727
90461,45662
91099,45024
91303,45025
91487,44949
91487,46024
" /> 
</g>
<g style="fill:#9F0000; fill-opacity:0.0; 
stroke:#9F0000; stroke-width:100; stroke-opacity:1; 
stroke-linecap:round; stroke-linejoin:round;">
<polyline fill="none;"
points="91487,46024
91025,46024
90933,46062
90863,46133
90825,46225
90824,46324
90824,46874
90862,46966
90933,47036
91025,47074
91112,47075
91077,47089
91052,47182
91350,47479
91355,47473
91426,47544
91420,47550
91426,47555
91355,47626
91350,47620
91344,47626
91273,47555
91279,47550
90982,47252
90889,47277
90820,47474
90831,47682
90878,47795
88047,47795
88047,46367
87750,46070
87452,46367
87477,46460
87674,46529
87882,46518
88022,46460
88047,46367
88047,47795
86275,47795
86275,47325
86237,47233
86166,47163
86074,47125
85975,47124
85425,47124
85333,47162
85263,47233
85225,47325
85224,47424
85224,47424
85195,47353
85047,47205
84854,47125
84646,47124
84453,47204
84305,47352
84249,47485
84195,47353
84047,47205
83854,47125
83646,47124
83453,47204
83305,47352
83249,47485
83195,47353
83047,47205
82854,47125
82646,47124
82453,47204
82305,47352
82249,47485
82195,47353
82047,47205
81854,47125
81646,47124
81453,47204
81305,47352
81249,47485
81195,47353
81047,47205
80854,47125
80646,47124
80453,47204
80305,47352
80249,47485
80195,47353
80047,47205
79854,47125
79646,47124
79453,47204
79305,47352
79249,47485
79195,47353
79047,47205
78854,47125
78646,47124
78453,47204
78305,47352
78243,47500
76555,47500
76574,47454
76575,47249
76788,47036
84013,47036
84013,47036
84128,47013
84128,47013
84226,46948
84649,46524
84853,46525
85047,46445
85194,46297
85250,46164
85304,46297
85452,46444
85645,46524
85853,46525
86047,46445
86194,46297
86250,46164
86304,46297
86452,46444
86645,46524
86853,46525
87047,46445
87194,46297
87247,46171
87289,46272
87382,46297
87679,46000
87673,45994
87744,45923
87750,45929
87755,45923
87826,45994
87820,46000
88117,46297
88210,46272
88249,46162
88304,46297
88452,46444
88645,46524
88853,46525
89047,46445
89194,46297
89274,46104
89275,45896
89214,45750
90249,45750
90249,45750
90364,45727
90364,45727
90461,45662
91099,45024
91303,45025
91487,44949
91487,46024
" /> 
</g>
<g style="fill:#FFFFFF; fill-opacity:0.0; 
stroke:#FFFFFF; stroke-width:39.3701; stroke-opacity:1; 
stroke-linecap:round; stroke-linejoin:round;">
</g>
<g style="fill:#FFFFFF; fill-opacity:1.0; 
stroke:#FFFFFF; stroke-width:39.3701; stroke-opacity:1; 
stroke-linecap:round; stroke-linejoin:round;">
<circle cx="86999.5" cy="34210.4" r="105.315" /> 
<circle cx="90099.6" cy="39202" r="105.315" /> 
<circle cx="80921.7" cy="31645.7" r="105.315" /> 
<circle cx="85186.9" cy="32805.4" r="105.315" /> 
<circle cx="76751.2" cy="41907.6" r="105.315" /> 
<circle cx="79025.2" cy="43356.4" r="105.315" /> 
<circle cx="77091.1" cy="38277.5" r="105.315" /> 
<circle cx="78750" cy="29450" r="140.315" /> 
<circle cx="79750" cy="29450" r="140.315" /> 
<circle cx="80750" cy="29450" r="140.315" /> 
<circle cx="81750" cy="29450" r="140.315" /> 
<circle cx="82750" cy="29450" r="140.315" /> 
<circle cx="83750" cy="29450" r="140.315" /> 
<circle cx="84750" cy="29450" r="140.315" /> 
<circle cx="85750" cy="29450" r="140.315" /> 
<circle cx="85750" cy="47650" r="140.315" /> 
<circle cx="84750" cy="47650" r="140.315" /> 
<circle cx="83750" cy="47650" r="140.315" /> 
<circle cx="82750" cy="47650" r="140.315" /> 
<circle cx="81750" cy="47650" r="140.315" /> 
<circle cx="80750" cy="47650" r="140.315" /> 
<circle cx="79750" cy="47650" r="140.315" /> 
<circle cx="78750" cy="47650" r="140.315" /> 
<circle cx="89400" cy="31600" r="140.315" /> 
<circle cx="89400" cy="35600" r="140.315" /> 
<circle cx="81700" cy="42600" r="140.315" /> 
<circle cx="77700" cy="42600" r="140.315" /> 
<circle cx="76700" cy="33600" r="140.315" /> 
<circle cx="77700" cy="33600" r="140.315" /> 
<circle cx="78700" cy="33600" r="140.315" /> 
<circle cx="79700" cy="33600" r="140.315" /> 
<circle cx="80700" cy="33600" r="140.315" /> 
<circle cx="81700" cy="33600" r="140.315" /> 
<circle cx="82700" cy="33600" r="140.315" /> 
<circle cx="83700" cy="33600" r="140.315" /> 
<circle cx="84700" cy="33600" r="140.315" /> 
<circle cx="85700" cy="33600" r="140.315" /> 
<circle cx="86700" cy="33600" r="140.315" /> 
<circle cx="87700" cy="33600" r="140.315" /> 
<circle cx="87700" cy="30600" r="140.315" /> 
<circle cx="86700" cy="30600" r="140.315" /> 
<circle cx="85700" cy="30600" r="140.315" /> 
<circle cx="84700" cy="30600" r="140.315" /> 
<circle cx="83700" cy="30600" r="140.315" /> 
<circle cx="82700" cy="30600" r="140.315" /> 
<circle cx="81700" cy="30600" r="140.315" /> 
<circle cx="80700" cy="30600" r="140.315" /> 
<circle cx="79700" cy="30600" r="140.315" /> 
<circle cx="78700" cy="30600" r="140.315" /> 
<circle cx="77700" cy="30600" r="140.315" /> 
<circle cx="76700" cy="30600" r="140.315" /> 
<circle cx="74900" cy="34600" r="140.315" /> 
<circle cx="74900" cy="33600" r="140.315" /> 
<circle cx="74300" cy="31900" r="140.315" /> 
<circle cx="75300" cy="31900" r="140.315" /> 
<circle cx="85750" cy="38750" r="140.315" /> 
<circle cx="84750" cy="38750" r="140.315" /> 
<circle cx="83750" cy="38750" r="140.315" /> 
<circle cx="82750" cy="38750" r="140.315" /> 
<circle cx="81750" cy="38750" r="140.315" /> 
<circle cx="80750" cy="38750" r="140.315" /> 
<circle cx="79750" cy="38750" r="140.315" /> 
<circle cx="78750" cy="38750" r="140.315" /> 
<circle cx="77750" cy="46000" r="140.315" /> 
<circle cx="78750" cy="46000" r="140.315" /> 
<circle cx="79750" cy="46000" r="140.315" /> 
<circle cx="80750" cy="46000" r="140.315" /> 
<circle cx="81750" cy="46000" r="140.315" /> 
<circle cx="82750" cy="46000" r="140.315" /> 
<circle cx="83750" cy="46000" r="140.315" /> 
<circle cx="84750" cy="46000" r="140.315" /> 
<circle cx="85750" cy="46000" r="140.315" /> 
<circle cx="86750" cy="46000" r="140.315" /> 
<circle cx="87750" cy="46000" r="140.315" /> 
<circle cx="88750" cy="46000" r="140.315" /> 
<circle cx="88750" cy="40000" r="140.315" /> 
<circle cx="87750" cy="40000" r="140.315" /> 
<circle cx="86750" cy="40000" r="140.315" /> 
<circle cx="85750" cy="40000" r="140.315" /> 
<circle cx="84750" cy="40000" r="140.315" /> 
<circle cx="83750" cy="40000" r="140.315" /> 
<circle cx="82750" cy="40000" r="140.315" /> 
<circle cx="81750" cy="40000" r="140.315" /> 
<circle cx="80750" cy="40000" r="140.315" /> 
<circle cx="79750" cy="40000" r="140.315" /> 
<circle cx="78750" cy="40000" r="140.315" /> 
<circle cx="77750" cy="40000" r="140.315" /> 
<circle cx="76700" cy="37700" r="140.315" /> 
<circle cx="77700" cy="37700" r="140.315" /> 
<circle cx="78700" cy="37700" r="140.315" /> 
<circle cx="79700" cy="37700" r="140.315" /> 
<circle cx="80700" cy="37700" r="140.315" /> 
<circle cx="81700" cy="37700" r="140.315" /> 
<circle cx="82700" cy="37700" r="140.315" /> 
<circle cx="83700" cy="37700" r="140.315" /> 
<circle cx="84700" cy="37700" r="140.315" /> 
<circle cx="85700" cy="37700" r="140.315" /> 
<circle cx="86700" cy="37700" r="140.315" /> 
<circle cx="87700" cy="37700" r="140.315" /> 
<circle cx="87700" cy="34700" r="140.315" /> 
<circle cx="86700" cy="34700" r="140.315" /> 
<circle cx="85700" cy="34700" r="140.315" /> 
<circle cx="84700" cy="34700" r="140.315" /> 
<circle cx="83700" cy="34700" r="140.315" /> 
<circle cx="82700" cy="34700" r="140.315" /> 
<circle cx="81700" cy="34700" r="140.315" /> 
<circle cx="80700" cy="34700" r="140.315" /> 
<circle cx="79700" cy="34700" r="140.315" /> 
<circle cx="78700" cy="34700" r="140.315" /> 
<circle cx="77700" cy="34700" r="140.315" /> 
<circle cx="76700" cy="34700" r="140.315" /> 
<circle cx="73400" cy="43100" r="140.315" /> 
<circle cx="74400" cy="43100" r="140.315" /> 
<circle cx="75400" cy="43100" r="140.315" /> 
<circle cx="76400" cy="43100" r="140.315" /> 
<circle cx="84250" cy="45000" r="140.315" /> 
<circle cx="85250" cy="45000" r="140.315" /> 
<circle cx="81700" cy="41400" r="140.315" /> 
<circle cx="77700" cy="41400" r="140.315" /> 
<circle cx="87300" cy="45000" r="140.315" /> 
<circle cx="87300" cy="41000" r="140.315" /> 
<circle cx="86400" cy="45000" r="140.315" /> 
<circle cx="86400" cy="41000" r="140.315" /> 
<circle cx="88200" cy="41500" r="140.315" /> 
<circle cx="88200" cy="42500" r="140.315" /> 
<circle cx="88200" cy="43500" r="140.315" /> 
<circle cx="88200" cy="44500" r="140.315" /> 
<circle cx="91200" cy="44500" r="140.315" /> 
<circle cx="91200" cy="43500" r="140.315" /> 
<circle cx="91200" cy="42500" r="140.315" /> 
<circle cx="91200" cy="41500" r="140.315" /> 
<circle cx="90118.9" cy="32832.1" r="180.315" /> 
<circle cx="81962.2" cy="36635.7" r="180.315" /> 
<circle cx="73400" cy="41400" r="140.315" /> 
<circle cx="74400" cy="41400" r="140.315" /> 
<circle cx="75400" cy="41400" r="140.315" /> 
<circle cx="76400" cy="41400" r="140.315" /> 
<circle cx="82800" cy="45000" r="140.315" /> 
<circle cx="82800" cy="44000" r="140.315" /> 
<circle cx="82800" cy="43000" r="140.315" /> 
<circle cx="82800" cy="42000" r="140.315" /> 
</g>
<g style="fill:#FFFFFF; fill-opacity:1.0; 
stroke:#FFFFFF; stroke-width:236.22; stroke-opacity:1; 
stroke-linecap:round; stroke-linejoin:round;">
<path d="M91209 39803
L91209 39764
" />
<path d="M91209 37835
L91209 37796
" />
<path d="M90146 40177
L90303 40177
" />
<path d="M90146 37422
L90303 37422
" />
<path d="M73290 37796
L73290 37835
" />
<path d="M73290 39764
L73290 39803
" />
<path d="M74353 37422
L74196 37422
" />
<path d="M74353 40177
L74196 40177
" />
<path d="M91103 29490
L91064 29490
" />
<path d="M89135 29490
L89096 29490
" />
<path d="M91477 30553
L91477 30396
" />
<path d="M88722 30553
L88722 30396
" />
<path d="M75403 29490
L75364 29490
" />
<path d="M73435 29490
L73396 29490
" />
<path d="M75777 30553
L75777 30396
" />
<path d="M73022 30553
L73022 30396
" />
</g>
<g style="fill:#FFFFFF; fill-opacity:1.0; 
stroke:#FFFFFF; stroke-width:39.3701; stroke-opacity:1; 
stroke-linecap:round; stroke-linejoin:round;">
<circle cx="73300" cy="32200" r="140.315" /> 
<circle cx="73300" cy="33200" r="140.315" /> 
<circle cx="73300" cy="34200" r="140.315" /> 
<circle cx="73300" cy="35200" r="140.315" /> 
<circle cx="73300" cy="36200" r="140.315" /> 
<circle cx="91100" cy="32200" r="140.315" /> 
<circle cx="91100" cy="33200" r="140.315" /> 
<circle cx="91100" cy="34200" r="140.315" /> 
<circle cx="91100" cy="35200" r="140.315" /> 
<circle cx="91100" cy="36200" r="140.315" /> 
<circle cx="73400" cy="44350" r="140.315" /> 
<circle cx="73400" cy="45350" r="140.315" /> 
<circle cx="73400" cy="46350" r="140.315" /> 
<circle cx="73400" cy="47350" r="140.315" /> 
<circle cx="74750" cy="44350" r="140.315" /> 
<circle cx="74750" cy="45350" r="140.315" /> 
<circle cx="74750" cy="46350" r="140.315" /> 
<circle cx="74750" cy="47350" r="140.315" /> 
<circle cx="76050" cy="44350" r="140.315" /> 
<circle cx="76050" cy="45350" r="140.315" /> 
<circle cx="76050" cy="46350" r="140.315" /> 
<circle cx="76050" cy="47350" r="140.315" /> 
<circle cx="84350" cy="41000" r="140.315" /> 
<circle cx="85350" cy="41000" r="140.315" /> 
<circle cx="91350" cy="46550" r="140.315" /> 
<circle cx="91350" cy="47550" r="140.315" /> 
</g> 
</svg>
