<?xml version="1.0" standalone="no"?>
 <!DOCTYPE svg PUBLIC "-//W3C//DTD SVG 1.1//EN" 
 "http://www.w3.org/Graphics/SVG/1.1/DTD/svg11.dtd"> 
<svg xmlns="http://www.w3.org/2000/svg" version="1.1" 
    width="29.7002cm" height="21.0007cm" viewBox="0 0 116930 82680 ">
<title>SVG Picture created as matrix7219_5cm-F_Mask.svg date 2014/06/01 15:36:14 </title>
  <desc>Picture generated by PCBNEW </desc>
<g style="fill:#000000; fill-opacity:1;stroke:#000000; stroke-opacity:1;
stroke-linecap:round; stroke-linejoin:round; "
 transform="translate(0 0) scale(1 1)">
</g>
<g style="fill:#000000; fill-opacity:0.0; 
stroke:#000000; stroke-width:39.3701; stroke-opacity:1; 
stroke-linecap:round; stroke-linejoin:round;">
<path d="M4000 4000
L112930 4000
L112930 78680
L4000 78680
L4000 4000
" />
<path d="M4700 4700
L112230 4700
L112230 77980
L4700 77980
L4700 4700
" />
<path d="M25780 4000
L25780 4700
" />
<path d="M15032 4552
L14747 4552
" />
<path d="M14890 4552
L14890 4052
L14842 4123
L14794 4171
L14747 4195
" />
<path d="M25780 78680
L25780 77980
" />
<path d="M15032 78532
L14747 78532
" />
<path d="M14890 78532
L14890 78032
L14842 78103
L14794 78151
L14747 78175
" />
<path d="M47560 4000
L47560 4700
" />
<path d="M36527 4100
L36550 4076
L36598 4052
L36717 4052
L36765 4076
L36789 4100
L36812 4147
L36812 4195
L36789 4266
L36503 4552
L36812 4552
" />
<path d="M47560 78680
L47560 77980
" />
<path d="M36527 78080
L36550 78056
L36598 78032
L36717 78032
L36765 78056
L36789 78080
L36812 78127
L36812 78175
L36789 78246
L36503 78532
L36812 78532
" />
<path d="M69340 4000
L69340 4700
" />
<path d="M58283 4052
L58592 4052
L58426 4242
L58497 4242
L58545 4266
L58569 4290
L58592 4338
L58592 4457
L58569 4504
L58545 4528
L58497 4552
L58354 4552
L58307 4528
L58283 4504
" />
<path d="M69340 78680
L69340 77980
" />
<path d="M58283 78032
L58592 78032
L58426 78222
L58497 78222
L58545 78246
L58569 78270
L58592 78318
L58592 78437
L58569 78484
L58545 78508
L58497 78532
L58354 78532
L58307 78508
L58283 78484
" />
<path d="M91120 4000
L91120 4700
" />
<path d="M80325 4219
L80325 4552
" />
<path d="M80206 4028
L80087 4385
L80396 4385
" />
<path d="M91120 78680
L91120 77980
" />
<path d="M80325 78199
L80325 78532
" />
<path d="M80206 78008
L80087 78365
L80396 78365
" />
<path d="M102129 4052
L101890 4052
L101867 4290
L101890 4266
L101938 4242
L102057 4242
L102105 4266
L102129 4290
L102152 4338
L102152 4457
L102129 4504
L102105 4528
L102057 4552
L101938 4552
L101890 4528
L101867 4504
" />
<path d="M102129 78032
L101890 78032
L101867 78270
L101890 78246
L101938 78222
L102057 78222
L102105 78246
L102129 78270
L102152 78318
L102152 78437
L102129 78484
L102105 78508
L102057 78532
L101938 78532
L101890 78508
L101867 78484
" />
<path d="M4000 28890
L4700 28890
" />
<path d="M4230 16509
L4469 16509
" />
<path d="M4183 16652
L4350 16152
L4516 16652
" />
<path d="M112930 28890
L112230 28890
" />
<path d="M112460 16509
L112699 16509
" />
<path d="M112413 16652
L112580 16152
L112746 16652
" />
<path d="M4000 53780
L4700 53780
" />
<path d="M4385 41280
L4457 41304
L4480 41328
L4504 41375
L4504 41447
L4480 41494
L4457 41518
L4409 41542
L4219 41542
L4219 41042
L4385 41042
L4433 41066
L4457 41090
L4480 41137
L4480 41185
L4457 41232
L4433 41256
L4385 41280
L4219 41280
" />
<path d="M112930 53780
L112230 53780
" />
<path d="M112615 41280
L112687 41304
L112710 41328
L112734 41375
L112734 41447
L112710 41494
L112687 41518
L112639 41542
L112449 41542
L112449 41042
L112615 41042
L112663 41066
L112687 41090
L112710 41137
L112710 41185
L112687 41232
L112663 41256
L112615 41280
L112449 41280
" />
<path d="M4504 66384
L4480 66408
L4409 66432
L4361 66432
L4290 66408
L4242 66360
L4219 66313
L4195 66218
L4195 66146
L4219 66051
L4242 66003
L4290 65956
L4361 65932
L4409 65932
L4480 65956
L4504 65980
" />
<path d="M112734 66384
L112710 66408
L112639 66432
L112591 66432
L112520 66408
L112472 66360
L112449 66313
L112425 66218
L112425 66146
L112449 66051
L112472 66003
L112520 65956
L112591 65932
L112639 65932
L112710 65956
L112734 65980
" />
<path d="M79380 76422
L79455 75822
L79597 75822
L79680 75851
L79730 75908
L79751 75965
L79765 76080
L79755 76165
L79712 76280
L79676 76337
L79612 76394
L79522 76422
L79380 76422
" />
<path d="M80237 76422
L80276 76108
L80255 76051
L80201 76022
L80087 76022
L80026 76051
" />
<path d="M80240 76394
L80180 76422
L80037 76422
L79983 76394
L79962 76337
L79969 76280
L80005 76222
L80065 76194
L80208 76194
L80269 76165
" />
<path d="M80487 76022
L80715 76022
" />
<path d="M80597 75822
L80533 76337
L80555 76394
L80608 76422
L80665 76422
" />
<path d="M81097 76394
L81037 76422
L80922 76422
L80869 76394
L80847 76337
L80876 76108
L80912 76051
L80972 76022
L81087 76022
L81140 76051
L81162 76108
L81155 76165
L80862 76222
" />
<path d="M81387 76365
L81412 76394
L81380 76422
L81355 76394
L81387 76365
L81380 76422
" />
<path d="M81426 76051
L81451 76080
L81419 76108
L81394 76080
L81426 76051
L81419 76108
" />
<path d="M82437 76422
L82094 76422
" />
<path d="M82265 76422
L82340 75822
L82272 75908
L82208 75965
L82147 75994
" />
<path d="M83201 76022
L83137 76537
L83101 76594
L83040 76622
L83012 76622
" />
<path d="M83226 75822
L83194 75851
L83219 75880
L83251 75851
L83226 75822
L83219 75880
" />
<path d="M83744 76022
L83694 76422
" />
<path d="M83487 76022
L83447 76337
L83469 76394
L83522 76422
L83608 76422
L83669 76394
L83701 76365
" />
<path d="M84030 76022
L83980 76422
" />
<path d="M84022 76080
L84055 76051
L84115 76022
L84201 76022
L84255 76051
L84276 76108
L84237 76422
" />
<path d="M85019 75880
L85051 75851
L85112 75822
L85255 75822
L85308 75851
L85333 75880
L85355 75937
L85347 75994
L85308 76080
L84922 76422
L85294 76422
" />
<path d="M85740 75822
L85797 75822
L85851 75851
L85876 75880
L85897 75937
L85912 76051
L85894 76194
L85851 76308
L85815 76365
L85783 76394
L85722 76422
L85665 76422
L85612 76394
L85587 76365
L85565 76308
L85551 76194
L85569 76051
L85612 75937
L85647 75880
L85680 75851
L85740 75822
" />
<path d="M86437 76422
L86094 76422
" />
<path d="M86265 76422
L86340 75822
L86272 75908
L86208 75965
L86147 75994
" />
<path d="M87001 76022
L86951 76422
" />
<path d="M86887 75794
L86690 76222
L87062 76222
" />
<path d="M70972 77622
L70972 77022
" />
<path d="M71315 77622
L71058 77280
" />
<path d="M71315 77022
L70972 77365
" />
<path d="M71572 77622
L71572 77222
" />
<path d="M71572 77022
L71544 77051
L71572 77080
L71601 77051
L71572 77022
L71572 77080
" />
<path d="M72201 77565
L72172 77594
L72087 77622
L72030 77622
L71944 77594
L71887 77537
L71858 77480
L71830 77365
L71830 77280
L71858 77165
L71887 77108
L71944 77051
L72030 77022
L72087 77022
L72172 77051
L72201 77080
" />
<path d="M72715 77622
L72715 77308
L72687 77251
L72630 77222
L72515 77222
L72458 77251
" />
<path d="M72715 77594
L72658 77622
L72515 77622
L72458 77594
L72430 77537
L72430 77480
L72458 77422
L72515 77394
L72658 77394
L72715 77365
" />
<path d="M73258 77622
L73258 77022
" />
<path d="M73258 77594
L73201 77622
L73087 77622
L73030 77594
L73001 77565
L72972 77508
L72972 77337
L73001 77280
L73030 77251
L73087 77222
L73201 77222
L73258 77251
" />
<path d="M74001 77308
L74201 77308
" />
<path d="M74287 77622
L74001 77622
L74001 77022
L74287 77022
" />
<path d="M74544 77565
L74572 77594
L74544 77622
L74515 77594
L74544 77565
L74544 77622
" />
<path d="M74829 77622
L74829 77022
L74972 77022
L75058 77051
L75115 77108
L75144 77165
L75172 77280
L75172 77365
L75144 77480
L75115 77537
L75058 77594
L74972 77622
L74829 77622
" />
<path d="M75429 77565
L75458 77594
L75429 77622
L75401 77594
L75429 77565
L75429 77622
" />
<path d="M75687 77451
L75972 77451
" />
<path d="M75629 77622
L75829 77022
L76029 77622
" />
<path d="M76229 77565
L76258 77594
L76229 77622
L76201 77594
L76229 77565
L76229 77622
" />
<path d="M104522 76422
L104358 76137
" />
<path d="M104180 76422
L104255 75822
L104483 75822
L104537 75851
L104562 75880
L104583 75937
L104572 76022
L104537 76080
L104505 76108
L104444 76137
L104215 76137
" />
<path d="M105012 76394
L104951 76422
L104837 76422
L104783 76394
L104762 76337
L104790 76108
L104826 76051
L104887 76022
L105001 76022
L105055 76051
L105076 76108
L105069 76165
L104776 76222
" />
<path d="M105287 76022
L105380 76422
L105572 76022
" />
<path d="M105758 76365
L105783 76394
L105751 76422
L105726 76394
L105758 76365
L105751 76422
" />
<path d="M105797 76051
L105822 76080
L105790 76108
L105765 76080
L105797 76051
L105790 76108
" />
<path d="M70944 76394
L71030 76422
L71172 76422
L71230 76394
L71258 76365
L71287 76308
L71287 76251
L71258 76194
L71230 76165
L71172 76137
L71058 76108
L71001 76080
L70972 76051
L70944 75994
L70944 75937
L70972 75880
L71001 75851
L71058 75822
L71201 75822
L71287 75851
" />
<path d="M71544 76422
L71544 76022
" />
<path d="M71544 75822
L71515 75851
L71544 75880
L71572 75851
L71544 75822
L71544 75880
" />
<path d="M71772 76022
L72087 76022
L71772 76422
L72087 76422
" />
<path d="M72544 76394
L72487 76422
L72372 76422
L72315 76394
L72287 76337
L72287 76108
L72315 76051
L72372 76022
L72487 76022
L72544 76051
L72572 76108
L72572 76165
L72287 76222
" />
<path d="M72830 76365
L72858 76394
L72830 76422
L72801 76394
L72830 76365
L72830 76422
" />
<path d="M72830 76051
L72858 76080
L72830 76108
L72801 76080
L72830 76051
L72830 76108
" />
<path d="M73544 76251
L73830 76251
" />
<path d="M73487 76422
L73687 75822
L73887 76422
" />
<path d="M74344 76022
L74344 76422
" />
<path d="M74201 75794
L74058 76222
L74430 76222
" />
<path d="M104172 77622
L104172 77022
" />
<path d="M104715 77622
L104715 77022
" />
<path d="M104715 77594
L104658 77622
L104544 77622
L104487 77594
L104458 77565
L104430 77508
L104430 77337
L104458 77280
L104487 77251
L104544 77222
L104658 77222
L104715 77251
" />
<path d="M105001 77565
L105030 77594
L105001 77622
L104972 77594
L105001 77565
L105001 77622
" />
<path d="M105001 77251
L105030 77280
L105001 77308
L104972 77280
L105001 77251
L105001 77308
" />
<path d="M106058 77622
L105715 77622
" />
<path d="M105887 77622
L105887 77022
L105829 77108
L105772 77165
L105715 77194
" />
<path d="M106744 76994
L106230 77765
" />
<path d="M107258 77622
L106915 77622
" />
<path d="M107087 77622
L107087 77022
L107029 77108
L106972 77165
L106915 77194
" />
<path d="M70969 74622
L71312 74622
" />
<path d="M71065 75222
L71140 74622
" />
<path d="M71437 75222
L71487 74822
" />
<path d="M71512 74622
L71480 74651
L71505 74680
L71537 74651
L71512 74622
L71505 74680
" />
<path d="M71687 74822
L71915 74822
" />
<path d="M71797 74622
L71733 75137
L71755 75194
L71808 75222
L71865 75222
" />
<path d="M72151 75222
L72097 75194
L72076 75137
L72140 74622
" />
<path d="M72612 75194
L72551 75222
L72437 75222
L72383 75194
L72362 75137
L72390 74908
L72426 74851
L72487 74822
L72601 74822
L72655 74851
L72676 74908
L72669 74965
L72376 75022
" />
<path d="M72901 75165
L72926 75194
L72894 75222
L72869 75194
L72901 75165
L72894 75222
" />
<path d="M72940 74851
L72965 74880
L72933 74908
L72908 74880
L72940 74851
L72933 74908
" />
<path d="M71172 72508
L70972 72508
" />
<path d="M70972 72822
L70972 72222
L71258 72222
" />
<path d="M71487 72822
L71487 72422
" />
<path d="M71487 72222
L71458 72251
L71487 72280
L71515 72251
L71487 72222
L71487 72280
" />
<path d="M71858 72822
L71801 72794
L71772 72737
L71772 72222
" />
<path d="M72315 72794
L72258 72822
L72144 72822
L72087 72794
L72058 72737
L72058 72508
L72087 72451
L72144 72422
L72258 72422
L72315 72451
L72344 72508
L72344 72565
L72058 72622
" />
<path d="M72601 72765
L72630 72794
L72601 72822
L72572 72794
L72601 72765
L72601 72822
" />
<path d="M72601 72451
L72630 72480
L72601 72508
L72572 72480
L72601 72451
L72601 72508
" />
<path d="M73344 72822
L73344 72422
" />
<path d="M73344 72480
L73372 72451
L73430 72422
L73515 72422
L73572 72451
L73601 72508
L73601 72822
" />
<path d="M73601 72508
L73630 72451
L73687 72422
L73772 72422
L73830 72451
L73858 72508
L73858 72822
" />
<path d="M74401 72822
L74401 72508
L74372 72451
L74315 72422
L74201 72422
L74144 72451
" />
<path d="M74401 72794
L74344 72822
L74201 72822
L74144 72794
L74115 72737
L74115 72680
L74144 72622
L74201 72594
L74344 72594
L74401 72565
" />
<path d="M74601 72422
L74830 72422
" />
<path d="M74687 72222
L74687 72737
L74715 72794
L74772 72822
L74830 72822
" />
<path d="M75030 72822
L75030 72422
" />
<path d="M75030 72537
L75058 72480
L75087 72451
L75144 72422
L75201 72422
" />
<path d="M75401 72822
L75401 72422
" />
<path d="M75401 72222
L75372 72251
L75401 72280
L75430 72251
L75401 72222
L75401 72280
" />
<path d="M75630 72822
L75944 72422
" />
<path d="M75630 72422
L75944 72822
" />
<path d="M76115 72222
L76515 72222
L76258 72822
" />
<path d="M76715 72280
L76744 72251
L76801 72222
L76944 72222
L77001 72251
L77030 72280
L77058 72337
L77058 72394
L77030 72480
L76687 72822
L77058 72822
" />
<path d="M77630 72822
L77287 72822
" />
<path d="M77458 72822
L77458 72222
L77401 72308
L77344 72365
L77287 72394
" />
<path d="M77915 72822
L78030 72822
L78087 72794
L78115 72765
L78172 72680
L78201 72565
L78201 72337
L78172 72280
L78144 72251
L78087 72222
L77972 72222
L77915 72251
L77887 72280
L77858 72337
L77858 72480
L77887 72537
L77915 72565
L77972 72594
L78087 72594
L78144 72565
L78172 72537
L78201 72480
" />
<path d="M78315 72880
L78772 72880
" />
<path d="M79201 72222
L78915 72222
L78887 72508
L78915 72480
L78972 72451
L79115 72451
L79172 72480
L79201 72508
L79230 72565
L79230 72708
L79201 72765
L79172 72794
L79115 72822
L78972 72822
L78915 72794
L78887 72765
" />
<path d="M79744 72794
L79687 72822
L79572 72822
L79515 72794
L79487 72765
L79458 72708
L79458 72537
L79487 72480
L79515 72451
L79572 72422
L79687 72422
L79744 72451
" />
<path d="M80001 72822
L80001 72422
" />
<path d="M80001 72480
L80030 72451
L80087 72422
L80172 72422
L80230 72451
L80258 72508
L80258 72822
" />
<path d="M80258 72508
L80287 72451
L80344 72422
L80430 72422
L80487 72451
L80515 72508
L80515 72822
" />
<path d="M80801 72765
L80830 72794
L80801 72822
L80772 72794
L80801 72765
L80801 72822
" />
<path d="M81087 72822
L81087 72222
" />
<path d="M81144 72594
L81315 72822
" />
<path d="M81315 72422
L81087 72651
" />
<path d="M81572 72822
L81572 72422
" />
<path d="M81572 72222
L81544 72251
L81572 72280
L81601 72251
L81572 72222
L81572 72280
" />
<path d="M82115 72794
L82058 72822
L81944 72822
L81887 72794
L81858 72765
L81830 72708
L81830 72537
L81858 72480
L81887 72451
L81944 72422
L82058 72422
L82115 72451
" />
<path d="M82630 72822
L82630 72508
L82601 72451
L82544 72422
L82430 72422
L82372 72451
" />
<path d="M82630 72794
L82572 72822
L82430 72822
L82372 72794
L82344 72737
L82344 72680
L82372 72622
L82430 72594
L82572 72594
L82630 72565
" />
<path d="M83172 72822
L83172 72222
" />
<path d="M83172 72794
L83115 72822
L83001 72822
L82944 72794
L82915 72765
L82887 72708
L82887 72537
L82915 72480
L82944 72451
L83001 72422
L83115 72422
L83172 72451
" />
<path d="M83315 72880
L83772 72880
" />
<path d="M83915 72422
L83915 73022
" />
<path d="M83915 72451
L83972 72422
L84087 72422
L84144 72451
L84172 72480
L84201 72537
L84201 72708
L84172 72765
L84144 72794
L84087 72822
L83972 72822
L83915 72794
" />
<path d="M84715 72794
L84658 72822
L84544 72822
L84487 72794
L84458 72765
L84430 72708
L84430 72537
L84458 72480
L84487 72451
L84544 72422
L84658 72422
L84715 72451
" />
<path d="M84972 72822
L84972 72222
" />
<path d="M84972 72451
L85030 72422
L85144 72422
L85201 72451
L85230 72480
L85258 72537
L85258 72708
L85230 72765
L85201 72794
L85144 72822
L85030 72822
L84972 72794
" />
<path d="M70944 73994
L71030 74022
L71172 74022
L71230 73994
L71258 73965
L71287 73908
L71287 73851
L71258 73794
L71230 73765
L71172 73737
L71058 73708
L71001 73680
L70972 73651
L70944 73594
L70944 73537
L70972 73480
L71001 73451
L71058 73422
L71201 73422
L71287 73451
" />
<path d="M71544 74022
L71544 73422
" />
<path d="M71801 74022
L71801 73708
L71772 73651
L71715 73622
L71630 73622
L71572 73651
L71544 73680
" />
<path d="M72315 73994
L72258 74022
L72144 74022
L72087 73994
L72058 73937
L72058 73708
L72087 73651
L72144 73622
L72258 73622
L72315 73651
L72344 73708
L72344 73765
L72058 73822
" />
<path d="M72830 73994
L72772 74022
L72658 74022
L72601 73994
L72572 73937
L72572 73708
L72601 73651
L72658 73622
L72772 73622
L72830 73651
L72858 73708
L72858 73765
L72572 73822
" />
<path d="M73030 73622
L73258 73622
" />
<path d="M73115 73422
L73115 73937
L73144 73994
L73201 74022
L73258 74022
" />
<path d="M73458 73965
L73487 73994
L73458 74022
L73430 73994
L73458 73965
L73458 74022
" />
<path d="M73458 73651
L73487 73680
L73458 73708
L73430 73680
L73458 73651
L73458 73708
" />
<path d="M70230 71980
L70230 77980
" />
<path d="M70230 71980
L112230 71980
" />
<path d="M70230 71980
L112230 71980
" />
<path d="M70230 74380
L112230 74380
" />
<path d="M103430 75580
L103430 77980
" />
<path d="M70230 76780
L112230 76780
" />
<path d="M70230 75580
L112230 75580
" />
<path d="M76830 75580
L76830 76780
" />
</g>
<g style="fill:#FFFF00; fill-opacity:0.0; 
stroke:#FFFF00; stroke-width:39.3701; stroke-opacity:1; 
stroke-linecap:round; stroke-linejoin:round;">
<path d="M72500 48250
L72500 28750
" />
<path d="M92000 48250
L72500 48250
" />
<path d="M92000 28750
L92000 48250
" />
<path d="M72500 28750
L92000 28750
" />
</g>
<g style="fill:#7F7F00; fill-opacity:0.0; 
stroke:#7F7F00; stroke-width:39.3701; stroke-opacity:1; 
stroke-linecap:round; stroke-linejoin:round;">
</g>
<g style="fill:#7F7F00; fill-opacity:1.0; 
stroke:#7F7F00; stroke-width:39.3701; stroke-opacity:1; 
stroke-linecap:round; stroke-linejoin:round;">
<polyline style="fill-rule:evenodd;"
points="78494,29705
78494,29194
79005,29194
79005,29705
78494,29705
" /> 
<circle cx="79750" cy="29450" r="255.315" /> 
<circle cx="80750" cy="29450" r="255.315" /> 
<circle cx="81750" cy="29450" r="255.315" /> 
<circle cx="82750" cy="29450" r="255.315" /> 
<circle cx="83750" cy="29450" r="255.315" /> 
<circle cx="84750" cy="29450" r="255.315" /> 
<circle cx="85750" cy="29450" r="255.315" /> 
<polyline style="fill-rule:evenodd;"
points="86005,47394
86005,47905
85494,47905
85494,47394
86005,47394
" /> 
<circle cx="84750" cy="47650" r="255.315" /> 
<circle cx="83750" cy="47650" r="255.315" /> 
<circle cx="82750" cy="47650" r="255.315" /> 
<circle cx="81750" cy="47650" r="255.315" /> 
<circle cx="80750" cy="47650" r="255.315" /> 
<circle cx="79750" cy="47650" r="255.315" /> 
<circle cx="78750" cy="47650" r="255.315" /> 
<circle cx="89400" cy="31600" r="280.315" /> 
<circle cx="89400" cy="35600" r="280.315" /> 
<circle cx="81700" cy="42600" r="280.315" /> 
<circle cx="77700" cy="42600" r="280.315" /> 
<polyline style="fill-rule:evenodd;"
points="76444,33855
76444,33344
76955,33344
76955,33855
76444,33855
" /> 
<circle cx="77700" cy="33600" r="255.315" /> 
<circle cx="78700" cy="33600" r="255.315" /> 
<circle cx="79700" cy="33600" r="255.315" /> 
<circle cx="80700" cy="33600" r="255.315" /> 
<circle cx="81700" cy="33600" r="255.315" /> 
<circle cx="82700" cy="33600" r="255.315" /> 
<circle cx="83700" cy="33600" r="255.315" /> 
<circle cx="84700" cy="33600" r="255.315" /> 
<circle cx="85700" cy="33600" r="255.315" /> 
<circle cx="86700" cy="33600" r="255.315" /> 
<circle cx="87700" cy="33600" r="255.315" /> 
<circle cx="87700" cy="30600" r="255.315" /> 
<circle cx="86700" cy="30600" r="255.315" /> 
<circle cx="85700" cy="30600" r="255.315" /> 
<circle cx="84700" cy="30600" r="255.315" /> 
<circle cx="83700" cy="30600" r="255.315" /> 
<circle cx="82700" cy="30600" r="255.315" /> 
<circle cx="81700" cy="30600" r="255.315" /> 
<circle cx="80700" cy="30600" r="255.315" /> 
<circle cx="79700" cy="30600" r="255.315" /> 
<circle cx="78700" cy="30600" r="255.315" /> 
<circle cx="77700" cy="30600" r="255.315" /> 
<circle cx="76700" cy="30600" r="255.315" /> 
<polyline style="fill-rule:evenodd;"
points="75205,34905
74594,34905
74594,34294
75205,34294
75205,34905
" /> 
<circle cx="74900" cy="33600" r="305.315" /> 
<circle cx="74300" cy="31900" r="255.315" /> 
<circle cx="75300" cy="31900" r="255.315" /> 
<polyline style="fill-rule:evenodd;"
points="86005,38494
86005,39005
85494,39005
85494,38494
86005,38494
" /> 
<circle cx="84750" cy="38750" r="255.315" /> 
<circle cx="83750" cy="38750" r="255.315" /> 
<circle cx="82750" cy="38750" r="255.315" /> 
<circle cx="81750" cy="38750" r="255.315" /> 
<circle cx="80750" cy="38750" r="255.315" /> 
<circle cx="79750" cy="38750" r="255.315" /> 
<circle cx="78750" cy="38750" r="255.315" /> 
<polyline style="fill-rule:evenodd;"
points="77494,46255
77494,45744
78005,45744
78005,46255
77494,46255
" /> 
<circle cx="78750" cy="46000" r="255.315" /> 
<circle cx="79750" cy="46000" r="255.315" /> 
<circle cx="80750" cy="46000" r="255.315" /> 
<circle cx="81750" cy="46000" r="255.315" /> 
<circle cx="82750" cy="46000" r="255.315" /> 
<circle cx="83750" cy="46000" r="255.315" /> 
<circle cx="84750" cy="46000" r="255.315" /> 
<circle cx="85750" cy="46000" r="255.315" /> 
<circle cx="86750" cy="46000" r="255.315" /> 
<circle cx="87750" cy="46000" r="255.315" /> 
<circle cx="88750" cy="46000" r="255.315" /> 
<polyline style="fill-rule:evenodd;"
points="89005,39744
89005,40255
88494,40255
88494,39744
89005,39744
" /> 
<circle cx="87750" cy="40000" r="255.315" /> 
<circle cx="86750" cy="40000" r="255.315" /> 
<circle cx="85750" cy="40000" r="255.315" /> 
<circle cx="84750" cy="40000" r="255.315" /> 
<circle cx="83750" cy="40000" r="255.315" /> 
<circle cx="82750" cy="40000" r="255.315" /> 
<circle cx="81750" cy="40000" r="255.315" /> 
<circle cx="80750" cy="40000" r="255.315" /> 
<circle cx="79750" cy="40000" r="255.315" /> 
<circle cx="78750" cy="40000" r="255.315" /> 
<circle cx="77750" cy="40000" r="255.315" /> 
<polyline style="fill-rule:evenodd;"
points="76444,37955
76444,37444
76955,37444
76955,37955
76444,37955
" /> 
<circle cx="77700" cy="37700" r="255.315" /> 
<circle cx="78700" cy="37700" r="255.315" /> 
<circle cx="79700" cy="37700" r="255.315" /> 
<circle cx="80700" cy="37700" r="255.315" /> 
<circle cx="81700" cy="37700" r="255.315" /> 
<circle cx="82700" cy="37700" r="255.315" /> 
<circle cx="83700" cy="37700" r="255.315" /> 
<circle cx="84700" cy="37700" r="255.315" /> 
<circle cx="85700" cy="37700" r="255.315" /> 
<circle cx="86700" cy="37700" r="255.315" /> 
<circle cx="87700" cy="37700" r="255.315" /> 
<circle cx="87700" cy="34700" r="255.315" /> 
<circle cx="86700" cy="34700" r="255.315" /> 
<circle cx="85700" cy="34700" r="255.315" /> 
<circle cx="84700" cy="34700" r="255.315" /> 
<circle cx="83700" cy="34700" r="255.315" /> 
<circle cx="82700" cy="34700" r="255.315" /> 
<circle cx="81700" cy="34700" r="255.315" /> 
<circle cx="80700" cy="34700" r="255.315" /> 
<circle cx="79700" cy="34700" r="255.315" /> 
<circle cx="78700" cy="34700" r="255.315" /> 
<circle cx="77700" cy="34700" r="255.315" /> 
<circle cx="76700" cy="34700" r="255.315" /> 
<polyline style="fill-rule:evenodd;"
points="73144,43355
73144,42844
73655,42844
73655,43355
73144,43355
" /> 
<circle cx="74400" cy="43100" r="255.315" /> 
<circle cx="75400" cy="43100" r="255.315" /> 
<circle cx="76400" cy="43100" r="255.315" /> 
<polyline style="fill-rule:evenodd;"
points="83994,45255
83994,44744
84505,44744
84505,45255
83994,45255
" /> 
<circle cx="85250" cy="45000" r="255.315" /> 
<circle cx="81700" cy="41400" r="280.315" /> 
<circle cx="77700" cy="41400" r="280.315" /> 
<circle cx="87300" cy="45000" r="280.315" /> 
<circle cx="87300" cy="41000" r="280.315" /> 
<circle cx="86400" cy="45000" r="280.315" /> 
<circle cx="86400" cy="41000" r="280.315" /> 
<polyline style="fill-rule:evenodd;"
points="87944,41244
88455,41244
88455,41755
87944,41755
87944,41244
" /> 
<circle cx="88200" cy="42500" r="255.315" /> 
<circle cx="88200" cy="43500" r="255.315" /> 
<circle cx="88200" cy="44500" r="255.315" /> 
<circle cx="91200" cy="44500" r="255.315" /> 
<circle cx="91200" cy="43500" r="255.315" /> 
<circle cx="91200" cy="42500" r="255.315" /> 
<circle cx="91200" cy="41500" r="255.315" /> 
<circle cx="90118.9" cy="32832.1" r="430.315" /> 
<circle cx="81962.2" cy="36635.7" r="430.315" /> 
<polyline style="fill-rule:evenodd;"
points="73144,41655
73144,41144
73655,41144
73655,41655
73144,41655
" /> 
<circle cx="74400" cy="41400" r="255.315" /> 
<circle cx="75400" cy="41400" r="255.315" /> 
<circle cx="76400" cy="41400" r="255.315" /> 
<polyline style="fill-rule:evenodd;"
points="83055,45255
82544,45255
82544,44744
83055,44744
83055,45255
" /> 
<circle cx="82800" cy="44000" r="255.315" /> 
<circle cx="82800" cy="43000" r="255.315" /> 
<circle cx="82800" cy="42000" r="255.315" /> 
<circle cx="91209.4" cy="39784.3" r="275.591" /> 
<circle cx="91209.4" cy="37815.7" r="275.591" /> 
<polyline style="fill-rule:evenodd;"
points="90500,40453
89949,40453
89949,39902
90500,39902
90500,40453
" /> 
<polyline style="fill-rule:evenodd;"
points="90500,37697
89949,37697
89949,37146
90500,37146
90500,37697
" /> 
<circle cx="73290.6" cy="37815.7" r="275.591" /> 
<circle cx="73290.6" cy="39784.3" r="275.591" /> 
<polyline style="fill-rule:evenodd;"
points="73999,37146
74550,37146
74550,37697
73999,37697
73999,37146
" /> 
<polyline style="fill-rule:evenodd;"
points="73999,39902
74550,39902
74550,40453
73999,40453
73999,39902
" /> 
<circle cx="91084.3" cy="29490.6" r="275.591" /> 
<circle cx="89115.7" cy="29490.6" r="275.591" /> 
<polyline style="fill-rule:evenodd;"
points="91753,30199
91753,30750
91202,30750
91202,30199
91753,30199
" /> 
<polyline style="fill-rule:evenodd;"
points="88997,30199
88997,30750
88446,30750
88446,30199
88997,30199
" /> 
<circle cx="75384.3" cy="29490.6" r="275.591" /> 
<circle cx="73415.7" cy="29490.6" r="275.591" /> 
<polyline style="fill-rule:evenodd;"
points="76053,30199
76053,30750
75502,30750
75502,30199
76053,30199
" /> 
<polyline style="fill-rule:evenodd;"
points="73297,30199
73297,30750
72746,30750
72746,30199
73297,30199
" /> 
<polyline style="fill-rule:evenodd;"
points="73044,31944
73555,31944
73555,32455
73044,32455
73044,31944
" /> 
<circle cx="73300" cy="33200" r="255.315" /> 
<circle cx="73300" cy="34200" r="255.315" /> 
<circle cx="73300" cy="35200" r="255.315" /> 
<circle cx="73300" cy="36200" r="255.315" /> 
<polyline style="fill-rule:evenodd;"
points="90844,31944
91355,31944
91355,32455
90844,32455
90844,31944
" /> 
<circle cx="91100" cy="33200" r="255.315" /> 
<circle cx="91100" cy="34200" r="255.315" /> 
<circle cx="91100" cy="35200" r="255.315" /> 
<circle cx="91100" cy="36200" r="255.315" /> 
<polyline style="fill-rule:evenodd;"
points="73144,44094
73655,44094
73655,44605
73144,44605
73144,44094
" /> 
<circle cx="73400" cy="45350" r="255.315" /> 
<circle cx="73400" cy="46350" r="255.315" /> 
<circle cx="73400" cy="47350" r="255.315" /> 
<polyline style="fill-rule:evenodd;"
points="74494,44094
75005,44094
75005,44605
74494,44605
74494,44094
" /> 
<circle cx="74750" cy="45350" r="255.315" /> 
<circle cx="74750" cy="46350" r="255.315" /> 
<circle cx="74750" cy="47350" r="255.315" /> 
<polyline style="fill-rule:evenodd;"
points="75794,44094
76305,44094
76305,44605
75794,44605
75794,44094
" /> 
<circle cx="76050" cy="45350" r="255.315" /> 
<circle cx="76050" cy="46350" r="255.315" /> 
<circle cx="76050" cy="47350" r="255.315" /> 
<polyline style="fill-rule:evenodd;"
points="84094,41255
84094,40744
84605,40744
84605,41255
84094,41255
" /> 
<circle cx="85350" cy="41000" r="255.315" /> 
<polyline style="fill-rule:evenodd;"
points="91094,46294
91605,46294
91605,46805
91094,46805
91094,46294
" /> 
<circle cx="91350" cy="47550" r="255.315" /> 
</g> 
</svg>
