<?xml version="1.0" standalone="no"?>
 <!DOCTYPE svg PUBLIC "-//W3C//DTD SVG 1.1//EN" 
 "http://www.w3.org/Graphics/SVG/1.1/DTD/svg11.dtd"> 
<svg xmlns="http://www.w3.org/2000/svg" version="1.1" 
    width="29.7002cm" height="21.0007cm" viewBox="0 0 116930 82680 ">
<title>SVG Picture created as matrix7219_5cm-B_SilkS.svg date 2014/06/01 15:36:14 </title>
  <desc>Picture generated by PCBNEW </desc>
<g style="fill:#000000; fill-opacity:1;stroke:#000000; stroke-opacity:1;
stroke-linecap:round; stroke-linejoin:round; "
 transform="translate(0 0) scale(1 1)">
</g>
<g style="fill:#000000; fill-opacity:0.0; 
stroke:#000000; stroke-width:39.3701; stroke-opacity:1; 
stroke-linecap:round; stroke-linejoin:round;">
<path d="M4000 4000
L112930 4000
L112930 78680
L4000 78680
L4000 4000
" />
<path d="M4700 4700
L112230 4700
L112230 77980
L4700 77980
L4700 4700
" />
<path d="M25780 4000
L25780 4700
" />
<path d="M15032 4552
L14747 4552
" />
<path d="M14890 4552
L14890 4052
L14842 4123
L14794 4171
L14747 4195
" />
<path d="M25780 78680
L25780 77980
" />
<path d="M15032 78532
L14747 78532
" />
<path d="M14890 78532
L14890 78032
L14842 78103
L14794 78151
L14747 78175
" />
<path d="M47560 4000
L47560 4700
" />
<path d="M36527 4100
L36550 4076
L36598 4052
L36717 4052
L36765 4076
L36789 4100
L36812 4147
L36812 4195
L36789 4266
L36503 4552
L36812 4552
" />
<path d="M47560 78680
L47560 77980
" />
<path d="M36527 78080
L36550 78056
L36598 78032
L36717 78032
L36765 78056
L36789 78080
L36812 78127
L36812 78175
L36789 78246
L36503 78532
L36812 78532
" />
<path d="M69340 4000
L69340 4700
" />
<path d="M58283 4052
L58592 4052
L58426 4242
L58497 4242
L58545 4266
L58569 4290
L58592 4338
L58592 4457
L58569 4504
L58545 4528
L58497 4552
L58354 4552
L58307 4528
L58283 4504
" />
<path d="M69340 78680
L69340 77980
" />
<path d="M58283 78032
L58592 78032
L58426 78222
L58497 78222
L58545 78246
L58569 78270
L58592 78318
L58592 78437
L58569 78484
L58545 78508
L58497 78532
L58354 78532
L58307 78508
L58283 78484
" />
<path d="M91120 4000
L91120 4700
" />
<path d="M80325 4219
L80325 4552
" />
<path d="M80206 4028
L80087 4385
L80396 4385
" />
<path d="M91120 78680
L91120 77980
" />
<path d="M80325 78199
L80325 78532
" />
<path d="M80206 78008
L80087 78365
L80396 78365
" />
<path d="M102129 4052
L101890 4052
L101867 4290
L101890 4266
L101938 4242
L102057 4242
L102105 4266
L102129 4290
L102152 4338
L102152 4457
L102129 4504
L102105 4528
L102057 4552
L101938 4552
L101890 4528
L101867 4504
" />
<path d="M102129 78032
L101890 78032
L101867 78270
L101890 78246
L101938 78222
L102057 78222
L102105 78246
L102129 78270
L102152 78318
L102152 78437
L102129 78484
L102105 78508
L102057 78532
L101938 78532
L101890 78508
L101867 78484
" />
<path d="M4000 28890
L4700 28890
" />
<path d="M4230 16509
L4469 16509
" />
<path d="M4183 16652
L4350 16152
L4516 16652
" />
<path d="M112930 28890
L112230 28890
" />
<path d="M112460 16509
L112699 16509
" />
<path d="M112413 16652
L112580 16152
L112746 16652
" />
<path d="M4000 53780
L4700 53780
" />
<path d="M4385 41280
L4457 41304
L4480 41328
L4504 41375
L4504 41447
L4480 41494
L4457 41518
L4409 41542
L4219 41542
L4219 41042
L4385 41042
L4433 41066
L4457 41090
L4480 41137
L4480 41185
L4457 41232
L4433 41256
L4385 41280
L4219 41280
" />
<path d="M112930 53780
L112230 53780
" />
<path d="M112615 41280
L112687 41304
L112710 41328
L112734 41375
L112734 41447
L112710 41494
L112687 41518
L112639 41542
L112449 41542
L112449 41042
L112615 41042
L112663 41066
L112687 41090
L112710 41137
L112710 41185
L112687 41232
L112663 41256
L112615 41280
L112449 41280
" />
<path d="M4504 66384
L4480 66408
L4409 66432
L4361 66432
L4290 66408
L4242 66360
L4219 66313
L4195 66218
L4195 66146
L4219 66051
L4242 66003
L4290 65956
L4361 65932
L4409 65932
L4480 65956
L4504 65980
" />
<path d="M112734 66384
L112710 66408
L112639 66432
L112591 66432
L112520 66408
L112472 66360
L112449 66313
L112425 66218
L112425 66146
L112449 66051
L112472 66003
L112520 65956
L112591 65932
L112639 65932
L112710 65956
L112734 65980
" />
<path d="M79380 76422
L79455 75822
L79597 75822
L79680 75851
L79730 75908
L79751 75965
L79765 76080
L79755 76165
L79712 76280
L79676 76337
L79612 76394
L79522 76422
L79380 76422
" />
<path d="M80237 76422
L80276 76108
L80255 76051
L80201 76022
L80087 76022
L80026 76051
" />
<path d="M80240 76394
L80180 76422
L80037 76422
L79983 76394
L79962 76337
L79969 76280
L80005 76222
L80065 76194
L80208 76194
L80269 76165
" />
<path d="M80487 76022
L80715 76022
" />
<path d="M80597 75822
L80533 76337
L80555 76394
L80608 76422
L80665 76422
" />
<path d="M81097 76394
L81037 76422
L80922 76422
L80869 76394
L80847 76337
L80876 76108
L80912 76051
L80972 76022
L81087 76022
L81140 76051
L81162 76108
L81155 76165
L80862 76222
" />
<path d="M81387 76365
L81412 76394
L81380 76422
L81355 76394
L81387 76365
L81380 76422
" />
<path d="M81426 76051
L81451 76080
L81419 76108
L81394 76080
L81426 76051
L81419 76108
" />
<path d="M82437 76422
L82094 76422
" />
<path d="M82265 76422
L82340 75822
L82272 75908
L82208 75965
L82147 75994
" />
<path d="M83201 76022
L83137 76537
L83101 76594
L83040 76622
L83012 76622
" />
<path d="M83226 75822
L83194 75851
L83219 75880
L83251 75851
L83226 75822
L83219 75880
" />
<path d="M83744 76022
L83694 76422
" />
<path d="M83487 76022
L83447 76337
L83469 76394
L83522 76422
L83608 76422
L83669 76394
L83701 76365
" />
<path d="M84030 76022
L83980 76422
" />
<path d="M84022 76080
L84055 76051
L84115 76022
L84201 76022
L84255 76051
L84276 76108
L84237 76422
" />
<path d="M85019 75880
L85051 75851
L85112 75822
L85255 75822
L85308 75851
L85333 75880
L85355 75937
L85347 75994
L85308 76080
L84922 76422
L85294 76422
" />
<path d="M85740 75822
L85797 75822
L85851 75851
L85876 75880
L85897 75937
L85912 76051
L85894 76194
L85851 76308
L85815 76365
L85783 76394
L85722 76422
L85665 76422
L85612 76394
L85587 76365
L85565 76308
L85551 76194
L85569 76051
L85612 75937
L85647 75880
L85680 75851
L85740 75822
" />
<path d="M86437 76422
L86094 76422
" />
<path d="M86265 76422
L86340 75822
L86272 75908
L86208 75965
L86147 75994
" />
<path d="M87001 76022
L86951 76422
" />
<path d="M86887 75794
L86690 76222
L87062 76222
" />
<path d="M70972 77622
L70972 77022
" />
<path d="M71315 77622
L71058 77280
" />
<path d="M71315 77022
L70972 77365
" />
<path d="M71572 77622
L71572 77222
" />
<path d="M71572 77022
L71544 77051
L71572 77080
L71601 77051
L71572 77022
L71572 77080
" />
<path d="M72201 77565
L72172 77594
L72087 77622
L72030 77622
L71944 77594
L71887 77537
L71858 77480
L71830 77365
L71830 77280
L71858 77165
L71887 77108
L71944 77051
L72030 77022
L72087 77022
L72172 77051
L72201 77080
" />
<path d="M72715 77622
L72715 77308
L72687 77251
L72630 77222
L72515 77222
L72458 77251
" />
<path d="M72715 77594
L72658 77622
L72515 77622
L72458 77594
L72430 77537
L72430 77480
L72458 77422
L72515 77394
L72658 77394
L72715 77365
" />
<path d="M73258 77622
L73258 77022
" />
<path d="M73258 77594
L73201 77622
L73087 77622
L73030 77594
L73001 77565
L72972 77508
L72972 77337
L73001 77280
L73030 77251
L73087 77222
L73201 77222
L73258 77251
" />
<path d="M74001 77308
L74201 77308
" />
<path d="M74287 77622
L74001 77622
L74001 77022
L74287 77022
" />
<path d="M74544 77565
L74572 77594
L74544 77622
L74515 77594
L74544 77565
L74544 77622
" />
<path d="M74829 77622
L74829 77022
L74972 77022
L75058 77051
L75115 77108
L75144 77165
L75172 77280
L75172 77365
L75144 77480
L75115 77537
L75058 77594
L74972 77622
L74829 77622
" />
<path d="M75429 77565
L75458 77594
L75429 77622
L75401 77594
L75429 77565
L75429 77622
" />
<path d="M75687 77451
L75972 77451
" />
<path d="M75629 77622
L75829 77022
L76029 77622
" />
<path d="M76229 77565
L76258 77594
L76229 77622
L76201 77594
L76229 77565
L76229 77622
" />
<path d="M104522 76422
L104358 76137
" />
<path d="M104180 76422
L104255 75822
L104483 75822
L104537 75851
L104562 75880
L104583 75937
L104572 76022
L104537 76080
L104505 76108
L104444 76137
L104215 76137
" />
<path d="M105012 76394
L104951 76422
L104837 76422
L104783 76394
L104762 76337
L104790 76108
L104826 76051
L104887 76022
L105001 76022
L105055 76051
L105076 76108
L105069 76165
L104776 76222
" />
<path d="M105287 76022
L105380 76422
L105572 76022
" />
<path d="M105758 76365
L105783 76394
L105751 76422
L105726 76394
L105758 76365
L105751 76422
" />
<path d="M105797 76051
L105822 76080
L105790 76108
L105765 76080
L105797 76051
L105790 76108
" />
<path d="M70944 76394
L71030 76422
L71172 76422
L71230 76394
L71258 76365
L71287 76308
L71287 76251
L71258 76194
L71230 76165
L71172 76137
L71058 76108
L71001 76080
L70972 76051
L70944 75994
L70944 75937
L70972 75880
L71001 75851
L71058 75822
L71201 75822
L71287 75851
" />
<path d="M71544 76422
L71544 76022
" />
<path d="M71544 75822
L71515 75851
L71544 75880
L71572 75851
L71544 75822
L71544 75880
" />
<path d="M71772 76022
L72087 76022
L71772 76422
L72087 76422
" />
<path d="M72544 76394
L72487 76422
L72372 76422
L72315 76394
L72287 76337
L72287 76108
L72315 76051
L72372 76022
L72487 76022
L72544 76051
L72572 76108
L72572 76165
L72287 76222
" />
<path d="M72830 76365
L72858 76394
L72830 76422
L72801 76394
L72830 76365
L72830 76422
" />
<path d="M72830 76051
L72858 76080
L72830 76108
L72801 76080
L72830 76051
L72830 76108
" />
<path d="M73544 76251
L73830 76251
" />
<path d="M73487 76422
L73687 75822
L73887 76422
" />
<path d="M74344 76022
L74344 76422
" />
<path d="M74201 75794
L74058 76222
L74430 76222
" />
<path d="M104172 77622
L104172 77022
" />
<path d="M104715 77622
L104715 77022
" />
<path d="M104715 77594
L104658 77622
L104544 77622
L104487 77594
L104458 77565
L104430 77508
L104430 77337
L104458 77280
L104487 77251
L104544 77222
L104658 77222
L104715 77251
" />
<path d="M105001 77565
L105030 77594
L105001 77622
L104972 77594
L105001 77565
L105001 77622
" />
<path d="M105001 77251
L105030 77280
L105001 77308
L104972 77280
L105001 77251
L105001 77308
" />
<path d="M106058 77622
L105715 77622
" />
<path d="M105887 77622
L105887 77022
L105829 77108
L105772 77165
L105715 77194
" />
<path d="M106744 76994
L106230 77765
" />
<path d="M107258 77622
L106915 77622
" />
<path d="M107087 77622
L107087 77022
L107029 77108
L106972 77165
L106915 77194
" />
<path d="M70969 74622
L71312 74622
" />
<path d="M71065 75222
L71140 74622
" />
<path d="M71437 75222
L71487 74822
" />
<path d="M71512 74622
L71480 74651
L71505 74680
L71537 74651
L71512 74622
L71505 74680
" />
<path d="M71687 74822
L71915 74822
" />
<path d="M71797 74622
L71733 75137
L71755 75194
L71808 75222
L71865 75222
" />
<path d="M72151 75222
L72097 75194
L72076 75137
L72140 74622
" />
<path d="M72612 75194
L72551 75222
L72437 75222
L72383 75194
L72362 75137
L72390 74908
L72426 74851
L72487 74822
L72601 74822
L72655 74851
L72676 74908
L72669 74965
L72376 75022
" />
<path d="M72901 75165
L72926 75194
L72894 75222
L72869 75194
L72901 75165
L72894 75222
" />
<path d="M72940 74851
L72965 74880
L72933 74908
L72908 74880
L72940 74851
L72933 74908
" />
<path d="M71172 72508
L70972 72508
" />
<path d="M70972 72822
L70972 72222
L71258 72222
" />
<path d="M71487 72822
L71487 72422
" />
<path d="M71487 72222
L71458 72251
L71487 72280
L71515 72251
L71487 72222
L71487 72280
" />
<path d="M71858 72822
L71801 72794
L71772 72737
L71772 72222
" />
<path d="M72315 72794
L72258 72822
L72144 72822
L72087 72794
L72058 72737
L72058 72508
L72087 72451
L72144 72422
L72258 72422
L72315 72451
L72344 72508
L72344 72565
L72058 72622
" />
<path d="M72601 72765
L72630 72794
L72601 72822
L72572 72794
L72601 72765
L72601 72822
" />
<path d="M72601 72451
L72630 72480
L72601 72508
L72572 72480
L72601 72451
L72601 72508
" />
<path d="M73344 72822
L73344 72422
" />
<path d="M73344 72480
L73372 72451
L73430 72422
L73515 72422
L73572 72451
L73601 72508
L73601 72822
" />
<path d="M73601 72508
L73630 72451
L73687 72422
L73772 72422
L73830 72451
L73858 72508
L73858 72822
" />
<path d="M74401 72822
L74401 72508
L74372 72451
L74315 72422
L74201 72422
L74144 72451
" />
<path d="M74401 72794
L74344 72822
L74201 72822
L74144 72794
L74115 72737
L74115 72680
L74144 72622
L74201 72594
L74344 72594
L74401 72565
" />
<path d="M74601 72422
L74830 72422
" />
<path d="M74687 72222
L74687 72737
L74715 72794
L74772 72822
L74830 72822
" />
<path d="M75030 72822
L75030 72422
" />
<path d="M75030 72537
L75058 72480
L75087 72451
L75144 72422
L75201 72422
" />
<path d="M75401 72822
L75401 72422
" />
<path d="M75401 72222
L75372 72251
L75401 72280
L75430 72251
L75401 72222
L75401 72280
" />
<path d="M75630 72822
L75944 72422
" />
<path d="M75630 72422
L75944 72822
" />
<path d="M76115 72222
L76515 72222
L76258 72822
" />
<path d="M76715 72280
L76744 72251
L76801 72222
L76944 72222
L77001 72251
L77030 72280
L77058 72337
L77058 72394
L77030 72480
L76687 72822
L77058 72822
" />
<path d="M77630 72822
L77287 72822
" />
<path d="M77458 72822
L77458 72222
L77401 72308
L77344 72365
L77287 72394
" />
<path d="M77915 72822
L78030 72822
L78087 72794
L78115 72765
L78172 72680
L78201 72565
L78201 72337
L78172 72280
L78144 72251
L78087 72222
L77972 72222
L77915 72251
L77887 72280
L77858 72337
L77858 72480
L77887 72537
L77915 72565
L77972 72594
L78087 72594
L78144 72565
L78172 72537
L78201 72480
" />
<path d="M78315 72880
L78772 72880
" />
<path d="M79201 72222
L78915 72222
L78887 72508
L78915 72480
L78972 72451
L79115 72451
L79172 72480
L79201 72508
L79230 72565
L79230 72708
L79201 72765
L79172 72794
L79115 72822
L78972 72822
L78915 72794
L78887 72765
" />
<path d="M79744 72794
L79687 72822
L79572 72822
L79515 72794
L79487 72765
L79458 72708
L79458 72537
L79487 72480
L79515 72451
L79572 72422
L79687 72422
L79744 72451
" />
<path d="M80001 72822
L80001 72422
" />
<path d="M80001 72480
L80030 72451
L80087 72422
L80172 72422
L80230 72451
L80258 72508
L80258 72822
" />
<path d="M80258 72508
L80287 72451
L80344 72422
L80430 72422
L80487 72451
L80515 72508
L80515 72822
" />
<path d="M80801 72765
L80830 72794
L80801 72822
L80772 72794
L80801 72765
L80801 72822
" />
<path d="M81087 72822
L81087 72222
" />
<path d="M81144 72594
L81315 72822
" />
<path d="M81315 72422
L81087 72651
" />
<path d="M81572 72822
L81572 72422
" />
<path d="M81572 72222
L81544 72251
L81572 72280
L81601 72251
L81572 72222
L81572 72280
" />
<path d="M82115 72794
L82058 72822
L81944 72822
L81887 72794
L81858 72765
L81830 72708
L81830 72537
L81858 72480
L81887 72451
L81944 72422
L82058 72422
L82115 72451
" />
<path d="M82630 72822
L82630 72508
L82601 72451
L82544 72422
L82430 72422
L82372 72451
" />
<path d="M82630 72794
L82572 72822
L82430 72822
L82372 72794
L82344 72737
L82344 72680
L82372 72622
L82430 72594
L82572 72594
L82630 72565
" />
<path d="M83172 72822
L83172 72222
" />
<path d="M83172 72794
L83115 72822
L83001 72822
L82944 72794
L82915 72765
L82887 72708
L82887 72537
L82915 72480
L82944 72451
L83001 72422
L83115 72422
L83172 72451
" />
<path d="M83315 72880
L83772 72880
" />
<path d="M83915 72422
L83915 73022
" />
<path d="M83915 72451
L83972 72422
L84087 72422
L84144 72451
L84172 72480
L84201 72537
L84201 72708
L84172 72765
L84144 72794
L84087 72822
L83972 72822
L83915 72794
" />
<path d="M84715 72794
L84658 72822
L84544 72822
L84487 72794
L84458 72765
L84430 72708
L84430 72537
L84458 72480
L84487 72451
L84544 72422
L84658 72422
L84715 72451
" />
<path d="M84972 72822
L84972 72222
" />
<path d="M84972 72451
L85030 72422
L85144 72422
L85201 72451
L85230 72480
L85258 72537
L85258 72708
L85230 72765
L85201 72794
L85144 72822
L85030 72822
L84972 72794
" />
<path d="M70944 73994
L71030 74022
L71172 74022
L71230 73994
L71258 73965
L71287 73908
L71287 73851
L71258 73794
L71230 73765
L71172 73737
L71058 73708
L71001 73680
L70972 73651
L70944 73594
L70944 73537
L70972 73480
L71001 73451
L71058 73422
L71201 73422
L71287 73451
" />
<path d="M71544 74022
L71544 73422
" />
<path d="M71801 74022
L71801 73708
L71772 73651
L71715 73622
L71630 73622
L71572 73651
L71544 73680
" />
<path d="M72315 73994
L72258 74022
L72144 74022
L72087 73994
L72058 73937
L72058 73708
L72087 73651
L72144 73622
L72258 73622
L72315 73651
L72344 73708
L72344 73765
L72058 73822
" />
<path d="M72830 73994
L72772 74022
L72658 74022
L72601 73994
L72572 73937
L72572 73708
L72601 73651
L72658 73622
L72772 73622
L72830 73651
L72858 73708
L72858 73765
L72572 73822
" />
<path d="M73030 73622
L73258 73622
" />
<path d="M73115 73422
L73115 73937
L73144 73994
L73201 74022
L73258 74022
" />
<path d="M73458 73965
L73487 73994
L73458 74022
L73430 73994
L73458 73965
L73458 74022
" />
<path d="M73458 73651
L73487 73680
L73458 73708
L73430 73680
L73458 73651
L73458 73708
" />
<path d="M70230 71980
L70230 77980
" />
<path d="M70230 71980
L112230 71980
" />
<path d="M70230 71980
L112230 71980
" />
<path d="M70230 74380
L112230 74380
" />
<path d="M103430 75580
L103430 77980
" />
<path d="M70230 76780
L112230 76780
" />
<path d="M70230 75580
L112230 75580
" />
<path d="M76830 75580
L76830 76780
" />
</g>
<g style="fill:#9F009F; fill-opacity:0.0; 
stroke:#9F009F; stroke-width:78.7402; stroke-opacity:1; 
stroke-linecap:round; stroke-linejoin:round;">
<path d="M76850 45550
L77000 45550
" />
<path d="M76850 47850
L76850 45550
" />
<path d="M72850 47850
L76850 47850
" />
<path d="M72850 46850
L72850 47850
" />
<path d="M72850 43700
L72850 46850
" />
<path d="M77000 43700
L72850 43700
" />
<path d="M77000 43000
L77000 43700
" />
<path d="M81300 45550
L77000 45550
" />
<path d="M81300 43000
L81300 45550
" />
<path d="M77000 43000
L81300 43000
" />
</g>
<g style="fill:#9F009F; fill-opacity:0.0; 
stroke:#9F009F; stroke-width:98.4252; stroke-opacity:1; 
stroke-linecap:round; stroke-linejoin:round;">
<path d="M80464 35659
L80464 35265
L80307 35546
L80149 35265
L80149 35659
" />
<path d="M79722 35659
L79722 35453
L79744 35415
L79789 35396
L79879 35396
L79924 35415
" />
<path d="M79722 35640
L79767 35659
L79879 35659
L79924 35640
L79947 35603
L79947 35565
L79924 35528
L79879 35509
L79767 35509
L79722 35490
" />
<path d="M79294 35659
L79294 35265
" />
<path d="M79294 35640
L79339 35659
L79429 35659
L79474 35640
L79497 35621
L79519 35584
L79519 35471
L79497 35434
L79474 35415
L79429 35396
L79339 35396
L79294 35415
" />
<path d="M78889 35640
L78934 35659
L79024 35659
L79069 35640
L79092 35603
L79092 35453
L79069 35415
L79024 35396
L78934 35396
L78889 35415
L78867 35453
L78867 35490
L79092 35528
" />
<path d="M78349 35396
L78259 35659
L78169 35471
L78079 35659
L77989 35396
" />
<path d="M77809 35659
L77809 35396
" />
<path d="M77809 35265
L77832 35284
L77809 35303
L77787 35284
L77809 35265
L77809 35303
" />
<path d="M77652 35396
L77472 35396
" />
<path d="M77584 35265
L77584 35603
L77562 35640
L77517 35659
L77472 35659
" />
<path d="M77315 35659
L77315 35265
" />
<path d="M77112 35659
L77112 35453
L77135 35415
L77180 35396
L77247 35396
L77292 35415
L77315 35434
" />
<path d="M76527 35659
L76527 35265
" />
<path d="M76257 35659
L76460 35434
" />
<path d="M76257 35265
L76527 35490
" />
<path d="M76055 35659
L76055 35396
" />
<path d="M76055 35265
L76077 35284
L76055 35303
L76032 35284
L76055 35265
L76055 35303
" />
<path d="M75627 35640
L75672 35659
L75762 35659
L75807 35640
L75830 35621
L75852 35584
L75852 35471
L75830 35434
L75807 35415
L75762 35396
L75672 35396
L75627 35415
" />
<path d="M75222 35659
L75222 35453
L75245 35415
L75290 35396
L75380 35396
L75425 35415
" />
<path d="M75222 35640
L75267 35659
L75380 35659
L75425 35640
L75447 35603
L75447 35565
L75425 35528
L75380 35509
L75267 35509
L75222 35490
" />
<path d="M74795 35659
L74795 35265
" />
<path d="M74795 35640
L74840 35659
L74930 35659
L74975 35640
L74997 35621
L75020 35584
L75020 35471
L74997 35434
L74975 35415
L74930 35396
L74840 35396
L74795 35415
" />
<path d="M79238 36308
L79261 36308
L79306 36290
L79373 36233
L79485 36121
L79530 36065
L79553 36008
L79553 35971
L79530 35934
L79485 35915
L79463 35915
L79418 35934
L79396 35971
L79396 35990
L79418 36027
L79441 36046
L79575 36121
L79598 36140
L79620 36177
L79620 36233
L79598 36271
L79575 36290
L79530 36308
L79463 36308
L79418 36290
L79396 36271
L79328 36196
L79306 36140
L79306 36102
" />
<path d="M78518 36102
L78676 36102
" />
<path d="M78676 36308
L78676 35915
L78451 35915
" />
<path d="M78271 36308
L78271 36046
" />
<path d="M78271 36121
L78248 36083
L78226 36065
L78181 36046
L78136 36046
" />
<path d="M77798 36290
L77843 36308
L77933 36308
L77978 36290
L78001 36252
L78001 36102
L77978 36065
L77933 36046
L77843 36046
L77798 36065
L77776 36102
L77776 36140
L78001 36177
" />
<path d="M77393 36290
L77438 36308
L77528 36308
L77573 36290
L77596 36252
L77596 36102
L77573 36065
L77528 36046
L77438 36046
L77393 36065
L77371 36102
L77371 36140
L77596 36177
" />
<path d="M77168 36308
L77168 36046
" />
<path d="M77168 36121
L77146 36083
L77123 36065
L77078 36046
L77033 36046
" />
<path d="M76808 36308
L76853 36290
L76876 36271
L76898 36233
L76898 36121
L76876 36083
L76853 36065
L76808 36046
L76741 36046
L76696 36065
L76673 36083
L76651 36121
L76651 36233
L76673 36271
L76696 36290
L76741 36308
L76808 36308
" />
<path d="M76246 36046
L76246 36308
" />
<path d="M76448 36046
L76448 36252
L76426 36290
L76381 36308
L76313 36308
L76268 36290
L76246 36271
" />
<path d="M76088 36046
L75908 36046
" />
<path d="M76021 35915
L76021 36252
L75998 36290
L75953 36308
L75908 36308
" />
<path d="M75571 36290
L75616 36308
L75706 36308
L75751 36290
L75773 36252
L75773 36102
L75751 36065
L75706 36046
L75616 36046
L75571 36065
L75548 36102
L75548 36140
L75773 36177
" />
<path d="M75346 36308
L75346 36046
" />
<path d="M75346 36121
L75324 36083
L75301 36065
L75256 36046
L75211 36046
" />
<path d="M79294 36696
L79294 36958
" />
<path d="M79497 36696
L79497 36902
L79474 36939
L79429 36958
L79362 36958
L79317 36939
L79294 36921
" />
<path d="M79069 36696
L79069 36958
" />
<path d="M79069 36733
L79047 36714
L79002 36696
L78934 36696
L78889 36714
L78867 36752
L78867 36958
" />
<path d="M78439 36958
L78439 36564
" />
<path d="M78439 36939
L78484 36958
L78574 36958
L78619 36939
L78642 36921
L78664 36883
L78664 36771
L78642 36733
L78619 36714
L78574 36696
L78484 36696
L78439 36714
" />
<path d="M78034 36939
L78079 36958
L78169 36958
L78214 36939
L78237 36902
L78237 36752
L78214 36714
L78169 36696
L78079 36696
L78034 36714
L78012 36752
L78012 36789
L78237 36827
" />
<path d="M77809 36958
L77809 36696
" />
<path d="M77809 36771
L77787 36733
L77764 36714
L77719 36696
L77674 36696
" />
<path d="M77067 36564
L76977 36564
L76932 36583
L76887 36621
L76865 36696
L76865 36827
L76887 36902
L76932 36939
L76977 36958
L77067 36958
L77112 36939
L77157 36902
L77180 36827
L77180 36696
L77157 36621
L77112 36583
L77067 36564
" />
<path d="M76685 36939
L76617 36958
L76505 36958
L76460 36939
L76437 36921
L76415 36883
L76415 36846
L76437 36808
L76460 36789
L76505 36771
L76595 36752
L76640 36733
L76662 36714
L76685 36677
L76685 36639
L76662 36602
L76640 36583
L76595 36564
L76482 36564
L76415 36583
" />
<path d="M76212 36958
L76212 36564
" />
<path d="M76212 36752
L75942 36752
" />
<path d="M75942 36958
L75942 36564
" />
<path d="M75762 36564
L75650 36958
L75560 36677
L75470 36958
L75357 36564
" />
</g>
<g style="fill:#9F009F; fill-opacity:0.0; 
stroke:#9F009F; stroke-width:118.11; stroke-opacity:1; 
stroke-linecap:round; stroke-linejoin:round;">
<path d="M82190 31889
L82471 31889
L82471 31298
" />
<path d="M81993 31579
L81796 31579
" />
<path d="M81712 31889
L81993 31889
L81993 31298
L81712 31298
" />
<path d="M81459 31889
L81459 31298
L81318 31298
L81234 31326
L81177 31382
L81149 31439
L81121 31551
L81121 31635
L81149 31748
L81177 31804
L81234 31860
L81318 31889
L81459 31889
" />
<path d="M80868 31889
L80868 31298
L80671 31720
L80474 31298
L80474 31889
" />
<path d="M80221 31720
L79940 31720
" />
<path d="M80278 31889
L80081 31298
L79884 31889
" />
<path d="M79771 31298
L79434 31298
" />
<path d="M79603 31889
L79603 31298
" />
<path d="M78900 31889
L79096 31607
" />
<path d="M79237 31889
L79237 31298
L79012 31298
L78956 31326
L78928 31354
L78900 31410
L78900 31495
L78928 31551
L78956 31579
L79012 31607
L79237 31607
" />
<path d="M78646 31889
L78646 31298
" />
<path d="M78421 31298
L78028 31889
" />
<path d="M78028 31298
L78421 31889
" />
<path d="M77943 31945
L77493 31945
" />
<path d="M77240 31298
L77184 31298
L77128 31326
L77100 31354
L77072 31410
L77044 31523
L77044 31664
L77072 31776
L77100 31832
L77128 31860
L77184 31889
L77240 31889
L77297 31860
L77325 31832
L77353 31776
L77381 31664
L77381 31523
L77353 31410
L77325 31354
L77297 31326
L77240 31298
" />
<path d="M76790 31832
L76762 31860
L76790 31889
L76819 31860
L76790 31832
L76790 31889
" />
<path d="M76565 31298
L76200 31298
L76397 31523
L76312 31523
L76256 31551
L76228 31579
L76200 31635
L76200 31776
L76228 31832
L76256 31860
L76312 31889
L76481 31889
L76537 31860
L76565 31832
" />
<path d="M82499 32243
L82612 32243
L82668 32271
L82696 32299
L82752 32383
L82780 32496
L82780 32721
L82752 32777
L82724 32805
L82668 32833
L82555 32833
L82499 32805
L82471 32777
L82443 32721
L82443 32580
L82471 32524
L82499 32496
L82555 32468
L82668 32468
L82724 32496
L82752 32524
L82780 32580
" />
<path d="M81768 32215
L82274 32974
" />
<path d="M81262 32833
L81599 32833
" />
<path d="M81430 32833
L81430 32243
L81487 32327
L81543 32383
L81599 32412
" />
<path d="M80756 32440
L80756 32833
" />
<path d="M80896 32215
L81037 32637
L80671 32637
" />
<path d="M79996 32833
L79996 32243
" />
<path d="M79996 32468
L79940 32440
L79828 32440
L79771 32468
L79743 32496
L79715 32552
L79715 32721
L79743 32777
L79771 32805
L79828 32833
L79940 32833
L79996 32805
" />
<path d="M79518 32440
L79378 32833
" />
<path d="M79237 32440
L79378 32833
L79434 32974
L79462 33002
L79518 33030
" />
<path d="M78562 32833
L78562 32440
" />
<path d="M78562 32243
L78590 32271
L78562 32299
L78534 32271
L78562 32243
L78562 32299
" />
<path d="M78309 32805
L78253 32833
L78140 32833
L78084 32805
L78056 32749
L78056 32721
L78084 32665
L78140 32637
L78225 32637
L78281 32608
L78309 32552
L78309 32524
L78281 32468
L78225 32440
L78140 32440
L78084 32468
" />
<path d="M77831 32805
L77775 32833
L77662 32833
L77606 32805
L77578 32749
L77578 32721
L77606 32665
L77662 32637
L77747 32637
L77803 32608
L77831 32552
L77831 32524
L77803 32468
L77747 32440
L77662 32440
L77606 32468
" />
<path d="M77072 32833
L77072 32524
L77100 32468
L77156 32440
L77269 32440
L77325 32468
" />
<path d="M77072 32805
L77128 32833
L77269 32833
L77325 32805
L77353 32749
L77353 32693
L77325 32637
L77269 32608
L77128 32608
L77072 32580
" />
<path d="M76706 32833
L76762 32805
L76790 32749
L76790 32243
" />
<path d="M76481 32833
L76481 32440
" />
<path d="M76481 32243
L76509 32271
L76481 32299
L76453 32271
L76481 32243
L76481 32299
" />
<path d="M75947 32440
L75947 32918
L75975 32974
L76003 33002
L76059 33030
L76144 33030
L76200 33002
" />
<path d="M75947 32805
L76003 32833
L76116 32833
L76172 32805
L76200 32777
L76228 32721
L76228 32552
L76200 32496
L76172 32468
L76116 32440
L76003 32440
L75947 32468
" />
</g>
<g style="fill:#9F009F; fill-opacity:0.0; 
stroke:#9F009F; stroke-width:98.4252; stroke-opacity:1; 
stroke-linecap:round; stroke-linejoin:round;">
<path d="M81181 43396
L80993 43396
" />
<path d="M81218 43509
L81087 43115
L80956 43509
" />
<path d="M80750 43115
L80712 43115
L80675 43134
L80656 43153
L80637 43190
L80618 43265
L80618 43359
L80637 43434
L80656 43471
L80675 43490
L80712 43509
L80750 43509
L80787 43490
L80806 43471
L80825 43434
L80843 43359
L80843 43265
L80825 43190
L80806 43153
L80787 43134
L80750 43115
" />
<path d="M81181 44046
L80993 44046
" />
<path d="M81218 44158
L81087 43765
L80956 44158
" />
<path d="M80618 44158
L80843 44158
" />
<path d="M80731 44158
L80731 43765
L80768 43821
L80806 43858
L80843 43877
" />
<path d="M81181 44696
L80993 44696
" />
<path d="M81218 44808
L81087 44414
L80956 44808
" />
<path d="M80843 44452
L80825 44433
L80787 44414
L80693 44414
L80656 44433
L80637 44452
L80618 44489
L80618 44527
L80637 44583
L80862 44808
L80618 44808
" />
<path d="M81181 45345
L80993 45345
" />
<path d="M81218 45458
L81087 45064
L80956 45458
" />
<path d="M80862 45064
L80618 45064
L80750 45214
L80693 45214
L80656 45233
L80637 45251
L80618 45289
L80618 45383
L80637 45420
L80656 45439
L80693 45458
L80806 45458
L80843 45439
L80862 45420
" />
<path d="M78628 43490
L78571 43509
L78478 43509
L78440 43490
L78421 43471
L78403 43434
L78403 43396
L78421 43359
L78440 43340
L78478 43321
L78553 43303
L78590 43284
L78609 43265
L78628 43228
L78628 43190
L78609 43153
L78590 43134
L78553 43115
L78459 43115
L78403 43134
" />
<path d="M78234 43509
L78234 43115
L78140 43115
L78084 43134
L78046 43171
L78028 43209
L78009 43284
L78009 43340
L78028 43415
L78046 43453
L78084 43490
L78140 43509
L78234 43509
" />
<path d="M77859 43396
L77671 43396
" />
<path d="M77896 43509
L77765 43115
L77634 43509
" />
<path d="M78618 44140
L78562 44158
L78468 44158
L78431 44140
L78412 44121
L78393 44083
L78393 44046
L78412 44008
L78431 43990
L78468 43971
L78543 43952
L78581 43933
L78599 43915
L78618 43877
L78618 43840
L78599 43802
L78581 43784
L78543 43765
L78449 43765
L78393 43784
" />
<path d="M78000 44121
L78018 44140
L78075 44158
L78112 44158
L78168 44140
L78206 44102
L78224 44065
L78243 43990
L78243 43933
L78224 43858
L78206 43821
L78168 43784
L78112 43765
L78075 43765
L78018 43784
L78000 43802
" />
<path d="M77643 44158
L77831 44158
L77831 43765
" />
<path d="M78628 44789
L78571 44808
L78478 44808
L78440 44789
L78421 44771
L78403 44733
L78403 44696
L78421 44658
L78440 44639
L78478 44621
L78553 44602
L78590 44583
L78609 44564
L78628 44527
L78628 44489
L78609 44452
L78590 44433
L78553 44414
L78459 44414
L78403 44433
" />
<path d="M78234 44808
L78234 44414
L78140 44414
L78084 44433
L78046 44471
L78028 44508
L78009 44583
L78009 44639
L78028 44714
L78046 44752
L78084 44789
L78140 44808
L78234 44808
" />
<path d="M77859 44696
L77671 44696
" />
<path d="M77896 44808
L77765 44414
L77634 44808
" />
<path d="M78618 45439
L78562 45458
L78468 45458
L78431 45439
L78412 45420
L78393 45383
L78393 45345
L78412 45308
L78431 45289
L78468 45270
L78543 45251
L78581 45233
L78599 45214
L78618 45176
L78618 45139
L78599 45101
L78581 45083
L78543 45064
L78449 45064
L78393 45083
" />
<path d="M78000 45420
L78018 45439
L78075 45458
L78112 45458
L78168 45439
L78206 45401
L78224 45364
L78243 45289
L78243 45233
L78224 45158
L78206 45120
L78168 45083
L78112 45064
L78075 45064
L78018 45083
L78000 45101
" />
<path d="M77643 45458
L77831 45458
L77831 45064
" />
<path d="M79949 43490
L79893 43509
L79799 43509
L79762 43490
L79743 43471
L79724 43434
L79724 43396
L79743 43359
L79762 43340
L79799 43321
L79874 43303
L79912 43284
L79931 43265
L79949 43228
L79949 43190
L79931 43153
L79912 43134
L79874 43115
L79781 43115
L79724 43134
" />
<path d="M79575 43490
L79518 43509
L79425 43509
L79387 43490
L79368 43471
L79350 43434
L79350 43396
L79368 43359
L79387 43340
L79425 43321
L79500 43303
L79537 43284
L79556 43265
L79575 43228
L79575 43190
L79556 43153
L79537 43134
L79500 43115
L79406 43115
L79350 43134
" />
<path d="M80268 44158
L80268 43765
L80137 44046
L80006 43765
L80006 44158
" />
<path d="M79743 43765
L79668 43765
L79631 43784
L79593 43821
L79575 43896
L79575 44027
L79593 44102
L79631 44140
L79668 44158
L79743 44158
L79781 44140
L79818 44102
L79837 44027
L79837 43896
L79818 43821
L79781 43784
L79743 43765
" />
<path d="M79425 44140
L79368 44158
L79275 44158
L79237 44140
L79218 44121
L79200 44083
L79200 44046
L79218 44008
L79237 43990
L79275 43971
L79350 43952
L79387 43933
L79406 43915
L79425 43877
L79425 43840
L79406 43802
L79387 43784
L79350 43765
L79256 43765
L79200 43784
" />
<path d="M79031 44158
L79031 43765
" />
<path d="M80268 44808
L80268 44414
L80137 44696
L80006 44414
L80006 44808
" />
<path d="M79818 44808
L79818 44414
" />
<path d="M79650 44789
L79593 44808
L79500 44808
L79462 44789
L79443 44771
L79425 44733
L79425 44696
L79443 44658
L79462 44639
L79500 44621
L79575 44602
L79612 44583
L79631 44564
L79650 44527
L79650 44489
L79631 44452
L79612 44433
L79575 44414
L79481 44414
L79425 44433
" />
<path d="M79181 44414
L79106 44414
L79068 44433
L79031 44471
L79012 44546
L79012 44677
L79031 44752
L79068 44789
L79106 44808
L79181 44808
L79218 44789
L79256 44752
L79275 44677
L79275 44546
L79256 44471
L79218 44433
L79181 44414
" />
<path d="M80156 45439
L80099 45458
L80006 45458
L79968 45439
L79949 45420
L79931 45383
L79931 45345
L79949 45308
L79968 45289
L80006 45270
L80081 45251
L80118 45233
L80137 45214
L80156 45176
L80156 45139
L80137 45101
L80118 45083
L80081 45064
L79987 45064
L79931 45083
" />
<path d="M79537 45420
L79556 45439
L79612 45458
L79649 45458
L79706 45439
L79743 45401
L79762 45364
L79781 45289
L79781 45233
L79762 45158
L79743 45120
L79706 45083
L79649 45064
L79612 45064
L79556 45083
L79537 45101
" />
<path d="M79368 45458
L79368 45064
" />
<path d="M79143 45458
L79312 45233
" />
<path d="M79143 45064
L79368 45289
" />
</g>
<g style="fill:#FFFF00; fill-opacity:0.0; 
stroke:#FFFF00; stroke-width:39.3701; stroke-opacity:1; 
stroke-linecap:round; stroke-linejoin:round;">
<path d="M72500 48250
L72500 28750
" />
<path d="M92000 48250
L72500 48250
" />
<path d="M92000 28750
L92000 48250
" />
<path d="M72500 28750
L92000 28750
" />
</g>
<g style="fill:#9F009F; fill-opacity:0.0; 
stroke:#9F009F; stroke-width:120; stroke-opacity:1; 
stroke-linecap:round; stroke-linejoin:round;">
<path d="M88586 35123
L88520 35185
L88506 35223
L88505 35286
L88541 35364
L88591 35404
L88629 35418
L88693 35419
L88900 35323
L88646 34779
L88465 34864
L88425 34914
L88412 34952
L88410 35015
L88434 35067
L88484 35107
L88522 35121
L88586 35123
L88767 35038
" />
<path d="M88310 35409
L88051 35530
" />
<path d="M88434 35540
L87999 35081
L88071 35709
" />
<path d="M87714 35214
L87403 35359
" />
<path d="M87812 35830
L87559 35286
" />
</g>
<g style="fill:#9F009F; fill-opacity:0.0; 
stroke:#9F009F; stroke-width:100; stroke-opacity:1; 
stroke-linecap:round; stroke-linejoin:round;">
<path d="M81728 42066
L81757 42123
L81785 42142
L81842 42161
L81928 42161
L81985 42142
L82014 42123
L82042 42085
L82042 41933
L81442 41933
L81442 42066
L81471 42104
L81500 42123
L81557 42142
L81614 42142
L81671 42123
L81700 42104
L81728 42066
L81728 41933
" />
<path d="M81442 42409
L81442 42485
L81471 42523
L81528 42561
L81642 42580
L81842 42580
L81957 42561
L82014 42523
L82042 42485
L82042 42409
L82014 42371
L81957 42333
L81842 42314
L81642 42314
L81528 42333
L81471 42371
L81442 42409
" />
<path d="M81442 42828
L81442 42904
L81471 42942
L81528 42980
L81642 43000
L81842 43000
L81957 42980
L82014 42942
L82042 42904
L82042 42828
L82014 42790
L81957 42752
L81842 42733
L81642 42733
L81528 42752
L81471 42790
L81442 42828
" />
<path d="M82014 43152
L82042 43209
L82042 43304
L82014 43342
L81985 43361
L81928 43380
L81871 43380
L81814 43361
L81785 43342
L81757 43304
L81728 43228
L81700 43190
L81671 43171
L81614 43152
L81557 43152
L81500 43171
L81471 43190
L81442 43228
L81442 43323
L81471 43380
" />
<path d="M81442 43495
L81442 43723
" />
<path d="M82042 43609
L81442 43609
" />
</g>
<g style="fill:#9F009F; fill-opacity:0.0; 
stroke:#9F009F; stroke-width:150; stroke-opacity:1; 
stroke-linecap:round; stroke-linejoin:round;">
<path d="M82596 37995
L82807 38448
" />
<path d="M82928 38116
L82475 38327
" />
<path d="M83125 34989
L80859 36046
" />
<path d="M80859 36046
L81705 37858
" />
<path d="M81705 37858
L83970 36802
" />
<path d="M80754 35819
L80527 35925
" />
<path d="M80527 35925
L81584 38191
" />
<path d="M81584 38191
L81810 38085
" />
<path d="M81207 35608
L80754 35819
" />
<path d="M81810 38085
L84076 37029
" />
<path d="M83019 34763
L81207 35608
" />
<circle cx="87400" cy="34100" r="3535.53" /> 
<circle cx="87400" cy="34100" r="4301.16" /> 
</g>
<g style="fill:#9F009F; fill-opacity:0.0; 
stroke:#9F009F; stroke-width:120; stroke-opacity:1; 
stroke-linecap:round; stroke-linejoin:round;">
<path d="M83300 45500
L83300 45500
" />
<path d="M82300 45500
L83300 45500
" />
<path d="M83300 45500
L83300 45500
" />
<path d="M83300 45500
L83300 41500
" />
<path d="M83300 41500
L82300 41500
" />
<path d="M82300 41500
L82300 45500
" />
<path d="M82300 44500
L83300 44500
" />
</g>
<g style="fill:#7F7F00; fill-opacity:0.0; 
stroke:#7F7F00; stroke-width:39.3701; stroke-opacity:1; 
stroke-linecap:round; stroke-linejoin:round;">
</g>
<g style="fill:#7F7F00; fill-opacity:1.0; 
stroke:#7F7F00; stroke-width:39.3701; stroke-opacity:1; 
stroke-linecap:round; stroke-linejoin:round;">
<circle cx="90118.9" cy="32832.1" r="430.315" /> 
<circle cx="81962.2" cy="36635.7" r="430.315" /> 
<polyline style="fill-rule:evenodd;"
points="83055,45255
82544,45255
82544,44744
83055,44744
83055,45255
" /> 
<circle cx="82800" cy="44000" r="255.315" /> 
<circle cx="82800" cy="43000" r="255.315" /> 
<circle cx="82800" cy="42000" r="255.315" /> 
</g> 
</svg>
