G04 (created by PCBNEW (2013-07-07 BZR 4022)-stable) date 01/06/2014 15:02:48*
%MOIN*%
G04 Gerber Fmt 3.4, Leading zero omitted, Abs format*
%FSLAX34Y34*%
G01*
G70*
G90*
G04 APERTURE LIST*
%ADD10C,0.00590551*%
%ADD11C,0.00787402*%
%ADD12C,0.00984252*%
%ADD13C,0.011811*%
%ADD14C,0.015*%
%ADD15C,0.012*%
%ADD16C,0.01*%
G04 APERTURE END LIST*
G54D10*
G54D11*
X76850Y-45550D02*
X77000Y-45550D01*
X76850Y-47850D02*
X76850Y-45550D01*
X72850Y-47850D02*
X76850Y-47850D01*
X72850Y-46850D02*
X72850Y-47850D01*
X72850Y-43700D02*
X72850Y-46850D01*
X77000Y-43700D02*
X72850Y-43700D01*
X77000Y-43000D02*
X77000Y-43700D01*
X81300Y-45550D02*
X77000Y-45550D01*
X81300Y-43000D02*
X81300Y-45550D01*
X77000Y-43000D02*
X81300Y-43000D01*
G54D12*
X80464Y-35659D02*
X80464Y-35265D01*
X80307Y-35546D01*
X80149Y-35265D01*
X80149Y-35659D01*
X79722Y-35659D02*
X79722Y-35453D01*
X79744Y-35415D01*
X79789Y-35396D01*
X79879Y-35396D01*
X79924Y-35415D01*
X79722Y-35640D02*
X79767Y-35659D01*
X79879Y-35659D01*
X79924Y-35640D01*
X79947Y-35603D01*
X79947Y-35565D01*
X79924Y-35528D01*
X79879Y-35509D01*
X79767Y-35509D01*
X79722Y-35490D01*
X79294Y-35659D02*
X79294Y-35265D01*
X79294Y-35640D02*
X79339Y-35659D01*
X79429Y-35659D01*
X79474Y-35640D01*
X79497Y-35621D01*
X79519Y-35584D01*
X79519Y-35471D01*
X79497Y-35434D01*
X79474Y-35415D01*
X79429Y-35396D01*
X79339Y-35396D01*
X79294Y-35415D01*
X78889Y-35640D02*
X78934Y-35659D01*
X79024Y-35659D01*
X79069Y-35640D01*
X79092Y-35603D01*
X79092Y-35453D01*
X79069Y-35415D01*
X79024Y-35396D01*
X78934Y-35396D01*
X78889Y-35415D01*
X78867Y-35453D01*
X78867Y-35490D01*
X79092Y-35528D01*
X78349Y-35396D02*
X78259Y-35659D01*
X78169Y-35471D01*
X78079Y-35659D01*
X77989Y-35396D01*
X77809Y-35659D02*
X77809Y-35396D01*
X77809Y-35265D02*
X77832Y-35284D01*
X77809Y-35303D01*
X77787Y-35284D01*
X77809Y-35265D01*
X77809Y-35303D01*
X77652Y-35396D02*
X77472Y-35396D01*
X77584Y-35265D02*
X77584Y-35603D01*
X77562Y-35640D01*
X77517Y-35659D01*
X77472Y-35659D01*
X77315Y-35659D02*
X77315Y-35265D01*
X77112Y-35659D02*
X77112Y-35453D01*
X77135Y-35415D01*
X77180Y-35396D01*
X77247Y-35396D01*
X77292Y-35415D01*
X77315Y-35434D01*
X76527Y-35659D02*
X76527Y-35265D01*
X76257Y-35659D02*
X76460Y-35434D01*
X76257Y-35265D02*
X76527Y-35490D01*
X76055Y-35659D02*
X76055Y-35396D01*
X76055Y-35265D02*
X76077Y-35284D01*
X76055Y-35303D01*
X76032Y-35284D01*
X76055Y-35265D01*
X76055Y-35303D01*
X75627Y-35640D02*
X75672Y-35659D01*
X75762Y-35659D01*
X75807Y-35640D01*
X75830Y-35621D01*
X75852Y-35584D01*
X75852Y-35471D01*
X75830Y-35434D01*
X75807Y-35415D01*
X75762Y-35396D01*
X75672Y-35396D01*
X75627Y-35415D01*
X75222Y-35659D02*
X75222Y-35453D01*
X75245Y-35415D01*
X75290Y-35396D01*
X75380Y-35396D01*
X75425Y-35415D01*
X75222Y-35640D02*
X75267Y-35659D01*
X75380Y-35659D01*
X75425Y-35640D01*
X75447Y-35603D01*
X75447Y-35565D01*
X75425Y-35528D01*
X75380Y-35509D01*
X75267Y-35509D01*
X75222Y-35490D01*
X74795Y-35659D02*
X74795Y-35265D01*
X74795Y-35640D02*
X74840Y-35659D01*
X74930Y-35659D01*
X74975Y-35640D01*
X74997Y-35621D01*
X75020Y-35584D01*
X75020Y-35471D01*
X74997Y-35434D01*
X74975Y-35415D01*
X74930Y-35396D01*
X74840Y-35396D01*
X74795Y-35415D01*
X79238Y-36308D02*
X79261Y-36308D01*
X79306Y-36290D01*
X79373Y-36233D01*
X79485Y-36121D01*
X79530Y-36065D01*
X79553Y-36008D01*
X79553Y-35971D01*
X79530Y-35934D01*
X79485Y-35915D01*
X79463Y-35915D01*
X79418Y-35934D01*
X79396Y-35971D01*
X79396Y-35990D01*
X79418Y-36027D01*
X79441Y-36046D01*
X79575Y-36121D01*
X79598Y-36140D01*
X79620Y-36177D01*
X79620Y-36233D01*
X79598Y-36271D01*
X79575Y-36290D01*
X79530Y-36308D01*
X79463Y-36308D01*
X79418Y-36290D01*
X79396Y-36271D01*
X79328Y-36196D01*
X79306Y-36140D01*
X79306Y-36102D01*
X78518Y-36102D02*
X78676Y-36102D01*
X78676Y-36308D02*
X78676Y-35915D01*
X78451Y-35915D01*
X78271Y-36308D02*
X78271Y-36046D01*
X78271Y-36121D02*
X78248Y-36083D01*
X78226Y-36065D01*
X78181Y-36046D01*
X78136Y-36046D01*
X77798Y-36290D02*
X77843Y-36308D01*
X77933Y-36308D01*
X77978Y-36290D01*
X78001Y-36252D01*
X78001Y-36102D01*
X77978Y-36065D01*
X77933Y-36046D01*
X77843Y-36046D01*
X77798Y-36065D01*
X77776Y-36102D01*
X77776Y-36140D01*
X78001Y-36177D01*
X77393Y-36290D02*
X77438Y-36308D01*
X77528Y-36308D01*
X77573Y-36290D01*
X77596Y-36252D01*
X77596Y-36102D01*
X77573Y-36065D01*
X77528Y-36046D01*
X77438Y-36046D01*
X77393Y-36065D01*
X77371Y-36102D01*
X77371Y-36140D01*
X77596Y-36177D01*
X77168Y-36308D02*
X77168Y-36046D01*
X77168Y-36121D02*
X77146Y-36083D01*
X77123Y-36065D01*
X77078Y-36046D01*
X77033Y-36046D01*
X76808Y-36308D02*
X76853Y-36290D01*
X76876Y-36271D01*
X76898Y-36233D01*
X76898Y-36121D01*
X76876Y-36083D01*
X76853Y-36065D01*
X76808Y-36046D01*
X76741Y-36046D01*
X76696Y-36065D01*
X76673Y-36083D01*
X76651Y-36121D01*
X76651Y-36233D01*
X76673Y-36271D01*
X76696Y-36290D01*
X76741Y-36308D01*
X76808Y-36308D01*
X76246Y-36046D02*
X76246Y-36308D01*
X76448Y-36046D02*
X76448Y-36252D01*
X76426Y-36290D01*
X76381Y-36308D01*
X76313Y-36308D01*
X76268Y-36290D01*
X76246Y-36271D01*
X76088Y-36046D02*
X75908Y-36046D01*
X76021Y-35915D02*
X76021Y-36252D01*
X75998Y-36290D01*
X75953Y-36308D01*
X75908Y-36308D01*
X75571Y-36290D02*
X75616Y-36308D01*
X75706Y-36308D01*
X75751Y-36290D01*
X75773Y-36252D01*
X75773Y-36102D01*
X75751Y-36065D01*
X75706Y-36046D01*
X75616Y-36046D01*
X75571Y-36065D01*
X75548Y-36102D01*
X75548Y-36140D01*
X75773Y-36177D01*
X75346Y-36308D02*
X75346Y-36046D01*
X75346Y-36121D02*
X75324Y-36083D01*
X75301Y-36065D01*
X75256Y-36046D01*
X75211Y-36046D01*
X79294Y-36696D02*
X79294Y-36958D01*
X79497Y-36696D02*
X79497Y-36902D01*
X79474Y-36939D01*
X79429Y-36958D01*
X79362Y-36958D01*
X79317Y-36939D01*
X79294Y-36921D01*
X79069Y-36696D02*
X79069Y-36958D01*
X79069Y-36733D02*
X79047Y-36714D01*
X79002Y-36696D01*
X78934Y-36696D01*
X78889Y-36714D01*
X78867Y-36752D01*
X78867Y-36958D01*
X78439Y-36958D02*
X78439Y-36564D01*
X78439Y-36939D02*
X78484Y-36958D01*
X78574Y-36958D01*
X78619Y-36939D01*
X78642Y-36921D01*
X78664Y-36883D01*
X78664Y-36771D01*
X78642Y-36733D01*
X78619Y-36714D01*
X78574Y-36696D01*
X78484Y-36696D01*
X78439Y-36714D01*
X78034Y-36939D02*
X78079Y-36958D01*
X78169Y-36958D01*
X78214Y-36939D01*
X78237Y-36902D01*
X78237Y-36752D01*
X78214Y-36714D01*
X78169Y-36696D01*
X78079Y-36696D01*
X78034Y-36714D01*
X78012Y-36752D01*
X78012Y-36789D01*
X78237Y-36827D01*
X77809Y-36958D02*
X77809Y-36696D01*
X77809Y-36771D02*
X77787Y-36733D01*
X77764Y-36714D01*
X77719Y-36696D01*
X77674Y-36696D01*
X77067Y-36564D02*
X76977Y-36564D01*
X76932Y-36583D01*
X76887Y-36621D01*
X76865Y-36696D01*
X76865Y-36827D01*
X76887Y-36902D01*
X76932Y-36939D01*
X76977Y-36958D01*
X77067Y-36958D01*
X77112Y-36939D01*
X77157Y-36902D01*
X77180Y-36827D01*
X77180Y-36696D01*
X77157Y-36621D01*
X77112Y-36583D01*
X77067Y-36564D01*
X76685Y-36939D02*
X76617Y-36958D01*
X76505Y-36958D01*
X76460Y-36939D01*
X76437Y-36921D01*
X76415Y-36883D01*
X76415Y-36846D01*
X76437Y-36808D01*
X76460Y-36789D01*
X76505Y-36771D01*
X76595Y-36752D01*
X76640Y-36733D01*
X76662Y-36714D01*
X76685Y-36677D01*
X76685Y-36639D01*
X76662Y-36602D01*
X76640Y-36583D01*
X76595Y-36564D01*
X76482Y-36564D01*
X76415Y-36583D01*
X76212Y-36958D02*
X76212Y-36564D01*
X76212Y-36752D02*
X75942Y-36752D01*
X75942Y-36958D02*
X75942Y-36564D01*
X75762Y-36564D02*
X75650Y-36958D01*
X75560Y-36677D01*
X75470Y-36958D01*
X75357Y-36564D01*
G54D13*
X82190Y-31889D02*
X82471Y-31889D01*
X82471Y-31298D01*
X81993Y-31579D02*
X81796Y-31579D01*
X81712Y-31889D02*
X81993Y-31889D01*
X81993Y-31298D01*
X81712Y-31298D01*
X81459Y-31889D02*
X81459Y-31298D01*
X81318Y-31298D01*
X81234Y-31326D01*
X81177Y-31382D01*
X81149Y-31439D01*
X81121Y-31551D01*
X81121Y-31635D01*
X81149Y-31748D01*
X81177Y-31804D01*
X81234Y-31860D01*
X81318Y-31889D01*
X81459Y-31889D01*
X80868Y-31889D02*
X80868Y-31298D01*
X80671Y-31720D01*
X80474Y-31298D01*
X80474Y-31889D01*
X80221Y-31720D02*
X79940Y-31720D01*
X80278Y-31889D02*
X80081Y-31298D01*
X79884Y-31889D01*
X79771Y-31298D02*
X79434Y-31298D01*
X79603Y-31889D02*
X79603Y-31298D01*
X78900Y-31889D02*
X79096Y-31607D01*
X79237Y-31889D02*
X79237Y-31298D01*
X79012Y-31298D01*
X78956Y-31326D01*
X78928Y-31354D01*
X78900Y-31410D01*
X78900Y-31495D01*
X78928Y-31551D01*
X78956Y-31579D01*
X79012Y-31607D01*
X79237Y-31607D01*
X78646Y-31889D02*
X78646Y-31298D01*
X78421Y-31298D02*
X78028Y-31889D01*
X78028Y-31298D02*
X78421Y-31889D01*
X77943Y-31945D02*
X77493Y-31945D01*
X77240Y-31298D02*
X77184Y-31298D01*
X77128Y-31326D01*
X77100Y-31354D01*
X77072Y-31410D01*
X77044Y-31523D01*
X77044Y-31664D01*
X77072Y-31776D01*
X77100Y-31832D01*
X77128Y-31860D01*
X77184Y-31889D01*
X77240Y-31889D01*
X77297Y-31860D01*
X77325Y-31832D01*
X77353Y-31776D01*
X77381Y-31664D01*
X77381Y-31523D01*
X77353Y-31410D01*
X77325Y-31354D01*
X77297Y-31326D01*
X77240Y-31298D01*
X76790Y-31832D02*
X76762Y-31860D01*
X76790Y-31889D01*
X76819Y-31860D01*
X76790Y-31832D01*
X76790Y-31889D01*
X76565Y-31298D02*
X76200Y-31298D01*
X76397Y-31523D01*
X76312Y-31523D01*
X76256Y-31551D01*
X76228Y-31579D01*
X76200Y-31635D01*
X76200Y-31776D01*
X76228Y-31832D01*
X76256Y-31860D01*
X76312Y-31889D01*
X76481Y-31889D01*
X76537Y-31860D01*
X76565Y-31832D01*
X82499Y-32243D02*
X82612Y-32243D01*
X82668Y-32271D01*
X82696Y-32299D01*
X82752Y-32383D01*
X82780Y-32496D01*
X82780Y-32721D01*
X82752Y-32777D01*
X82724Y-32805D01*
X82668Y-32833D01*
X82555Y-32833D01*
X82499Y-32805D01*
X82471Y-32777D01*
X82443Y-32721D01*
X82443Y-32580D01*
X82471Y-32524D01*
X82499Y-32496D01*
X82555Y-32468D01*
X82668Y-32468D01*
X82724Y-32496D01*
X82752Y-32524D01*
X82780Y-32580D01*
X81768Y-32215D02*
X82274Y-32974D01*
X81262Y-32833D02*
X81599Y-32833D01*
X81430Y-32833D02*
X81430Y-32243D01*
X81487Y-32327D01*
X81543Y-32383D01*
X81599Y-32412D01*
X80756Y-32440D02*
X80756Y-32833D01*
X80896Y-32215D02*
X81037Y-32637D01*
X80671Y-32637D01*
X79996Y-32833D02*
X79996Y-32243D01*
X79996Y-32468D02*
X79940Y-32440D01*
X79828Y-32440D01*
X79771Y-32468D01*
X79743Y-32496D01*
X79715Y-32552D01*
X79715Y-32721D01*
X79743Y-32777D01*
X79771Y-32805D01*
X79828Y-32833D01*
X79940Y-32833D01*
X79996Y-32805D01*
X79518Y-32440D02*
X79378Y-32833D01*
X79237Y-32440D02*
X79378Y-32833D01*
X79434Y-32974D01*
X79462Y-33002D01*
X79518Y-33030D01*
X78562Y-32833D02*
X78562Y-32440D01*
X78562Y-32243D02*
X78590Y-32271D01*
X78562Y-32299D01*
X78534Y-32271D01*
X78562Y-32243D01*
X78562Y-32299D01*
X78309Y-32805D02*
X78253Y-32833D01*
X78140Y-32833D01*
X78084Y-32805D01*
X78056Y-32749D01*
X78056Y-32721D01*
X78084Y-32665D01*
X78140Y-32637D01*
X78225Y-32637D01*
X78281Y-32608D01*
X78309Y-32552D01*
X78309Y-32524D01*
X78281Y-32468D01*
X78225Y-32440D01*
X78140Y-32440D01*
X78084Y-32468D01*
X77831Y-32805D02*
X77775Y-32833D01*
X77662Y-32833D01*
X77606Y-32805D01*
X77578Y-32749D01*
X77578Y-32721D01*
X77606Y-32665D01*
X77662Y-32637D01*
X77747Y-32637D01*
X77803Y-32608D01*
X77831Y-32552D01*
X77831Y-32524D01*
X77803Y-32468D01*
X77747Y-32440D01*
X77662Y-32440D01*
X77606Y-32468D01*
X77072Y-32833D02*
X77072Y-32524D01*
X77100Y-32468D01*
X77156Y-32440D01*
X77269Y-32440D01*
X77325Y-32468D01*
X77072Y-32805D02*
X77128Y-32833D01*
X77269Y-32833D01*
X77325Y-32805D01*
X77353Y-32749D01*
X77353Y-32693D01*
X77325Y-32637D01*
X77269Y-32608D01*
X77128Y-32608D01*
X77072Y-32580D01*
X76706Y-32833D02*
X76762Y-32805D01*
X76790Y-32749D01*
X76790Y-32243D01*
X76481Y-32833D02*
X76481Y-32440D01*
X76481Y-32243D02*
X76509Y-32271D01*
X76481Y-32299D01*
X76453Y-32271D01*
X76481Y-32243D01*
X76481Y-32299D01*
X75947Y-32440D02*
X75947Y-32918D01*
X75975Y-32974D01*
X76003Y-33002D01*
X76059Y-33030D01*
X76144Y-33030D01*
X76200Y-33002D01*
X75947Y-32805D02*
X76003Y-32833D01*
X76116Y-32833D01*
X76172Y-32805D01*
X76200Y-32777D01*
X76228Y-32721D01*
X76228Y-32552D01*
X76200Y-32496D01*
X76172Y-32468D01*
X76116Y-32440D01*
X76003Y-32440D01*
X75947Y-32468D01*
G54D12*
X81181Y-43396D02*
X80993Y-43396D01*
X81218Y-43509D02*
X81087Y-43115D01*
X80956Y-43509D01*
X80750Y-43115D02*
X80712Y-43115D01*
X80675Y-43134D01*
X80656Y-43153D01*
X80637Y-43190D01*
X80618Y-43265D01*
X80618Y-43359D01*
X80637Y-43434D01*
X80656Y-43471D01*
X80675Y-43490D01*
X80712Y-43509D01*
X80750Y-43509D01*
X80787Y-43490D01*
X80806Y-43471D01*
X80825Y-43434D01*
X80843Y-43359D01*
X80843Y-43265D01*
X80825Y-43190D01*
X80806Y-43153D01*
X80787Y-43134D01*
X80750Y-43115D01*
X81181Y-44046D02*
X80993Y-44046D01*
X81218Y-44158D02*
X81087Y-43765D01*
X80956Y-44158D01*
X80618Y-44158D02*
X80843Y-44158D01*
X80731Y-44158D02*
X80731Y-43765D01*
X80768Y-43821D01*
X80806Y-43858D01*
X80843Y-43877D01*
X81181Y-44696D02*
X80993Y-44696D01*
X81218Y-44808D02*
X81087Y-44414D01*
X80956Y-44808D01*
X80843Y-44452D02*
X80825Y-44433D01*
X80787Y-44414D01*
X80693Y-44414D01*
X80656Y-44433D01*
X80637Y-44452D01*
X80618Y-44489D01*
X80618Y-44527D01*
X80637Y-44583D01*
X80862Y-44808D01*
X80618Y-44808D01*
X81181Y-45345D02*
X80993Y-45345D01*
X81218Y-45458D02*
X81087Y-45064D01*
X80956Y-45458D01*
X80862Y-45064D02*
X80618Y-45064D01*
X80750Y-45214D01*
X80693Y-45214D01*
X80656Y-45233D01*
X80637Y-45251D01*
X80618Y-45289D01*
X80618Y-45383D01*
X80637Y-45420D01*
X80656Y-45439D01*
X80693Y-45458D01*
X80806Y-45458D01*
X80843Y-45439D01*
X80862Y-45420D01*
X78628Y-43490D02*
X78571Y-43509D01*
X78478Y-43509D01*
X78440Y-43490D01*
X78421Y-43471D01*
X78403Y-43434D01*
X78403Y-43396D01*
X78421Y-43359D01*
X78440Y-43340D01*
X78478Y-43321D01*
X78553Y-43303D01*
X78590Y-43284D01*
X78609Y-43265D01*
X78628Y-43228D01*
X78628Y-43190D01*
X78609Y-43153D01*
X78590Y-43134D01*
X78553Y-43115D01*
X78459Y-43115D01*
X78403Y-43134D01*
X78234Y-43509D02*
X78234Y-43115D01*
X78140Y-43115D01*
X78084Y-43134D01*
X78046Y-43171D01*
X78028Y-43209D01*
X78009Y-43284D01*
X78009Y-43340D01*
X78028Y-43415D01*
X78046Y-43453D01*
X78084Y-43490D01*
X78140Y-43509D01*
X78234Y-43509D01*
X77859Y-43396D02*
X77671Y-43396D01*
X77896Y-43509D02*
X77765Y-43115D01*
X77634Y-43509D01*
X78618Y-44140D02*
X78562Y-44158D01*
X78468Y-44158D01*
X78431Y-44140D01*
X78412Y-44121D01*
X78393Y-44083D01*
X78393Y-44046D01*
X78412Y-44008D01*
X78431Y-43990D01*
X78468Y-43971D01*
X78543Y-43952D01*
X78581Y-43933D01*
X78599Y-43915D01*
X78618Y-43877D01*
X78618Y-43840D01*
X78599Y-43802D01*
X78581Y-43784D01*
X78543Y-43765D01*
X78449Y-43765D01*
X78393Y-43784D01*
X78000Y-44121D02*
X78018Y-44140D01*
X78075Y-44158D01*
X78112Y-44158D01*
X78168Y-44140D01*
X78206Y-44102D01*
X78224Y-44065D01*
X78243Y-43990D01*
X78243Y-43933D01*
X78224Y-43858D01*
X78206Y-43821D01*
X78168Y-43784D01*
X78112Y-43765D01*
X78075Y-43765D01*
X78018Y-43784D01*
X78000Y-43802D01*
X77643Y-44158D02*
X77831Y-44158D01*
X77831Y-43765D01*
X78628Y-44789D02*
X78571Y-44808D01*
X78478Y-44808D01*
X78440Y-44789D01*
X78421Y-44771D01*
X78403Y-44733D01*
X78403Y-44696D01*
X78421Y-44658D01*
X78440Y-44639D01*
X78478Y-44621D01*
X78553Y-44602D01*
X78590Y-44583D01*
X78609Y-44564D01*
X78628Y-44527D01*
X78628Y-44489D01*
X78609Y-44452D01*
X78590Y-44433D01*
X78553Y-44414D01*
X78459Y-44414D01*
X78403Y-44433D01*
X78234Y-44808D02*
X78234Y-44414D01*
X78140Y-44414D01*
X78084Y-44433D01*
X78046Y-44471D01*
X78028Y-44508D01*
X78009Y-44583D01*
X78009Y-44639D01*
X78028Y-44714D01*
X78046Y-44752D01*
X78084Y-44789D01*
X78140Y-44808D01*
X78234Y-44808D01*
X77859Y-44696D02*
X77671Y-44696D01*
X77896Y-44808D02*
X77765Y-44414D01*
X77634Y-44808D01*
X78618Y-45439D02*
X78562Y-45458D01*
X78468Y-45458D01*
X78431Y-45439D01*
X78412Y-45420D01*
X78393Y-45383D01*
X78393Y-45345D01*
X78412Y-45308D01*
X78431Y-45289D01*
X78468Y-45270D01*
X78543Y-45251D01*
X78581Y-45233D01*
X78599Y-45214D01*
X78618Y-45176D01*
X78618Y-45139D01*
X78599Y-45101D01*
X78581Y-45083D01*
X78543Y-45064D01*
X78449Y-45064D01*
X78393Y-45083D01*
X78000Y-45420D02*
X78018Y-45439D01*
X78075Y-45458D01*
X78112Y-45458D01*
X78168Y-45439D01*
X78206Y-45401D01*
X78224Y-45364D01*
X78243Y-45289D01*
X78243Y-45233D01*
X78224Y-45158D01*
X78206Y-45120D01*
X78168Y-45083D01*
X78112Y-45064D01*
X78075Y-45064D01*
X78018Y-45083D01*
X78000Y-45101D01*
X77643Y-45458D02*
X77831Y-45458D01*
X77831Y-45064D01*
X79949Y-43490D02*
X79893Y-43509D01*
X79799Y-43509D01*
X79762Y-43490D01*
X79743Y-43471D01*
X79724Y-43434D01*
X79724Y-43396D01*
X79743Y-43359D01*
X79762Y-43340D01*
X79799Y-43321D01*
X79874Y-43303D01*
X79912Y-43284D01*
X79931Y-43265D01*
X79949Y-43228D01*
X79949Y-43190D01*
X79931Y-43153D01*
X79912Y-43134D01*
X79874Y-43115D01*
X79781Y-43115D01*
X79724Y-43134D01*
X79575Y-43490D02*
X79518Y-43509D01*
X79425Y-43509D01*
X79387Y-43490D01*
X79368Y-43471D01*
X79350Y-43434D01*
X79350Y-43396D01*
X79368Y-43359D01*
X79387Y-43340D01*
X79425Y-43321D01*
X79500Y-43303D01*
X79537Y-43284D01*
X79556Y-43265D01*
X79575Y-43228D01*
X79575Y-43190D01*
X79556Y-43153D01*
X79537Y-43134D01*
X79500Y-43115D01*
X79406Y-43115D01*
X79350Y-43134D01*
X80268Y-44158D02*
X80268Y-43765D01*
X80137Y-44046D01*
X80006Y-43765D01*
X80006Y-44158D01*
X79743Y-43765D02*
X79668Y-43765D01*
X79631Y-43784D01*
X79593Y-43821D01*
X79575Y-43896D01*
X79575Y-44027D01*
X79593Y-44102D01*
X79631Y-44140D01*
X79668Y-44158D01*
X79743Y-44158D01*
X79781Y-44140D01*
X79818Y-44102D01*
X79837Y-44027D01*
X79837Y-43896D01*
X79818Y-43821D01*
X79781Y-43784D01*
X79743Y-43765D01*
X79425Y-44140D02*
X79368Y-44158D01*
X79275Y-44158D01*
X79237Y-44140D01*
X79218Y-44121D01*
X79200Y-44083D01*
X79200Y-44046D01*
X79218Y-44008D01*
X79237Y-43990D01*
X79275Y-43971D01*
X79350Y-43952D01*
X79387Y-43933D01*
X79406Y-43915D01*
X79425Y-43877D01*
X79425Y-43840D01*
X79406Y-43802D01*
X79387Y-43784D01*
X79350Y-43765D01*
X79256Y-43765D01*
X79200Y-43784D01*
X79031Y-44158D02*
X79031Y-43765D01*
X80268Y-44808D02*
X80268Y-44414D01*
X80137Y-44696D01*
X80006Y-44414D01*
X80006Y-44808D01*
X79818Y-44808D02*
X79818Y-44414D01*
X79650Y-44789D02*
X79593Y-44808D01*
X79500Y-44808D01*
X79462Y-44789D01*
X79443Y-44771D01*
X79425Y-44733D01*
X79425Y-44696D01*
X79443Y-44658D01*
X79462Y-44639D01*
X79500Y-44621D01*
X79575Y-44602D01*
X79612Y-44583D01*
X79631Y-44564D01*
X79650Y-44527D01*
X79650Y-44489D01*
X79631Y-44452D01*
X79612Y-44433D01*
X79575Y-44414D01*
X79481Y-44414D01*
X79425Y-44433D01*
X79181Y-44414D02*
X79106Y-44414D01*
X79068Y-44433D01*
X79031Y-44471D01*
X79012Y-44546D01*
X79012Y-44677D01*
X79031Y-44752D01*
X79068Y-44789D01*
X79106Y-44808D01*
X79181Y-44808D01*
X79218Y-44789D01*
X79256Y-44752D01*
X79275Y-44677D01*
X79275Y-44546D01*
X79256Y-44471D01*
X79218Y-44433D01*
X79181Y-44414D01*
X80156Y-45439D02*
X80099Y-45458D01*
X80006Y-45458D01*
X79968Y-45439D01*
X79949Y-45420D01*
X79931Y-45383D01*
X79931Y-45345D01*
X79949Y-45308D01*
X79968Y-45289D01*
X80006Y-45270D01*
X80081Y-45251D01*
X80118Y-45233D01*
X80137Y-45214D01*
X80156Y-45176D01*
X80156Y-45139D01*
X80137Y-45101D01*
X80118Y-45083D01*
X80081Y-45064D01*
X79987Y-45064D01*
X79931Y-45083D01*
X79537Y-45420D02*
X79556Y-45439D01*
X79612Y-45458D01*
X79649Y-45458D01*
X79706Y-45439D01*
X79743Y-45401D01*
X79762Y-45364D01*
X79781Y-45289D01*
X79781Y-45233D01*
X79762Y-45158D01*
X79743Y-45120D01*
X79706Y-45083D01*
X79649Y-45064D01*
X79612Y-45064D01*
X79556Y-45083D01*
X79537Y-45101D01*
X79368Y-45458D02*
X79368Y-45064D01*
X79143Y-45458D02*
X79312Y-45233D01*
X79143Y-45064D02*
X79368Y-45289D01*
G54D14*
X82596Y-37995D02*
X82807Y-38448D01*
X82928Y-38116D02*
X82475Y-38327D01*
X83125Y-34989D02*
X80859Y-36046D01*
X80859Y-36046D02*
X81705Y-37858D01*
X81705Y-37858D02*
X83970Y-36802D01*
X80754Y-35819D02*
X80527Y-35925D01*
X80527Y-35925D02*
X81584Y-38191D01*
X81584Y-38191D02*
X81810Y-38085D01*
X81207Y-35608D02*
X80754Y-35819D01*
X81810Y-38085D02*
X84076Y-37029D01*
X83019Y-34763D02*
X81207Y-35608D01*
X90935Y-34100D02*
G75*
G03X90935Y-34100I-3535J0D01*
G74*
G01*
X91701Y-34100D02*
G75*
G03X91701Y-34100I-4301J0D01*
G74*
G01*
G54D15*
X83300Y-45500D02*
X83300Y-45500D01*
X82300Y-45500D02*
X83300Y-45500D01*
X83300Y-45500D02*
X83300Y-45500D01*
X83300Y-45500D02*
X83300Y-41500D01*
X83300Y-41500D02*
X82300Y-41500D01*
X82300Y-41500D02*
X82300Y-45500D01*
X82300Y-44500D02*
X83300Y-44500D01*
X88586Y-35123D02*
X88520Y-35185D01*
X88506Y-35223D01*
X88505Y-35286D01*
X88541Y-35364D01*
X88591Y-35404D01*
X88629Y-35418D01*
X88693Y-35419D01*
X88900Y-35323D01*
X88646Y-34779D01*
X88465Y-34864D01*
X88425Y-34914D01*
X88412Y-34952D01*
X88410Y-35015D01*
X88434Y-35067D01*
X88484Y-35107D01*
X88522Y-35121D01*
X88586Y-35123D01*
X88767Y-35038D01*
X88310Y-35409D02*
X88051Y-35530D01*
X88434Y-35540D02*
X87999Y-35081D01*
X88071Y-35709D01*
X87714Y-35214D02*
X87403Y-35359D01*
X87812Y-35830D02*
X87559Y-35286D01*
G54D16*
X81728Y-42066D02*
X81757Y-42123D01*
X81785Y-42142D01*
X81842Y-42161D01*
X81928Y-42161D01*
X81985Y-42142D01*
X82014Y-42123D01*
X82042Y-42085D01*
X82042Y-41933D01*
X81442Y-41933D01*
X81442Y-42066D01*
X81471Y-42104D01*
X81500Y-42123D01*
X81557Y-42142D01*
X81614Y-42142D01*
X81671Y-42123D01*
X81700Y-42104D01*
X81728Y-42066D01*
X81728Y-41933D01*
X81442Y-42409D02*
X81442Y-42485D01*
X81471Y-42523D01*
X81528Y-42561D01*
X81642Y-42580D01*
X81842Y-42580D01*
X81957Y-42561D01*
X82014Y-42523D01*
X82042Y-42485D01*
X82042Y-42409D01*
X82014Y-42371D01*
X81957Y-42333D01*
X81842Y-42314D01*
X81642Y-42314D01*
X81528Y-42333D01*
X81471Y-42371D01*
X81442Y-42409D01*
X81442Y-42828D02*
X81442Y-42904D01*
X81471Y-42942D01*
X81528Y-42980D01*
X81642Y-43000D01*
X81842Y-43000D01*
X81957Y-42980D01*
X82014Y-42942D01*
X82042Y-42904D01*
X82042Y-42828D01*
X82014Y-42790D01*
X81957Y-42752D01*
X81842Y-42733D01*
X81642Y-42733D01*
X81528Y-42752D01*
X81471Y-42790D01*
X81442Y-42828D01*
X82014Y-43152D02*
X82042Y-43209D01*
X82042Y-43304D01*
X82014Y-43342D01*
X81985Y-43361D01*
X81928Y-43380D01*
X81871Y-43380D01*
X81814Y-43361D01*
X81785Y-43342D01*
X81757Y-43304D01*
X81728Y-43228D01*
X81700Y-43190D01*
X81671Y-43171D01*
X81614Y-43152D01*
X81557Y-43152D01*
X81500Y-43171D01*
X81471Y-43190D01*
X81442Y-43228D01*
X81442Y-43323D01*
X81471Y-43380D01*
X81442Y-43495D02*
X81442Y-43723D01*
X82042Y-43609D02*
X81442Y-43609D01*
M02*
