G04 (created by PCBNEW (2013-07-07 BZR 4022)-stable) date 01/06/2014 15:28:08*
%MOIN*%
G04 Gerber Fmt 3.4, Leading zero omitted, Abs format*
%FSLAX34Y34*%
G01*
G70*
G90*
G04 APERTURE LIST*
%ADD10C,0.00590551*%
%ADD11C,0.00984252*%
%ADD12C,0.00787402*%
%ADD13C,0.012*%
%ADD14C,0.015*%
%ADD15C,0.008*%
%ADD16C,0.01*%
%ADD17C,0.01125*%
G04 APERTURE END LIST*
G54D10*
G54D11*
X76856Y-32489D02*
X76669Y-32489D01*
X76669Y-31898D01*
X76987Y-32179D02*
X77118Y-32179D01*
X77175Y-32489D02*
X76987Y-32489D01*
X76987Y-31898D01*
X77175Y-31898D01*
X77343Y-32489D02*
X77343Y-31898D01*
X77437Y-31898D01*
X77493Y-31926D01*
X77531Y-31982D01*
X77550Y-32039D01*
X77568Y-32151D01*
X77568Y-32235D01*
X77550Y-32348D01*
X77531Y-32404D01*
X77493Y-32460D01*
X77437Y-32489D01*
X77343Y-32489D01*
X77737Y-32489D02*
X77737Y-31898D01*
X77868Y-32320D01*
X78000Y-31898D01*
X78000Y-32489D01*
X78168Y-32320D02*
X78356Y-32320D01*
X78131Y-32489D02*
X78262Y-31898D01*
X78393Y-32489D01*
X78468Y-31898D02*
X78693Y-31898D01*
X78581Y-32489D02*
X78581Y-31898D01*
X79049Y-32489D02*
X78918Y-32207D01*
X78824Y-32489D02*
X78824Y-31898D01*
X78974Y-31898D01*
X79012Y-31926D01*
X79031Y-31954D01*
X79049Y-32010D01*
X79049Y-32095D01*
X79031Y-32151D01*
X79012Y-32179D01*
X78974Y-32207D01*
X78824Y-32207D01*
X79218Y-32489D02*
X79218Y-31898D01*
X79368Y-31898D02*
X79631Y-32489D01*
X79631Y-31898D02*
X79368Y-32489D01*
X79687Y-32545D02*
X79987Y-32545D01*
X80156Y-31898D02*
X80193Y-31898D01*
X80231Y-31926D01*
X80249Y-31954D01*
X80268Y-32010D01*
X80287Y-32123D01*
X80287Y-32264D01*
X80268Y-32376D01*
X80249Y-32432D01*
X80231Y-32460D01*
X80193Y-32489D01*
X80156Y-32489D01*
X80118Y-32460D01*
X80099Y-32432D01*
X80081Y-32376D01*
X80062Y-32264D01*
X80062Y-32123D01*
X80081Y-32010D01*
X80099Y-31954D01*
X80118Y-31926D01*
X80156Y-31898D01*
X80456Y-32432D02*
X80474Y-32460D01*
X80456Y-32489D01*
X80437Y-32460D01*
X80456Y-32432D01*
X80456Y-32489D01*
X80606Y-31898D02*
X80849Y-31898D01*
X80718Y-32123D01*
X80774Y-32123D01*
X80812Y-32151D01*
X80830Y-32179D01*
X80849Y-32235D01*
X80849Y-32376D01*
X80830Y-32432D01*
X80812Y-32460D01*
X80774Y-32489D01*
X80662Y-32489D01*
X80624Y-32460D01*
X80606Y-32432D01*
X76825Y-40009D02*
X76900Y-40009D01*
X76937Y-39990D01*
X76956Y-39971D01*
X76993Y-39915D01*
X77012Y-39840D01*
X77012Y-39690D01*
X76993Y-39653D01*
X76974Y-39634D01*
X76937Y-39615D01*
X76862Y-39615D01*
X76825Y-39634D01*
X76806Y-39653D01*
X76787Y-39690D01*
X76787Y-39784D01*
X76806Y-39821D01*
X76825Y-39840D01*
X76862Y-39859D01*
X76937Y-39859D01*
X76974Y-39840D01*
X76993Y-39821D01*
X77012Y-39784D01*
X77675Y-47059D02*
X77450Y-47059D01*
X77562Y-47059D02*
X77562Y-46665D01*
X77525Y-46721D01*
X77487Y-46759D01*
X77450Y-46778D01*
X77918Y-46665D02*
X77956Y-46665D01*
X77993Y-46684D01*
X78012Y-46703D01*
X78031Y-46740D01*
X78049Y-46815D01*
X78049Y-46909D01*
X78031Y-46984D01*
X78012Y-47021D01*
X77993Y-47040D01*
X77956Y-47059D01*
X77918Y-47059D01*
X77881Y-47040D01*
X77862Y-47021D01*
X77843Y-46984D01*
X77824Y-46909D01*
X77824Y-46815D01*
X77843Y-46740D01*
X77862Y-46703D01*
X77881Y-46684D01*
X77918Y-46665D01*
X90349Y-36009D02*
X90050Y-36009D01*
X90349Y-35009D02*
X90050Y-35009D01*
X90199Y-35159D02*
X90199Y-34859D01*
X90025Y-34159D02*
X89837Y-34159D01*
X89837Y-33765D01*
X90156Y-34159D02*
X90156Y-33765D01*
X90249Y-33765D01*
X90306Y-33784D01*
X90343Y-33821D01*
X90362Y-33859D01*
X90381Y-33934D01*
X90381Y-33990D01*
X90362Y-34065D01*
X90343Y-34103D01*
X90306Y-34140D01*
X90249Y-34159D01*
X90156Y-34159D01*
X89925Y-33121D02*
X89906Y-33140D01*
X89850Y-33159D01*
X89812Y-33159D01*
X89756Y-33140D01*
X89718Y-33103D01*
X89700Y-33065D01*
X89681Y-32990D01*
X89681Y-32934D01*
X89700Y-32859D01*
X89718Y-32821D01*
X89756Y-32784D01*
X89812Y-32765D01*
X89850Y-32765D01*
X89906Y-32784D01*
X89925Y-32803D01*
X90093Y-33159D02*
X90093Y-32765D01*
X90318Y-33159D02*
X90149Y-32934D01*
X90318Y-32765D02*
X90093Y-32990D01*
X90096Y-32159D02*
X90096Y-31765D01*
X90190Y-31765D01*
X90246Y-31784D01*
X90284Y-31821D01*
X90303Y-31859D01*
X90321Y-31934D01*
X90321Y-31990D01*
X90303Y-32065D01*
X90284Y-32103D01*
X90246Y-32140D01*
X90190Y-32159D01*
X90096Y-32159D01*
X76906Y-36489D02*
X76719Y-36489D01*
X76719Y-35898D01*
X77037Y-36179D02*
X77168Y-36179D01*
X77225Y-36489D02*
X77037Y-36489D01*
X77037Y-35898D01*
X77225Y-35898D01*
X77393Y-36489D02*
X77393Y-35898D01*
X77487Y-35898D01*
X77543Y-35926D01*
X77581Y-35982D01*
X77600Y-36039D01*
X77618Y-36151D01*
X77618Y-36235D01*
X77600Y-36348D01*
X77581Y-36404D01*
X77543Y-36460D01*
X77487Y-36489D01*
X77393Y-36489D01*
X77787Y-36489D02*
X77787Y-35898D01*
X77918Y-36320D01*
X78050Y-35898D01*
X78050Y-36489D01*
X78218Y-36320D02*
X78406Y-36320D01*
X78181Y-36489D02*
X78312Y-35898D01*
X78443Y-36489D01*
X78518Y-35898D02*
X78743Y-35898D01*
X78631Y-36489D02*
X78631Y-35898D01*
X79099Y-36489D02*
X78968Y-36207D01*
X78874Y-36489D02*
X78874Y-35898D01*
X79024Y-35898D01*
X79062Y-35926D01*
X79081Y-35954D01*
X79099Y-36010D01*
X79099Y-36095D01*
X79081Y-36151D01*
X79062Y-36179D01*
X79024Y-36207D01*
X78874Y-36207D01*
X79268Y-36489D02*
X79268Y-35898D01*
X79418Y-35898D02*
X79681Y-36489D01*
X79681Y-35898D02*
X79418Y-36489D01*
X79737Y-36545D02*
X80037Y-36545D01*
X80206Y-35898D02*
X80243Y-35898D01*
X80281Y-35926D01*
X80299Y-35954D01*
X80318Y-36010D01*
X80337Y-36123D01*
X80337Y-36264D01*
X80318Y-36376D01*
X80299Y-36432D01*
X80281Y-36460D01*
X80243Y-36489D01*
X80206Y-36489D01*
X80168Y-36460D01*
X80149Y-36432D01*
X80131Y-36376D01*
X80112Y-36264D01*
X80112Y-36123D01*
X80131Y-36010D01*
X80149Y-35954D01*
X80168Y-35926D01*
X80206Y-35898D01*
X80506Y-36432D02*
X80524Y-36460D01*
X80506Y-36489D01*
X80487Y-36460D01*
X80506Y-36432D01*
X80506Y-36489D01*
X80656Y-35898D02*
X80899Y-35898D01*
X80768Y-36123D01*
X80824Y-36123D01*
X80862Y-36151D01*
X80880Y-36179D01*
X80899Y-36235D01*
X80899Y-36376D01*
X80880Y-36432D01*
X80862Y-36460D01*
X80824Y-36489D01*
X80712Y-36489D01*
X80674Y-36460D01*
X80656Y-36432D01*
G54D12*
X92000Y-28750D02*
X72500Y-28750D01*
X92000Y-48250D02*
X92000Y-28750D01*
X72500Y-48250D02*
X92000Y-48250D01*
X72500Y-28750D02*
X72500Y-48250D01*
X85750Y-38750D02*
X86000Y-38750D01*
X85750Y-29250D02*
X85750Y-38750D01*
X78750Y-29250D02*
X78750Y-47500D01*
G54D13*
X78250Y-28950D02*
X86250Y-28950D01*
X86250Y-28950D02*
X86250Y-29950D01*
X86250Y-29950D02*
X78250Y-29950D01*
X78250Y-29950D02*
X78250Y-28950D01*
X79250Y-29950D02*
X79250Y-28950D01*
X86250Y-48150D02*
X78250Y-48150D01*
X78250Y-48150D02*
X78250Y-47150D01*
X78250Y-47150D02*
X86250Y-47150D01*
X86250Y-47150D02*
X86250Y-48150D01*
X85250Y-47150D02*
X85250Y-48150D01*
X89400Y-31600D02*
X89400Y-32000D01*
X89400Y-32000D02*
X89800Y-32000D01*
X89800Y-32000D02*
X89800Y-35200D01*
X89800Y-35200D02*
X89000Y-35200D01*
X89000Y-35200D02*
X89000Y-32000D01*
X89000Y-32000D02*
X89400Y-32000D01*
X89600Y-32000D02*
X89800Y-32200D01*
X89400Y-35600D02*
X89400Y-35200D01*
X81700Y-42600D02*
X81300Y-42600D01*
X81300Y-42600D02*
X81300Y-43000D01*
X81300Y-43000D02*
X78100Y-43000D01*
X78100Y-43000D02*
X78100Y-42200D01*
X78100Y-42200D02*
X81300Y-42200D01*
X81300Y-42200D02*
X81300Y-42600D01*
X81300Y-42800D02*
X81100Y-43000D01*
X77700Y-42600D02*
X78100Y-42600D01*
G54D14*
X75700Y-31600D02*
X76200Y-31600D01*
X76200Y-31600D02*
X76200Y-32600D01*
X76200Y-32600D02*
X75700Y-32600D01*
X75700Y-32600D02*
X75700Y-32600D01*
X75700Y-31100D02*
X88700Y-31100D01*
X88700Y-31100D02*
X88700Y-33100D01*
X88700Y-33100D02*
X75700Y-33100D01*
X75700Y-33100D02*
X75700Y-31100D01*
G54D15*
X76500Y-34100D02*
G75*
G03X76500Y-34100I-1600J0D01*
G74*
G01*
G54D13*
X73820Y-31400D02*
X75800Y-31400D01*
X75800Y-31400D02*
X75800Y-32400D01*
X75800Y-32400D02*
X73800Y-32400D01*
X73800Y-32400D02*
X73800Y-31400D01*
X73800Y-31650D02*
X74050Y-31400D01*
X86250Y-39250D02*
X78250Y-39250D01*
X78250Y-39250D02*
X78250Y-38250D01*
X78250Y-38250D02*
X86250Y-38250D01*
X86250Y-38250D02*
X86250Y-39250D01*
X85250Y-38250D02*
X85250Y-39250D01*
X77250Y-46500D02*
X77250Y-46500D01*
X77250Y-46500D02*
X77250Y-45500D01*
X77250Y-45500D02*
X87250Y-45500D01*
X87250Y-46500D02*
X77250Y-46500D01*
X78250Y-46500D02*
X78250Y-45500D01*
X87250Y-45500D02*
X89000Y-45500D01*
X89000Y-45500D02*
X89250Y-45500D01*
X89250Y-45500D02*
X89250Y-46500D01*
X89250Y-46500D02*
X87250Y-46500D01*
X89250Y-39500D02*
X89250Y-39500D01*
X89250Y-39500D02*
X89250Y-40500D01*
X89250Y-40500D02*
X79250Y-40500D01*
X79250Y-39500D02*
X89250Y-39500D01*
X88250Y-39500D02*
X88250Y-40500D01*
X79250Y-40500D02*
X77500Y-40500D01*
X77500Y-40500D02*
X77250Y-40500D01*
X77250Y-40500D02*
X77250Y-39500D01*
X77250Y-39500D02*
X79250Y-39500D01*
G54D14*
X75700Y-35700D02*
X76200Y-35700D01*
X76200Y-35700D02*
X76200Y-36700D01*
X76200Y-36700D02*
X75700Y-36700D01*
X75700Y-36700D02*
X75700Y-36700D01*
X75700Y-35200D02*
X88700Y-35200D01*
X88700Y-35200D02*
X88700Y-37200D01*
X88700Y-37200D02*
X75700Y-37200D01*
X75700Y-37200D02*
X75700Y-35200D01*
G54D13*
X72900Y-42600D02*
X72900Y-42600D01*
X72900Y-43600D02*
X72900Y-42600D01*
X72900Y-42600D02*
X72900Y-42600D01*
X72900Y-42600D02*
X76900Y-42600D01*
X76900Y-42600D02*
X76900Y-43600D01*
X76900Y-43600D02*
X72900Y-43600D01*
X73900Y-43600D02*
X73900Y-42600D01*
X83750Y-45500D02*
X83750Y-44500D01*
X83750Y-44500D02*
X85750Y-44500D01*
X85750Y-44500D02*
X85750Y-45500D01*
X85750Y-45500D02*
X83750Y-45500D01*
X81700Y-41400D02*
X81300Y-41400D01*
X81300Y-41400D02*
X81300Y-41800D01*
X81300Y-41800D02*
X78100Y-41800D01*
X78100Y-41800D02*
X78100Y-41000D01*
X78100Y-41000D02*
X81300Y-41000D01*
X81300Y-41000D02*
X81300Y-41400D01*
X81300Y-41600D02*
X81100Y-41800D01*
X77700Y-41400D02*
X78100Y-41400D01*
X87300Y-45000D02*
X87300Y-44600D01*
X87300Y-44600D02*
X86900Y-44600D01*
X86900Y-44600D02*
X86900Y-41400D01*
X86900Y-41400D02*
X87700Y-41400D01*
X87700Y-41400D02*
X87700Y-44600D01*
X87700Y-44600D02*
X87300Y-44600D01*
X87100Y-44600D02*
X86900Y-44400D01*
X87300Y-41000D02*
X87300Y-41400D01*
X86400Y-45000D02*
X86400Y-44600D01*
X86400Y-44600D02*
X86000Y-44600D01*
X86000Y-44600D02*
X86000Y-41400D01*
X86000Y-41400D02*
X86800Y-41400D01*
X86800Y-41400D02*
X86800Y-44600D01*
X86800Y-44600D02*
X86400Y-44600D01*
X86200Y-44600D02*
X86000Y-44400D01*
X86400Y-41000D02*
X86400Y-41400D01*
G54D16*
X90200Y-41000D02*
X90200Y-41500D01*
X90200Y-41500D02*
X89200Y-41500D01*
X89200Y-41500D02*
X89200Y-41000D01*
X90700Y-41000D02*
X90700Y-45000D01*
X90700Y-45000D02*
X88700Y-45000D01*
X88700Y-45000D02*
X88700Y-41000D01*
X88700Y-41000D02*
X90700Y-41000D01*
G54D13*
X72900Y-40900D02*
X72900Y-40900D01*
X72900Y-41900D02*
X72900Y-40900D01*
X72900Y-40900D02*
X72900Y-40900D01*
X72900Y-40900D02*
X76900Y-40900D01*
X76900Y-40900D02*
X76900Y-41900D01*
X76900Y-41900D02*
X72900Y-41900D01*
X73900Y-41900D02*
X73900Y-40900D01*
G54D10*
X89634Y-40768D02*
X91996Y-40768D01*
X91996Y-40768D02*
X91996Y-36831D01*
X91996Y-36831D02*
X89634Y-36831D01*
X89634Y-36831D02*
X89634Y-40768D01*
X74865Y-36831D02*
X72503Y-36831D01*
X72503Y-36831D02*
X72503Y-40768D01*
X72503Y-40768D02*
X74865Y-40768D01*
X74865Y-40768D02*
X74865Y-36831D01*
X92068Y-31065D02*
X92068Y-28703D01*
X92068Y-28703D02*
X88131Y-28703D01*
X88131Y-28703D02*
X88131Y-31065D01*
X88131Y-31065D02*
X92068Y-31065D01*
X76368Y-31065D02*
X76368Y-28703D01*
X76368Y-28703D02*
X72431Y-28703D01*
X72431Y-28703D02*
X72431Y-31065D01*
X72431Y-31065D02*
X76368Y-31065D01*
G54D13*
X72800Y-31700D02*
X73800Y-31700D01*
X73800Y-31700D02*
X73800Y-36700D01*
X73800Y-36700D02*
X72800Y-36700D01*
X72800Y-36700D02*
X72800Y-31700D01*
X72800Y-32700D02*
X73800Y-32700D01*
X90600Y-31700D02*
X91600Y-31700D01*
X91600Y-31700D02*
X91600Y-36700D01*
X91600Y-36700D02*
X90600Y-36700D01*
X90600Y-36700D02*
X90600Y-31700D01*
X90600Y-32700D02*
X91600Y-32700D01*
X73900Y-43850D02*
X73900Y-43850D01*
X72900Y-43850D02*
X73900Y-43850D01*
X73900Y-43850D02*
X73900Y-43850D01*
X73900Y-43850D02*
X73900Y-47850D01*
X73900Y-47850D02*
X72900Y-47850D01*
X72900Y-47850D02*
X72900Y-43850D01*
X72900Y-44850D02*
X73900Y-44850D01*
X75250Y-43850D02*
X75250Y-43850D01*
X74250Y-43850D02*
X75250Y-43850D01*
X75250Y-43850D02*
X75250Y-43850D01*
X75250Y-43850D02*
X75250Y-47850D01*
X75250Y-47850D02*
X74250Y-47850D01*
X74250Y-47850D02*
X74250Y-43850D01*
X74250Y-44850D02*
X75250Y-44850D01*
X76550Y-43850D02*
X76550Y-43850D01*
X75550Y-43850D02*
X76550Y-43850D01*
X76550Y-43850D02*
X76550Y-43850D01*
X76550Y-43850D02*
X76550Y-47850D01*
X76550Y-47850D02*
X75550Y-47850D01*
X75550Y-47850D02*
X75550Y-43850D01*
X75550Y-44850D02*
X76550Y-44850D01*
X83850Y-41500D02*
X83850Y-40500D01*
X83850Y-40500D02*
X85850Y-40500D01*
X85850Y-40500D02*
X85850Y-41500D01*
X85850Y-41500D02*
X83850Y-41500D01*
X90850Y-46050D02*
X91850Y-46050D01*
X91850Y-46050D02*
X91850Y-48050D01*
X91850Y-48050D02*
X90850Y-48050D01*
X90850Y-48050D02*
X90850Y-46050D01*
G54D16*
X86685Y-29142D02*
X86685Y-29628D01*
X86704Y-29685D01*
X86723Y-29714D01*
X86761Y-29742D01*
X86838Y-29742D01*
X86876Y-29714D01*
X86895Y-29685D01*
X86914Y-29628D01*
X86914Y-29142D01*
X87104Y-29742D02*
X87104Y-29142D01*
X87257Y-29142D01*
X87295Y-29171D01*
X87314Y-29200D01*
X87333Y-29257D01*
X87333Y-29342D01*
X87314Y-29400D01*
X87295Y-29428D01*
X87257Y-29457D01*
X87104Y-29457D01*
G54D13*
G54D16*
X86557Y-47892D02*
X86557Y-47292D01*
X86652Y-47292D01*
X86709Y-47321D01*
X86747Y-47378D01*
X86766Y-47435D01*
X86785Y-47550D01*
X86785Y-47635D01*
X86766Y-47750D01*
X86747Y-47807D01*
X86709Y-47864D01*
X86652Y-47892D01*
X86557Y-47892D01*
X87033Y-47292D02*
X87109Y-47292D01*
X87147Y-47321D01*
X87185Y-47378D01*
X87204Y-47492D01*
X87204Y-47692D01*
X87185Y-47807D01*
X87147Y-47864D01*
X87109Y-47892D01*
X87033Y-47892D01*
X86995Y-47864D01*
X86957Y-47807D01*
X86938Y-47692D01*
X86938Y-47492D01*
X86957Y-47378D01*
X86995Y-47321D01*
X87033Y-47292D01*
X87338Y-47292D02*
X87433Y-47892D01*
X87509Y-47464D01*
X87585Y-47892D01*
X87680Y-47292D01*
X87833Y-47892D02*
X87833Y-47292D01*
X88061Y-47892D01*
X88061Y-47292D01*
X88442Y-47292D02*
X88252Y-47292D01*
X88233Y-47578D01*
X88252Y-47550D01*
X88290Y-47521D01*
X88385Y-47521D01*
X88423Y-47550D01*
X88442Y-47578D01*
X88461Y-47635D01*
X88461Y-47778D01*
X88442Y-47835D01*
X88423Y-47864D01*
X88385Y-47892D01*
X88290Y-47892D01*
X88252Y-47864D01*
X88233Y-47835D01*
G54D13*
G54D15*
X89622Y-34647D02*
X89622Y-34933D01*
X89622Y-34790D02*
X89072Y-34790D01*
X89151Y-34838D01*
X89203Y-34885D01*
X89229Y-34933D01*
X89072Y-34338D02*
X89072Y-34290D01*
X89098Y-34242D01*
X89125Y-34219D01*
X89177Y-34195D01*
X89282Y-34171D01*
X89413Y-34171D01*
X89517Y-34195D01*
X89570Y-34219D01*
X89596Y-34242D01*
X89622Y-34290D01*
X89622Y-34338D01*
X89596Y-34385D01*
X89570Y-34409D01*
X89517Y-34433D01*
X89413Y-34457D01*
X89282Y-34457D01*
X89177Y-34433D01*
X89125Y-34409D01*
X89098Y-34385D01*
X89072Y-34338D01*
X89622Y-33957D02*
X89072Y-33957D01*
X89413Y-33909D02*
X89622Y-33766D01*
X89255Y-33766D02*
X89465Y-33957D01*
X79866Y-42325D02*
X79890Y-42298D01*
X79938Y-42272D01*
X80057Y-42272D01*
X80104Y-42298D01*
X80128Y-42325D01*
X80152Y-42377D01*
X80152Y-42429D01*
X80128Y-42508D01*
X79842Y-42822D01*
X80152Y-42822D01*
X80319Y-42272D02*
X80652Y-42272D01*
X80438Y-42822D01*
X80842Y-42822D02*
X80842Y-42272D01*
X80890Y-42613D02*
X81033Y-42822D01*
X81033Y-42455D02*
X80842Y-42665D01*
G54D17*
X83682Y-32183D02*
X83982Y-32183D01*
X83789Y-32883D01*
X84132Y-32250D02*
X84153Y-32216D01*
X84196Y-32183D01*
X84303Y-32183D01*
X84346Y-32216D01*
X84367Y-32250D01*
X84389Y-32316D01*
X84389Y-32383D01*
X84367Y-32483D01*
X84110Y-32883D01*
X84389Y-32883D01*
X84817Y-32883D02*
X84560Y-32883D01*
X84689Y-32883D02*
X84689Y-32183D01*
X84646Y-32283D01*
X84603Y-32350D01*
X84560Y-32383D01*
X85032Y-32883D02*
X85117Y-32883D01*
X85160Y-32850D01*
X85182Y-32816D01*
X85225Y-32716D01*
X85246Y-32583D01*
X85246Y-32316D01*
X85225Y-32250D01*
X85203Y-32216D01*
X85160Y-32183D01*
X85075Y-32183D01*
X85032Y-32216D01*
X85010Y-32250D01*
X84989Y-32316D01*
X84989Y-32483D01*
X85010Y-32550D01*
X85032Y-32583D01*
X85075Y-32616D01*
X85160Y-32616D01*
X85203Y-32583D01*
X85225Y-32550D01*
X85246Y-32483D01*
X85439Y-32883D02*
X85439Y-32183D01*
X85696Y-32883D02*
X85503Y-32483D01*
X85696Y-32183D02*
X85439Y-32583D01*
G54D13*
G54D15*
X75823Y-34158D02*
X75842Y-34175D01*
X75861Y-34225D01*
X75861Y-34258D01*
X75842Y-34308D01*
X75804Y-34341D01*
X75766Y-34358D01*
X75690Y-34375D01*
X75633Y-34375D01*
X75557Y-34358D01*
X75519Y-34341D01*
X75480Y-34308D01*
X75461Y-34258D01*
X75461Y-34225D01*
X75480Y-34175D01*
X75500Y-34158D01*
X75500Y-34025D02*
X75480Y-34008D01*
X75461Y-33975D01*
X75461Y-33891D01*
X75480Y-33858D01*
X75500Y-33841D01*
X75538Y-33825D01*
X75576Y-33825D01*
X75633Y-33841D01*
X75861Y-34041D01*
X75861Y-33825D01*
X74362Y-34608D02*
X74362Y-34808D01*
X74362Y-34708D02*
X73962Y-34708D01*
X74020Y-34741D01*
X74058Y-34775D01*
X74077Y-34808D01*
X73962Y-34391D02*
X73962Y-34358D01*
X73981Y-34325D01*
X74001Y-34308D01*
X74039Y-34291D01*
X74115Y-34275D01*
X74210Y-34275D01*
X74286Y-34291D01*
X74324Y-34308D01*
X74343Y-34325D01*
X74362Y-34358D01*
X74362Y-34391D01*
X74343Y-34425D01*
X74324Y-34441D01*
X74286Y-34458D01*
X74210Y-34475D01*
X74115Y-34475D01*
X74039Y-34458D01*
X74001Y-34441D01*
X73981Y-34425D01*
X73962Y-34391D01*
X74096Y-33708D02*
X74362Y-33708D01*
X74096Y-33858D02*
X74305Y-33858D01*
X74343Y-33841D01*
X74362Y-33808D01*
X74362Y-33758D01*
X74343Y-33725D01*
X74324Y-33708D01*
X74153Y-33425D02*
X74153Y-33541D01*
X74362Y-33541D02*
X73962Y-33541D01*
X73962Y-33375D01*
X74914Y-35527D02*
X74914Y-35070D01*
X75142Y-35298D02*
X74685Y-35298D01*
X74142Y-32461D02*
X74180Y-32461D01*
X74219Y-32480D01*
X74238Y-32500D01*
X74257Y-32538D01*
X74276Y-32614D01*
X74276Y-32709D01*
X74257Y-32785D01*
X74238Y-32823D01*
X74219Y-32842D01*
X74180Y-32861D01*
X74142Y-32861D01*
X74104Y-32842D01*
X74085Y-32823D01*
X74066Y-32785D01*
X74047Y-32709D01*
X74047Y-32614D01*
X74066Y-32538D01*
X74085Y-32500D01*
X74104Y-32480D01*
X74142Y-32461D01*
X74447Y-32823D02*
X74466Y-32842D01*
X74447Y-32861D01*
X74428Y-32842D01*
X74447Y-32823D01*
X74447Y-32861D01*
X74847Y-32861D02*
X74619Y-32861D01*
X74733Y-32861D02*
X74733Y-32461D01*
X74695Y-32519D01*
X74657Y-32557D01*
X74619Y-32576D01*
X75190Y-32595D02*
X75190Y-32861D01*
X75019Y-32595D02*
X75019Y-32804D01*
X75038Y-32842D01*
X75076Y-32861D01*
X75133Y-32861D01*
X75171Y-32842D01*
X75190Y-32823D01*
X75514Y-32652D02*
X75380Y-32652D01*
X75380Y-32861D02*
X75380Y-32461D01*
X75571Y-32461D01*
G54D16*
X87457Y-39042D02*
X87457Y-38442D01*
X87552Y-38442D01*
X87609Y-38471D01*
X87647Y-38528D01*
X87666Y-38585D01*
X87685Y-38700D01*
X87685Y-38785D01*
X87666Y-38900D01*
X87647Y-38957D01*
X87609Y-39014D01*
X87552Y-39042D01*
X87457Y-39042D01*
X87933Y-38442D02*
X88009Y-38442D01*
X88047Y-38471D01*
X88085Y-38528D01*
X88104Y-38642D01*
X88104Y-38842D01*
X88085Y-38957D01*
X88047Y-39014D01*
X88009Y-39042D01*
X87933Y-39042D01*
X87895Y-39014D01*
X87857Y-38957D01*
X87838Y-38842D01*
X87838Y-38642D01*
X87857Y-38528D01*
X87895Y-38471D01*
X87933Y-38442D01*
X88238Y-38442D02*
X88333Y-39042D01*
X88409Y-38614D01*
X88485Y-39042D01*
X88580Y-38442D01*
X88733Y-39042D02*
X88733Y-38442D01*
X88961Y-39042D01*
X88961Y-38442D01*
X89114Y-38442D02*
X89361Y-38442D01*
X89228Y-38671D01*
X89285Y-38671D01*
X89323Y-38700D01*
X89342Y-38728D01*
X89361Y-38785D01*
X89361Y-38928D01*
X89342Y-38985D01*
X89323Y-39014D01*
X89285Y-39042D01*
X89171Y-39042D01*
X89133Y-39014D01*
X89114Y-38985D01*
G54D13*
G54D16*
X89414Y-46292D02*
X89414Y-45692D01*
X89566Y-45692D01*
X89604Y-45721D01*
X89623Y-45750D01*
X89642Y-45807D01*
X89642Y-45892D01*
X89623Y-45950D01*
X89604Y-45978D01*
X89566Y-46007D01*
X89414Y-46007D01*
X89814Y-46292D02*
X89814Y-45692D01*
X89947Y-46121D01*
X90080Y-45692D01*
X90080Y-46292D01*
X90176Y-46350D02*
X90480Y-46350D01*
X90709Y-45978D02*
X90766Y-46007D01*
X90785Y-46035D01*
X90804Y-46092D01*
X90804Y-46178D01*
X90785Y-46235D01*
X90766Y-46264D01*
X90728Y-46292D01*
X90576Y-46292D01*
X90576Y-45692D01*
X90709Y-45692D01*
X90747Y-45721D01*
X90766Y-45750D01*
X90785Y-45807D01*
X90785Y-45864D01*
X90766Y-45921D01*
X90747Y-45950D01*
X90709Y-45978D01*
X90576Y-45978D01*
G54D13*
G54D16*
X76842Y-39392D02*
X76842Y-38792D01*
X76995Y-38792D01*
X77033Y-38821D01*
X77052Y-38850D01*
X77071Y-38907D01*
X77071Y-38992D01*
X77052Y-39050D01*
X77033Y-39078D01*
X76995Y-39107D01*
X76842Y-39107D01*
X77242Y-39392D02*
X77242Y-38792D01*
X77376Y-39221D01*
X77509Y-38792D01*
X77509Y-39392D01*
X77604Y-39450D02*
X77909Y-39450D01*
X77985Y-39221D02*
X78176Y-39221D01*
X77947Y-39392D02*
X78080Y-38792D01*
X78214Y-39392D01*
G54D13*
G54D17*
X83714Y-36283D02*
X84014Y-36283D01*
X83821Y-36983D01*
X84164Y-36350D02*
X84185Y-36316D01*
X84228Y-36283D01*
X84335Y-36283D01*
X84378Y-36316D01*
X84400Y-36350D01*
X84421Y-36416D01*
X84421Y-36483D01*
X84400Y-36583D01*
X84142Y-36983D01*
X84421Y-36983D01*
X84850Y-36983D02*
X84592Y-36983D01*
X84721Y-36983D02*
X84721Y-36283D01*
X84678Y-36383D01*
X84635Y-36450D01*
X84592Y-36483D01*
X85064Y-36983D02*
X85150Y-36983D01*
X85192Y-36950D01*
X85214Y-36916D01*
X85257Y-36816D01*
X85278Y-36683D01*
X85278Y-36416D01*
X85257Y-36350D01*
X85235Y-36316D01*
X85192Y-36283D01*
X85107Y-36283D01*
X85064Y-36316D01*
X85042Y-36350D01*
X85021Y-36416D01*
X85021Y-36583D01*
X85042Y-36650D01*
X85064Y-36683D01*
X85107Y-36716D01*
X85192Y-36716D01*
X85235Y-36683D01*
X85257Y-36650D01*
X85278Y-36583D01*
X85449Y-36783D02*
X85664Y-36783D01*
X85407Y-36983D02*
X85557Y-36283D01*
X85707Y-36983D01*
G54D13*
G54D16*
X74728Y-42228D02*
X74785Y-42257D01*
X74804Y-42285D01*
X74823Y-42342D01*
X74823Y-42428D01*
X74804Y-42485D01*
X74785Y-42514D01*
X74747Y-42542D01*
X74595Y-42542D01*
X74595Y-41942D01*
X74728Y-41942D01*
X74766Y-41971D01*
X74785Y-42000D01*
X74804Y-42057D01*
X74804Y-42114D01*
X74785Y-42171D01*
X74766Y-42200D01*
X74728Y-42228D01*
X74595Y-42228D01*
X74995Y-42542D02*
X74995Y-41942D01*
X75128Y-42371D01*
X75261Y-41942D01*
X75261Y-42542D01*
X75452Y-42542D02*
X75452Y-41942D01*
X75604Y-41942D01*
X75642Y-41971D01*
X75661Y-42000D01*
X75680Y-42057D01*
X75680Y-42142D01*
X75661Y-42200D01*
X75642Y-42228D01*
X75604Y-42257D01*
X75452Y-42257D01*
X76061Y-42542D02*
X75833Y-42542D01*
X75947Y-42542D02*
X75947Y-41942D01*
X75909Y-42028D01*
X75871Y-42085D01*
X75833Y-42114D01*
X76290Y-42200D02*
X76252Y-42171D01*
X76233Y-42142D01*
X76214Y-42085D01*
X76214Y-42057D01*
X76233Y-42000D01*
X76252Y-41971D01*
X76290Y-41942D01*
X76366Y-41942D01*
X76404Y-41971D01*
X76423Y-42000D01*
X76442Y-42057D01*
X76442Y-42085D01*
X76423Y-42142D01*
X76404Y-42171D01*
X76366Y-42200D01*
X76290Y-42200D01*
X76252Y-42228D01*
X76233Y-42257D01*
X76214Y-42314D01*
X76214Y-42428D01*
X76233Y-42485D01*
X76252Y-42514D01*
X76290Y-42542D01*
X76366Y-42542D01*
X76404Y-42514D01*
X76423Y-42485D01*
X76442Y-42428D01*
X76442Y-42314D01*
X76423Y-42257D01*
X76404Y-42228D01*
X76366Y-42200D01*
X76690Y-41942D02*
X76728Y-41942D01*
X76766Y-41971D01*
X76785Y-42000D01*
X76804Y-42057D01*
X76823Y-42171D01*
X76823Y-42314D01*
X76804Y-42428D01*
X76785Y-42485D01*
X76766Y-42514D01*
X76728Y-42542D01*
X76690Y-42542D01*
X76652Y-42514D01*
X76633Y-42485D01*
X76614Y-42428D01*
X76595Y-42314D01*
X76595Y-42171D01*
X76614Y-42057D01*
X76633Y-42000D01*
X76652Y-41971D01*
X76690Y-41942D01*
G54D15*
X78852Y-41572D02*
X78566Y-41572D01*
X78709Y-41572D02*
X78709Y-41022D01*
X78661Y-41101D01*
X78614Y-41153D01*
X78566Y-41179D01*
X79161Y-41022D02*
X79209Y-41022D01*
X79257Y-41048D01*
X79280Y-41075D01*
X79304Y-41127D01*
X79328Y-41232D01*
X79328Y-41363D01*
X79304Y-41467D01*
X79280Y-41520D01*
X79257Y-41546D01*
X79209Y-41572D01*
X79161Y-41572D01*
X79114Y-41546D01*
X79090Y-41520D01*
X79066Y-41467D01*
X79042Y-41363D01*
X79042Y-41232D01*
X79066Y-41127D01*
X79090Y-41075D01*
X79114Y-41048D01*
X79161Y-41022D01*
X79542Y-41572D02*
X79542Y-41022D01*
X79590Y-41363D02*
X79733Y-41572D01*
X79733Y-41205D02*
X79542Y-41415D01*
X87522Y-42697D02*
X87522Y-42983D01*
X87522Y-42840D02*
X86972Y-42840D01*
X87051Y-42888D01*
X87103Y-42935D01*
X87129Y-42983D01*
X86972Y-42388D02*
X86972Y-42340D01*
X86998Y-42292D01*
X87025Y-42269D01*
X87077Y-42245D01*
X87182Y-42221D01*
X87313Y-42221D01*
X87417Y-42245D01*
X87470Y-42269D01*
X87496Y-42292D01*
X87522Y-42340D01*
X87522Y-42388D01*
X87496Y-42435D01*
X87470Y-42459D01*
X87417Y-42483D01*
X87313Y-42507D01*
X87182Y-42507D01*
X87077Y-42483D01*
X87025Y-42459D01*
X86998Y-42435D01*
X86972Y-42388D01*
X87522Y-42007D02*
X86972Y-42007D01*
X87313Y-41959D02*
X87522Y-41816D01*
X87155Y-41816D02*
X87365Y-42007D01*
X86672Y-42647D02*
X86672Y-42933D01*
X86672Y-42790D02*
X86122Y-42790D01*
X86201Y-42838D01*
X86253Y-42885D01*
X86279Y-42933D01*
X86122Y-42338D02*
X86122Y-42290D01*
X86148Y-42242D01*
X86175Y-42219D01*
X86227Y-42195D01*
X86332Y-42171D01*
X86463Y-42171D01*
X86567Y-42195D01*
X86620Y-42219D01*
X86646Y-42242D01*
X86672Y-42290D01*
X86672Y-42338D01*
X86646Y-42385D01*
X86620Y-42409D01*
X86567Y-42433D01*
X86463Y-42457D01*
X86332Y-42457D01*
X86227Y-42433D01*
X86175Y-42409D01*
X86148Y-42385D01*
X86122Y-42338D01*
X86672Y-41957D02*
X86122Y-41957D01*
X86463Y-41909D02*
X86672Y-41766D01*
X86305Y-41766D02*
X86515Y-41957D01*
X89367Y-40702D02*
X89367Y-40202D01*
X89539Y-40202D01*
X89582Y-40226D01*
X89603Y-40250D01*
X89625Y-40297D01*
X89625Y-40369D01*
X89603Y-40416D01*
X89582Y-40440D01*
X89539Y-40464D01*
X89367Y-40464D01*
X89882Y-40416D02*
X89839Y-40392D01*
X89817Y-40369D01*
X89796Y-40321D01*
X89796Y-40297D01*
X89817Y-40250D01*
X89839Y-40226D01*
X89882Y-40202D01*
X89967Y-40202D01*
X90010Y-40226D01*
X90032Y-40250D01*
X90053Y-40297D01*
X90053Y-40321D01*
X90032Y-40369D01*
X90010Y-40392D01*
X89967Y-40416D01*
X89882Y-40416D01*
X89839Y-40440D01*
X89817Y-40464D01*
X89796Y-40511D01*
X89796Y-40607D01*
X89817Y-40654D01*
X89839Y-40678D01*
X89882Y-40702D01*
X89967Y-40702D01*
X90010Y-40678D01*
X90032Y-40654D01*
X90053Y-40607D01*
X90053Y-40511D01*
X90032Y-40464D01*
X90010Y-40440D01*
X89967Y-40416D01*
X89902Y-44057D02*
X89402Y-44057D01*
X89402Y-43961D01*
X89426Y-43904D01*
X89473Y-43866D01*
X89521Y-43847D01*
X89616Y-43828D01*
X89688Y-43828D01*
X89783Y-43847D01*
X89830Y-43866D01*
X89878Y-43904D01*
X89902Y-43961D01*
X89902Y-44057D01*
X89878Y-43676D02*
X89902Y-43619D01*
X89902Y-43523D01*
X89878Y-43485D01*
X89854Y-43466D01*
X89807Y-43447D01*
X89759Y-43447D01*
X89711Y-43466D01*
X89688Y-43485D01*
X89664Y-43523D01*
X89640Y-43599D01*
X89616Y-43638D01*
X89592Y-43657D01*
X89545Y-43676D01*
X89497Y-43676D01*
X89450Y-43657D01*
X89426Y-43638D01*
X89402Y-43599D01*
X89402Y-43504D01*
X89426Y-43447D01*
X89902Y-43066D02*
X89902Y-43295D01*
X89902Y-43180D02*
X89402Y-43180D01*
X89473Y-43219D01*
X89521Y-43257D01*
X89545Y-43295D01*
X89402Y-42933D02*
X89402Y-42685D01*
X89592Y-42819D01*
X89592Y-42761D01*
X89616Y-42723D01*
X89640Y-42704D01*
X89688Y-42685D01*
X89807Y-42685D01*
X89854Y-42704D01*
X89878Y-42723D01*
X89902Y-42761D01*
X89902Y-42876D01*
X89878Y-42914D01*
X89854Y-42933D01*
X89402Y-42438D02*
X89402Y-42400D01*
X89426Y-42361D01*
X89450Y-42342D01*
X89497Y-42323D01*
X89592Y-42304D01*
X89711Y-42304D01*
X89807Y-42323D01*
X89854Y-42342D01*
X89878Y-42361D01*
X89902Y-42400D01*
X89902Y-42438D01*
X89878Y-42476D01*
X89854Y-42495D01*
X89807Y-42514D01*
X89711Y-42533D01*
X89592Y-42533D01*
X89497Y-42514D01*
X89450Y-42495D01*
X89426Y-42476D01*
X89402Y-42438D01*
X89402Y-42171D02*
X89402Y-41904D01*
X89902Y-42076D01*
G54D16*
X75033Y-40692D02*
X75033Y-40092D01*
X75128Y-40092D01*
X75185Y-40121D01*
X75223Y-40178D01*
X75242Y-40235D01*
X75261Y-40350D01*
X75261Y-40435D01*
X75242Y-40550D01*
X75223Y-40607D01*
X75185Y-40664D01*
X75128Y-40692D01*
X75033Y-40692D01*
X75433Y-40692D02*
X75433Y-40092D01*
X75433Y-40378D02*
X75661Y-40378D01*
X75661Y-40692D02*
X75661Y-40092D01*
X75795Y-40092D02*
X76023Y-40092D01*
X75909Y-40692D02*
X75909Y-40092D01*
G54D10*
X90965Y-38959D02*
X90984Y-38903D01*
X91003Y-38884D01*
X91040Y-38865D01*
X91096Y-38865D01*
X91134Y-38884D01*
X91153Y-38903D01*
X91171Y-38940D01*
X91171Y-39090D01*
X90778Y-39090D01*
X90778Y-38959D01*
X90797Y-38921D01*
X90815Y-38903D01*
X90853Y-38884D01*
X90890Y-38884D01*
X90928Y-38903D01*
X90946Y-38921D01*
X90965Y-38959D01*
X90965Y-39090D01*
X90778Y-38734D02*
X90778Y-38490D01*
X90928Y-38621D01*
X90928Y-38565D01*
X90946Y-38528D01*
X90965Y-38509D01*
X91003Y-38490D01*
X91096Y-38490D01*
X91134Y-38509D01*
X91153Y-38528D01*
X91171Y-38565D01*
X91171Y-38678D01*
X91153Y-38715D01*
X91134Y-38734D01*
X73440Y-38959D02*
X73459Y-38903D01*
X73478Y-38884D01*
X73515Y-38865D01*
X73571Y-38865D01*
X73609Y-38884D01*
X73628Y-38903D01*
X73646Y-38940D01*
X73646Y-39090D01*
X73253Y-39090D01*
X73253Y-38959D01*
X73271Y-38921D01*
X73290Y-38903D01*
X73328Y-38884D01*
X73365Y-38884D01*
X73403Y-38903D01*
X73421Y-38921D01*
X73440Y-38959D01*
X73440Y-39090D01*
X73290Y-38715D02*
X73271Y-38696D01*
X73253Y-38659D01*
X73253Y-38565D01*
X73271Y-38528D01*
X73290Y-38509D01*
X73328Y-38490D01*
X73365Y-38490D01*
X73421Y-38509D01*
X73646Y-38734D01*
X73646Y-38490D01*
X89940Y-29640D02*
X89996Y-29659D01*
X90015Y-29678D01*
X90034Y-29715D01*
X90034Y-29771D01*
X90015Y-29809D01*
X89996Y-29828D01*
X89959Y-29846D01*
X89809Y-29846D01*
X89809Y-29453D01*
X89940Y-29453D01*
X89978Y-29471D01*
X89996Y-29490D01*
X90015Y-29528D01*
X90015Y-29565D01*
X89996Y-29603D01*
X89978Y-29621D01*
X89940Y-29640D01*
X89809Y-29640D01*
X90409Y-29846D02*
X90184Y-29846D01*
X90296Y-29846D02*
X90296Y-29453D01*
X90259Y-29509D01*
X90221Y-29546D01*
X90184Y-29565D01*
X74240Y-29640D02*
X74296Y-29659D01*
X74315Y-29678D01*
X74334Y-29715D01*
X74334Y-29771D01*
X74315Y-29809D01*
X74296Y-29828D01*
X74259Y-29846D01*
X74109Y-29846D01*
X74109Y-29453D01*
X74240Y-29453D01*
X74278Y-29471D01*
X74296Y-29490D01*
X74315Y-29528D01*
X74315Y-29565D01*
X74296Y-29603D01*
X74278Y-29621D01*
X74240Y-29640D01*
X74109Y-29640D01*
X74578Y-29453D02*
X74615Y-29453D01*
X74653Y-29471D01*
X74671Y-29490D01*
X74690Y-29528D01*
X74709Y-29603D01*
X74709Y-29696D01*
X74690Y-29771D01*
X74671Y-29809D01*
X74653Y-29828D01*
X74615Y-29846D01*
X74578Y-29846D01*
X74540Y-29828D01*
X74521Y-29809D01*
X74503Y-29771D01*
X74484Y-29696D01*
X74484Y-29603D01*
X74503Y-29528D01*
X74521Y-29490D01*
X74540Y-29471D01*
X74578Y-29453D01*
G54D16*
X73992Y-36399D02*
X73992Y-36323D01*
X74021Y-36285D01*
X74078Y-36247D01*
X74192Y-36228D01*
X74392Y-36228D01*
X74507Y-36247D01*
X74564Y-36285D01*
X74592Y-36323D01*
X74592Y-36399D01*
X74564Y-36438D01*
X74507Y-36476D01*
X74392Y-36495D01*
X74192Y-36495D01*
X74078Y-36476D01*
X74021Y-36438D01*
X73992Y-36399D01*
X73992Y-36057D02*
X74478Y-36057D01*
X74535Y-36038D01*
X74564Y-36019D01*
X74592Y-35980D01*
X74592Y-35904D01*
X74564Y-35866D01*
X74535Y-35847D01*
X74478Y-35828D01*
X73992Y-35828D01*
X73992Y-35695D02*
X73992Y-35466D01*
X74592Y-35580D02*
X73992Y-35580D01*
X90442Y-34359D02*
X89842Y-34359D01*
X90442Y-34169D02*
X89842Y-34169D01*
X90442Y-33940D01*
X89842Y-33940D01*
X74292Y-46240D02*
X73692Y-46240D01*
X73750Y-46069D02*
X73721Y-46049D01*
X73692Y-46011D01*
X73692Y-45916D01*
X73721Y-45878D01*
X73750Y-45859D01*
X73807Y-45840D01*
X73864Y-45840D01*
X73950Y-45859D01*
X74292Y-46088D01*
X74292Y-45840D01*
X74235Y-45440D02*
X74264Y-45459D01*
X74292Y-45516D01*
X74292Y-45554D01*
X74264Y-45611D01*
X74207Y-45649D01*
X74150Y-45669D01*
X74035Y-45688D01*
X73950Y-45688D01*
X73835Y-45669D01*
X73778Y-45649D01*
X73721Y-45611D01*
X73692Y-45554D01*
X73692Y-45516D01*
X73721Y-45459D01*
X73750Y-45440D01*
X75614Y-46209D02*
X75642Y-46152D01*
X75642Y-46057D01*
X75614Y-46019D01*
X75585Y-46000D01*
X75528Y-45980D01*
X75471Y-45980D01*
X75414Y-46000D01*
X75385Y-46019D01*
X75357Y-46057D01*
X75328Y-46133D01*
X75300Y-46171D01*
X75271Y-46190D01*
X75214Y-46209D01*
X75157Y-46209D01*
X75100Y-46190D01*
X75071Y-46171D01*
X75042Y-46133D01*
X75042Y-46038D01*
X75071Y-45980D01*
X75642Y-45809D02*
X75042Y-45809D01*
X75042Y-45657D01*
X75071Y-45619D01*
X75100Y-45600D01*
X75157Y-45580D01*
X75242Y-45580D01*
X75300Y-45600D01*
X75328Y-45619D01*
X75357Y-45657D01*
X75357Y-45809D01*
X75642Y-45409D02*
X75042Y-45409D01*
X76971Y-46276D02*
X76971Y-46085D01*
X77142Y-46314D02*
X76542Y-46180D01*
X77142Y-46047D01*
X76542Y-45838D02*
X76542Y-45800D01*
X76571Y-45761D01*
X76600Y-45742D01*
X76657Y-45723D01*
X76771Y-45704D01*
X76914Y-45704D01*
X77028Y-45723D01*
X77085Y-45742D01*
X77114Y-45761D01*
X77142Y-45800D01*
X77142Y-45838D01*
X77114Y-45876D01*
X77085Y-45895D01*
X77028Y-45914D01*
X76914Y-45933D01*
X76771Y-45933D01*
X76657Y-45914D01*
X76600Y-45895D01*
X76571Y-45876D01*
X76542Y-45838D01*
X76542Y-45571D02*
X76542Y-45323D01*
X76771Y-45457D01*
X76771Y-45400D01*
X76800Y-45361D01*
X76828Y-45342D01*
X76885Y-45323D01*
X77028Y-45323D01*
X77085Y-45342D01*
X77114Y-45361D01*
X77142Y-45400D01*
X77142Y-45514D01*
X77114Y-45552D01*
X77085Y-45571D01*
X84606Y-42121D02*
X84816Y-41721D01*
X84606Y-41721D02*
X84816Y-42121D01*
X84911Y-41721D02*
X85063Y-41721D01*
X84968Y-41521D02*
X84968Y-42035D01*
X84987Y-42092D01*
X85025Y-42121D01*
X85063Y-42121D01*
X85254Y-42121D02*
X85216Y-42092D01*
X85196Y-42035D01*
X85196Y-41521D01*
X91642Y-45783D02*
X91042Y-45783D01*
X91042Y-45630D01*
X91071Y-45592D01*
X91100Y-45573D01*
X91157Y-45554D01*
X91242Y-45554D01*
X91300Y-45573D01*
X91328Y-45592D01*
X91357Y-45630D01*
X91357Y-45783D01*
X91042Y-45421D02*
X91642Y-45326D01*
X91214Y-45250D01*
X91642Y-45173D01*
X91042Y-45078D01*
M02*
